M48
; DRILL file KiCad 10.0.5 date 2026-09-30T18:59:56
; FORMAT={-:-/ absolute / metric / decimal}
; #@! TF.CreationDate,2026-09-30T18:59:56+02:00
; #@! TF.GenerationSoftware,Kicad,Pcbnew,10.0.5
; #@! TF.FileFunction,Plated,1,4,PTH
FMAT,2
METRIC
; #@! TA.AperFunction,Plated,PTH,ViaDrill
T1C0.300
; #@! TA.AperFunction,Plated,PTH,ViaDrill
T2C0.400
; #@! TA.AperFunction,Plated,PTH,ComponentDrill
T3C0.750
; #@! TA.AperFunction,Plated,PTH,ComponentDrill
T4C1.000
; #@! TA.AperFunction,Plated,PTH,ComponentDrill
T5C1.900
%
G90
G05
T1
X86.13Y-87.819
X86.13Y-96.181
X86.15Y-115.65
X86.6Y-130.588
X87.426Y-91.736
X87.434Y-90.5
X87.55Y-113.25
X87.725Y-116.3
X87.95Y-120.65
X88.65Y-121.15
X88.825Y-109.75
X88.962Y-89.147
X89.0Y-113.575
X89.275Y-129.846
X89.35Y-119.525
X89.45Y-88.388
X89.837Y-113.25
X90.66Y-94.809
X90.775Y-120.65
X90.95Y-87.838
X91.15Y-126.555
X91.175Y-109.75
X91.75Y-130.7
X91.775Y-118.3
X92.0Y-125.5
X92.2Y-86.662
X92.2Y-90.662
X92.2Y-94.662
X92.45Y-106.557
X93.05Y-82.8
X93.167Y-127.467
X93.35Y-112.438
X93.614Y-111.581
X93.675Y-110.7
X93.9Y-126.555
X94.275Y-120.0
X94.335Y-95.589
X94.35Y-83.45
X94.406Y-117.819
X94.421Y-124.461
X94.6Y-56.3
X94.843Y-116.763
X95.306Y-135.89
X95.68Y-57.593
X96.0Y-121.5
X96.002Y-127.491
X96.063Y-115.543
X96.462Y-114.05
X96.611Y-133.201
X96.65Y-92.571
X97.075Y-115.25
X97.15Y-113.25
X97.225Y-128.6
X97.663Y-103.255
X97.722Y-85.751
X98.15Y-126.925
X98.35Y-132.2
X98.55Y-100.306
X98.725Y-125.525
X98.725Y-126.225
X99.0Y-131.211
X99.071Y-122.814
X99.325Y-125.325
X99.6Y-76.9
X99.725Y-123.425
X99.787Y-108.71
X99.832Y-58.807
X99.883Y-132.913
X100.0Y-113.5
X100.471Y-110.077
X100.72Y-120.1
X100.775Y-129.634
X101.14Y-83.98
X101.35Y-73.35
X101.45Y-125.21
X101.475Y-115.46
X101.5Y-108.825
X101.5Y-109.825
X101.5Y-112.175
X101.75Y-126.925
X101.8Y-74.1
X102.097Y-96.889
X102.325Y-117.5
X103.099Y-93.695
X103.141Y-132.921
X103.15Y-129.325
X103.196Y-109.839
X103.3Y-106.375
X103.3Y-112.175
X103.425Y-122.21
X103.45Y-126.41
X103.575Y-94.4
X103.832Y-75.757
X103.97Y-127.536
X104.0Y-105.5
X104.0Y-109.5
X104.082Y-99.807
X104.38Y-119.05
X104.424Y-88.208
X104.725Y-129.625
X104.782Y-95.257
X105.117Y-132.913
X105.125Y-129.125
X105.3Y-55.825
X105.4Y-106.25
X106.025Y-128.6
X106.082Y-93.957
X107.0Y-117.1
X107.0Y-117.9
X107.094Y-132.906
X107.5Y-109.378
X107.622Y-70.296
X108.0Y-105.5
X108.0Y-117.5
X108.0Y-129.5
X108.402Y-109.918
X108.825Y-66.3
X109.694Y-135.89
X110.556Y-63.88
X110.573Y-132.645
X110.67Y-113.154
X111.2Y-108.225
X111.7Y-126.475
X113.806Y-135.89
X114.198Y-65.758
X114.3Y-85.9
X114.875Y-61.15
X115.111Y-133.201
X116.21Y-63.625
X116.348Y-122.54
X117.575Y-124.953
X117.824Y-129.676
X118.3Y-112.73
X118.383Y-132.913
X119.2Y-122.38
X119.4Y-125.325
X119.5Y-131.55
X119.6Y-108.7
X119.81Y-72.715
X120.45Y-107.7
X120.696Y-115.866
X121.103Y-111.3
X121.641Y-132.921
X121.75Y-108.1
X122.03Y-87.95
X122.38Y-106.85
X122.5Y-130.65
X122.9Y-97.65
X123.0Y-105.4
X123.15Y-122.38
X123.617Y-132.913
X124.35Y-113.925
X124.5Y-128.088
X125.0Y-105.825
X125.2Y-122.38
X125.22Y-117.462
X125.594Y-132.906
X125.766Y-118.064
X126.186Y-69.156
X126.5Y-80.825
X127.255Y-125.33
X127.5Y-106.15
X127.92Y-86.3
X128.194Y-135.89
X128.208Y-116.363
X128.25Y-111.72
X128.787Y-114.3
X128.84Y-115.28
X129.08Y-116.115
X129.315Y-123.191
X129.538Y-81.2
X130.5Y-107.65
X131.137Y-109.75
X131.607Y-87.727
X132.0Y-133.425
X133.25Y-86.9
X133.31Y-74.568
X134.1Y-133.25
X134.419Y-88.417
X135.024Y-66.83
X135.25Y-87.025
X136.31Y-80.107
X137.0Y-87.075
X137.2Y-111.725
X138.1Y-91.825
X139.062Y-69.1
X139.198Y-97.092
X139.901Y-98.909
X139.901Y-105.009
X139.95Y-73.65
X140.01Y-94.25
X140.477Y-81.034
X141.4Y-84.5
X141.543Y-110.202
X141.6Y-75.9
X142.0Y-63.425
X142.875Y-61.75
X143.269Y-112.569
T2
X89.675Y-117.25
X90.637Y-115.543
X91.57Y-116.552
X104.025Y-56.2
X108.0Y-135.373
X109.5Y-52.32
X111.2Y-110.575
X111.7Y-124.125
X112.776Y-123.324
X119.4Y-127.675
X122.75Y-109.025
X122.75Y-112.275
X126.25Y-120.025
X126.25Y-125.675
X126.5Y-83.175
X126.5Y-130.95
X126.5Y-134.813
X127.425Y-56.1
X127.5Y-108.85
X130.2Y-135.788
X130.625Y-56.1
X133.25Y-89.6
X135.181Y-109.631
X135.503Y-110.426
X138.1Y-94.175
X139.901Y-93.091
X139.915Y-70.698
T3
X98.5Y-52.5
X100.5Y-52.5
T4
X93.14Y-59.8
X93.14Y-77.58
X95.68Y-59.8
X95.68Y-77.58
X98.22Y-59.8
X98.22Y-77.58
X100.76Y-59.8
X100.76Y-77.58
X103.3Y-59.8
X103.3Y-77.58
X105.84Y-59.8
X105.84Y-77.58
X108.38Y-59.8
X108.38Y-77.58
X110.92Y-59.8
X110.92Y-77.58
X113.46Y-59.8
X113.46Y-77.58
X116.0Y-59.8
X116.0Y-77.58
X118.54Y-59.8
X118.54Y-77.58
X121.08Y-59.8
X121.08Y-77.58
X123.62Y-59.8
X123.62Y-77.58
X125.46Y-52.0
X126.1Y-97.4
X126.16Y-59.8
X126.16Y-77.58
X128.0Y-52.0
X128.7Y-59.8
X128.7Y-77.58
X130.54Y-52.0
X131.1Y-97.4
X131.24Y-59.8
X131.24Y-77.58
X133.78Y-59.8
X133.78Y-77.58
X136.32Y-59.8
X136.32Y-77.58
X138.86Y-59.8
X138.86Y-77.58
X141.4Y-59.8
X141.4Y-77.58
T5
X106.1Y-98.3
X119.3Y-98.3
M30
