%TF.GenerationSoftware,KiCad,Pcbnew,10.0.5*%
%TF.CreationDate,2026-10-03T15:17:03+02:00*%
%TF.ProjectId,sst_v2,7373745f-7632-42e6-9b69-6361645f7063,3*%
%TF.SameCoordinates,Original*%
%TF.FileFunction,Legend,Bot*%
%TF.FilePolarity,Positive*%
%FSLAX46Y46*%
G04 Gerber Fmt 4.6, Leading zero omitted, Abs format (unit mm)*
G04 Created by KiCad (PCBNEW 10.0.5) date 2026-10-03 15:17:03*
%MOMM*%
%LPD*%
G01*
G04 APERTURE LIST*
%ADD10C,0.150000*%
%ADD11C,0.120000*%
G04 APERTURE END LIST*
D10*
X127376189Y-133850594D02*
X127376189Y-133050594D01*
X126995237Y-133850594D02*
X126995237Y-133050594D01*
X126995237Y-133050594D02*
X126728571Y-133622022D01*
X126728571Y-133622022D02*
X126461904Y-133050594D01*
X126461904Y-133050594D02*
X126461904Y-133850594D01*
X126080951Y-133050594D02*
X126080951Y-133698213D01*
X126080951Y-133698213D02*
X126042856Y-133774403D01*
X126042856Y-133774403D02*
X126004761Y-133812499D01*
X126004761Y-133812499D02*
X125928570Y-133850594D01*
X125928570Y-133850594D02*
X125776189Y-133850594D01*
X125776189Y-133850594D02*
X125699999Y-133812499D01*
X125699999Y-133812499D02*
X125661904Y-133774403D01*
X125661904Y-133774403D02*
X125623808Y-133698213D01*
X125623808Y-133698213D02*
X125623808Y-133050594D01*
X93609523Y-119275390D02*
X93685713Y-119237295D01*
X93685713Y-119237295D02*
X93799999Y-119237295D01*
X93799999Y-119237295D02*
X93914285Y-119275390D01*
X93914285Y-119275390D02*
X93990475Y-119351580D01*
X93990475Y-119351580D02*
X94028570Y-119427771D01*
X94028570Y-119427771D02*
X94066666Y-119580152D01*
X94066666Y-119580152D02*
X94066666Y-119694438D01*
X94066666Y-119694438D02*
X94028570Y-119846819D01*
X94028570Y-119846819D02*
X93990475Y-119923009D01*
X93990475Y-119923009D02*
X93914285Y-119999200D01*
X93914285Y-119999200D02*
X93799999Y-120037295D01*
X93799999Y-120037295D02*
X93723808Y-120037295D01*
X93723808Y-120037295D02*
X93609523Y-119999200D01*
X93609523Y-119999200D02*
X93571427Y-119961104D01*
X93571427Y-119961104D02*
X93571427Y-119694438D01*
X93571427Y-119694438D02*
X93723808Y-119694438D01*
X93228570Y-120037295D02*
X93228570Y-119237295D01*
X93228570Y-119237295D02*
X92771427Y-120037295D01*
X92771427Y-120037295D02*
X92771427Y-119237295D01*
X92390475Y-120037295D02*
X92390475Y-119237295D01*
X92390475Y-119237295D02*
X92199999Y-119237295D01*
X92199999Y-119237295D02*
X92085713Y-119275390D01*
X92085713Y-119275390D02*
X92009523Y-119351580D01*
X92009523Y-119351580D02*
X91971428Y-119427771D01*
X91971428Y-119427771D02*
X91933332Y-119580152D01*
X91933332Y-119580152D02*
X91933332Y-119694438D01*
X91933332Y-119694438D02*
X91971428Y-119846819D01*
X91971428Y-119846819D02*
X92009523Y-119923009D01*
X92009523Y-119923009D02*
X92085713Y-119999200D01*
X92085713Y-119999200D02*
X92199999Y-120037295D01*
X92199999Y-120037295D02*
X92390475Y-120037295D01*
X105387142Y-109287295D02*
X105653809Y-108906342D01*
X105844285Y-109287295D02*
X105844285Y-108487295D01*
X105844285Y-108487295D02*
X105539523Y-108487295D01*
X105539523Y-108487295D02*
X105463333Y-108525390D01*
X105463333Y-108525390D02*
X105425238Y-108563485D01*
X105425238Y-108563485D02*
X105387142Y-108639676D01*
X105387142Y-108639676D02*
X105387142Y-108753961D01*
X105387142Y-108753961D02*
X105425238Y-108830152D01*
X105425238Y-108830152D02*
X105463333Y-108868247D01*
X105463333Y-108868247D02*
X105539523Y-108906342D01*
X105539523Y-108906342D02*
X105844285Y-108906342D01*
X105044285Y-108868247D02*
X104777619Y-108868247D01*
X104663333Y-109287295D02*
X105044285Y-109287295D01*
X105044285Y-109287295D02*
X105044285Y-108487295D01*
X105044285Y-108487295D02*
X104663333Y-108487295D01*
X104053809Y-108868247D02*
X104320475Y-108868247D01*
X104320475Y-109287295D02*
X104320475Y-108487295D01*
X104320475Y-108487295D02*
X103939523Y-108487295D01*
X88152380Y-130367295D02*
X88152380Y-129567295D01*
X88152380Y-129567295D02*
X87961904Y-129567295D01*
X87961904Y-129567295D02*
X87847618Y-129605390D01*
X87847618Y-129605390D02*
X87771428Y-129681580D01*
X87771428Y-129681580D02*
X87733333Y-129757771D01*
X87733333Y-129757771D02*
X87695237Y-129910152D01*
X87695237Y-129910152D02*
X87695237Y-130024438D01*
X87695237Y-130024438D02*
X87733333Y-130176819D01*
X87733333Y-130176819D02*
X87771428Y-130253009D01*
X87771428Y-130253009D02*
X87847618Y-130329200D01*
X87847618Y-130329200D02*
X87961904Y-130367295D01*
X87961904Y-130367295D02*
X88152380Y-130367295D01*
X87466666Y-129567295D02*
X87199999Y-130367295D01*
X87199999Y-130367295D02*
X86933333Y-129567295D01*
X86666666Y-130367295D02*
X86666666Y-129567295D01*
X86666666Y-129567295D02*
X86476190Y-129567295D01*
X86476190Y-129567295D02*
X86361904Y-129605390D01*
X86361904Y-129605390D02*
X86285714Y-129681580D01*
X86285714Y-129681580D02*
X86247619Y-129757771D01*
X86247619Y-129757771D02*
X86209523Y-129910152D01*
X86209523Y-129910152D02*
X86209523Y-130024438D01*
X86209523Y-130024438D02*
X86247619Y-130176819D01*
X86247619Y-130176819D02*
X86285714Y-130253009D01*
X86285714Y-130253009D02*
X86361904Y-130329200D01*
X86361904Y-130329200D02*
X86476190Y-130367295D01*
X86476190Y-130367295D02*
X86666666Y-130367295D01*
X85866666Y-130367295D02*
X85866666Y-129567295D01*
X85866666Y-129567295D02*
X85676190Y-129567295D01*
X85676190Y-129567295D02*
X85561904Y-129605390D01*
X85561904Y-129605390D02*
X85485714Y-129681580D01*
X85485714Y-129681580D02*
X85447619Y-129757771D01*
X85447619Y-129757771D02*
X85409523Y-129910152D01*
X85409523Y-129910152D02*
X85409523Y-130024438D01*
X85409523Y-130024438D02*
X85447619Y-130176819D01*
X85447619Y-130176819D02*
X85485714Y-130253009D01*
X85485714Y-130253009D02*
X85561904Y-130329200D01*
X85561904Y-130329200D02*
X85676190Y-130367295D01*
X85676190Y-130367295D02*
X85866666Y-130367295D01*
X118797619Y-119887295D02*
X118302381Y-119887295D01*
X118302381Y-119887295D02*
X118569047Y-120192057D01*
X118569047Y-120192057D02*
X118454762Y-120192057D01*
X118454762Y-120192057D02*
X118378571Y-120230152D01*
X118378571Y-120230152D02*
X118340476Y-120268247D01*
X118340476Y-120268247D02*
X118302381Y-120344438D01*
X118302381Y-120344438D02*
X118302381Y-120534914D01*
X118302381Y-120534914D02*
X118340476Y-120611104D01*
X118340476Y-120611104D02*
X118378571Y-120649200D01*
X118378571Y-120649200D02*
X118454762Y-120687295D01*
X118454762Y-120687295D02*
X118683333Y-120687295D01*
X118683333Y-120687295D02*
X118759524Y-120649200D01*
X118759524Y-120649200D02*
X118797619Y-120611104D01*
X117997619Y-119963485D02*
X117959523Y-119925390D01*
X117959523Y-119925390D02*
X117883333Y-119887295D01*
X117883333Y-119887295D02*
X117692857Y-119887295D01*
X117692857Y-119887295D02*
X117616666Y-119925390D01*
X117616666Y-119925390D02*
X117578571Y-119963485D01*
X117578571Y-119963485D02*
X117540476Y-120039676D01*
X117540476Y-120039676D02*
X117540476Y-120115866D01*
X117540476Y-120115866D02*
X117578571Y-120230152D01*
X117578571Y-120230152D02*
X118035714Y-120687295D01*
X118035714Y-120687295D02*
X117540476Y-120687295D01*
X117197618Y-120687295D02*
X117197618Y-119887295D01*
X116740475Y-120687295D02*
X117083333Y-120230152D01*
X116740475Y-119887295D02*
X117197618Y-120344438D01*
X91902380Y-86456247D02*
X91635714Y-86456247D01*
X91521428Y-86875295D02*
X91902380Y-86875295D01*
X91902380Y-86875295D02*
X91902380Y-86075295D01*
X91902380Y-86075295D02*
X91521428Y-86075295D01*
X91254761Y-86075295D02*
X90721427Y-86875295D01*
X90721427Y-86075295D02*
X91254761Y-86875295D01*
X89959522Y-86799104D02*
X89997618Y-86837200D01*
X89997618Y-86837200D02*
X90111903Y-86875295D01*
X90111903Y-86875295D02*
X90188094Y-86875295D01*
X90188094Y-86875295D02*
X90302380Y-86837200D01*
X90302380Y-86837200D02*
X90378570Y-86761009D01*
X90378570Y-86761009D02*
X90416665Y-86684819D01*
X90416665Y-86684819D02*
X90454761Y-86532438D01*
X90454761Y-86532438D02*
X90454761Y-86418152D01*
X90454761Y-86418152D02*
X90416665Y-86265771D01*
X90416665Y-86265771D02*
X90378570Y-86189580D01*
X90378570Y-86189580D02*
X90302380Y-86113390D01*
X90302380Y-86113390D02*
X90188094Y-86075295D01*
X90188094Y-86075295D02*
X90111903Y-86075295D01*
X90111903Y-86075295D02*
X89997618Y-86113390D01*
X89997618Y-86113390D02*
X89959522Y-86151485D01*
X102370512Y-122392093D02*
X102256226Y-122430188D01*
X102256226Y-122430188D02*
X102065750Y-122430188D01*
X102065750Y-122430188D02*
X101989559Y-122392093D01*
X101989559Y-122392093D02*
X101951464Y-122353997D01*
X101951464Y-122353997D02*
X101913369Y-122277807D01*
X101913369Y-122277807D02*
X101913369Y-122201616D01*
X101913369Y-122201616D02*
X101951464Y-122125426D01*
X101951464Y-122125426D02*
X101989559Y-122087331D01*
X101989559Y-122087331D02*
X102065750Y-122049235D01*
X102065750Y-122049235D02*
X102218131Y-122011140D01*
X102218131Y-122011140D02*
X102294321Y-121973045D01*
X102294321Y-121973045D02*
X102332416Y-121934950D01*
X102332416Y-121934950D02*
X102370512Y-121858759D01*
X102370512Y-121858759D02*
X102370512Y-121782569D01*
X102370512Y-121782569D02*
X102332416Y-121706378D01*
X102332416Y-121706378D02*
X102294321Y-121668283D01*
X102294321Y-121668283D02*
X102218131Y-121630188D01*
X102218131Y-121630188D02*
X102027654Y-121630188D01*
X102027654Y-121630188D02*
X101913369Y-121668283D01*
X101570511Y-122430188D02*
X101570511Y-121630188D01*
X101570511Y-122011140D02*
X101113368Y-122011140D01*
X101113368Y-122430188D02*
X101113368Y-121630188D01*
X100275273Y-122353997D02*
X100313369Y-122392093D01*
X100313369Y-122392093D02*
X100427654Y-122430188D01*
X100427654Y-122430188D02*
X100503845Y-122430188D01*
X100503845Y-122430188D02*
X100618131Y-122392093D01*
X100618131Y-122392093D02*
X100694321Y-122315902D01*
X100694321Y-122315902D02*
X100732416Y-122239712D01*
X100732416Y-122239712D02*
X100770512Y-122087331D01*
X100770512Y-122087331D02*
X100770512Y-121973045D01*
X100770512Y-121973045D02*
X100732416Y-121820664D01*
X100732416Y-121820664D02*
X100694321Y-121744473D01*
X100694321Y-121744473D02*
X100618131Y-121668283D01*
X100618131Y-121668283D02*
X100503845Y-121630188D01*
X100503845Y-121630188D02*
X100427654Y-121630188D01*
X100427654Y-121630188D02*
X100313369Y-121668283D01*
X100313369Y-121668283D02*
X100275273Y-121706378D01*
X99932416Y-122430188D02*
X99932416Y-121630188D01*
X99475273Y-122430188D02*
X99818131Y-121973045D01*
X99475273Y-121630188D02*
X99932416Y-122087331D01*
X90409523Y-127035389D02*
X90485713Y-126997294D01*
X90485713Y-126997294D02*
X90599999Y-126997294D01*
X90599999Y-126997294D02*
X90714285Y-127035389D01*
X90714285Y-127035389D02*
X90790475Y-127111579D01*
X90790475Y-127111579D02*
X90828570Y-127187770D01*
X90828570Y-127187770D02*
X90866666Y-127340151D01*
X90866666Y-127340151D02*
X90866666Y-127454437D01*
X90866666Y-127454437D02*
X90828570Y-127606818D01*
X90828570Y-127606818D02*
X90790475Y-127683008D01*
X90790475Y-127683008D02*
X90714285Y-127759199D01*
X90714285Y-127759199D02*
X90599999Y-127797294D01*
X90599999Y-127797294D02*
X90523808Y-127797294D01*
X90523808Y-127797294D02*
X90409523Y-127759199D01*
X90409523Y-127759199D02*
X90371427Y-127721103D01*
X90371427Y-127721103D02*
X90371427Y-127454437D01*
X90371427Y-127454437D02*
X90523808Y-127454437D01*
X90028570Y-127797294D02*
X90028570Y-126997294D01*
X90028570Y-126997294D02*
X89571427Y-127797294D01*
X89571427Y-127797294D02*
X89571427Y-126997294D01*
X89190475Y-127797294D02*
X89190475Y-126997294D01*
X89190475Y-126997294D02*
X88999999Y-126997294D01*
X88999999Y-126997294D02*
X88885713Y-127035389D01*
X88885713Y-127035389D02*
X88809523Y-127111579D01*
X88809523Y-127111579D02*
X88771428Y-127187770D01*
X88771428Y-127187770D02*
X88733332Y-127340151D01*
X88733332Y-127340151D02*
X88733332Y-127454437D01*
X88733332Y-127454437D02*
X88771428Y-127606818D01*
X88771428Y-127606818D02*
X88809523Y-127683008D01*
X88809523Y-127683008D02*
X88885713Y-127759199D01*
X88885713Y-127759199D02*
X88999999Y-127797294D01*
X88999999Y-127797294D02*
X89190475Y-127797294D01*
X97795833Y-112287295D02*
X97300595Y-112287295D01*
X97300595Y-112287295D02*
X97567261Y-112592057D01*
X97567261Y-112592057D02*
X97452976Y-112592057D01*
X97452976Y-112592057D02*
X97376785Y-112630152D01*
X97376785Y-112630152D02*
X97338690Y-112668247D01*
X97338690Y-112668247D02*
X97300595Y-112744438D01*
X97300595Y-112744438D02*
X97300595Y-112934914D01*
X97300595Y-112934914D02*
X97338690Y-113011104D01*
X97338690Y-113011104D02*
X97376785Y-113049200D01*
X97376785Y-113049200D02*
X97452976Y-113087295D01*
X97452976Y-113087295D02*
X97681547Y-113087295D01*
X97681547Y-113087295D02*
X97757738Y-113049200D01*
X97757738Y-113049200D02*
X97795833Y-113011104D01*
X97072023Y-112287295D02*
X96805356Y-113087295D01*
X96805356Y-113087295D02*
X96538690Y-112287295D01*
X96119642Y-112287295D02*
X96043452Y-112287295D01*
X96043452Y-112287295D02*
X95967261Y-112325390D01*
X95967261Y-112325390D02*
X95929166Y-112363485D01*
X95929166Y-112363485D02*
X95891071Y-112439676D01*
X95891071Y-112439676D02*
X95852976Y-112592057D01*
X95852976Y-112592057D02*
X95852976Y-112782533D01*
X95852976Y-112782533D02*
X95891071Y-112934914D01*
X95891071Y-112934914D02*
X95929166Y-113011104D01*
X95929166Y-113011104D02*
X95967261Y-113049200D01*
X95967261Y-113049200D02*
X96043452Y-113087295D01*
X96043452Y-113087295D02*
X96119642Y-113087295D01*
X96119642Y-113087295D02*
X96195833Y-113049200D01*
X96195833Y-113049200D02*
X96233928Y-113011104D01*
X96233928Y-113011104D02*
X96272023Y-112934914D01*
X96272023Y-112934914D02*
X96310119Y-112782533D01*
X96310119Y-112782533D02*
X96310119Y-112592057D01*
X96310119Y-112592057D02*
X96272023Y-112439676D01*
X96272023Y-112439676D02*
X96233928Y-112363485D01*
X96233928Y-112363485D02*
X96195833Y-112325390D01*
X96195833Y-112325390D02*
X96119642Y-112287295D01*
X95548214Y-112858723D02*
X95167261Y-112858723D01*
X95624404Y-113087295D02*
X95357737Y-112287295D01*
X95357737Y-112287295D02*
X95091071Y-113087295D01*
X92776189Y-125571104D02*
X92814285Y-125609200D01*
X92814285Y-125609200D02*
X92928570Y-125647295D01*
X92928570Y-125647295D02*
X93004761Y-125647295D01*
X93004761Y-125647295D02*
X93119047Y-125609200D01*
X93119047Y-125609200D02*
X93195237Y-125533009D01*
X93195237Y-125533009D02*
X93233332Y-125456819D01*
X93233332Y-125456819D02*
X93271428Y-125304438D01*
X93271428Y-125304438D02*
X93271428Y-125190152D01*
X93271428Y-125190152D02*
X93233332Y-125037771D01*
X93233332Y-125037771D02*
X93195237Y-124961580D01*
X93195237Y-124961580D02*
X93119047Y-124885390D01*
X93119047Y-124885390D02*
X93004761Y-124847295D01*
X93004761Y-124847295D02*
X92928570Y-124847295D01*
X92928570Y-124847295D02*
X92814285Y-124885390D01*
X92814285Y-124885390D02*
X92776189Y-124923485D01*
X92052380Y-125647295D02*
X92433332Y-125647295D01*
X92433332Y-125647295D02*
X92433332Y-124847295D01*
X91785713Y-125647295D02*
X91785713Y-124847295D01*
X91328570Y-125647295D02*
X91671428Y-125190152D01*
X91328570Y-124847295D02*
X91785713Y-125304438D01*
X110609523Y-55275390D02*
X110685713Y-55237295D01*
X110685713Y-55237295D02*
X110799999Y-55237295D01*
X110799999Y-55237295D02*
X110914285Y-55275390D01*
X110914285Y-55275390D02*
X110990475Y-55351580D01*
X110990475Y-55351580D02*
X111028570Y-55427771D01*
X111028570Y-55427771D02*
X111066666Y-55580152D01*
X111066666Y-55580152D02*
X111066666Y-55694438D01*
X111066666Y-55694438D02*
X111028570Y-55846819D01*
X111028570Y-55846819D02*
X110990475Y-55923009D01*
X110990475Y-55923009D02*
X110914285Y-55999200D01*
X110914285Y-55999200D02*
X110799999Y-56037295D01*
X110799999Y-56037295D02*
X110723808Y-56037295D01*
X110723808Y-56037295D02*
X110609523Y-55999200D01*
X110609523Y-55999200D02*
X110571427Y-55961104D01*
X110571427Y-55961104D02*
X110571427Y-55694438D01*
X110571427Y-55694438D02*
X110723808Y-55694438D01*
X110228570Y-56037295D02*
X110228570Y-55237295D01*
X110228570Y-55237295D02*
X109771427Y-56037295D01*
X109771427Y-56037295D02*
X109771427Y-55237295D01*
X109390475Y-56037295D02*
X109390475Y-55237295D01*
X109390475Y-55237295D02*
X109199999Y-55237295D01*
X109199999Y-55237295D02*
X109085713Y-55275390D01*
X109085713Y-55275390D02*
X109009523Y-55351580D01*
X109009523Y-55351580D02*
X108971428Y-55427771D01*
X108971428Y-55427771D02*
X108933332Y-55580152D01*
X108933332Y-55580152D02*
X108933332Y-55694438D01*
X108933332Y-55694438D02*
X108971428Y-55846819D01*
X108971428Y-55846819D02*
X109009523Y-55923009D01*
X109009523Y-55923009D02*
X109085713Y-55999200D01*
X109085713Y-55999200D02*
X109199999Y-56037295D01*
X109199999Y-56037295D02*
X109390475Y-56037295D01*
X117014285Y-50791581D02*
X116747618Y-51591581D01*
X116747618Y-51591581D02*
X116480952Y-50791581D01*
X115947619Y-51172533D02*
X115833333Y-51210628D01*
X115833333Y-51210628D02*
X115795238Y-51248724D01*
X115795238Y-51248724D02*
X115757142Y-51324914D01*
X115757142Y-51324914D02*
X115757142Y-51439200D01*
X115757142Y-51439200D02*
X115795238Y-51515390D01*
X115795238Y-51515390D02*
X115833333Y-51553486D01*
X115833333Y-51553486D02*
X115909523Y-51591581D01*
X115909523Y-51591581D02*
X116214285Y-51591581D01*
X116214285Y-51591581D02*
X116214285Y-50791581D01*
X116214285Y-50791581D02*
X115947619Y-50791581D01*
X115947619Y-50791581D02*
X115871428Y-50829676D01*
X115871428Y-50829676D02*
X115833333Y-50867771D01*
X115833333Y-50867771D02*
X115795238Y-50943962D01*
X115795238Y-50943962D02*
X115795238Y-51020152D01*
X115795238Y-51020152D02*
X115833333Y-51096343D01*
X115833333Y-51096343D02*
X115871428Y-51134438D01*
X115871428Y-51134438D02*
X115947619Y-51172533D01*
X115947619Y-51172533D02*
X116214285Y-51172533D01*
X115452381Y-51363009D02*
X115071428Y-51363009D01*
X115528571Y-51591581D02*
X115261904Y-50791581D01*
X115261904Y-50791581D02*
X114995238Y-51591581D01*
X114842857Y-50791581D02*
X114385714Y-50791581D01*
X114614286Y-51591581D02*
X114614286Y-50791581D01*
X114909523Y-125525390D02*
X114985713Y-125487295D01*
X114985713Y-125487295D02*
X115099999Y-125487295D01*
X115099999Y-125487295D02*
X115214285Y-125525390D01*
X115214285Y-125525390D02*
X115290475Y-125601580D01*
X115290475Y-125601580D02*
X115328570Y-125677771D01*
X115328570Y-125677771D02*
X115366666Y-125830152D01*
X115366666Y-125830152D02*
X115366666Y-125944438D01*
X115366666Y-125944438D02*
X115328570Y-126096819D01*
X115328570Y-126096819D02*
X115290475Y-126173009D01*
X115290475Y-126173009D02*
X115214285Y-126249200D01*
X115214285Y-126249200D02*
X115099999Y-126287295D01*
X115099999Y-126287295D02*
X115023808Y-126287295D01*
X115023808Y-126287295D02*
X114909523Y-126249200D01*
X114909523Y-126249200D02*
X114871427Y-126211104D01*
X114871427Y-126211104D02*
X114871427Y-125944438D01*
X114871427Y-125944438D02*
X115023808Y-125944438D01*
X114528570Y-126287295D02*
X114528570Y-125487295D01*
X114528570Y-125487295D02*
X114071427Y-126287295D01*
X114071427Y-126287295D02*
X114071427Y-125487295D01*
X113690475Y-126287295D02*
X113690475Y-125487295D01*
X113690475Y-125487295D02*
X113499999Y-125487295D01*
X113499999Y-125487295D02*
X113385713Y-125525390D01*
X113385713Y-125525390D02*
X113309523Y-125601580D01*
X113309523Y-125601580D02*
X113271428Y-125677771D01*
X113271428Y-125677771D02*
X113233332Y-125830152D01*
X113233332Y-125830152D02*
X113233332Y-125944438D01*
X113233332Y-125944438D02*
X113271428Y-126096819D01*
X113271428Y-126096819D02*
X113309523Y-126173009D01*
X113309523Y-126173009D02*
X113385713Y-126249200D01*
X113385713Y-126249200D02*
X113499999Y-126287295D01*
X113499999Y-126287295D02*
X113690475Y-126287295D01*
X124884761Y-105087295D02*
X124618094Y-105887295D01*
X124618094Y-105887295D02*
X124351428Y-105087295D01*
X123818095Y-105468247D02*
X123703809Y-105506342D01*
X123703809Y-105506342D02*
X123665714Y-105544438D01*
X123665714Y-105544438D02*
X123627618Y-105620628D01*
X123627618Y-105620628D02*
X123627618Y-105734914D01*
X123627618Y-105734914D02*
X123665714Y-105811104D01*
X123665714Y-105811104D02*
X123703809Y-105849200D01*
X123703809Y-105849200D02*
X123779999Y-105887295D01*
X123779999Y-105887295D02*
X124084761Y-105887295D01*
X124084761Y-105887295D02*
X124084761Y-105087295D01*
X124084761Y-105087295D02*
X123818095Y-105087295D01*
X123818095Y-105087295D02*
X123741904Y-105125390D01*
X123741904Y-105125390D02*
X123703809Y-105163485D01*
X123703809Y-105163485D02*
X123665714Y-105239676D01*
X123665714Y-105239676D02*
X123665714Y-105315866D01*
X123665714Y-105315866D02*
X123703809Y-105392057D01*
X123703809Y-105392057D02*
X123741904Y-105430152D01*
X123741904Y-105430152D02*
X123818095Y-105468247D01*
X123818095Y-105468247D02*
X124084761Y-105468247D01*
X123322857Y-105849200D02*
X123208571Y-105887295D01*
X123208571Y-105887295D02*
X123018095Y-105887295D01*
X123018095Y-105887295D02*
X122941904Y-105849200D01*
X122941904Y-105849200D02*
X122903809Y-105811104D01*
X122903809Y-105811104D02*
X122865714Y-105734914D01*
X122865714Y-105734914D02*
X122865714Y-105658723D01*
X122865714Y-105658723D02*
X122903809Y-105582533D01*
X122903809Y-105582533D02*
X122941904Y-105544438D01*
X122941904Y-105544438D02*
X123018095Y-105506342D01*
X123018095Y-105506342D02*
X123170476Y-105468247D01*
X123170476Y-105468247D02*
X123246666Y-105430152D01*
X123246666Y-105430152D02*
X123284761Y-105392057D01*
X123284761Y-105392057D02*
X123322857Y-105315866D01*
X123322857Y-105315866D02*
X123322857Y-105239676D01*
X123322857Y-105239676D02*
X123284761Y-105163485D01*
X123284761Y-105163485D02*
X123246666Y-105125390D01*
X123246666Y-105125390D02*
X123170476Y-105087295D01*
X123170476Y-105087295D02*
X122979999Y-105087295D01*
X122979999Y-105087295D02*
X122865714Y-105125390D01*
X122599047Y-105087295D02*
X122408571Y-105887295D01*
X122408571Y-105887295D02*
X122256190Y-105315866D01*
X122256190Y-105315866D02*
X122103809Y-105887295D01*
X122103809Y-105887295D02*
X121913333Y-105087295D01*
X101930881Y-125160563D02*
X102197547Y-125160563D01*
X102197547Y-125579611D02*
X102197547Y-124779611D01*
X102197547Y-124779611D02*
X101816595Y-124779611D01*
X101359452Y-124779611D02*
X101207071Y-124779611D01*
X101207071Y-124779611D02*
X101130881Y-124817706D01*
X101130881Y-124817706D02*
X101054690Y-124893896D01*
X101054690Y-124893896D02*
X101016595Y-125046277D01*
X101016595Y-125046277D02*
X101016595Y-125312944D01*
X101016595Y-125312944D02*
X101054690Y-125465325D01*
X101054690Y-125465325D02*
X101130881Y-125541516D01*
X101130881Y-125541516D02*
X101207071Y-125579611D01*
X101207071Y-125579611D02*
X101359452Y-125579611D01*
X101359452Y-125579611D02*
X101435643Y-125541516D01*
X101435643Y-125541516D02*
X101511833Y-125465325D01*
X101511833Y-125465325D02*
X101549929Y-125312944D01*
X101549929Y-125312944D02*
X101549929Y-125046277D01*
X101549929Y-125046277D02*
X101511833Y-124893896D01*
X101511833Y-124893896D02*
X101435643Y-124817706D01*
X101435643Y-124817706D02*
X101359452Y-124779611D01*
X100216595Y-125579611D02*
X100483262Y-125198658D01*
X100673738Y-125579611D02*
X100673738Y-124779611D01*
X100673738Y-124779611D02*
X100368976Y-124779611D01*
X100368976Y-124779611D02*
X100292786Y-124817706D01*
X100292786Y-124817706D02*
X100254691Y-124855801D01*
X100254691Y-124855801D02*
X100216595Y-124931992D01*
X100216595Y-124931992D02*
X100216595Y-125046277D01*
X100216595Y-125046277D02*
X100254691Y-125122468D01*
X100254691Y-125122468D02*
X100292786Y-125160563D01*
X100292786Y-125160563D02*
X100368976Y-125198658D01*
X100368976Y-125198658D02*
X100673738Y-125198658D01*
X99873738Y-125579611D02*
X99873738Y-124779611D01*
X99416595Y-125579611D02*
X99759453Y-125122468D01*
X99416595Y-124779611D02*
X99873738Y-125236754D01*
%TO.C,TP14*%
D11*
X127200000Y-134813300D02*
G75*
G02*
X125800000Y-134813300I-700000J0D01*
G01*
X125800000Y-134813300D02*
G75*
G02*
X127200000Y-134813300I700000J0D01*
G01*
%TO.C,TP1*%
X93700000Y-121000000D02*
G75*
G02*
X92300000Y-121000000I-700000J0D01*
G01*
X92300000Y-121000000D02*
G75*
G02*
X93700000Y-121000000I700000J0D01*
G01*
%TO.C,TP9*%
X105630000Y-110250000D02*
G75*
G02*
X104230000Y-110250000I-700000J0D01*
G01*
X104230000Y-110250000D02*
G75*
G02*
X105630000Y-110250000I700000J0D01*
G01*
%TO.C,TP5*%
X87500000Y-128680000D02*
G75*
G02*
X86100000Y-128680000I-700000J0D01*
G01*
X86100000Y-128680000D02*
G75*
G02*
X87500000Y-128680000I700000J0D01*
G01*
%TO.C,TP13*%
X118450000Y-121650000D02*
G75*
G02*
X117050000Y-121650000I-700000J0D01*
G01*
X117050000Y-121650000D02*
G75*
G02*
X118450000Y-121650000I700000J0D01*
G01*
%TO.C,TP10*%
X91650000Y-87838000D02*
G75*
G02*
X90250000Y-87838000I-700000J0D01*
G01*
X90250000Y-87838000D02*
G75*
G02*
X91650000Y-87838000I700000J0D01*
G01*
%TO.C,TP12*%
X101622893Y-123392893D02*
G75*
G02*
X100222893Y-123392893I-700000J0D01*
G01*
X100222893Y-123392893D02*
G75*
G02*
X101622893Y-123392893I700000J0D01*
G01*
%TO.C,TP3*%
X90500000Y-126110000D02*
G75*
G02*
X89100000Y-126110000I-700000J0D01*
G01*
X89100000Y-126110000D02*
G75*
G02*
X90500000Y-126110000I700000J0D01*
G01*
%TO.C,TP4*%
X97162500Y-114050000D02*
G75*
G02*
X95762500Y-114050000I-700000J0D01*
G01*
X95762500Y-114050000D02*
G75*
G02*
X97162500Y-114050000I700000J0D01*
G01*
%TO.C,TP6*%
X93000000Y-126610000D02*
G75*
G02*
X91600000Y-126610000I-700000J0D01*
G01*
X91600000Y-126610000D02*
G75*
G02*
X93000000Y-126610000I700000J0D01*
G01*
%TO.C,TP2*%
X110700000Y-57000000D02*
G75*
G02*
X109300000Y-57000000I-700000J0D01*
G01*
X109300000Y-57000000D02*
G75*
G02*
X110700000Y-57000000I700000J0D01*
G01*
%TO.C,TP8*%
X116400000Y-52554286D02*
G75*
G02*
X115000000Y-52554286I-700000J0D01*
G01*
X115000000Y-52554286D02*
G75*
G02*
X116400000Y-52554286I700000J0D01*
G01*
%TO.C,TP15*%
X115000000Y-127250000D02*
G75*
G02*
X113600000Y-127250000I-700000J0D01*
G01*
X113600000Y-127250000D02*
G75*
G02*
X115000000Y-127250000I700000J0D01*
G01*
%TO.C,TP7*%
X124080000Y-106850000D02*
G75*
G02*
X122680000Y-106850000I-700000J0D01*
G01*
X122680000Y-106850000D02*
G75*
G02*
X124080000Y-106850000I700000J0D01*
G01*
%TO.C,TP11*%
X101526120Y-126542316D02*
G75*
G02*
X100126120Y-126542316I-700000J0D01*
G01*
X100126120Y-126542316D02*
G75*
G02*
X101526120Y-126542316I700000J0D01*
G01*
%TD*%
%LPC*%
G36*
X88618894Y-132355086D02*
G01*
X88629458Y-132355086D01*
X88681477Y-132363325D01*
X88821877Y-132381809D01*
X88856138Y-132390989D01*
X88885185Y-132395590D01*
X88941045Y-132413740D01*
X89030338Y-132437666D01*
X89087309Y-132461264D01*
X89131428Y-132475599D01*
X89172755Y-132496656D01*
X89229733Y-132520257D01*
X89309803Y-132566485D01*
X89362123Y-132593144D01*
X89385909Y-132610425D01*
X89416624Y-132628159D01*
X89528975Y-132714369D01*
X89571589Y-132745330D01*
X89579058Y-132752799D01*
X89587848Y-132759544D01*
X89740455Y-132912151D01*
X89747199Y-132920940D01*
X89754670Y-132928411D01*
X89785634Y-132971030D01*
X89871840Y-133083375D01*
X89889572Y-133114087D01*
X89906856Y-133137877D01*
X89933517Y-133190203D01*
X89979742Y-133270266D01*
X90003340Y-133327237D01*
X90024401Y-133368572D01*
X90038738Y-133412696D01*
X90062333Y-133469661D01*
X90086255Y-133558941D01*
X90104410Y-133614815D01*
X90109011Y-133643867D01*
X90118190Y-133678122D01*
X90136673Y-133818514D01*
X90144914Y-133870542D01*
X90144914Y-133881105D01*
X90146360Y-133892089D01*
X90146360Y-134107910D01*
X90144914Y-134118893D01*
X90144914Y-134129458D01*
X90136672Y-134181490D01*
X90118190Y-134321877D01*
X90109011Y-134356129D01*
X90104410Y-134385185D01*
X90086254Y-134441063D01*
X90062333Y-134530338D01*
X90038739Y-134587298D01*
X90024401Y-134631428D01*
X90003337Y-134672766D01*
X89979742Y-134729733D01*
X89933521Y-134809788D01*
X89906856Y-134862123D01*
X89889569Y-134885916D01*
X89871840Y-134916624D01*
X89785648Y-135028950D01*
X89754670Y-135071589D01*
X89747195Y-135079063D01*
X89740455Y-135087848D01*
X89587848Y-135240455D01*
X89579063Y-135247195D01*
X89571589Y-135254670D01*
X89528950Y-135285648D01*
X89416624Y-135371840D01*
X89385916Y-135389569D01*
X89362123Y-135406856D01*
X89309788Y-135433521D01*
X89229733Y-135479742D01*
X89172766Y-135503337D01*
X89131428Y-135524401D01*
X89087298Y-135538739D01*
X89030338Y-135562333D01*
X88941063Y-135586254D01*
X88885185Y-135604410D01*
X88856129Y-135609011D01*
X88821877Y-135618190D01*
X88681490Y-135636672D01*
X88629458Y-135644914D01*
X88618893Y-135644914D01*
X88607910Y-135646360D01*
X88392090Y-135646360D01*
X88381107Y-135644914D01*
X88370542Y-135644914D01*
X88318511Y-135636672D01*
X88178122Y-135618190D01*
X88143867Y-135609011D01*
X88114815Y-135604410D01*
X88058941Y-135586255D01*
X87969661Y-135562333D01*
X87912696Y-135538738D01*
X87868572Y-135524401D01*
X87827237Y-135503340D01*
X87770266Y-135479742D01*
X87690203Y-135433517D01*
X87637877Y-135406856D01*
X87614087Y-135389572D01*
X87583375Y-135371840D01*
X87471030Y-135285634D01*
X87428411Y-135254670D01*
X87420940Y-135247199D01*
X87412151Y-135240455D01*
X87259544Y-135087848D01*
X87252799Y-135079058D01*
X87245330Y-135071589D01*
X87214369Y-135028975D01*
X87128159Y-134916624D01*
X87110425Y-134885909D01*
X87093144Y-134862123D01*
X87066485Y-134809803D01*
X87020257Y-134729733D01*
X86996656Y-134672755D01*
X86975599Y-134631428D01*
X86961264Y-134587309D01*
X86937666Y-134530338D01*
X86913740Y-134441045D01*
X86895590Y-134385185D01*
X86890989Y-134356138D01*
X86881809Y-134321877D01*
X86863325Y-134181477D01*
X86855086Y-134129458D01*
X86855086Y-134118893D01*
X86853640Y-134107910D01*
X86853640Y-133892089D01*
X86855086Y-133881105D01*
X86855086Y-133870542D01*
X86863324Y-133818527D01*
X86881809Y-133678122D01*
X86890989Y-133643858D01*
X86895590Y-133614815D01*
X86913738Y-133558959D01*
X86937666Y-133469661D01*
X86961265Y-133412685D01*
X86975599Y-133368572D01*
X86996654Y-133327248D01*
X87020257Y-133270266D01*
X87066489Y-133190188D01*
X87093144Y-133137877D01*
X87110423Y-133114094D01*
X87128159Y-133083375D01*
X87214383Y-132971005D01*
X87245330Y-132928411D01*
X87252796Y-132920944D01*
X87259544Y-132912151D01*
X87412151Y-132759544D01*
X87420944Y-132752796D01*
X87428411Y-132745330D01*
X87471005Y-132714383D01*
X87583375Y-132628159D01*
X87614094Y-132610423D01*
X87637877Y-132593144D01*
X87690188Y-132566489D01*
X87770266Y-132520257D01*
X87827248Y-132496654D01*
X87868572Y-132475599D01*
X87912685Y-132461265D01*
X87969661Y-132437666D01*
X88058959Y-132413738D01*
X88114815Y-132395590D01*
X88143858Y-132390989D01*
X88178122Y-132381809D01*
X88318524Y-132363324D01*
X88370542Y-132355086D01*
X88381106Y-132355086D01*
X88392090Y-132353640D01*
X88607910Y-132353640D01*
X88618894Y-132355086D01*
G37*
G36*
X140618894Y-132355086D02*
G01*
X140629458Y-132355086D01*
X140681477Y-132363325D01*
X140821877Y-132381809D01*
X140856138Y-132390989D01*
X140885185Y-132395590D01*
X140941045Y-132413740D01*
X141030338Y-132437666D01*
X141087309Y-132461264D01*
X141131428Y-132475599D01*
X141172755Y-132496656D01*
X141229733Y-132520257D01*
X141309803Y-132566485D01*
X141362123Y-132593144D01*
X141385909Y-132610425D01*
X141416624Y-132628159D01*
X141528975Y-132714369D01*
X141571589Y-132745330D01*
X141579058Y-132752799D01*
X141587848Y-132759544D01*
X141740455Y-132912151D01*
X141747199Y-132920940D01*
X141754670Y-132928411D01*
X141785634Y-132971030D01*
X141871840Y-133083375D01*
X141889572Y-133114087D01*
X141906856Y-133137877D01*
X141933517Y-133190203D01*
X141979742Y-133270266D01*
X142003340Y-133327237D01*
X142024401Y-133368572D01*
X142038738Y-133412696D01*
X142062333Y-133469661D01*
X142086255Y-133558941D01*
X142104410Y-133614815D01*
X142109011Y-133643867D01*
X142118190Y-133678122D01*
X142136673Y-133818514D01*
X142144914Y-133870542D01*
X142144914Y-133881105D01*
X142146360Y-133892089D01*
X142146360Y-134107910D01*
X142144914Y-134118893D01*
X142144914Y-134129458D01*
X142136672Y-134181490D01*
X142118190Y-134321877D01*
X142109011Y-134356129D01*
X142104410Y-134385185D01*
X142086254Y-134441063D01*
X142062333Y-134530338D01*
X142038739Y-134587298D01*
X142024401Y-134631428D01*
X142003337Y-134672766D01*
X141979742Y-134729733D01*
X141933521Y-134809788D01*
X141906856Y-134862123D01*
X141889569Y-134885916D01*
X141871840Y-134916624D01*
X141785648Y-135028950D01*
X141754670Y-135071589D01*
X141747195Y-135079063D01*
X141740455Y-135087848D01*
X141587848Y-135240455D01*
X141579063Y-135247195D01*
X141571589Y-135254670D01*
X141528950Y-135285648D01*
X141416624Y-135371840D01*
X141385916Y-135389569D01*
X141362123Y-135406856D01*
X141309788Y-135433521D01*
X141229733Y-135479742D01*
X141172766Y-135503337D01*
X141131428Y-135524401D01*
X141087298Y-135538739D01*
X141030338Y-135562333D01*
X140941063Y-135586254D01*
X140885185Y-135604410D01*
X140856129Y-135609011D01*
X140821877Y-135618190D01*
X140681490Y-135636672D01*
X140629458Y-135644914D01*
X140618893Y-135644914D01*
X140607910Y-135646360D01*
X140392090Y-135646360D01*
X140381107Y-135644914D01*
X140370542Y-135644914D01*
X140318511Y-135636672D01*
X140178122Y-135618190D01*
X140143867Y-135609011D01*
X140114815Y-135604410D01*
X140058941Y-135586255D01*
X139969661Y-135562333D01*
X139912696Y-135538738D01*
X139868572Y-135524401D01*
X139827237Y-135503340D01*
X139770266Y-135479742D01*
X139690203Y-135433517D01*
X139637877Y-135406856D01*
X139614087Y-135389572D01*
X139583375Y-135371840D01*
X139471030Y-135285634D01*
X139428411Y-135254670D01*
X139420940Y-135247199D01*
X139412151Y-135240455D01*
X139259544Y-135087848D01*
X139252799Y-135079058D01*
X139245330Y-135071589D01*
X139214369Y-135028975D01*
X139128159Y-134916624D01*
X139110425Y-134885909D01*
X139093144Y-134862123D01*
X139066485Y-134809803D01*
X139020257Y-134729733D01*
X138996656Y-134672755D01*
X138975599Y-134631428D01*
X138961264Y-134587309D01*
X138937666Y-134530338D01*
X138913740Y-134441045D01*
X138895590Y-134385185D01*
X138890989Y-134356138D01*
X138881809Y-134321877D01*
X138863325Y-134181477D01*
X138855086Y-134129458D01*
X138855086Y-134118893D01*
X138853640Y-134107910D01*
X138853640Y-133892089D01*
X138855086Y-133881105D01*
X138855086Y-133870542D01*
X138863324Y-133818527D01*
X138881809Y-133678122D01*
X138890989Y-133643858D01*
X138895590Y-133614815D01*
X138913738Y-133558959D01*
X138937666Y-133469661D01*
X138961265Y-133412685D01*
X138975599Y-133368572D01*
X138996654Y-133327248D01*
X139020257Y-133270266D01*
X139066489Y-133190188D01*
X139093144Y-133137877D01*
X139110423Y-133114094D01*
X139128159Y-133083375D01*
X139214383Y-132971005D01*
X139245330Y-132928411D01*
X139252796Y-132920944D01*
X139259544Y-132912151D01*
X139412151Y-132759544D01*
X139420944Y-132752796D01*
X139428411Y-132745330D01*
X139471005Y-132714383D01*
X139583375Y-132628159D01*
X139614094Y-132610423D01*
X139637877Y-132593144D01*
X139690188Y-132566489D01*
X139770266Y-132520257D01*
X139827248Y-132496654D01*
X139868572Y-132475599D01*
X139912685Y-132461265D01*
X139969661Y-132437666D01*
X140058959Y-132413738D01*
X140114815Y-132395590D01*
X140143858Y-132390989D01*
X140178122Y-132381809D01*
X140318524Y-132363324D01*
X140370542Y-132355086D01*
X140381106Y-132355086D01*
X140392090Y-132353640D01*
X140607910Y-132353640D01*
X140618894Y-132355086D01*
G37*
G36*
X126710476Y-134305166D02*
G01*
X126834819Y-134376956D01*
X126936344Y-134478481D01*
X127008134Y-134602824D01*
X127045295Y-134741511D01*
X127045295Y-134885089D01*
X127008134Y-135023776D01*
X126936344Y-135148119D01*
X126834819Y-135249644D01*
X126710476Y-135321434D01*
X126571789Y-135358595D01*
X126428211Y-135358595D01*
X126289524Y-135321434D01*
X126165181Y-135249644D01*
X126063656Y-135148119D01*
X125991866Y-135023776D01*
X125954705Y-134885089D01*
X125954705Y-134741511D01*
X125991866Y-134602824D01*
X126063656Y-134478481D01*
X126165181Y-134376956D01*
X126289524Y-134305166D01*
X126428211Y-134268005D01*
X126571789Y-134268005D01*
X126710476Y-134305166D01*
G37*
G36*
X87010476Y-128171866D02*
G01*
X87134819Y-128243656D01*
X87236344Y-128345181D01*
X87308134Y-128469524D01*
X87345295Y-128608211D01*
X87345295Y-128751789D01*
X87308134Y-128890476D01*
X87236344Y-129014819D01*
X87134819Y-129116344D01*
X87010476Y-129188134D01*
X86871789Y-129225295D01*
X86728211Y-129225295D01*
X86589524Y-129188134D01*
X86465181Y-129116344D01*
X86363656Y-129014819D01*
X86291866Y-128890476D01*
X86254705Y-128751789D01*
X86254705Y-128608211D01*
X86291866Y-128469524D01*
X86363656Y-128345181D01*
X86465181Y-128243656D01*
X86589524Y-128171866D01*
X86728211Y-128134705D01*
X86871789Y-128134705D01*
X87010476Y-128171866D01*
G37*
G36*
X114510476Y-126741866D02*
G01*
X114634819Y-126813656D01*
X114736344Y-126915181D01*
X114808134Y-127039524D01*
X114845295Y-127178211D01*
X114845295Y-127321789D01*
X114808134Y-127460476D01*
X114736344Y-127584819D01*
X114634819Y-127686344D01*
X114510476Y-127758134D01*
X114371789Y-127795295D01*
X114228211Y-127795295D01*
X114089524Y-127758134D01*
X113965181Y-127686344D01*
X113863656Y-127584819D01*
X113791866Y-127460476D01*
X113754705Y-127321789D01*
X113754705Y-127178211D01*
X113791866Y-127039524D01*
X113863656Y-126915181D01*
X113965181Y-126813656D01*
X114089524Y-126741866D01*
X114228211Y-126704705D01*
X114371789Y-126704705D01*
X114510476Y-126741866D01*
G37*
G36*
X92510476Y-126101866D02*
G01*
X92634819Y-126173656D01*
X92736344Y-126275181D01*
X92808134Y-126399524D01*
X92845295Y-126538211D01*
X92845295Y-126681789D01*
X92808134Y-126820476D01*
X92736344Y-126944819D01*
X92634819Y-127046344D01*
X92510476Y-127118134D01*
X92371789Y-127155295D01*
X92228211Y-127155295D01*
X92089524Y-127118134D01*
X91965181Y-127046344D01*
X91863656Y-126944819D01*
X91791866Y-126820476D01*
X91754705Y-126681789D01*
X91754705Y-126538211D01*
X91791866Y-126399524D01*
X91863656Y-126275181D01*
X91965181Y-126173656D01*
X92089524Y-126101866D01*
X92228211Y-126064705D01*
X92371789Y-126064705D01*
X92510476Y-126101866D01*
G37*
G36*
X101036596Y-126034182D02*
G01*
X101160939Y-126105972D01*
X101262464Y-126207497D01*
X101334254Y-126331840D01*
X101371415Y-126470527D01*
X101371415Y-126614105D01*
X101334254Y-126752792D01*
X101262464Y-126877135D01*
X101160939Y-126978660D01*
X101036596Y-127050450D01*
X100897909Y-127087611D01*
X100754331Y-127087611D01*
X100615644Y-127050450D01*
X100491301Y-126978660D01*
X100389776Y-126877135D01*
X100317986Y-126752792D01*
X100280825Y-126614105D01*
X100280825Y-126470527D01*
X100317986Y-126331840D01*
X100389776Y-126207497D01*
X100491301Y-126105972D01*
X100615644Y-126034182D01*
X100754331Y-125997021D01*
X100897909Y-125997021D01*
X101036596Y-126034182D01*
G37*
G36*
X90010476Y-125601866D02*
G01*
X90134819Y-125673656D01*
X90236344Y-125775181D01*
X90308134Y-125899524D01*
X90345295Y-126038211D01*
X90345295Y-126181789D01*
X90308134Y-126320476D01*
X90236344Y-126444819D01*
X90134819Y-126546344D01*
X90010476Y-126618134D01*
X89871789Y-126655295D01*
X89728211Y-126655295D01*
X89589524Y-126618134D01*
X89465181Y-126546344D01*
X89363656Y-126444819D01*
X89291866Y-126320476D01*
X89254705Y-126181789D01*
X89254705Y-126038211D01*
X89291866Y-125899524D01*
X89363656Y-125775181D01*
X89465181Y-125673656D01*
X89589524Y-125601866D01*
X89728211Y-125564705D01*
X89871789Y-125564705D01*
X90010476Y-125601866D01*
G37*
G36*
X101133369Y-122884759D02*
G01*
X101257712Y-122956549D01*
X101359237Y-123058074D01*
X101431027Y-123182417D01*
X101468188Y-123321104D01*
X101468188Y-123464682D01*
X101431027Y-123603369D01*
X101359237Y-123727712D01*
X101257712Y-123829237D01*
X101133369Y-123901027D01*
X100994682Y-123938188D01*
X100851104Y-123938188D01*
X100712417Y-123901027D01*
X100588074Y-123829237D01*
X100486549Y-123727712D01*
X100414759Y-123603369D01*
X100377598Y-123464682D01*
X100377598Y-123321104D01*
X100414759Y-123182417D01*
X100486549Y-123058074D01*
X100588074Y-122956549D01*
X100712417Y-122884759D01*
X100851104Y-122847598D01*
X100994682Y-122847598D01*
X101133369Y-122884759D01*
G37*
G36*
X117960476Y-121141866D02*
G01*
X118084819Y-121213656D01*
X118186344Y-121315181D01*
X118258134Y-121439524D01*
X118295295Y-121578211D01*
X118295295Y-121721789D01*
X118258134Y-121860476D01*
X118186344Y-121984819D01*
X118084819Y-122086344D01*
X117960476Y-122158134D01*
X117821789Y-122195295D01*
X117678211Y-122195295D01*
X117539524Y-122158134D01*
X117415181Y-122086344D01*
X117313656Y-121984819D01*
X117241866Y-121860476D01*
X117204705Y-121721789D01*
X117204705Y-121578211D01*
X117241866Y-121439524D01*
X117313656Y-121315181D01*
X117415181Y-121213656D01*
X117539524Y-121141866D01*
X117678211Y-121104705D01*
X117821789Y-121104705D01*
X117960476Y-121141866D01*
G37*
G36*
X93210476Y-120491866D02*
G01*
X93334819Y-120563656D01*
X93436344Y-120665181D01*
X93508134Y-120789524D01*
X93545295Y-120928211D01*
X93545295Y-121071789D01*
X93508134Y-121210476D01*
X93436344Y-121334819D01*
X93334819Y-121436344D01*
X93210476Y-121508134D01*
X93071789Y-121545295D01*
X92928211Y-121545295D01*
X92789524Y-121508134D01*
X92665181Y-121436344D01*
X92563656Y-121334819D01*
X92491866Y-121210476D01*
X92454705Y-121071789D01*
X92454705Y-120928211D01*
X92491866Y-120789524D01*
X92563656Y-120665181D01*
X92665181Y-120563656D01*
X92789524Y-120491866D01*
X92928211Y-120454705D01*
X93071789Y-120454705D01*
X93210476Y-120491866D01*
G37*
G36*
X96672976Y-113541866D02*
G01*
X96797319Y-113613656D01*
X96898844Y-113715181D01*
X96970634Y-113839524D01*
X97007795Y-113978211D01*
X97007795Y-114121789D01*
X96970634Y-114260476D01*
X96898844Y-114384819D01*
X96797319Y-114486344D01*
X96672976Y-114558134D01*
X96534289Y-114595295D01*
X96390711Y-114595295D01*
X96252024Y-114558134D01*
X96127681Y-114486344D01*
X96026156Y-114384819D01*
X95954366Y-114260476D01*
X95917205Y-114121789D01*
X95917205Y-113978211D01*
X95954366Y-113839524D01*
X96026156Y-113715181D01*
X96127681Y-113613656D01*
X96252024Y-113541866D01*
X96390711Y-113504705D01*
X96534289Y-113504705D01*
X96672976Y-113541866D01*
G37*
G36*
X105140476Y-109741866D02*
G01*
X105264819Y-109813656D01*
X105366344Y-109915181D01*
X105438134Y-110039524D01*
X105475295Y-110178211D01*
X105475295Y-110321789D01*
X105438134Y-110460476D01*
X105366344Y-110584819D01*
X105264819Y-110686344D01*
X105140476Y-110758134D01*
X105001789Y-110795295D01*
X104858211Y-110795295D01*
X104719524Y-110758134D01*
X104595181Y-110686344D01*
X104493656Y-110584819D01*
X104421866Y-110460476D01*
X104384705Y-110321789D01*
X104384705Y-110178211D01*
X104421866Y-110039524D01*
X104493656Y-109915181D01*
X104595181Y-109813656D01*
X104719524Y-109741866D01*
X104858211Y-109704705D01*
X105001789Y-109704705D01*
X105140476Y-109741866D01*
G37*
G36*
X123590476Y-106341866D02*
G01*
X123714819Y-106413656D01*
X123816344Y-106515181D01*
X123888134Y-106639524D01*
X123925295Y-106778211D01*
X123925295Y-106921789D01*
X123888134Y-107060476D01*
X123816344Y-107184819D01*
X123714819Y-107286344D01*
X123590476Y-107358134D01*
X123451789Y-107395295D01*
X123308211Y-107395295D01*
X123169524Y-107358134D01*
X123045181Y-107286344D01*
X122943656Y-107184819D01*
X122871866Y-107060476D01*
X122834705Y-106921789D01*
X122834705Y-106778211D01*
X122871866Y-106639524D01*
X122943656Y-106515181D01*
X123045181Y-106413656D01*
X123169524Y-106341866D01*
X123308211Y-106304705D01*
X123451789Y-106304705D01*
X123590476Y-106341866D01*
G37*
G36*
X106461840Y-96792827D02*
G01*
X106693159Y-96867987D01*
X106909873Y-96978408D01*
X107106644Y-97121371D01*
X107278629Y-97293356D01*
X107421592Y-97490127D01*
X107532013Y-97706841D01*
X107607173Y-97938160D01*
X107645222Y-98178388D01*
X107645222Y-98421612D01*
X107607173Y-98661840D01*
X107532013Y-98893159D01*
X107421592Y-99109873D01*
X107278629Y-99306644D01*
X107106644Y-99478629D01*
X106909873Y-99621592D01*
X106693159Y-99732013D01*
X106461840Y-99807173D01*
X106221612Y-99845222D01*
X105978388Y-99845222D01*
X105738160Y-99807173D01*
X105506841Y-99732013D01*
X105290127Y-99621592D01*
X105093356Y-99478629D01*
X104921371Y-99306644D01*
X104778408Y-99109873D01*
X104667987Y-98893159D01*
X104592827Y-98661840D01*
X104554778Y-98421612D01*
X104554778Y-98178388D01*
X104592827Y-97938160D01*
X104667987Y-97706841D01*
X104778408Y-97490127D01*
X104921371Y-97293356D01*
X105093356Y-97121371D01*
X105290127Y-96978408D01*
X105506841Y-96867987D01*
X105738160Y-96792827D01*
X105978388Y-96754778D01*
X106221612Y-96754778D01*
X106461840Y-96792827D01*
G37*
G36*
X119661840Y-96792827D02*
G01*
X119893159Y-96867987D01*
X120109873Y-96978408D01*
X120306644Y-97121371D01*
X120478629Y-97293356D01*
X120621592Y-97490127D01*
X120732013Y-97706841D01*
X120807173Y-97938160D01*
X120845222Y-98178388D01*
X120845222Y-98421612D01*
X120807173Y-98661840D01*
X120732013Y-98893159D01*
X120621592Y-99109873D01*
X120478629Y-99306644D01*
X120306644Y-99478629D01*
X120109873Y-99621592D01*
X119893159Y-99732013D01*
X119661840Y-99807173D01*
X119421612Y-99845222D01*
X119178388Y-99845222D01*
X118938160Y-99807173D01*
X118706841Y-99732013D01*
X118490127Y-99621592D01*
X118293356Y-99478629D01*
X118121371Y-99306644D01*
X117978408Y-99109873D01*
X117867987Y-98893159D01*
X117792827Y-98661840D01*
X117754778Y-98421612D01*
X117754778Y-98178388D01*
X117792827Y-97938160D01*
X117867987Y-97706841D01*
X117978408Y-97490127D01*
X118121371Y-97293356D01*
X118293356Y-97121371D01*
X118490127Y-96978408D01*
X118706841Y-96867987D01*
X118938160Y-96792827D01*
X119178388Y-96754778D01*
X119421612Y-96754778D01*
X119661840Y-96792827D01*
G37*
G36*
X127119134Y-96353806D02*
G01*
X127135355Y-96364645D01*
X127146194Y-96380866D01*
X127150000Y-96400000D01*
X127150000Y-98400000D01*
X127146194Y-98419134D01*
X127135355Y-98435355D01*
X127119134Y-98446194D01*
X127100000Y-98450000D01*
X125100000Y-98450000D01*
X125080866Y-98446194D01*
X125064645Y-98435355D01*
X125053806Y-98419134D01*
X125050000Y-98400000D01*
X125050000Y-96400000D01*
X125053806Y-96380866D01*
X125064645Y-96364645D01*
X125080866Y-96353806D01*
X125100000Y-96350000D01*
X127100000Y-96350000D01*
X127119134Y-96353806D01*
G37*
G36*
X131192885Y-96355056D02*
G01*
X131202918Y-96355056D01*
X131242117Y-96362853D01*
X131345078Y-96379160D01*
X131378200Y-96389922D01*
X131404799Y-96395213D01*
X131442335Y-96410760D01*
X131501762Y-96430070D01*
X131557433Y-96458435D01*
X131594967Y-96473983D01*
X131617517Y-96489050D01*
X131648539Y-96504857D01*
X131732866Y-96566124D01*
X131766113Y-96588339D01*
X131773208Y-96595434D01*
X131781817Y-96601689D01*
X131898310Y-96718182D01*
X131904564Y-96726790D01*
X131911661Y-96733887D01*
X131933878Y-96767138D01*
X131995142Y-96851460D01*
X132010947Y-96882479D01*
X132026017Y-96905033D01*
X132041566Y-96942572D01*
X132069929Y-96998237D01*
X132089235Y-97057657D01*
X132104787Y-97095201D01*
X132110078Y-97121805D01*
X132120839Y-97154921D01*
X132137145Y-97257876D01*
X132144944Y-97297082D01*
X132144944Y-97307114D01*
X132146609Y-97317627D01*
X132146609Y-97482372D01*
X132144944Y-97492884D01*
X132144944Y-97502918D01*
X132137144Y-97542126D01*
X132120839Y-97645078D01*
X132110079Y-97678192D01*
X132104787Y-97704799D01*
X132089234Y-97742346D01*
X132069929Y-97801762D01*
X132041568Y-97857422D01*
X132026017Y-97894967D01*
X132010945Y-97917523D01*
X131995142Y-97948539D01*
X131933887Y-98032849D01*
X131911661Y-98066113D01*
X131904561Y-98073212D01*
X131898310Y-98081817D01*
X131781817Y-98198310D01*
X131773212Y-98204561D01*
X131766113Y-98211661D01*
X131732849Y-98233887D01*
X131648539Y-98295142D01*
X131617523Y-98310945D01*
X131594967Y-98326017D01*
X131557422Y-98341568D01*
X131501762Y-98369929D01*
X131442346Y-98389234D01*
X131404799Y-98404787D01*
X131378192Y-98410079D01*
X131345078Y-98420839D01*
X131242126Y-98437144D01*
X131202918Y-98444944D01*
X131192884Y-98444944D01*
X131182372Y-98446609D01*
X131017628Y-98446609D01*
X131007115Y-98444944D01*
X130997082Y-98444944D01*
X130957874Y-98437145D01*
X130854921Y-98420839D01*
X130821805Y-98410078D01*
X130795201Y-98404787D01*
X130757657Y-98389235D01*
X130698237Y-98369929D01*
X130642572Y-98341566D01*
X130605033Y-98326017D01*
X130582479Y-98310947D01*
X130551460Y-98295142D01*
X130467138Y-98233878D01*
X130433887Y-98211661D01*
X130426790Y-98204564D01*
X130418182Y-98198310D01*
X130301689Y-98081817D01*
X130295434Y-98073208D01*
X130288339Y-98066113D01*
X130266124Y-98032866D01*
X130204857Y-97948539D01*
X130189050Y-97917517D01*
X130173983Y-97894967D01*
X130158435Y-97857433D01*
X130130070Y-97801762D01*
X130110760Y-97742335D01*
X130095213Y-97704799D01*
X130089922Y-97678200D01*
X130079160Y-97645078D01*
X130062853Y-97542117D01*
X130055056Y-97502918D01*
X130055056Y-97492884D01*
X130053391Y-97482372D01*
X130053391Y-97317627D01*
X130055056Y-97307114D01*
X130055056Y-97297082D01*
X130062852Y-97257886D01*
X130079160Y-97154921D01*
X130089922Y-97121797D01*
X130095213Y-97095201D01*
X130110759Y-97057668D01*
X130130070Y-96998237D01*
X130158438Y-96942561D01*
X130173983Y-96905033D01*
X130189048Y-96882486D01*
X130204857Y-96851460D01*
X130266132Y-96767121D01*
X130288339Y-96733887D01*
X130295432Y-96726793D01*
X130301689Y-96718182D01*
X130418182Y-96601689D01*
X130426793Y-96595432D01*
X130433887Y-96588339D01*
X130467121Y-96566132D01*
X130551460Y-96504857D01*
X130582486Y-96489048D01*
X130605033Y-96473983D01*
X130642561Y-96458438D01*
X130698237Y-96430070D01*
X130757668Y-96410759D01*
X130795201Y-96395213D01*
X130821797Y-96389922D01*
X130854921Y-96379160D01*
X130957883Y-96362853D01*
X130997082Y-96355056D01*
X131007115Y-96355056D01*
X131017628Y-96353391D01*
X131182372Y-96353391D01*
X131192885Y-96355056D01*
G37*
G36*
X91160476Y-87329866D02*
G01*
X91284819Y-87401656D01*
X91386344Y-87503181D01*
X91458134Y-87627524D01*
X91495295Y-87766211D01*
X91495295Y-87909789D01*
X91458134Y-88048476D01*
X91386344Y-88172819D01*
X91284819Y-88274344D01*
X91160476Y-88346134D01*
X91021789Y-88383295D01*
X90878211Y-88383295D01*
X90739524Y-88346134D01*
X90615181Y-88274344D01*
X90513656Y-88172819D01*
X90441866Y-88048476D01*
X90404705Y-87909789D01*
X90404705Y-87766211D01*
X90441866Y-87627524D01*
X90513656Y-87503181D01*
X90615181Y-87401656D01*
X90739524Y-87329866D01*
X90878211Y-87292705D01*
X91021789Y-87292705D01*
X91160476Y-87329866D01*
G37*
G36*
X98829278Y-76728843D02*
G01*
X98854094Y-76728843D01*
X98859018Y-76728843D01*
X98880066Y-76733030D01*
X98952162Y-76762893D01*
X98970005Y-76774815D01*
X99025185Y-76829995D01*
X99037107Y-76847838D01*
X99066970Y-76919934D01*
X99071157Y-76940982D01*
X99071157Y-76945906D01*
X99071157Y-76964487D01*
X99073920Y-76975995D01*
X99074641Y-76977410D01*
X99074808Y-76979538D01*
X99075000Y-76980000D01*
X99075000Y-77580000D01*
X99071148Y-77589299D01*
X99071148Y-77658414D01*
X99070091Y-77669144D01*
X99039495Y-77822958D01*
X99036365Y-77833276D01*
X98976350Y-77978165D01*
X98971268Y-77987673D01*
X98884139Y-78118071D01*
X98877299Y-78126406D01*
X98766406Y-78237299D01*
X98758071Y-78244139D01*
X98627673Y-78331268D01*
X98618165Y-78336350D01*
X98473276Y-78396365D01*
X98462958Y-78399495D01*
X98309144Y-78430091D01*
X98298414Y-78431148D01*
X98295958Y-78431148D01*
X98144042Y-78431148D01*
X98141586Y-78431148D01*
X98130856Y-78430091D01*
X97977042Y-78399495D01*
X97966724Y-78396365D01*
X97821835Y-78336350D01*
X97812327Y-78331268D01*
X97810288Y-78329905D01*
X97810285Y-78329904D01*
X97683970Y-78245503D01*
X97683968Y-78245501D01*
X97681929Y-78244139D01*
X97673594Y-78237299D01*
X97562701Y-78126406D01*
X97555861Y-78118071D01*
X97554499Y-78116032D01*
X97554496Y-78116029D01*
X97470095Y-77989714D01*
X97470092Y-77989708D01*
X97468732Y-77987673D01*
X97463650Y-77978165D01*
X97403635Y-77833276D01*
X97400505Y-77822958D01*
X97400025Y-77820548D01*
X97400024Y-77820543D01*
X97370388Y-77671555D01*
X97370387Y-77671549D01*
X97369909Y-77669144D01*
X97368852Y-77658414D01*
X97368852Y-77602355D01*
X97368544Y-77598439D01*
X97366009Y-77582435D01*
X97365000Y-77580000D01*
X97365000Y-76980000D01*
X97368843Y-76970722D01*
X97368843Y-76940982D01*
X97373030Y-76919934D01*
X97402893Y-76847838D01*
X97414815Y-76829995D01*
X97418291Y-76826518D01*
X97418294Y-76826515D01*
X97466515Y-76778294D01*
X97466518Y-76778291D01*
X97469995Y-76774815D01*
X97487838Y-76762893D01*
X97559934Y-76733030D01*
X97580982Y-76728843D01*
X97604487Y-76728843D01*
X97615995Y-76726080D01*
X97617410Y-76725358D01*
X97619539Y-76725190D01*
X97620000Y-76725000D01*
X98820000Y-76725000D01*
X98829278Y-76728843D01*
G37*
G36*
X111529278Y-76728843D02*
G01*
X111554094Y-76728843D01*
X111559018Y-76728843D01*
X111580066Y-76733030D01*
X111652162Y-76762893D01*
X111670005Y-76774815D01*
X111725185Y-76829995D01*
X111737107Y-76847838D01*
X111766970Y-76919934D01*
X111771157Y-76940982D01*
X111771157Y-76945906D01*
X111771157Y-76964487D01*
X111773920Y-76975995D01*
X111774641Y-76977410D01*
X111774808Y-76979538D01*
X111775000Y-76980000D01*
X111775000Y-77580000D01*
X111771148Y-77589299D01*
X111771148Y-77658414D01*
X111770091Y-77669144D01*
X111739495Y-77822958D01*
X111736365Y-77833276D01*
X111676350Y-77978165D01*
X111671268Y-77987673D01*
X111584139Y-78118071D01*
X111577299Y-78126406D01*
X111466406Y-78237299D01*
X111458071Y-78244139D01*
X111327673Y-78331268D01*
X111318165Y-78336350D01*
X111173276Y-78396365D01*
X111162958Y-78399495D01*
X111009144Y-78430091D01*
X110998414Y-78431148D01*
X110995958Y-78431148D01*
X110844042Y-78431148D01*
X110841586Y-78431148D01*
X110830856Y-78430091D01*
X110677042Y-78399495D01*
X110666724Y-78396365D01*
X110521835Y-78336350D01*
X110512327Y-78331268D01*
X110510288Y-78329905D01*
X110510285Y-78329904D01*
X110383970Y-78245503D01*
X110383968Y-78245501D01*
X110381929Y-78244139D01*
X110373594Y-78237299D01*
X110262701Y-78126406D01*
X110255861Y-78118071D01*
X110254499Y-78116032D01*
X110254496Y-78116029D01*
X110170095Y-77989714D01*
X110170092Y-77989708D01*
X110168732Y-77987673D01*
X110163650Y-77978165D01*
X110103635Y-77833276D01*
X110100505Y-77822958D01*
X110100025Y-77820548D01*
X110100024Y-77820543D01*
X110070388Y-77671555D01*
X110070387Y-77671549D01*
X110069909Y-77669144D01*
X110068852Y-77658414D01*
X110068852Y-77602355D01*
X110068544Y-77598439D01*
X110066009Y-77582435D01*
X110065000Y-77580000D01*
X110065000Y-76980000D01*
X110068843Y-76970722D01*
X110068843Y-76940982D01*
X110073030Y-76919934D01*
X110102893Y-76847838D01*
X110114815Y-76829995D01*
X110118291Y-76826518D01*
X110118294Y-76826515D01*
X110166515Y-76778294D01*
X110166518Y-76778291D01*
X110169995Y-76774815D01*
X110187838Y-76762893D01*
X110259934Y-76733030D01*
X110280982Y-76728843D01*
X110304487Y-76728843D01*
X110315995Y-76726080D01*
X110317410Y-76725358D01*
X110319539Y-76725190D01*
X110320000Y-76725000D01*
X111520000Y-76725000D01*
X111529278Y-76728843D01*
G37*
G36*
X124229278Y-76728843D02*
G01*
X124254094Y-76728843D01*
X124259018Y-76728843D01*
X124280066Y-76733030D01*
X124352162Y-76762893D01*
X124370005Y-76774815D01*
X124425185Y-76829995D01*
X124437107Y-76847838D01*
X124466970Y-76919934D01*
X124471157Y-76940982D01*
X124471157Y-76945906D01*
X124471157Y-76964487D01*
X124473920Y-76975995D01*
X124474641Y-76977410D01*
X124474808Y-76979538D01*
X124475000Y-76980000D01*
X124475000Y-77580000D01*
X124471148Y-77589299D01*
X124471148Y-77658414D01*
X124470091Y-77669144D01*
X124439495Y-77822958D01*
X124436365Y-77833276D01*
X124376350Y-77978165D01*
X124371268Y-77987673D01*
X124284139Y-78118071D01*
X124277299Y-78126406D01*
X124166406Y-78237299D01*
X124158071Y-78244139D01*
X124027673Y-78331268D01*
X124018165Y-78336350D01*
X123873276Y-78396365D01*
X123862958Y-78399495D01*
X123709144Y-78430091D01*
X123698414Y-78431148D01*
X123695958Y-78431148D01*
X123544042Y-78431148D01*
X123541586Y-78431148D01*
X123530856Y-78430091D01*
X123377042Y-78399495D01*
X123366724Y-78396365D01*
X123221835Y-78336350D01*
X123212327Y-78331268D01*
X123210288Y-78329905D01*
X123210285Y-78329904D01*
X123083970Y-78245503D01*
X123083968Y-78245501D01*
X123081929Y-78244139D01*
X123073594Y-78237299D01*
X122962701Y-78126406D01*
X122955861Y-78118071D01*
X122954499Y-78116032D01*
X122954496Y-78116029D01*
X122870095Y-77989714D01*
X122870092Y-77989708D01*
X122868732Y-77987673D01*
X122863650Y-77978165D01*
X122803635Y-77833276D01*
X122800505Y-77822958D01*
X122800025Y-77820548D01*
X122800024Y-77820543D01*
X122770388Y-77671555D01*
X122770387Y-77671549D01*
X122769909Y-77669144D01*
X122768852Y-77658414D01*
X122768852Y-77602355D01*
X122768544Y-77598439D01*
X122766009Y-77582435D01*
X122765000Y-77580000D01*
X122765000Y-76980000D01*
X122768843Y-76970722D01*
X122768843Y-76940982D01*
X122773030Y-76919934D01*
X122802893Y-76847838D01*
X122814815Y-76829995D01*
X122818291Y-76826518D01*
X122818294Y-76826515D01*
X122866515Y-76778294D01*
X122866518Y-76778291D01*
X122869995Y-76774815D01*
X122887838Y-76762893D01*
X122959934Y-76733030D01*
X122980982Y-76728843D01*
X123004487Y-76728843D01*
X123015995Y-76726080D01*
X123017410Y-76725358D01*
X123019539Y-76725190D01*
X123020000Y-76725000D01*
X124220000Y-76725000D01*
X124229278Y-76728843D01*
G37*
G36*
X136929278Y-76728843D02*
G01*
X136954094Y-76728843D01*
X136959018Y-76728843D01*
X136980066Y-76733030D01*
X137052162Y-76762893D01*
X137070005Y-76774815D01*
X137125185Y-76829995D01*
X137137107Y-76847838D01*
X137166970Y-76919934D01*
X137171157Y-76940982D01*
X137171157Y-76945906D01*
X137171157Y-76964487D01*
X137173920Y-76975995D01*
X137174641Y-76977410D01*
X137174808Y-76979538D01*
X137175000Y-76980000D01*
X137175000Y-77580000D01*
X137171148Y-77589299D01*
X137171148Y-77658414D01*
X137170091Y-77669144D01*
X137139495Y-77822958D01*
X137136365Y-77833276D01*
X137076350Y-77978165D01*
X137071268Y-77987673D01*
X136984139Y-78118071D01*
X136977299Y-78126406D01*
X136866406Y-78237299D01*
X136858071Y-78244139D01*
X136727673Y-78331268D01*
X136718165Y-78336350D01*
X136573276Y-78396365D01*
X136562958Y-78399495D01*
X136409144Y-78430091D01*
X136398414Y-78431148D01*
X136395958Y-78431148D01*
X136244042Y-78431148D01*
X136241586Y-78431148D01*
X136230856Y-78430091D01*
X136077042Y-78399495D01*
X136066724Y-78396365D01*
X135921835Y-78336350D01*
X135912327Y-78331268D01*
X135910288Y-78329905D01*
X135910285Y-78329904D01*
X135783970Y-78245503D01*
X135783968Y-78245501D01*
X135781929Y-78244139D01*
X135773594Y-78237299D01*
X135662701Y-78126406D01*
X135655861Y-78118071D01*
X135654499Y-78116032D01*
X135654496Y-78116029D01*
X135570095Y-77989714D01*
X135570092Y-77989708D01*
X135568732Y-77987673D01*
X135563650Y-77978165D01*
X135503635Y-77833276D01*
X135500505Y-77822958D01*
X135500025Y-77820548D01*
X135500024Y-77820543D01*
X135470388Y-77671555D01*
X135470387Y-77671549D01*
X135469909Y-77669144D01*
X135468852Y-77658414D01*
X135468852Y-77602355D01*
X135468544Y-77598439D01*
X135466009Y-77582435D01*
X135465000Y-77580000D01*
X135465000Y-76980000D01*
X135468843Y-76970722D01*
X135468843Y-76940982D01*
X135473030Y-76919934D01*
X135502893Y-76847838D01*
X135514815Y-76829995D01*
X135518291Y-76826518D01*
X135518294Y-76826515D01*
X135566515Y-76778294D01*
X135566518Y-76778291D01*
X135569995Y-76774815D01*
X135587838Y-76762893D01*
X135659934Y-76733030D01*
X135680982Y-76728843D01*
X135704487Y-76728843D01*
X135715995Y-76726080D01*
X135717410Y-76725358D01*
X135719539Y-76725190D01*
X135720000Y-76725000D01*
X136920000Y-76725000D01*
X136929278Y-76728843D01*
G37*
G36*
X93386742Y-76766601D02*
G01*
X93540687Y-76830367D01*
X93679234Y-76922941D01*
X93797059Y-77040766D01*
X93889633Y-77179313D01*
X93953399Y-77333258D01*
X93985907Y-77496685D01*
X93985907Y-77663315D01*
X93953399Y-77826742D01*
X93889633Y-77980687D01*
X93797059Y-78119234D01*
X93679234Y-78237059D01*
X93540687Y-78329633D01*
X93386742Y-78393399D01*
X93223315Y-78425907D01*
X93056685Y-78425907D01*
X92893258Y-78393399D01*
X92739313Y-78329633D01*
X92600766Y-78237059D01*
X92482941Y-78119234D01*
X92390367Y-77980687D01*
X92326601Y-77826742D01*
X92294093Y-77663315D01*
X92294093Y-77496685D01*
X92326601Y-77333258D01*
X92390367Y-77179313D01*
X92482941Y-77040766D01*
X92600766Y-76922941D01*
X92739313Y-76830367D01*
X92893258Y-76766601D01*
X93056685Y-76734093D01*
X93223315Y-76734093D01*
X93386742Y-76766601D01*
G37*
G36*
X95926742Y-76766601D02*
G01*
X96080687Y-76830367D01*
X96219234Y-76922941D01*
X96337059Y-77040766D01*
X96429633Y-77179313D01*
X96493399Y-77333258D01*
X96525907Y-77496685D01*
X96525907Y-77663315D01*
X96493399Y-77826742D01*
X96429633Y-77980687D01*
X96337059Y-78119234D01*
X96219234Y-78237059D01*
X96080687Y-78329633D01*
X95926742Y-78393399D01*
X95763315Y-78425907D01*
X95596685Y-78425907D01*
X95433258Y-78393399D01*
X95279313Y-78329633D01*
X95140766Y-78237059D01*
X95022941Y-78119234D01*
X94930367Y-77980687D01*
X94866601Y-77826742D01*
X94834093Y-77663315D01*
X94834093Y-77496685D01*
X94866601Y-77333258D01*
X94930367Y-77179313D01*
X95022941Y-77040766D01*
X95140766Y-76922941D01*
X95279313Y-76830367D01*
X95433258Y-76766601D01*
X95596685Y-76734093D01*
X95763315Y-76734093D01*
X95926742Y-76766601D01*
G37*
G36*
X101006742Y-76766601D02*
G01*
X101160687Y-76830367D01*
X101299234Y-76922941D01*
X101417059Y-77040766D01*
X101509633Y-77179313D01*
X101573399Y-77333258D01*
X101605907Y-77496685D01*
X101605907Y-77663315D01*
X101573399Y-77826742D01*
X101509633Y-77980687D01*
X101417059Y-78119234D01*
X101299234Y-78237059D01*
X101160687Y-78329633D01*
X101006742Y-78393399D01*
X100843315Y-78425907D01*
X100676685Y-78425907D01*
X100513258Y-78393399D01*
X100359313Y-78329633D01*
X100220766Y-78237059D01*
X100102941Y-78119234D01*
X100010367Y-77980687D01*
X99946601Y-77826742D01*
X99914093Y-77663315D01*
X99914093Y-77496685D01*
X99946601Y-77333258D01*
X100010367Y-77179313D01*
X100102941Y-77040766D01*
X100220766Y-76922941D01*
X100359313Y-76830367D01*
X100513258Y-76766601D01*
X100676685Y-76734093D01*
X100843315Y-76734093D01*
X101006742Y-76766601D01*
G37*
G36*
X103546742Y-76766601D02*
G01*
X103700687Y-76830367D01*
X103839234Y-76922941D01*
X103957059Y-77040766D01*
X104049633Y-77179313D01*
X104113399Y-77333258D01*
X104145907Y-77496685D01*
X104145907Y-77663315D01*
X104113399Y-77826742D01*
X104049633Y-77980687D01*
X103957059Y-78119234D01*
X103839234Y-78237059D01*
X103700687Y-78329633D01*
X103546742Y-78393399D01*
X103383315Y-78425907D01*
X103216685Y-78425907D01*
X103053258Y-78393399D01*
X102899313Y-78329633D01*
X102760766Y-78237059D01*
X102642941Y-78119234D01*
X102550367Y-77980687D01*
X102486601Y-77826742D01*
X102454093Y-77663315D01*
X102454093Y-77496685D01*
X102486601Y-77333258D01*
X102550367Y-77179313D01*
X102642941Y-77040766D01*
X102760766Y-76922941D01*
X102899313Y-76830367D01*
X103053258Y-76766601D01*
X103216685Y-76734093D01*
X103383315Y-76734093D01*
X103546742Y-76766601D01*
G37*
G36*
X106086742Y-76766601D02*
G01*
X106240687Y-76830367D01*
X106379234Y-76922941D01*
X106497059Y-77040766D01*
X106589633Y-77179313D01*
X106653399Y-77333258D01*
X106685907Y-77496685D01*
X106685907Y-77663315D01*
X106653399Y-77826742D01*
X106589633Y-77980687D01*
X106497059Y-78119234D01*
X106379234Y-78237059D01*
X106240687Y-78329633D01*
X106086742Y-78393399D01*
X105923315Y-78425907D01*
X105756685Y-78425907D01*
X105593258Y-78393399D01*
X105439313Y-78329633D01*
X105300766Y-78237059D01*
X105182941Y-78119234D01*
X105090367Y-77980687D01*
X105026601Y-77826742D01*
X104994093Y-77663315D01*
X104994093Y-77496685D01*
X105026601Y-77333258D01*
X105090367Y-77179313D01*
X105182941Y-77040766D01*
X105300766Y-76922941D01*
X105439313Y-76830367D01*
X105593258Y-76766601D01*
X105756685Y-76734093D01*
X105923315Y-76734093D01*
X106086742Y-76766601D01*
G37*
G36*
X108626742Y-76766601D02*
G01*
X108780687Y-76830367D01*
X108919234Y-76922941D01*
X109037059Y-77040766D01*
X109129633Y-77179313D01*
X109193399Y-77333258D01*
X109225907Y-77496685D01*
X109225907Y-77663315D01*
X109193399Y-77826742D01*
X109129633Y-77980687D01*
X109037059Y-78119234D01*
X108919234Y-78237059D01*
X108780687Y-78329633D01*
X108626742Y-78393399D01*
X108463315Y-78425907D01*
X108296685Y-78425907D01*
X108133258Y-78393399D01*
X107979313Y-78329633D01*
X107840766Y-78237059D01*
X107722941Y-78119234D01*
X107630367Y-77980687D01*
X107566601Y-77826742D01*
X107534093Y-77663315D01*
X107534093Y-77496685D01*
X107566601Y-77333258D01*
X107630367Y-77179313D01*
X107722941Y-77040766D01*
X107840766Y-76922941D01*
X107979313Y-76830367D01*
X108133258Y-76766601D01*
X108296685Y-76734093D01*
X108463315Y-76734093D01*
X108626742Y-76766601D01*
G37*
G36*
X113706742Y-76766601D02*
G01*
X113860687Y-76830367D01*
X113999234Y-76922941D01*
X114117059Y-77040766D01*
X114209633Y-77179313D01*
X114273399Y-77333258D01*
X114305907Y-77496685D01*
X114305907Y-77663315D01*
X114273399Y-77826742D01*
X114209633Y-77980687D01*
X114117059Y-78119234D01*
X113999234Y-78237059D01*
X113860687Y-78329633D01*
X113706742Y-78393399D01*
X113543315Y-78425907D01*
X113376685Y-78425907D01*
X113213258Y-78393399D01*
X113059313Y-78329633D01*
X112920766Y-78237059D01*
X112802941Y-78119234D01*
X112710367Y-77980687D01*
X112646601Y-77826742D01*
X112614093Y-77663315D01*
X112614093Y-77496685D01*
X112646601Y-77333258D01*
X112710367Y-77179313D01*
X112802941Y-77040766D01*
X112920766Y-76922941D01*
X113059313Y-76830367D01*
X113213258Y-76766601D01*
X113376685Y-76734093D01*
X113543315Y-76734093D01*
X113706742Y-76766601D01*
G37*
G36*
X116246742Y-76766601D02*
G01*
X116400687Y-76830367D01*
X116539234Y-76922941D01*
X116657059Y-77040766D01*
X116749633Y-77179313D01*
X116813399Y-77333258D01*
X116845907Y-77496685D01*
X116845907Y-77663315D01*
X116813399Y-77826742D01*
X116749633Y-77980687D01*
X116657059Y-78119234D01*
X116539234Y-78237059D01*
X116400687Y-78329633D01*
X116246742Y-78393399D01*
X116083315Y-78425907D01*
X115916685Y-78425907D01*
X115753258Y-78393399D01*
X115599313Y-78329633D01*
X115460766Y-78237059D01*
X115342941Y-78119234D01*
X115250367Y-77980687D01*
X115186601Y-77826742D01*
X115154093Y-77663315D01*
X115154093Y-77496685D01*
X115186601Y-77333258D01*
X115250367Y-77179313D01*
X115342941Y-77040766D01*
X115460766Y-76922941D01*
X115599313Y-76830367D01*
X115753258Y-76766601D01*
X115916685Y-76734093D01*
X116083315Y-76734093D01*
X116246742Y-76766601D01*
G37*
G36*
X118786742Y-76766601D02*
G01*
X118940687Y-76830367D01*
X119079234Y-76922941D01*
X119197059Y-77040766D01*
X119289633Y-77179313D01*
X119353399Y-77333258D01*
X119385907Y-77496685D01*
X119385907Y-77663315D01*
X119353399Y-77826742D01*
X119289633Y-77980687D01*
X119197059Y-78119234D01*
X119079234Y-78237059D01*
X118940687Y-78329633D01*
X118786742Y-78393399D01*
X118623315Y-78425907D01*
X118456685Y-78425907D01*
X118293258Y-78393399D01*
X118139313Y-78329633D01*
X118000766Y-78237059D01*
X117882941Y-78119234D01*
X117790367Y-77980687D01*
X117726601Y-77826742D01*
X117694093Y-77663315D01*
X117694093Y-77496685D01*
X117726601Y-77333258D01*
X117790367Y-77179313D01*
X117882941Y-77040766D01*
X118000766Y-76922941D01*
X118139313Y-76830367D01*
X118293258Y-76766601D01*
X118456685Y-76734093D01*
X118623315Y-76734093D01*
X118786742Y-76766601D01*
G37*
G36*
X121326742Y-76766601D02*
G01*
X121480687Y-76830367D01*
X121619234Y-76922941D01*
X121737059Y-77040766D01*
X121829633Y-77179313D01*
X121893399Y-77333258D01*
X121925907Y-77496685D01*
X121925907Y-77663315D01*
X121893399Y-77826742D01*
X121829633Y-77980687D01*
X121737059Y-78119234D01*
X121619234Y-78237059D01*
X121480687Y-78329633D01*
X121326742Y-78393399D01*
X121163315Y-78425907D01*
X120996685Y-78425907D01*
X120833258Y-78393399D01*
X120679313Y-78329633D01*
X120540766Y-78237059D01*
X120422941Y-78119234D01*
X120330367Y-77980687D01*
X120266601Y-77826742D01*
X120234093Y-77663315D01*
X120234093Y-77496685D01*
X120266601Y-77333258D01*
X120330367Y-77179313D01*
X120422941Y-77040766D01*
X120540766Y-76922941D01*
X120679313Y-76830367D01*
X120833258Y-76766601D01*
X120996685Y-76734093D01*
X121163315Y-76734093D01*
X121326742Y-76766601D01*
G37*
G36*
X126406742Y-76766601D02*
G01*
X126560687Y-76830367D01*
X126699234Y-76922941D01*
X126817059Y-77040766D01*
X126909633Y-77179313D01*
X126973399Y-77333258D01*
X127005907Y-77496685D01*
X127005907Y-77663315D01*
X126973399Y-77826742D01*
X126909633Y-77980687D01*
X126817059Y-78119234D01*
X126699234Y-78237059D01*
X126560687Y-78329633D01*
X126406742Y-78393399D01*
X126243315Y-78425907D01*
X126076685Y-78425907D01*
X125913258Y-78393399D01*
X125759313Y-78329633D01*
X125620766Y-78237059D01*
X125502941Y-78119234D01*
X125410367Y-77980687D01*
X125346601Y-77826742D01*
X125314093Y-77663315D01*
X125314093Y-77496685D01*
X125346601Y-77333258D01*
X125410367Y-77179313D01*
X125502941Y-77040766D01*
X125620766Y-76922941D01*
X125759313Y-76830367D01*
X125913258Y-76766601D01*
X126076685Y-76734093D01*
X126243315Y-76734093D01*
X126406742Y-76766601D01*
G37*
G36*
X128946742Y-76766601D02*
G01*
X129100687Y-76830367D01*
X129239234Y-76922941D01*
X129357059Y-77040766D01*
X129449633Y-77179313D01*
X129513399Y-77333258D01*
X129545907Y-77496685D01*
X129545907Y-77663315D01*
X129513399Y-77826742D01*
X129449633Y-77980687D01*
X129357059Y-78119234D01*
X129239234Y-78237059D01*
X129100687Y-78329633D01*
X128946742Y-78393399D01*
X128783315Y-78425907D01*
X128616685Y-78425907D01*
X128453258Y-78393399D01*
X128299313Y-78329633D01*
X128160766Y-78237059D01*
X128042941Y-78119234D01*
X127950367Y-77980687D01*
X127886601Y-77826742D01*
X127854093Y-77663315D01*
X127854093Y-77496685D01*
X127886601Y-77333258D01*
X127950367Y-77179313D01*
X128042941Y-77040766D01*
X128160766Y-76922941D01*
X128299313Y-76830367D01*
X128453258Y-76766601D01*
X128616685Y-76734093D01*
X128783315Y-76734093D01*
X128946742Y-76766601D01*
G37*
G36*
X131486742Y-76766601D02*
G01*
X131640687Y-76830367D01*
X131779234Y-76922941D01*
X131897059Y-77040766D01*
X131989633Y-77179313D01*
X132053399Y-77333258D01*
X132085907Y-77496685D01*
X132085907Y-77663315D01*
X132053399Y-77826742D01*
X131989633Y-77980687D01*
X131897059Y-78119234D01*
X131779234Y-78237059D01*
X131640687Y-78329633D01*
X131486742Y-78393399D01*
X131323315Y-78425907D01*
X131156685Y-78425907D01*
X130993258Y-78393399D01*
X130839313Y-78329633D01*
X130700766Y-78237059D01*
X130582941Y-78119234D01*
X130490367Y-77980687D01*
X130426601Y-77826742D01*
X130394093Y-77663315D01*
X130394093Y-77496685D01*
X130426601Y-77333258D01*
X130490367Y-77179313D01*
X130582941Y-77040766D01*
X130700766Y-76922941D01*
X130839313Y-76830367D01*
X130993258Y-76766601D01*
X131156685Y-76734093D01*
X131323315Y-76734093D01*
X131486742Y-76766601D01*
G37*
G36*
X134026742Y-76766601D02*
G01*
X134180687Y-76830367D01*
X134319234Y-76922941D01*
X134437059Y-77040766D01*
X134529633Y-77179313D01*
X134593399Y-77333258D01*
X134625907Y-77496685D01*
X134625907Y-77663315D01*
X134593399Y-77826742D01*
X134529633Y-77980687D01*
X134437059Y-78119234D01*
X134319234Y-78237059D01*
X134180687Y-78329633D01*
X134026742Y-78393399D01*
X133863315Y-78425907D01*
X133696685Y-78425907D01*
X133533258Y-78393399D01*
X133379313Y-78329633D01*
X133240766Y-78237059D01*
X133122941Y-78119234D01*
X133030367Y-77980687D01*
X132966601Y-77826742D01*
X132934093Y-77663315D01*
X132934093Y-77496685D01*
X132966601Y-77333258D01*
X133030367Y-77179313D01*
X133122941Y-77040766D01*
X133240766Y-76922941D01*
X133379313Y-76830367D01*
X133533258Y-76766601D01*
X133696685Y-76734093D01*
X133863315Y-76734093D01*
X134026742Y-76766601D01*
G37*
G36*
X139106742Y-76766601D02*
G01*
X139260687Y-76830367D01*
X139399234Y-76922941D01*
X139517059Y-77040766D01*
X139609633Y-77179313D01*
X139673399Y-77333258D01*
X139705907Y-77496685D01*
X139705907Y-77663315D01*
X139673399Y-77826742D01*
X139609633Y-77980687D01*
X139517059Y-78119234D01*
X139399234Y-78237059D01*
X139260687Y-78329633D01*
X139106742Y-78393399D01*
X138943315Y-78425907D01*
X138776685Y-78425907D01*
X138613258Y-78393399D01*
X138459313Y-78329633D01*
X138320766Y-78237059D01*
X138202941Y-78119234D01*
X138110367Y-77980687D01*
X138046601Y-77826742D01*
X138014093Y-77663315D01*
X138014093Y-77496685D01*
X138046601Y-77333258D01*
X138110367Y-77179313D01*
X138202941Y-77040766D01*
X138320766Y-76922941D01*
X138459313Y-76830367D01*
X138613258Y-76766601D01*
X138776685Y-76734093D01*
X138943315Y-76734093D01*
X139106742Y-76766601D01*
G37*
G36*
X141646742Y-76766601D02*
G01*
X141800687Y-76830367D01*
X141939234Y-76922941D01*
X142057059Y-77040766D01*
X142149633Y-77179313D01*
X142213399Y-77333258D01*
X142245907Y-77496685D01*
X142245907Y-77663315D01*
X142213399Y-77826742D01*
X142149633Y-77980687D01*
X142057059Y-78119234D01*
X141939234Y-78237059D01*
X141800687Y-78329633D01*
X141646742Y-78393399D01*
X141483315Y-78425907D01*
X141316685Y-78425907D01*
X141153258Y-78393399D01*
X140999313Y-78329633D01*
X140860766Y-78237059D01*
X140742941Y-78119234D01*
X140650367Y-77980687D01*
X140586601Y-77826742D01*
X140554093Y-77663315D01*
X140554093Y-77496685D01*
X140586601Y-77333258D01*
X140650367Y-77179313D01*
X140742941Y-77040766D01*
X140860766Y-76922941D01*
X140999313Y-76830367D01*
X141153258Y-76766601D01*
X141316685Y-76734093D01*
X141483315Y-76734093D01*
X141646742Y-76766601D01*
G37*
G36*
X98309144Y-58949909D02*
G01*
X98311549Y-58950387D01*
X98311555Y-58950388D01*
X98460543Y-58980024D01*
X98460548Y-58980025D01*
X98462958Y-58980505D01*
X98473276Y-58983635D01*
X98475543Y-58984574D01*
X98475546Y-58984575D01*
X98480437Y-58986601D01*
X98618165Y-59043650D01*
X98627673Y-59048732D01*
X98629708Y-59050092D01*
X98629714Y-59050095D01*
X98756029Y-59134496D01*
X98756032Y-59134499D01*
X98758071Y-59135861D01*
X98766406Y-59142701D01*
X98877299Y-59253594D01*
X98884139Y-59261929D01*
X98971268Y-59392327D01*
X98976350Y-59401835D01*
X99036365Y-59546724D01*
X99039495Y-59557042D01*
X99070091Y-59710856D01*
X99071148Y-59721586D01*
X99071148Y-59724041D01*
X99071148Y-59777643D01*
X99071456Y-59781560D01*
X99073991Y-59797564D01*
X99075000Y-59800000D01*
X99075000Y-60400000D01*
X99071157Y-60409277D01*
X99071157Y-60439018D01*
X99066970Y-60460066D01*
X99037107Y-60532162D01*
X99025185Y-60550005D01*
X98970005Y-60605185D01*
X98952162Y-60617107D01*
X98880066Y-60646970D01*
X98859018Y-60651157D01*
X98854094Y-60651157D01*
X98835513Y-60651157D01*
X98824005Y-60653920D01*
X98822589Y-60654641D01*
X98820462Y-60654808D01*
X98820000Y-60655000D01*
X98818032Y-60655000D01*
X97627919Y-60655000D01*
X97620000Y-60655000D01*
X97610722Y-60651157D01*
X97585906Y-60651157D01*
X97580982Y-60651157D01*
X97559934Y-60646970D01*
X97487838Y-60617107D01*
X97469995Y-60605185D01*
X97414815Y-60550005D01*
X97402893Y-60532162D01*
X97373030Y-60460066D01*
X97368843Y-60439018D01*
X97368843Y-60415511D01*
X97366079Y-60404001D01*
X97365358Y-60402587D01*
X97365190Y-60400460D01*
X97365000Y-60400000D01*
X97365000Y-59800000D01*
X97368852Y-59790700D01*
X97368852Y-59721586D01*
X97369909Y-59710856D01*
X97370387Y-59708451D01*
X97370388Y-59708444D01*
X97400024Y-59559456D01*
X97400026Y-59559448D01*
X97400505Y-59557042D01*
X97403635Y-59546724D01*
X97404573Y-59544459D01*
X97404575Y-59544453D01*
X97462710Y-59404104D01*
X97462710Y-59404102D01*
X97463650Y-59401835D01*
X97468732Y-59392327D01*
X97470089Y-59390295D01*
X97470095Y-59390285D01*
X97554496Y-59263970D01*
X97554502Y-59263961D01*
X97555861Y-59261929D01*
X97562701Y-59253594D01*
X97564431Y-59251863D01*
X97564436Y-59251858D01*
X97671858Y-59144436D01*
X97671863Y-59144431D01*
X97673594Y-59142701D01*
X97681929Y-59135861D01*
X97683961Y-59134502D01*
X97683970Y-59134496D01*
X97810285Y-59050095D01*
X97810295Y-59050089D01*
X97812327Y-59048732D01*
X97821835Y-59043650D01*
X97824104Y-59042710D01*
X97964453Y-58984575D01*
X97964459Y-58984573D01*
X97966724Y-58983635D01*
X97977042Y-58980505D01*
X97979448Y-58980026D01*
X97979456Y-58980024D01*
X98128444Y-58950388D01*
X98128451Y-58950387D01*
X98130856Y-58949909D01*
X98141586Y-58948852D01*
X98298414Y-58948852D01*
X98309144Y-58949909D01*
G37*
G36*
X111009144Y-58949909D02*
G01*
X111011549Y-58950387D01*
X111011555Y-58950388D01*
X111160543Y-58980024D01*
X111160548Y-58980025D01*
X111162958Y-58980505D01*
X111173276Y-58983635D01*
X111175543Y-58984574D01*
X111175546Y-58984575D01*
X111180437Y-58986601D01*
X111318165Y-59043650D01*
X111327673Y-59048732D01*
X111329708Y-59050092D01*
X111329714Y-59050095D01*
X111456029Y-59134496D01*
X111456032Y-59134499D01*
X111458071Y-59135861D01*
X111466406Y-59142701D01*
X111577299Y-59253594D01*
X111584139Y-59261929D01*
X111671268Y-59392327D01*
X111676350Y-59401835D01*
X111736365Y-59546724D01*
X111739495Y-59557042D01*
X111770091Y-59710856D01*
X111771148Y-59721586D01*
X111771148Y-59724041D01*
X111771148Y-59777643D01*
X111771456Y-59781560D01*
X111773991Y-59797564D01*
X111775000Y-59800000D01*
X111775000Y-60400000D01*
X111771157Y-60409277D01*
X111771157Y-60439018D01*
X111766970Y-60460066D01*
X111737107Y-60532162D01*
X111725185Y-60550005D01*
X111670005Y-60605185D01*
X111652162Y-60617107D01*
X111580066Y-60646970D01*
X111559018Y-60651157D01*
X111554094Y-60651157D01*
X111535513Y-60651157D01*
X111524005Y-60653920D01*
X111522589Y-60654641D01*
X111520462Y-60654808D01*
X111520000Y-60655000D01*
X111518032Y-60655000D01*
X110327919Y-60655000D01*
X110320000Y-60655000D01*
X110310722Y-60651157D01*
X110285906Y-60651157D01*
X110280982Y-60651157D01*
X110259934Y-60646970D01*
X110187838Y-60617107D01*
X110169995Y-60605185D01*
X110114815Y-60550005D01*
X110102893Y-60532162D01*
X110073030Y-60460066D01*
X110068843Y-60439018D01*
X110068843Y-60415511D01*
X110066079Y-60404001D01*
X110065358Y-60402587D01*
X110065190Y-60400460D01*
X110065000Y-60400000D01*
X110065000Y-59800000D01*
X110068852Y-59790700D01*
X110068852Y-59721586D01*
X110069909Y-59710856D01*
X110070387Y-59708451D01*
X110070388Y-59708444D01*
X110100024Y-59559456D01*
X110100026Y-59559448D01*
X110100505Y-59557042D01*
X110103635Y-59546724D01*
X110104573Y-59544459D01*
X110104575Y-59544453D01*
X110162710Y-59404104D01*
X110162710Y-59404102D01*
X110163650Y-59401835D01*
X110168732Y-59392327D01*
X110170089Y-59390295D01*
X110170095Y-59390285D01*
X110254496Y-59263970D01*
X110254502Y-59263961D01*
X110255861Y-59261929D01*
X110262701Y-59253594D01*
X110264431Y-59251863D01*
X110264436Y-59251858D01*
X110371858Y-59144436D01*
X110371863Y-59144431D01*
X110373594Y-59142701D01*
X110381929Y-59135861D01*
X110383961Y-59134502D01*
X110383970Y-59134496D01*
X110510285Y-59050095D01*
X110510295Y-59050089D01*
X110512327Y-59048732D01*
X110521835Y-59043650D01*
X110524104Y-59042710D01*
X110664453Y-58984575D01*
X110664459Y-58984573D01*
X110666724Y-58983635D01*
X110677042Y-58980505D01*
X110679448Y-58980026D01*
X110679456Y-58980024D01*
X110828444Y-58950388D01*
X110828451Y-58950387D01*
X110830856Y-58949909D01*
X110841586Y-58948852D01*
X110998414Y-58948852D01*
X111009144Y-58949909D01*
G37*
G36*
X123709144Y-58949909D02*
G01*
X123711549Y-58950387D01*
X123711555Y-58950388D01*
X123860543Y-58980024D01*
X123860548Y-58980025D01*
X123862958Y-58980505D01*
X123873276Y-58983635D01*
X123875543Y-58984574D01*
X123875546Y-58984575D01*
X123880437Y-58986601D01*
X124018165Y-59043650D01*
X124027673Y-59048732D01*
X124029708Y-59050092D01*
X124029714Y-59050095D01*
X124156029Y-59134496D01*
X124156032Y-59134499D01*
X124158071Y-59135861D01*
X124166406Y-59142701D01*
X124277299Y-59253594D01*
X124284139Y-59261929D01*
X124371268Y-59392327D01*
X124376350Y-59401835D01*
X124436365Y-59546724D01*
X124439495Y-59557042D01*
X124470091Y-59710856D01*
X124471148Y-59721586D01*
X124471148Y-59724041D01*
X124471148Y-59777643D01*
X124471456Y-59781560D01*
X124473991Y-59797564D01*
X124475000Y-59800000D01*
X124475000Y-60400000D01*
X124471157Y-60409277D01*
X124471157Y-60439018D01*
X124466970Y-60460066D01*
X124437107Y-60532162D01*
X124425185Y-60550005D01*
X124370005Y-60605185D01*
X124352162Y-60617107D01*
X124280066Y-60646970D01*
X124259018Y-60651157D01*
X124254094Y-60651157D01*
X124235513Y-60651157D01*
X124224005Y-60653920D01*
X124222589Y-60654641D01*
X124220462Y-60654808D01*
X124220000Y-60655000D01*
X124218032Y-60655000D01*
X123027919Y-60655000D01*
X123020000Y-60655000D01*
X123010722Y-60651157D01*
X122985906Y-60651157D01*
X122980982Y-60651157D01*
X122959934Y-60646970D01*
X122887838Y-60617107D01*
X122869995Y-60605185D01*
X122814815Y-60550005D01*
X122802893Y-60532162D01*
X122773030Y-60460066D01*
X122768843Y-60439018D01*
X122768843Y-60415511D01*
X122766079Y-60404001D01*
X122765358Y-60402587D01*
X122765190Y-60400460D01*
X122765000Y-60400000D01*
X122765000Y-59800000D01*
X122768852Y-59790700D01*
X122768852Y-59721586D01*
X122769909Y-59710856D01*
X122770387Y-59708451D01*
X122770388Y-59708444D01*
X122800024Y-59559456D01*
X122800026Y-59559448D01*
X122800505Y-59557042D01*
X122803635Y-59546724D01*
X122804573Y-59544459D01*
X122804575Y-59544453D01*
X122862710Y-59404104D01*
X122862710Y-59404102D01*
X122863650Y-59401835D01*
X122868732Y-59392327D01*
X122870089Y-59390295D01*
X122870095Y-59390285D01*
X122954496Y-59263970D01*
X122954502Y-59263961D01*
X122955861Y-59261929D01*
X122962701Y-59253594D01*
X122964431Y-59251863D01*
X122964436Y-59251858D01*
X123071858Y-59144436D01*
X123071863Y-59144431D01*
X123073594Y-59142701D01*
X123081929Y-59135861D01*
X123083961Y-59134502D01*
X123083970Y-59134496D01*
X123210285Y-59050095D01*
X123210295Y-59050089D01*
X123212327Y-59048732D01*
X123221835Y-59043650D01*
X123224104Y-59042710D01*
X123364453Y-58984575D01*
X123364459Y-58984573D01*
X123366724Y-58983635D01*
X123377042Y-58980505D01*
X123379448Y-58980026D01*
X123379456Y-58980024D01*
X123528444Y-58950388D01*
X123528451Y-58950387D01*
X123530856Y-58949909D01*
X123541586Y-58948852D01*
X123698414Y-58948852D01*
X123709144Y-58949909D01*
G37*
G36*
X136409144Y-58949909D02*
G01*
X136411549Y-58950387D01*
X136411555Y-58950388D01*
X136560543Y-58980024D01*
X136560548Y-58980025D01*
X136562958Y-58980505D01*
X136573276Y-58983635D01*
X136575543Y-58984574D01*
X136575546Y-58984575D01*
X136580437Y-58986601D01*
X136718165Y-59043650D01*
X136727673Y-59048732D01*
X136729708Y-59050092D01*
X136729714Y-59050095D01*
X136856029Y-59134496D01*
X136856032Y-59134499D01*
X136858071Y-59135861D01*
X136866406Y-59142701D01*
X136977299Y-59253594D01*
X136984139Y-59261929D01*
X137071268Y-59392327D01*
X137076350Y-59401835D01*
X137136365Y-59546724D01*
X137139495Y-59557042D01*
X137170091Y-59710856D01*
X137171148Y-59721586D01*
X137171148Y-59724041D01*
X137171148Y-59777643D01*
X137171456Y-59781560D01*
X137173991Y-59797564D01*
X137175000Y-59800000D01*
X137175000Y-60400000D01*
X137171157Y-60409277D01*
X137171157Y-60439018D01*
X137166970Y-60460066D01*
X137137107Y-60532162D01*
X137125185Y-60550005D01*
X137070005Y-60605185D01*
X137052162Y-60617107D01*
X136980066Y-60646970D01*
X136959018Y-60651157D01*
X136954094Y-60651157D01*
X136935513Y-60651157D01*
X136924005Y-60653920D01*
X136922589Y-60654641D01*
X136920462Y-60654808D01*
X136920000Y-60655000D01*
X136918032Y-60655000D01*
X135727919Y-60655000D01*
X135720000Y-60655000D01*
X135710722Y-60651157D01*
X135685906Y-60651157D01*
X135680982Y-60651157D01*
X135659934Y-60646970D01*
X135587838Y-60617107D01*
X135569995Y-60605185D01*
X135514815Y-60550005D01*
X135502893Y-60532162D01*
X135473030Y-60460066D01*
X135468843Y-60439018D01*
X135468843Y-60415511D01*
X135466079Y-60404001D01*
X135465358Y-60402587D01*
X135465190Y-60400460D01*
X135465000Y-60400000D01*
X135465000Y-59800000D01*
X135468852Y-59790700D01*
X135468852Y-59721586D01*
X135469909Y-59710856D01*
X135470387Y-59708451D01*
X135470388Y-59708444D01*
X135500024Y-59559456D01*
X135500026Y-59559448D01*
X135500505Y-59557042D01*
X135503635Y-59546724D01*
X135504573Y-59544459D01*
X135504575Y-59544453D01*
X135562710Y-59404104D01*
X135562710Y-59404102D01*
X135563650Y-59401835D01*
X135568732Y-59392327D01*
X135570089Y-59390295D01*
X135570095Y-59390285D01*
X135654496Y-59263970D01*
X135654502Y-59263961D01*
X135655861Y-59261929D01*
X135662701Y-59253594D01*
X135664431Y-59251863D01*
X135664436Y-59251858D01*
X135771858Y-59144436D01*
X135771863Y-59144431D01*
X135773594Y-59142701D01*
X135781929Y-59135861D01*
X135783961Y-59134502D01*
X135783970Y-59134496D01*
X135910285Y-59050095D01*
X135910295Y-59050089D01*
X135912327Y-59048732D01*
X135921835Y-59043650D01*
X135924104Y-59042710D01*
X136064453Y-58984575D01*
X136064459Y-58984573D01*
X136066724Y-58983635D01*
X136077042Y-58980505D01*
X136079448Y-58980026D01*
X136079456Y-58980024D01*
X136228444Y-58950388D01*
X136228451Y-58950387D01*
X136230856Y-58949909D01*
X136241586Y-58948852D01*
X136398414Y-58948852D01*
X136409144Y-58949909D01*
G37*
G36*
X142004047Y-58950805D02*
G01*
X142055408Y-58956764D01*
X142072954Y-58964511D01*
X142095671Y-58969030D01*
X142119991Y-58985280D01*
X142140793Y-58994465D01*
X142155000Y-59008672D01*
X142176777Y-59023223D01*
X142191327Y-59044999D01*
X142205534Y-59059206D01*
X142214718Y-59080006D01*
X142230970Y-59104329D01*
X142235489Y-59127048D01*
X142243235Y-59144591D01*
X142249192Y-59195940D01*
X142250000Y-59200000D01*
X142250000Y-60400000D01*
X142249192Y-60404059D01*
X142243235Y-60455408D01*
X142235489Y-60472950D01*
X142230970Y-60495671D01*
X142214716Y-60519995D01*
X142205534Y-60540793D01*
X142191329Y-60554997D01*
X142176777Y-60576777D01*
X142154997Y-60591329D01*
X142140793Y-60605534D01*
X142119995Y-60614716D01*
X142095671Y-60630970D01*
X142072950Y-60635489D01*
X142055408Y-60643235D01*
X142004061Y-60649192D01*
X142000000Y-60650000D01*
X140800000Y-60650000D01*
X140795941Y-60649192D01*
X140744591Y-60643235D01*
X140727048Y-60635489D01*
X140704329Y-60630970D01*
X140680006Y-60614718D01*
X140659206Y-60605534D01*
X140644999Y-60591327D01*
X140623223Y-60576777D01*
X140608672Y-60555000D01*
X140594465Y-60540793D01*
X140585280Y-60519991D01*
X140569030Y-60495671D01*
X140564511Y-60472954D01*
X140556764Y-60455408D01*
X140550805Y-60404049D01*
X140550000Y-60400000D01*
X140550000Y-59200000D01*
X140550804Y-59195953D01*
X140556764Y-59144591D01*
X140564511Y-59127043D01*
X140569030Y-59104329D01*
X140585278Y-59080010D01*
X140594465Y-59059206D01*
X140608674Y-59044996D01*
X140623223Y-59023223D01*
X140644996Y-59008674D01*
X140659206Y-58994465D01*
X140680010Y-58985278D01*
X140704329Y-58969030D01*
X140727043Y-58964511D01*
X140744591Y-58956764D01*
X140795952Y-58950805D01*
X140800000Y-58950000D01*
X142000000Y-58950000D01*
X142004047Y-58950805D01*
G37*
G36*
X93386742Y-58986601D02*
G01*
X93540687Y-59050367D01*
X93679234Y-59142941D01*
X93797059Y-59260766D01*
X93889633Y-59399313D01*
X93953399Y-59553258D01*
X93985907Y-59716685D01*
X93985907Y-59883315D01*
X93953399Y-60046742D01*
X93889633Y-60200687D01*
X93797059Y-60339234D01*
X93679234Y-60457059D01*
X93540687Y-60549633D01*
X93386742Y-60613399D01*
X93223315Y-60645907D01*
X93056685Y-60645907D01*
X92893258Y-60613399D01*
X92739313Y-60549633D01*
X92600766Y-60457059D01*
X92482941Y-60339234D01*
X92390367Y-60200687D01*
X92326601Y-60046742D01*
X92294093Y-59883315D01*
X92294093Y-59716685D01*
X92326601Y-59553258D01*
X92390367Y-59399313D01*
X92482941Y-59260766D01*
X92600766Y-59142941D01*
X92739313Y-59050367D01*
X92893258Y-58986601D01*
X93056685Y-58954093D01*
X93223315Y-58954093D01*
X93386742Y-58986601D01*
G37*
G36*
X95926742Y-58986601D02*
G01*
X96080687Y-59050367D01*
X96219234Y-59142941D01*
X96337059Y-59260766D01*
X96429633Y-59399313D01*
X96493399Y-59553258D01*
X96525907Y-59716685D01*
X96525907Y-59883315D01*
X96493399Y-60046742D01*
X96429633Y-60200687D01*
X96337059Y-60339234D01*
X96219234Y-60457059D01*
X96080687Y-60549633D01*
X95926742Y-60613399D01*
X95763315Y-60645907D01*
X95596685Y-60645907D01*
X95433258Y-60613399D01*
X95279313Y-60549633D01*
X95140766Y-60457059D01*
X95022941Y-60339234D01*
X94930367Y-60200687D01*
X94866601Y-60046742D01*
X94834093Y-59883315D01*
X94834093Y-59716685D01*
X94866601Y-59553258D01*
X94930367Y-59399313D01*
X95022941Y-59260766D01*
X95140766Y-59142941D01*
X95279313Y-59050367D01*
X95433258Y-58986601D01*
X95596685Y-58954093D01*
X95763315Y-58954093D01*
X95926742Y-58986601D01*
G37*
G36*
X101006742Y-58986601D02*
G01*
X101160687Y-59050367D01*
X101299234Y-59142941D01*
X101417059Y-59260766D01*
X101509633Y-59399313D01*
X101573399Y-59553258D01*
X101605907Y-59716685D01*
X101605907Y-59883315D01*
X101573399Y-60046742D01*
X101509633Y-60200687D01*
X101417059Y-60339234D01*
X101299234Y-60457059D01*
X101160687Y-60549633D01*
X101006742Y-60613399D01*
X100843315Y-60645907D01*
X100676685Y-60645907D01*
X100513258Y-60613399D01*
X100359313Y-60549633D01*
X100220766Y-60457059D01*
X100102941Y-60339234D01*
X100010367Y-60200687D01*
X99946601Y-60046742D01*
X99914093Y-59883315D01*
X99914093Y-59716685D01*
X99946601Y-59553258D01*
X100010367Y-59399313D01*
X100102941Y-59260766D01*
X100220766Y-59142941D01*
X100359313Y-59050367D01*
X100513258Y-58986601D01*
X100676685Y-58954093D01*
X100843315Y-58954093D01*
X101006742Y-58986601D01*
G37*
G36*
X103546742Y-58986601D02*
G01*
X103700687Y-59050367D01*
X103839234Y-59142941D01*
X103957059Y-59260766D01*
X104049633Y-59399313D01*
X104113399Y-59553258D01*
X104145907Y-59716685D01*
X104145907Y-59883315D01*
X104113399Y-60046742D01*
X104049633Y-60200687D01*
X103957059Y-60339234D01*
X103839234Y-60457059D01*
X103700687Y-60549633D01*
X103546742Y-60613399D01*
X103383315Y-60645907D01*
X103216685Y-60645907D01*
X103053258Y-60613399D01*
X102899313Y-60549633D01*
X102760766Y-60457059D01*
X102642941Y-60339234D01*
X102550367Y-60200687D01*
X102486601Y-60046742D01*
X102454093Y-59883315D01*
X102454093Y-59716685D01*
X102486601Y-59553258D01*
X102550367Y-59399313D01*
X102642941Y-59260766D01*
X102760766Y-59142941D01*
X102899313Y-59050367D01*
X103053258Y-58986601D01*
X103216685Y-58954093D01*
X103383315Y-58954093D01*
X103546742Y-58986601D01*
G37*
G36*
X106086742Y-58986601D02*
G01*
X106240687Y-59050367D01*
X106379234Y-59142941D01*
X106497059Y-59260766D01*
X106589633Y-59399313D01*
X106653399Y-59553258D01*
X106685907Y-59716685D01*
X106685907Y-59883315D01*
X106653399Y-60046742D01*
X106589633Y-60200687D01*
X106497059Y-60339234D01*
X106379234Y-60457059D01*
X106240687Y-60549633D01*
X106086742Y-60613399D01*
X105923315Y-60645907D01*
X105756685Y-60645907D01*
X105593258Y-60613399D01*
X105439313Y-60549633D01*
X105300766Y-60457059D01*
X105182941Y-60339234D01*
X105090367Y-60200687D01*
X105026601Y-60046742D01*
X104994093Y-59883315D01*
X104994093Y-59716685D01*
X105026601Y-59553258D01*
X105090367Y-59399313D01*
X105182941Y-59260766D01*
X105300766Y-59142941D01*
X105439313Y-59050367D01*
X105593258Y-58986601D01*
X105756685Y-58954093D01*
X105923315Y-58954093D01*
X106086742Y-58986601D01*
G37*
G36*
X108626742Y-58986601D02*
G01*
X108780687Y-59050367D01*
X108919234Y-59142941D01*
X109037059Y-59260766D01*
X109129633Y-59399313D01*
X109193399Y-59553258D01*
X109225907Y-59716685D01*
X109225907Y-59883315D01*
X109193399Y-60046742D01*
X109129633Y-60200687D01*
X109037059Y-60339234D01*
X108919234Y-60457059D01*
X108780687Y-60549633D01*
X108626742Y-60613399D01*
X108463315Y-60645907D01*
X108296685Y-60645907D01*
X108133258Y-60613399D01*
X107979313Y-60549633D01*
X107840766Y-60457059D01*
X107722941Y-60339234D01*
X107630367Y-60200687D01*
X107566601Y-60046742D01*
X107534093Y-59883315D01*
X107534093Y-59716685D01*
X107566601Y-59553258D01*
X107630367Y-59399313D01*
X107722941Y-59260766D01*
X107840766Y-59142941D01*
X107979313Y-59050367D01*
X108133258Y-58986601D01*
X108296685Y-58954093D01*
X108463315Y-58954093D01*
X108626742Y-58986601D01*
G37*
G36*
X113706742Y-58986601D02*
G01*
X113860687Y-59050367D01*
X113999234Y-59142941D01*
X114117059Y-59260766D01*
X114209633Y-59399313D01*
X114273399Y-59553258D01*
X114305907Y-59716685D01*
X114305907Y-59883315D01*
X114273399Y-60046742D01*
X114209633Y-60200687D01*
X114117059Y-60339234D01*
X113999234Y-60457059D01*
X113860687Y-60549633D01*
X113706742Y-60613399D01*
X113543315Y-60645907D01*
X113376685Y-60645907D01*
X113213258Y-60613399D01*
X113059313Y-60549633D01*
X112920766Y-60457059D01*
X112802941Y-60339234D01*
X112710367Y-60200687D01*
X112646601Y-60046742D01*
X112614093Y-59883315D01*
X112614093Y-59716685D01*
X112646601Y-59553258D01*
X112710367Y-59399313D01*
X112802941Y-59260766D01*
X112920766Y-59142941D01*
X113059313Y-59050367D01*
X113213258Y-58986601D01*
X113376685Y-58954093D01*
X113543315Y-58954093D01*
X113706742Y-58986601D01*
G37*
G36*
X116246742Y-58986601D02*
G01*
X116400687Y-59050367D01*
X116539234Y-59142941D01*
X116657059Y-59260766D01*
X116749633Y-59399313D01*
X116813399Y-59553258D01*
X116845907Y-59716685D01*
X116845907Y-59883315D01*
X116813399Y-60046742D01*
X116749633Y-60200687D01*
X116657059Y-60339234D01*
X116539234Y-60457059D01*
X116400687Y-60549633D01*
X116246742Y-60613399D01*
X116083315Y-60645907D01*
X115916685Y-60645907D01*
X115753258Y-60613399D01*
X115599313Y-60549633D01*
X115460766Y-60457059D01*
X115342941Y-60339234D01*
X115250367Y-60200687D01*
X115186601Y-60046742D01*
X115154093Y-59883315D01*
X115154093Y-59716685D01*
X115186601Y-59553258D01*
X115250367Y-59399313D01*
X115342941Y-59260766D01*
X115460766Y-59142941D01*
X115599313Y-59050367D01*
X115753258Y-58986601D01*
X115916685Y-58954093D01*
X116083315Y-58954093D01*
X116246742Y-58986601D01*
G37*
G36*
X118786742Y-58986601D02*
G01*
X118940687Y-59050367D01*
X119079234Y-59142941D01*
X119197059Y-59260766D01*
X119289633Y-59399313D01*
X119353399Y-59553258D01*
X119385907Y-59716685D01*
X119385907Y-59883315D01*
X119353399Y-60046742D01*
X119289633Y-60200687D01*
X119197059Y-60339234D01*
X119079234Y-60457059D01*
X118940687Y-60549633D01*
X118786742Y-60613399D01*
X118623315Y-60645907D01*
X118456685Y-60645907D01*
X118293258Y-60613399D01*
X118139313Y-60549633D01*
X118000766Y-60457059D01*
X117882941Y-60339234D01*
X117790367Y-60200687D01*
X117726601Y-60046742D01*
X117694093Y-59883315D01*
X117694093Y-59716685D01*
X117726601Y-59553258D01*
X117790367Y-59399313D01*
X117882941Y-59260766D01*
X118000766Y-59142941D01*
X118139313Y-59050367D01*
X118293258Y-58986601D01*
X118456685Y-58954093D01*
X118623315Y-58954093D01*
X118786742Y-58986601D01*
G37*
G36*
X121326742Y-58986601D02*
G01*
X121480687Y-59050367D01*
X121619234Y-59142941D01*
X121737059Y-59260766D01*
X121829633Y-59399313D01*
X121893399Y-59553258D01*
X121925907Y-59716685D01*
X121925907Y-59883315D01*
X121893399Y-60046742D01*
X121829633Y-60200687D01*
X121737059Y-60339234D01*
X121619234Y-60457059D01*
X121480687Y-60549633D01*
X121326742Y-60613399D01*
X121163315Y-60645907D01*
X120996685Y-60645907D01*
X120833258Y-60613399D01*
X120679313Y-60549633D01*
X120540766Y-60457059D01*
X120422941Y-60339234D01*
X120330367Y-60200687D01*
X120266601Y-60046742D01*
X120234093Y-59883315D01*
X120234093Y-59716685D01*
X120266601Y-59553258D01*
X120330367Y-59399313D01*
X120422941Y-59260766D01*
X120540766Y-59142941D01*
X120679313Y-59050367D01*
X120833258Y-58986601D01*
X120996685Y-58954093D01*
X121163315Y-58954093D01*
X121326742Y-58986601D01*
G37*
G36*
X126406742Y-58986601D02*
G01*
X126560687Y-59050367D01*
X126699234Y-59142941D01*
X126817059Y-59260766D01*
X126909633Y-59399313D01*
X126973399Y-59553258D01*
X127005907Y-59716685D01*
X127005907Y-59883315D01*
X126973399Y-60046742D01*
X126909633Y-60200687D01*
X126817059Y-60339234D01*
X126699234Y-60457059D01*
X126560687Y-60549633D01*
X126406742Y-60613399D01*
X126243315Y-60645907D01*
X126076685Y-60645907D01*
X125913258Y-60613399D01*
X125759313Y-60549633D01*
X125620766Y-60457059D01*
X125502941Y-60339234D01*
X125410367Y-60200687D01*
X125346601Y-60046742D01*
X125314093Y-59883315D01*
X125314093Y-59716685D01*
X125346601Y-59553258D01*
X125410367Y-59399313D01*
X125502941Y-59260766D01*
X125620766Y-59142941D01*
X125759313Y-59050367D01*
X125913258Y-58986601D01*
X126076685Y-58954093D01*
X126243315Y-58954093D01*
X126406742Y-58986601D01*
G37*
G36*
X128946742Y-58986601D02*
G01*
X129100687Y-59050367D01*
X129239234Y-59142941D01*
X129357059Y-59260766D01*
X129449633Y-59399313D01*
X129513399Y-59553258D01*
X129545907Y-59716685D01*
X129545907Y-59883315D01*
X129513399Y-60046742D01*
X129449633Y-60200687D01*
X129357059Y-60339234D01*
X129239234Y-60457059D01*
X129100687Y-60549633D01*
X128946742Y-60613399D01*
X128783315Y-60645907D01*
X128616685Y-60645907D01*
X128453258Y-60613399D01*
X128299313Y-60549633D01*
X128160766Y-60457059D01*
X128042941Y-60339234D01*
X127950367Y-60200687D01*
X127886601Y-60046742D01*
X127854093Y-59883315D01*
X127854093Y-59716685D01*
X127886601Y-59553258D01*
X127950367Y-59399313D01*
X128042941Y-59260766D01*
X128160766Y-59142941D01*
X128299313Y-59050367D01*
X128453258Y-58986601D01*
X128616685Y-58954093D01*
X128783315Y-58954093D01*
X128946742Y-58986601D01*
G37*
G36*
X131486742Y-58986601D02*
G01*
X131640687Y-59050367D01*
X131779234Y-59142941D01*
X131897059Y-59260766D01*
X131989633Y-59399313D01*
X132053399Y-59553258D01*
X132085907Y-59716685D01*
X132085907Y-59883315D01*
X132053399Y-60046742D01*
X131989633Y-60200687D01*
X131897059Y-60339234D01*
X131779234Y-60457059D01*
X131640687Y-60549633D01*
X131486742Y-60613399D01*
X131323315Y-60645907D01*
X131156685Y-60645907D01*
X130993258Y-60613399D01*
X130839313Y-60549633D01*
X130700766Y-60457059D01*
X130582941Y-60339234D01*
X130490367Y-60200687D01*
X130426601Y-60046742D01*
X130394093Y-59883315D01*
X130394093Y-59716685D01*
X130426601Y-59553258D01*
X130490367Y-59399313D01*
X130582941Y-59260766D01*
X130700766Y-59142941D01*
X130839313Y-59050367D01*
X130993258Y-58986601D01*
X131156685Y-58954093D01*
X131323315Y-58954093D01*
X131486742Y-58986601D01*
G37*
G36*
X134026742Y-58986601D02*
G01*
X134180687Y-59050367D01*
X134319234Y-59142941D01*
X134437059Y-59260766D01*
X134529633Y-59399313D01*
X134593399Y-59553258D01*
X134625907Y-59716685D01*
X134625907Y-59883315D01*
X134593399Y-60046742D01*
X134529633Y-60200687D01*
X134437059Y-60339234D01*
X134319234Y-60457059D01*
X134180687Y-60549633D01*
X134026742Y-60613399D01*
X133863315Y-60645907D01*
X133696685Y-60645907D01*
X133533258Y-60613399D01*
X133379313Y-60549633D01*
X133240766Y-60457059D01*
X133122941Y-60339234D01*
X133030367Y-60200687D01*
X132966601Y-60046742D01*
X132934093Y-59883315D01*
X132934093Y-59716685D01*
X132966601Y-59553258D01*
X133030367Y-59399313D01*
X133122941Y-59260766D01*
X133240766Y-59142941D01*
X133379313Y-59050367D01*
X133533258Y-58986601D01*
X133696685Y-58954093D01*
X133863315Y-58954093D01*
X134026742Y-58986601D01*
G37*
G36*
X139106742Y-58986601D02*
G01*
X139260687Y-59050367D01*
X139399234Y-59142941D01*
X139517059Y-59260766D01*
X139609633Y-59399313D01*
X139673399Y-59553258D01*
X139705907Y-59716685D01*
X139705907Y-59883315D01*
X139673399Y-60046742D01*
X139609633Y-60200687D01*
X139517059Y-60339234D01*
X139399234Y-60457059D01*
X139260687Y-60549633D01*
X139106742Y-60613399D01*
X138943315Y-60645907D01*
X138776685Y-60645907D01*
X138613258Y-60613399D01*
X138459313Y-60549633D01*
X138320766Y-60457059D01*
X138202941Y-60339234D01*
X138110367Y-60200687D01*
X138046601Y-60046742D01*
X138014093Y-59883315D01*
X138014093Y-59716685D01*
X138046601Y-59553258D01*
X138110367Y-59399313D01*
X138202941Y-59260766D01*
X138320766Y-59142941D01*
X138459313Y-59050367D01*
X138613258Y-58986601D01*
X138776685Y-58954093D01*
X138943315Y-58954093D01*
X139106742Y-58986601D01*
G37*
G36*
X110210476Y-56491866D02*
G01*
X110334819Y-56563656D01*
X110436344Y-56665181D01*
X110508134Y-56789524D01*
X110545295Y-56928211D01*
X110545295Y-57071789D01*
X110508134Y-57210476D01*
X110436344Y-57334819D01*
X110334819Y-57436344D01*
X110210476Y-57508134D01*
X110071789Y-57545295D01*
X109928211Y-57545295D01*
X109789524Y-57508134D01*
X109665181Y-57436344D01*
X109563656Y-57334819D01*
X109491866Y-57210476D01*
X109454705Y-57071789D01*
X109454705Y-56928211D01*
X109491866Y-56789524D01*
X109563656Y-56665181D01*
X109665181Y-56563656D01*
X109789524Y-56491866D01*
X109928211Y-56454705D01*
X110071789Y-56454705D01*
X110210476Y-56491866D01*
G37*
G36*
X88618894Y-50355086D02*
G01*
X88629458Y-50355086D01*
X88681477Y-50363325D01*
X88821877Y-50381809D01*
X88856138Y-50390989D01*
X88885185Y-50395590D01*
X88941045Y-50413740D01*
X89030338Y-50437666D01*
X89087309Y-50461264D01*
X89131428Y-50475599D01*
X89172755Y-50496656D01*
X89229733Y-50520257D01*
X89309803Y-50566485D01*
X89362123Y-50593144D01*
X89385909Y-50610425D01*
X89416624Y-50628159D01*
X89528975Y-50714369D01*
X89571589Y-50745330D01*
X89579058Y-50752799D01*
X89587848Y-50759544D01*
X89740455Y-50912151D01*
X89747199Y-50920940D01*
X89754670Y-50928411D01*
X89785634Y-50971030D01*
X89871840Y-51083375D01*
X89889572Y-51114087D01*
X89906856Y-51137877D01*
X89933517Y-51190203D01*
X89979742Y-51270266D01*
X90003340Y-51327237D01*
X90024401Y-51368572D01*
X90038738Y-51412696D01*
X90062333Y-51469661D01*
X90086255Y-51558941D01*
X90104410Y-51614815D01*
X90109011Y-51643867D01*
X90118190Y-51678122D01*
X90136673Y-51818514D01*
X90144914Y-51870542D01*
X90144914Y-51881105D01*
X90146360Y-51892089D01*
X90146360Y-52107910D01*
X90144914Y-52118893D01*
X90144914Y-52129458D01*
X90136672Y-52181490D01*
X90118190Y-52321877D01*
X90109011Y-52356129D01*
X90104410Y-52385185D01*
X90086254Y-52441063D01*
X90062333Y-52530338D01*
X90038739Y-52587298D01*
X90024401Y-52631428D01*
X90003337Y-52672766D01*
X89979742Y-52729733D01*
X89933521Y-52809788D01*
X89906856Y-52862123D01*
X89889569Y-52885916D01*
X89871840Y-52916624D01*
X89785648Y-53028950D01*
X89754670Y-53071589D01*
X89747195Y-53079063D01*
X89740455Y-53087848D01*
X89587848Y-53240455D01*
X89579063Y-53247195D01*
X89571589Y-53254670D01*
X89528950Y-53285648D01*
X89416624Y-53371840D01*
X89385916Y-53389569D01*
X89362123Y-53406856D01*
X89309788Y-53433521D01*
X89229733Y-53479742D01*
X89172766Y-53503337D01*
X89131428Y-53524401D01*
X89087298Y-53538739D01*
X89030338Y-53562333D01*
X88941063Y-53586254D01*
X88885185Y-53604410D01*
X88856129Y-53609011D01*
X88821877Y-53618190D01*
X88681490Y-53636672D01*
X88629458Y-53644914D01*
X88618893Y-53644914D01*
X88607910Y-53646360D01*
X88392090Y-53646360D01*
X88381107Y-53644914D01*
X88370542Y-53644914D01*
X88318511Y-53636672D01*
X88178122Y-53618190D01*
X88143867Y-53609011D01*
X88114815Y-53604410D01*
X88058941Y-53586255D01*
X87969661Y-53562333D01*
X87912696Y-53538738D01*
X87868572Y-53524401D01*
X87827237Y-53503340D01*
X87770266Y-53479742D01*
X87690203Y-53433517D01*
X87637877Y-53406856D01*
X87614087Y-53389572D01*
X87583375Y-53371840D01*
X87471030Y-53285634D01*
X87428411Y-53254670D01*
X87420940Y-53247199D01*
X87412151Y-53240455D01*
X87259544Y-53087848D01*
X87252799Y-53079058D01*
X87245330Y-53071589D01*
X87214369Y-53028975D01*
X87128159Y-52916624D01*
X87110425Y-52885909D01*
X87093144Y-52862123D01*
X87066485Y-52809803D01*
X87020257Y-52729733D01*
X86996656Y-52672755D01*
X86975599Y-52631428D01*
X86961264Y-52587309D01*
X86937666Y-52530338D01*
X86913740Y-52441045D01*
X86895590Y-52385185D01*
X86890989Y-52356138D01*
X86881809Y-52321877D01*
X86863325Y-52181477D01*
X86855086Y-52129458D01*
X86855086Y-52118893D01*
X86853640Y-52107910D01*
X86853640Y-51892089D01*
X86855086Y-51881105D01*
X86855086Y-51870542D01*
X86863324Y-51818527D01*
X86881809Y-51678122D01*
X86890989Y-51643858D01*
X86895590Y-51614815D01*
X86913738Y-51558959D01*
X86937666Y-51469661D01*
X86961265Y-51412685D01*
X86975599Y-51368572D01*
X86996654Y-51327248D01*
X87020257Y-51270266D01*
X87066489Y-51190188D01*
X87093144Y-51137877D01*
X87110423Y-51114094D01*
X87128159Y-51083375D01*
X87214383Y-50971005D01*
X87245330Y-50928411D01*
X87252796Y-50920944D01*
X87259544Y-50912151D01*
X87412151Y-50759544D01*
X87420944Y-50752796D01*
X87428411Y-50745330D01*
X87471005Y-50714383D01*
X87583375Y-50628159D01*
X87614094Y-50610423D01*
X87637877Y-50593144D01*
X87690188Y-50566489D01*
X87770266Y-50520257D01*
X87827248Y-50496654D01*
X87868572Y-50475599D01*
X87912685Y-50461265D01*
X87969661Y-50437666D01*
X88058959Y-50413738D01*
X88114815Y-50395590D01*
X88143858Y-50390989D01*
X88178122Y-50381809D01*
X88318524Y-50363324D01*
X88370542Y-50355086D01*
X88381106Y-50355086D01*
X88392090Y-50353640D01*
X88607910Y-50353640D01*
X88618894Y-50355086D01*
G37*
G36*
X140618894Y-50355086D02*
G01*
X140629458Y-50355086D01*
X140681477Y-50363325D01*
X140821877Y-50381809D01*
X140856138Y-50390989D01*
X140885185Y-50395590D01*
X140941045Y-50413740D01*
X141030338Y-50437666D01*
X141087309Y-50461264D01*
X141131428Y-50475599D01*
X141172755Y-50496656D01*
X141229733Y-50520257D01*
X141309803Y-50566485D01*
X141362123Y-50593144D01*
X141385909Y-50610425D01*
X141416624Y-50628159D01*
X141528975Y-50714369D01*
X141571589Y-50745330D01*
X141579058Y-50752799D01*
X141587848Y-50759544D01*
X141740455Y-50912151D01*
X141747199Y-50920940D01*
X141754670Y-50928411D01*
X141785634Y-50971030D01*
X141871840Y-51083375D01*
X141889572Y-51114087D01*
X141906856Y-51137877D01*
X141933517Y-51190203D01*
X141979742Y-51270266D01*
X142003340Y-51327237D01*
X142024401Y-51368572D01*
X142038738Y-51412696D01*
X142062333Y-51469661D01*
X142086255Y-51558941D01*
X142104410Y-51614815D01*
X142109011Y-51643867D01*
X142118190Y-51678122D01*
X142136673Y-51818514D01*
X142144914Y-51870542D01*
X142144914Y-51881105D01*
X142146360Y-51892089D01*
X142146360Y-52107910D01*
X142144914Y-52118893D01*
X142144914Y-52129458D01*
X142136672Y-52181490D01*
X142118190Y-52321877D01*
X142109011Y-52356129D01*
X142104410Y-52385185D01*
X142086254Y-52441063D01*
X142062333Y-52530338D01*
X142038739Y-52587298D01*
X142024401Y-52631428D01*
X142003337Y-52672766D01*
X141979742Y-52729733D01*
X141933521Y-52809788D01*
X141906856Y-52862123D01*
X141889569Y-52885916D01*
X141871840Y-52916624D01*
X141785648Y-53028950D01*
X141754670Y-53071589D01*
X141747195Y-53079063D01*
X141740455Y-53087848D01*
X141587848Y-53240455D01*
X141579063Y-53247195D01*
X141571589Y-53254670D01*
X141528950Y-53285648D01*
X141416624Y-53371840D01*
X141385916Y-53389569D01*
X141362123Y-53406856D01*
X141309788Y-53433521D01*
X141229733Y-53479742D01*
X141172766Y-53503337D01*
X141131428Y-53524401D01*
X141087298Y-53538739D01*
X141030338Y-53562333D01*
X140941063Y-53586254D01*
X140885185Y-53604410D01*
X140856129Y-53609011D01*
X140821877Y-53618190D01*
X140681490Y-53636672D01*
X140629458Y-53644914D01*
X140618893Y-53644914D01*
X140607910Y-53646360D01*
X140392090Y-53646360D01*
X140381107Y-53644914D01*
X140370542Y-53644914D01*
X140318511Y-53636672D01*
X140178122Y-53618190D01*
X140143867Y-53609011D01*
X140114815Y-53604410D01*
X140058941Y-53586255D01*
X139969661Y-53562333D01*
X139912696Y-53538738D01*
X139868572Y-53524401D01*
X139827237Y-53503340D01*
X139770266Y-53479742D01*
X139690203Y-53433517D01*
X139637877Y-53406856D01*
X139614087Y-53389572D01*
X139583375Y-53371840D01*
X139471030Y-53285634D01*
X139428411Y-53254670D01*
X139420940Y-53247199D01*
X139412151Y-53240455D01*
X139259544Y-53087848D01*
X139252799Y-53079058D01*
X139245330Y-53071589D01*
X139214369Y-53028975D01*
X139128159Y-52916624D01*
X139110425Y-52885909D01*
X139093144Y-52862123D01*
X139066485Y-52809803D01*
X139020257Y-52729733D01*
X138996656Y-52672755D01*
X138975599Y-52631428D01*
X138961264Y-52587309D01*
X138937666Y-52530338D01*
X138913740Y-52441045D01*
X138895590Y-52385185D01*
X138890989Y-52356138D01*
X138881809Y-52321877D01*
X138863325Y-52181477D01*
X138855086Y-52129458D01*
X138855086Y-52118893D01*
X138853640Y-52107910D01*
X138853640Y-51892089D01*
X138855086Y-51881105D01*
X138855086Y-51870542D01*
X138863324Y-51818527D01*
X138881809Y-51678122D01*
X138890989Y-51643858D01*
X138895590Y-51614815D01*
X138913738Y-51558959D01*
X138937666Y-51469661D01*
X138961265Y-51412685D01*
X138975599Y-51368572D01*
X138996654Y-51327248D01*
X139020257Y-51270266D01*
X139066489Y-51190188D01*
X139093144Y-51137877D01*
X139110423Y-51114094D01*
X139128159Y-51083375D01*
X139214383Y-50971005D01*
X139245330Y-50928411D01*
X139252796Y-50920944D01*
X139259544Y-50912151D01*
X139412151Y-50759544D01*
X139420944Y-50752796D01*
X139428411Y-50745330D01*
X139471005Y-50714383D01*
X139583375Y-50628159D01*
X139614094Y-50610423D01*
X139637877Y-50593144D01*
X139690188Y-50566489D01*
X139770266Y-50520257D01*
X139827248Y-50496654D01*
X139868572Y-50475599D01*
X139912685Y-50461265D01*
X139969661Y-50437666D01*
X140058959Y-50413738D01*
X140114815Y-50395590D01*
X140143858Y-50390989D01*
X140178122Y-50381809D01*
X140318524Y-50363324D01*
X140370542Y-50355086D01*
X140381106Y-50355086D01*
X140392090Y-50353640D01*
X140607910Y-50353640D01*
X140618894Y-50355086D01*
G37*
G36*
X100918685Y-51582969D02*
G01*
X100927358Y-51586798D01*
X100934925Y-51587901D01*
X100982223Y-51611023D01*
X101019541Y-51627501D01*
X101022996Y-51630956D01*
X101023920Y-51631408D01*
X101093591Y-51701079D01*
X101094042Y-51702002D01*
X101097499Y-51705459D01*
X101113978Y-51742782D01*
X101137098Y-51790073D01*
X101138200Y-51797639D01*
X101142031Y-51806315D01*
X101150000Y-51875000D01*
X101150000Y-53125000D01*
X101142031Y-53193685D01*
X101138199Y-53202361D01*
X101137098Y-53209925D01*
X101113985Y-53257202D01*
X101097499Y-53294541D01*
X101094041Y-53297998D01*
X101093591Y-53298920D01*
X101023920Y-53368591D01*
X101022998Y-53369041D01*
X101019541Y-53372499D01*
X100982207Y-53388983D01*
X100934926Y-53412098D01*
X100927361Y-53413200D01*
X100918685Y-53417031D01*
X100850000Y-53425000D01*
X100150000Y-53425000D01*
X100081315Y-53417031D01*
X100072638Y-53413200D01*
X100065074Y-53412098D01*
X100017787Y-53388981D01*
X99980459Y-53372499D01*
X99977002Y-53369042D01*
X99976079Y-53368591D01*
X99906408Y-53298920D01*
X99905956Y-53297996D01*
X99902501Y-53294541D01*
X99886025Y-53257228D01*
X99862901Y-53209926D01*
X99861798Y-53202357D01*
X99857969Y-53193685D01*
X99850000Y-53125000D01*
X99850000Y-51875000D01*
X99857969Y-51806315D01*
X99861798Y-51797642D01*
X99862901Y-51790074D01*
X99886028Y-51742766D01*
X99902501Y-51705459D01*
X99905955Y-51702004D01*
X99906408Y-51701079D01*
X99976079Y-51631408D01*
X99977004Y-51630955D01*
X99980459Y-51627501D01*
X100017761Y-51611030D01*
X100065073Y-51587901D01*
X100072642Y-51586798D01*
X100081315Y-51582969D01*
X100150000Y-51575000D01*
X100850000Y-51575000D01*
X100918685Y-51582969D01*
G37*
G36*
X98688685Y-51602989D02*
G01*
X98806408Y-51651751D01*
X98912356Y-51722543D01*
X99002457Y-51812644D01*
X99073249Y-51918592D01*
X99122011Y-52036315D01*
X99146870Y-52161289D01*
X99150000Y-52225000D01*
X99150000Y-52775000D01*
X99146870Y-52838711D01*
X99122011Y-52963685D01*
X99073249Y-53081408D01*
X99002457Y-53187356D01*
X98912356Y-53277457D01*
X98806408Y-53348249D01*
X98688685Y-53397011D01*
X98563711Y-53421870D01*
X98436289Y-53421870D01*
X98311315Y-53397011D01*
X98193592Y-53348249D01*
X98087644Y-53277457D01*
X97997543Y-53187356D01*
X97926751Y-53081408D01*
X97877989Y-52963685D01*
X97853130Y-52838711D01*
X97850000Y-52775000D01*
X97850000Y-52225000D01*
X97853130Y-52161289D01*
X97877989Y-52036315D01*
X97926751Y-51918592D01*
X97997543Y-51812644D01*
X98087644Y-51722543D01*
X98193592Y-51651751D01*
X98311315Y-51602989D01*
X98436289Y-51578130D01*
X98563711Y-51578130D01*
X98688685Y-51602989D01*
G37*
G36*
X115910476Y-52046152D02*
G01*
X116034819Y-52117942D01*
X116136344Y-52219467D01*
X116208134Y-52343810D01*
X116245295Y-52482497D01*
X116245295Y-52626075D01*
X116208134Y-52764762D01*
X116136344Y-52889105D01*
X116034819Y-52990630D01*
X115910476Y-53062420D01*
X115771789Y-53099581D01*
X115628211Y-53099581D01*
X115489524Y-53062420D01*
X115365181Y-52990630D01*
X115263656Y-52889105D01*
X115191866Y-52764762D01*
X115154705Y-52626075D01*
X115154705Y-52482497D01*
X115191866Y-52343810D01*
X115263656Y-52219467D01*
X115365181Y-52117942D01*
X115489524Y-52046152D01*
X115628211Y-52008991D01*
X115771789Y-52008991D01*
X115910476Y-52046152D01*
G37*
G36*
X127069134Y-51003806D02*
G01*
X127085355Y-51014645D01*
X127096194Y-51030866D01*
X127100000Y-51050000D01*
X127100000Y-52750000D01*
X127096194Y-52769134D01*
X127085355Y-52785355D01*
X127069134Y-52796194D01*
X127050000Y-52800000D01*
X125350000Y-52800000D01*
X125330866Y-52796194D01*
X125314645Y-52785355D01*
X125303806Y-52769134D01*
X125300000Y-52750000D01*
X125300000Y-51050000D01*
X125303806Y-51030866D01*
X125314645Y-51014645D01*
X125330866Y-51003806D01*
X125350000Y-51000000D01*
X127050000Y-51000000D01*
X127069134Y-51003806D01*
G37*
G36*
X129001256Y-51038754D02*
G01*
X129164257Y-51106271D01*
X129310954Y-51204291D01*
X129435709Y-51329046D01*
X129533729Y-51475743D01*
X129601246Y-51638744D01*
X129635666Y-51811785D01*
X129635666Y-51988215D01*
X129601246Y-52161256D01*
X129533729Y-52324257D01*
X129435709Y-52470954D01*
X129310954Y-52595709D01*
X129164257Y-52693729D01*
X129001256Y-52761246D01*
X128828215Y-52795666D01*
X128651785Y-52795666D01*
X128478744Y-52761246D01*
X128315743Y-52693729D01*
X128169046Y-52595709D01*
X128044291Y-52470954D01*
X127946271Y-52324257D01*
X127878754Y-52161256D01*
X127844334Y-51988215D01*
X127844334Y-51811785D01*
X127878754Y-51638744D01*
X127946271Y-51475743D01*
X128044291Y-51329046D01*
X128169046Y-51204291D01*
X128315743Y-51106271D01*
X128478744Y-51038754D01*
X128651785Y-51004334D01*
X128828215Y-51004334D01*
X129001256Y-51038754D01*
G37*
G36*
X131541256Y-51038754D02*
G01*
X131704257Y-51106271D01*
X131850954Y-51204291D01*
X131975709Y-51329046D01*
X132073729Y-51475743D01*
X132141246Y-51638744D01*
X132175666Y-51811785D01*
X132175666Y-51988215D01*
X132141246Y-52161256D01*
X132073729Y-52324257D01*
X131975709Y-52470954D01*
X131850954Y-52595709D01*
X131704257Y-52693729D01*
X131541256Y-52761246D01*
X131368215Y-52795666D01*
X131191785Y-52795666D01*
X131018744Y-52761246D01*
X130855743Y-52693729D01*
X130709046Y-52595709D01*
X130584291Y-52470954D01*
X130486271Y-52324257D01*
X130418754Y-52161256D01*
X130384334Y-51988215D01*
X130384334Y-51811785D01*
X130418754Y-51638744D01*
X130486271Y-51475743D01*
X130584291Y-51329046D01*
X130709046Y-51204291D01*
X130855743Y-51106271D01*
X131018744Y-51038754D01*
X131191785Y-51004334D01*
X131368215Y-51004334D01*
X131541256Y-51038754D01*
G37*
%LPD*%
M02*
