%TF.GenerationSoftware,KiCad,Pcbnew,10.0.5*%
%TF.CreationDate,2026-09-27T13:34:21+02:00*%
%TF.ProjectId,sst_v2,7373745f-7632-42e6-9b69-6361645f7063,A*%
%TF.SameCoordinates,Original*%
%TF.FileFunction,Legend,Bot*%
%TF.FilePolarity,Positive*%
%FSLAX46Y46*%
G04 Gerber Fmt 4.6, Leading zero omitted, Abs format (unit mm)*
G04 Created by KiCad (PCBNEW 10.0.5) date 2026-09-27 13:34:21*
%MOMM*%
%LPD*%
G01*
G04 APERTURE LIST*
G04 APERTURE END LIST*
%LPC*%
G36*
X88617662Y-132355086D02*
G01*
X88629458Y-132355086D01*
X88687536Y-132364284D01*
X88821848Y-132381967D01*
X88854625Y-132390749D01*
X88885185Y-132395590D01*
X88943956Y-132414685D01*
X89030290Y-132437819D01*
X89085367Y-132460633D01*
X89131428Y-132475599D01*
X89174584Y-132497588D01*
X89229661Y-132520402D01*
X89307061Y-132565088D01*
X89362123Y-132593144D01*
X89387151Y-132611328D01*
X89416539Y-132628295D01*
X89524031Y-132710777D01*
X89571589Y-132745330D01*
X89579926Y-132753667D01*
X89587740Y-132759663D01*
X89740336Y-132912259D01*
X89746331Y-132920072D01*
X89754670Y-132928411D01*
X89789226Y-132975973D01*
X89871704Y-133083460D01*
X89888669Y-133112845D01*
X89906856Y-133137877D01*
X89934914Y-133192944D01*
X89979597Y-133270338D01*
X90002408Y-133325409D01*
X90024401Y-133368572D01*
X90039369Y-133414639D01*
X90062180Y-133469709D01*
X90085309Y-133556030D01*
X90104410Y-133614815D01*
X90109251Y-133645380D01*
X90118032Y-133678151D01*
X90135713Y-133812451D01*
X90144914Y-133870542D01*
X90144914Y-133882337D01*
X90146200Y-133892106D01*
X90146200Y-134107893D01*
X90144914Y-134117661D01*
X90144914Y-134129458D01*
X90135712Y-134187553D01*
X90118032Y-134321848D01*
X90109251Y-134354616D01*
X90104410Y-134385185D01*
X90085308Y-134443973D01*
X90062180Y-134530290D01*
X90039370Y-134585356D01*
X90024401Y-134631428D01*
X90002406Y-134674594D01*
X89979597Y-134729661D01*
X89934918Y-134807046D01*
X89906856Y-134862123D01*
X89888666Y-134887158D01*
X89871704Y-134916539D01*
X89789240Y-135024007D01*
X89754670Y-135071589D01*
X89746328Y-135079930D01*
X89740336Y-135087740D01*
X89587740Y-135240336D01*
X89579930Y-135246328D01*
X89571589Y-135254670D01*
X89524007Y-135289240D01*
X89416539Y-135371704D01*
X89387158Y-135388666D01*
X89362123Y-135406856D01*
X89307046Y-135434918D01*
X89229661Y-135479597D01*
X89174594Y-135502406D01*
X89131428Y-135524401D01*
X89085356Y-135539370D01*
X89030290Y-135562180D01*
X88943973Y-135585308D01*
X88885185Y-135604410D01*
X88854616Y-135609251D01*
X88821848Y-135618032D01*
X88687550Y-135635712D01*
X88629458Y-135644914D01*
X88617662Y-135644914D01*
X88607894Y-135646200D01*
X88392106Y-135646200D01*
X88382338Y-135644914D01*
X88370542Y-135644914D01*
X88312451Y-135635713D01*
X88178151Y-135618032D01*
X88145380Y-135609251D01*
X88114815Y-135604410D01*
X88056030Y-135585309D01*
X87969709Y-135562180D01*
X87914639Y-135539369D01*
X87868572Y-135524401D01*
X87825409Y-135502408D01*
X87770338Y-135479597D01*
X87692944Y-135434914D01*
X87637877Y-135406856D01*
X87612845Y-135388669D01*
X87583460Y-135371704D01*
X87475973Y-135289226D01*
X87428411Y-135254670D01*
X87420072Y-135246331D01*
X87412259Y-135240336D01*
X87259663Y-135087740D01*
X87253667Y-135079926D01*
X87245330Y-135071589D01*
X87210777Y-135024031D01*
X87128295Y-134916539D01*
X87111328Y-134887151D01*
X87093144Y-134862123D01*
X87065088Y-134807061D01*
X87020402Y-134729661D01*
X86997588Y-134674584D01*
X86975599Y-134631428D01*
X86960633Y-134585367D01*
X86937819Y-134530290D01*
X86914685Y-134443956D01*
X86895590Y-134385185D01*
X86890749Y-134354625D01*
X86881967Y-134321848D01*
X86864285Y-134187539D01*
X86855086Y-134129458D01*
X86855086Y-134117661D01*
X86853800Y-134107893D01*
X86853800Y-133892106D01*
X86855086Y-133882337D01*
X86855086Y-133870542D01*
X86864284Y-133812465D01*
X86881967Y-133678151D01*
X86890750Y-133645371D01*
X86895590Y-133614815D01*
X86914684Y-133556048D01*
X86937819Y-133469709D01*
X86960634Y-133414627D01*
X86975599Y-133368572D01*
X86997586Y-133325419D01*
X87020402Y-133270338D01*
X87065093Y-133192929D01*
X87093144Y-133137877D01*
X87111325Y-133112852D01*
X87128295Y-133083460D01*
X87210791Y-132975949D01*
X87245330Y-132928411D01*
X87253663Y-132920077D01*
X87259663Y-132912259D01*
X87412259Y-132759663D01*
X87420077Y-132753663D01*
X87428411Y-132745330D01*
X87475949Y-132710791D01*
X87583460Y-132628295D01*
X87612852Y-132611325D01*
X87637877Y-132593144D01*
X87692929Y-132565093D01*
X87770338Y-132520402D01*
X87825419Y-132497586D01*
X87868572Y-132475599D01*
X87914627Y-132460634D01*
X87969709Y-132437819D01*
X88056048Y-132414684D01*
X88114815Y-132395590D01*
X88145371Y-132390750D01*
X88178151Y-132381967D01*
X88312465Y-132364284D01*
X88370542Y-132355086D01*
X88382338Y-132355086D01*
X88392106Y-132353800D01*
X88607894Y-132353800D01*
X88617662Y-132355086D01*
G37*
G36*
X140617662Y-132355086D02*
G01*
X140629458Y-132355086D01*
X140687536Y-132364284D01*
X140821848Y-132381967D01*
X140854625Y-132390749D01*
X140885185Y-132395590D01*
X140943956Y-132414685D01*
X141030290Y-132437819D01*
X141085367Y-132460633D01*
X141131428Y-132475599D01*
X141174584Y-132497588D01*
X141229661Y-132520402D01*
X141307061Y-132565088D01*
X141362123Y-132593144D01*
X141387151Y-132611328D01*
X141416539Y-132628295D01*
X141524031Y-132710777D01*
X141571589Y-132745330D01*
X141579926Y-132753667D01*
X141587740Y-132759663D01*
X141740336Y-132912259D01*
X141746331Y-132920072D01*
X141754670Y-132928411D01*
X141789226Y-132975973D01*
X141871704Y-133083460D01*
X141888669Y-133112845D01*
X141906856Y-133137877D01*
X141934914Y-133192944D01*
X141979597Y-133270338D01*
X142002408Y-133325409D01*
X142024401Y-133368572D01*
X142039369Y-133414639D01*
X142062180Y-133469709D01*
X142085309Y-133556030D01*
X142104410Y-133614815D01*
X142109251Y-133645380D01*
X142118032Y-133678151D01*
X142135713Y-133812451D01*
X142144914Y-133870542D01*
X142144914Y-133882337D01*
X142146200Y-133892106D01*
X142146200Y-134107893D01*
X142144914Y-134117661D01*
X142144914Y-134129458D01*
X142135712Y-134187553D01*
X142118032Y-134321848D01*
X142109251Y-134354616D01*
X142104410Y-134385185D01*
X142085308Y-134443973D01*
X142062180Y-134530290D01*
X142039370Y-134585356D01*
X142024401Y-134631428D01*
X142002406Y-134674594D01*
X141979597Y-134729661D01*
X141934918Y-134807046D01*
X141906856Y-134862123D01*
X141888666Y-134887158D01*
X141871704Y-134916539D01*
X141789240Y-135024007D01*
X141754670Y-135071589D01*
X141746328Y-135079930D01*
X141740336Y-135087740D01*
X141587740Y-135240336D01*
X141579930Y-135246328D01*
X141571589Y-135254670D01*
X141524007Y-135289240D01*
X141416539Y-135371704D01*
X141387158Y-135388666D01*
X141362123Y-135406856D01*
X141307046Y-135434918D01*
X141229661Y-135479597D01*
X141174594Y-135502406D01*
X141131428Y-135524401D01*
X141085356Y-135539370D01*
X141030290Y-135562180D01*
X140943973Y-135585308D01*
X140885185Y-135604410D01*
X140854616Y-135609251D01*
X140821848Y-135618032D01*
X140687550Y-135635712D01*
X140629458Y-135644914D01*
X140617662Y-135644914D01*
X140607894Y-135646200D01*
X140392106Y-135646200D01*
X140382338Y-135644914D01*
X140370542Y-135644914D01*
X140312451Y-135635713D01*
X140178151Y-135618032D01*
X140145380Y-135609251D01*
X140114815Y-135604410D01*
X140056030Y-135585309D01*
X139969709Y-135562180D01*
X139914639Y-135539369D01*
X139868572Y-135524401D01*
X139825409Y-135502408D01*
X139770338Y-135479597D01*
X139692944Y-135434914D01*
X139637877Y-135406856D01*
X139612845Y-135388669D01*
X139583460Y-135371704D01*
X139475973Y-135289226D01*
X139428411Y-135254670D01*
X139420072Y-135246331D01*
X139412259Y-135240336D01*
X139259663Y-135087740D01*
X139253667Y-135079926D01*
X139245330Y-135071589D01*
X139210777Y-135024031D01*
X139128295Y-134916539D01*
X139111328Y-134887151D01*
X139093144Y-134862123D01*
X139065088Y-134807061D01*
X139020402Y-134729661D01*
X138997588Y-134674584D01*
X138975599Y-134631428D01*
X138960633Y-134585367D01*
X138937819Y-134530290D01*
X138914685Y-134443956D01*
X138895590Y-134385185D01*
X138890749Y-134354625D01*
X138881967Y-134321848D01*
X138864285Y-134187539D01*
X138855086Y-134129458D01*
X138855086Y-134117661D01*
X138853800Y-134107893D01*
X138853800Y-133892106D01*
X138855086Y-133882337D01*
X138855086Y-133870542D01*
X138864284Y-133812465D01*
X138881967Y-133678151D01*
X138890750Y-133645371D01*
X138895590Y-133614815D01*
X138914684Y-133556048D01*
X138937819Y-133469709D01*
X138960634Y-133414627D01*
X138975599Y-133368572D01*
X138997586Y-133325419D01*
X139020402Y-133270338D01*
X139065093Y-133192929D01*
X139093144Y-133137877D01*
X139111325Y-133112852D01*
X139128295Y-133083460D01*
X139210791Y-132975949D01*
X139245330Y-132928411D01*
X139253663Y-132920077D01*
X139259663Y-132912259D01*
X139412259Y-132759663D01*
X139420077Y-132753663D01*
X139428411Y-132745330D01*
X139475949Y-132710791D01*
X139583460Y-132628295D01*
X139612852Y-132611325D01*
X139637877Y-132593144D01*
X139692929Y-132565093D01*
X139770338Y-132520402D01*
X139825419Y-132497586D01*
X139868572Y-132475599D01*
X139914627Y-132460634D01*
X139969709Y-132437819D01*
X140056048Y-132414684D01*
X140114815Y-132395590D01*
X140145371Y-132390750D01*
X140178151Y-132381967D01*
X140312465Y-132364284D01*
X140370542Y-132355086D01*
X140382338Y-132355086D01*
X140392106Y-132353800D01*
X140607894Y-132353800D01*
X140617662Y-132355086D01*
G37*
G36*
X100910408Y-96454778D02*
G01*
X100921612Y-96454778D01*
X100976782Y-96463516D01*
X101102339Y-96480046D01*
X101132977Y-96488255D01*
X101161840Y-96492827D01*
X101217343Y-96510861D01*
X101298146Y-96532512D01*
X101349697Y-96553865D01*
X101393159Y-96567987D01*
X101433879Y-96588735D01*
X101485432Y-96610089D01*
X101557876Y-96651914D01*
X101609873Y-96678408D01*
X101633508Y-96695580D01*
X101660982Y-96711442D01*
X101761485Y-96788561D01*
X101806644Y-96821371D01*
X101814559Y-96829286D01*
X101821806Y-96834847D01*
X101965152Y-96978193D01*
X101970712Y-96985439D01*
X101978629Y-96993356D01*
X102011442Y-97038519D01*
X102088557Y-97139017D01*
X102104417Y-97166488D01*
X102121592Y-97190127D01*
X102148088Y-97242129D01*
X102189910Y-97314567D01*
X102211261Y-97366114D01*
X102232013Y-97406841D01*
X102246136Y-97450308D01*
X102267487Y-97501853D01*
X102289134Y-97582643D01*
X102307173Y-97638160D01*
X102311745Y-97667028D01*
X102319953Y-97697660D01*
X102336481Y-97823205D01*
X102345222Y-97878388D01*
X102345222Y-97889592D01*
X102346414Y-97898646D01*
X102346414Y-98101353D01*
X102345222Y-98110406D01*
X102345222Y-98121612D01*
X102336481Y-98176799D01*
X102319953Y-98302339D01*
X102311745Y-98332968D01*
X102307173Y-98361840D01*
X102289133Y-98417361D01*
X102267487Y-98498146D01*
X102246138Y-98549686D01*
X102232013Y-98593159D01*
X102211259Y-98633890D01*
X102189910Y-98685432D01*
X102148092Y-98757862D01*
X102121592Y-98809873D01*
X102104414Y-98833515D01*
X102088557Y-98860982D01*
X102011456Y-98961461D01*
X101978629Y-99006644D01*
X101970709Y-99014563D01*
X101965152Y-99021806D01*
X101821806Y-99165152D01*
X101814563Y-99170709D01*
X101806644Y-99178629D01*
X101761461Y-99211456D01*
X101660982Y-99288557D01*
X101633515Y-99304414D01*
X101609873Y-99321592D01*
X101557862Y-99348092D01*
X101485432Y-99389910D01*
X101433890Y-99411259D01*
X101393159Y-99432013D01*
X101349686Y-99446138D01*
X101298146Y-99467487D01*
X101217361Y-99489133D01*
X101161840Y-99507173D01*
X101132968Y-99511745D01*
X101102339Y-99519953D01*
X100976796Y-99536481D01*
X100921612Y-99545222D01*
X100910408Y-99545222D01*
X100901354Y-99546414D01*
X100698646Y-99546414D01*
X100689592Y-99545222D01*
X100678388Y-99545222D01*
X100623205Y-99536481D01*
X100497660Y-99519953D01*
X100467028Y-99511745D01*
X100438160Y-99507173D01*
X100382643Y-99489134D01*
X100301853Y-99467487D01*
X100250308Y-99446136D01*
X100206841Y-99432013D01*
X100166114Y-99411261D01*
X100114567Y-99389910D01*
X100042129Y-99348088D01*
X99990127Y-99321592D01*
X99966488Y-99304417D01*
X99939017Y-99288557D01*
X99838519Y-99211442D01*
X99793356Y-99178629D01*
X99785439Y-99170712D01*
X99778193Y-99165152D01*
X99634847Y-99021806D01*
X99629286Y-99014559D01*
X99621371Y-99006644D01*
X99588561Y-98961485D01*
X99511442Y-98860982D01*
X99495580Y-98833508D01*
X99478408Y-98809873D01*
X99451914Y-98757876D01*
X99410089Y-98685432D01*
X99388735Y-98633879D01*
X99367987Y-98593159D01*
X99353865Y-98549697D01*
X99332512Y-98498146D01*
X99310861Y-98417343D01*
X99292827Y-98361840D01*
X99288255Y-98332977D01*
X99280046Y-98302339D01*
X99263516Y-98176785D01*
X99254778Y-98121612D01*
X99254778Y-98110407D01*
X99253586Y-98101353D01*
X99253586Y-97898646D01*
X99254778Y-97889591D01*
X99254778Y-97878388D01*
X99263515Y-97823219D01*
X99280046Y-97697660D01*
X99288256Y-97667019D01*
X99292827Y-97638160D01*
X99310859Y-97582660D01*
X99332512Y-97501853D01*
X99353867Y-97450297D01*
X99367987Y-97406841D01*
X99388732Y-97366124D01*
X99410089Y-97314567D01*
X99451919Y-97242114D01*
X99478408Y-97190127D01*
X99495577Y-97166495D01*
X99511442Y-97139017D01*
X99588575Y-97038495D01*
X99621371Y-96993356D01*
X99629283Y-96985443D01*
X99634847Y-96978193D01*
X99778193Y-96834847D01*
X99785443Y-96829283D01*
X99793356Y-96821371D01*
X99838495Y-96788575D01*
X99939017Y-96711442D01*
X99966495Y-96695577D01*
X99990127Y-96678408D01*
X100042114Y-96651919D01*
X100114567Y-96610089D01*
X100166124Y-96588732D01*
X100206841Y-96567987D01*
X100250297Y-96553867D01*
X100301853Y-96532512D01*
X100382660Y-96510859D01*
X100438160Y-96492827D01*
X100467019Y-96488256D01*
X100497660Y-96480046D01*
X100623219Y-96463515D01*
X100678388Y-96454778D01*
X100689592Y-96454778D01*
X100698646Y-96453586D01*
X100901354Y-96453586D01*
X100910408Y-96454778D01*
G37*
G36*
X114110408Y-96454778D02*
G01*
X114121612Y-96454778D01*
X114176782Y-96463516D01*
X114302339Y-96480046D01*
X114332977Y-96488255D01*
X114361840Y-96492827D01*
X114417343Y-96510861D01*
X114498146Y-96532512D01*
X114549697Y-96553865D01*
X114593159Y-96567987D01*
X114633879Y-96588735D01*
X114685432Y-96610089D01*
X114757876Y-96651914D01*
X114809873Y-96678408D01*
X114833508Y-96695580D01*
X114860982Y-96711442D01*
X114961485Y-96788561D01*
X115006644Y-96821371D01*
X115014559Y-96829286D01*
X115021806Y-96834847D01*
X115165152Y-96978193D01*
X115170712Y-96985439D01*
X115178629Y-96993356D01*
X115211442Y-97038519D01*
X115288557Y-97139017D01*
X115304417Y-97166488D01*
X115321592Y-97190127D01*
X115348088Y-97242129D01*
X115389910Y-97314567D01*
X115411261Y-97366114D01*
X115432013Y-97406841D01*
X115446136Y-97450308D01*
X115467487Y-97501853D01*
X115489134Y-97582643D01*
X115507173Y-97638160D01*
X115511745Y-97667028D01*
X115519953Y-97697660D01*
X115536481Y-97823205D01*
X115545222Y-97878388D01*
X115545222Y-97889592D01*
X115546414Y-97898646D01*
X115546414Y-98101353D01*
X115545222Y-98110406D01*
X115545222Y-98121612D01*
X115536481Y-98176799D01*
X115519953Y-98302339D01*
X115511745Y-98332968D01*
X115507173Y-98361840D01*
X115489133Y-98417361D01*
X115467487Y-98498146D01*
X115446138Y-98549686D01*
X115432013Y-98593159D01*
X115411259Y-98633890D01*
X115389910Y-98685432D01*
X115348092Y-98757862D01*
X115321592Y-98809873D01*
X115304414Y-98833515D01*
X115288557Y-98860982D01*
X115211456Y-98961461D01*
X115178629Y-99006644D01*
X115170709Y-99014563D01*
X115165152Y-99021806D01*
X115021806Y-99165152D01*
X115014563Y-99170709D01*
X115006644Y-99178629D01*
X114961461Y-99211456D01*
X114860982Y-99288557D01*
X114833515Y-99304414D01*
X114809873Y-99321592D01*
X114757862Y-99348092D01*
X114685432Y-99389910D01*
X114633890Y-99411259D01*
X114593159Y-99432013D01*
X114549686Y-99446138D01*
X114498146Y-99467487D01*
X114417361Y-99489133D01*
X114361840Y-99507173D01*
X114332968Y-99511745D01*
X114302339Y-99519953D01*
X114176796Y-99536481D01*
X114121612Y-99545222D01*
X114110408Y-99545222D01*
X114101354Y-99546414D01*
X113898646Y-99546414D01*
X113889592Y-99545222D01*
X113878388Y-99545222D01*
X113823205Y-99536481D01*
X113697660Y-99519953D01*
X113667028Y-99511745D01*
X113638160Y-99507173D01*
X113582643Y-99489134D01*
X113501853Y-99467487D01*
X113450308Y-99446136D01*
X113406841Y-99432013D01*
X113366114Y-99411261D01*
X113314567Y-99389910D01*
X113242129Y-99348088D01*
X113190127Y-99321592D01*
X113166488Y-99304417D01*
X113139017Y-99288557D01*
X113038519Y-99211442D01*
X112993356Y-99178629D01*
X112985439Y-99170712D01*
X112978193Y-99165152D01*
X112834847Y-99021806D01*
X112829286Y-99014559D01*
X112821371Y-99006644D01*
X112788561Y-98961485D01*
X112711442Y-98860982D01*
X112695580Y-98833508D01*
X112678408Y-98809873D01*
X112651914Y-98757876D01*
X112610089Y-98685432D01*
X112588735Y-98633879D01*
X112567987Y-98593159D01*
X112553865Y-98549697D01*
X112532512Y-98498146D01*
X112510861Y-98417343D01*
X112492827Y-98361840D01*
X112488255Y-98332977D01*
X112480046Y-98302339D01*
X112463516Y-98176785D01*
X112454778Y-98121612D01*
X112454778Y-98110407D01*
X112453586Y-98101353D01*
X112453586Y-97898646D01*
X112454778Y-97889591D01*
X112454778Y-97878388D01*
X112463515Y-97823219D01*
X112480046Y-97697660D01*
X112488256Y-97667019D01*
X112492827Y-97638160D01*
X112510859Y-97582660D01*
X112532512Y-97501853D01*
X112553867Y-97450297D01*
X112567987Y-97406841D01*
X112588732Y-97366124D01*
X112610089Y-97314567D01*
X112651919Y-97242114D01*
X112678408Y-97190127D01*
X112695577Y-97166495D01*
X112711442Y-97139017D01*
X112788575Y-97038495D01*
X112821371Y-96993356D01*
X112829283Y-96985443D01*
X112834847Y-96978193D01*
X112978193Y-96834847D01*
X112985443Y-96829283D01*
X112993356Y-96821371D01*
X113038495Y-96788575D01*
X113139017Y-96711442D01*
X113166495Y-96695577D01*
X113190127Y-96678408D01*
X113242114Y-96651919D01*
X113314567Y-96610089D01*
X113366124Y-96588732D01*
X113406841Y-96567987D01*
X113450297Y-96553867D01*
X113501853Y-96532512D01*
X113582660Y-96510859D01*
X113638160Y-96492827D01*
X113667019Y-96488256D01*
X113697660Y-96480046D01*
X113823219Y-96463515D01*
X113878388Y-96454778D01*
X113889592Y-96454778D01*
X113898646Y-96453586D01*
X114101354Y-96453586D01*
X114110408Y-96454778D01*
G37*
G36*
X115919134Y-86453806D02*
G01*
X115935355Y-86464645D01*
X115946194Y-86480866D01*
X115950000Y-86500000D01*
X115950000Y-88500000D01*
X115946194Y-88519134D01*
X115935355Y-88535355D01*
X115919134Y-88546194D01*
X115900000Y-88550000D01*
X113900000Y-88550000D01*
X113880866Y-88546194D01*
X113864645Y-88535355D01*
X113853806Y-88519134D01*
X113850000Y-88500000D01*
X113850000Y-86500000D01*
X113853806Y-86480866D01*
X113864645Y-86464645D01*
X113880866Y-86453806D01*
X113900000Y-86450000D01*
X115900000Y-86450000D01*
X115919134Y-86453806D01*
G37*
G36*
X122591406Y-86455056D02*
G01*
X122602918Y-86455056D01*
X122647903Y-86464004D01*
X122745027Y-86479387D01*
X122776268Y-86489537D01*
X122804799Y-86495213D01*
X122845057Y-86511888D01*
X122901667Y-86530282D01*
X122954700Y-86557304D01*
X122994967Y-86573983D01*
X123019159Y-86590147D01*
X123048426Y-86605060D01*
X123127980Y-86662859D01*
X123166113Y-86688339D01*
X123174251Y-86696477D01*
X123181664Y-86701863D01*
X123298136Y-86818335D01*
X123303521Y-86825747D01*
X123311661Y-86833887D01*
X123337143Y-86872023D01*
X123394939Y-86951573D01*
X123409850Y-86980837D01*
X123426017Y-87005033D01*
X123442698Y-87045304D01*
X123469717Y-87098332D01*
X123488108Y-87154934D01*
X123504787Y-87195201D01*
X123510463Y-87223736D01*
X123520612Y-87254972D01*
X123535994Y-87352087D01*
X123544944Y-87397082D01*
X123544944Y-87408594D01*
X123546378Y-87417648D01*
X123546378Y-87582351D01*
X123544944Y-87591404D01*
X123544944Y-87602918D01*
X123535993Y-87647915D01*
X123520612Y-87745027D01*
X123510463Y-87776260D01*
X123504787Y-87804799D01*
X123488106Y-87845069D01*
X123469717Y-87901667D01*
X123442700Y-87954689D01*
X123426017Y-87994967D01*
X123409848Y-88019165D01*
X123394939Y-88048426D01*
X123337151Y-88127963D01*
X123311661Y-88166113D01*
X123303518Y-88174255D01*
X123298136Y-88181664D01*
X123181664Y-88298136D01*
X123174255Y-88303518D01*
X123166113Y-88311661D01*
X123127963Y-88337151D01*
X123048426Y-88394939D01*
X123019165Y-88409848D01*
X122994967Y-88426017D01*
X122954689Y-88442700D01*
X122901667Y-88469717D01*
X122845069Y-88488106D01*
X122804799Y-88504787D01*
X122776260Y-88510463D01*
X122745027Y-88520612D01*
X122647913Y-88535993D01*
X122602918Y-88544944D01*
X122591406Y-88544944D01*
X122582352Y-88546378D01*
X122417648Y-88546378D01*
X122408594Y-88544944D01*
X122397082Y-88544944D01*
X122352087Y-88535994D01*
X122254972Y-88520612D01*
X122223736Y-88510463D01*
X122195201Y-88504787D01*
X122154934Y-88488108D01*
X122098332Y-88469717D01*
X122045304Y-88442698D01*
X122005033Y-88426017D01*
X121980837Y-88409850D01*
X121951573Y-88394939D01*
X121872023Y-88337143D01*
X121833887Y-88311661D01*
X121825747Y-88303521D01*
X121818335Y-88298136D01*
X121701863Y-88181664D01*
X121696477Y-88174251D01*
X121688339Y-88166113D01*
X121662859Y-88127980D01*
X121605060Y-88048426D01*
X121590147Y-88019159D01*
X121573983Y-87994967D01*
X121557304Y-87954700D01*
X121530282Y-87901667D01*
X121511888Y-87845057D01*
X121495213Y-87804799D01*
X121489537Y-87776268D01*
X121479387Y-87745027D01*
X121464004Y-87647905D01*
X121455056Y-87602918D01*
X121455056Y-87591405D01*
X121453622Y-87582351D01*
X121453622Y-87417648D01*
X121455056Y-87408593D01*
X121455056Y-87397082D01*
X121464003Y-87352097D01*
X121479387Y-87254972D01*
X121489538Y-87223729D01*
X121495213Y-87195201D01*
X121511887Y-87154945D01*
X121530282Y-87098332D01*
X121557306Y-87045294D01*
X121573983Y-87005033D01*
X121590145Y-86980843D01*
X121605060Y-86951573D01*
X121662868Y-86872006D01*
X121688339Y-86833887D01*
X121696474Y-86825751D01*
X121701863Y-86818335D01*
X121818335Y-86701863D01*
X121825751Y-86696474D01*
X121833887Y-86688339D01*
X121872006Y-86662868D01*
X121951573Y-86605060D01*
X121980843Y-86590145D01*
X122005033Y-86573983D01*
X122045294Y-86557306D01*
X122098332Y-86530282D01*
X122154945Y-86511887D01*
X122195201Y-86495213D01*
X122223729Y-86489538D01*
X122254972Y-86479387D01*
X122352097Y-86464003D01*
X122397082Y-86455056D01*
X122408594Y-86455056D01*
X122417648Y-86453622D01*
X122582352Y-86453622D01*
X122591406Y-86455056D01*
G37*
G36*
X100829278Y-76728843D02*
G01*
X100846709Y-76728843D01*
X100859018Y-76728843D01*
X100880066Y-76733030D01*
X100891432Y-76737738D01*
X100891437Y-76737739D01*
X100940788Y-76758181D01*
X100940790Y-76758182D01*
X100952162Y-76762893D01*
X100970005Y-76774815D01*
X101025185Y-76829995D01*
X101037107Y-76847838D01*
X101066970Y-76919934D01*
X101071157Y-76940982D01*
X101071157Y-76953290D01*
X101071157Y-76959471D01*
X101071869Y-76968888D01*
X101072723Y-76974505D01*
X101075000Y-76980000D01*
X101075000Y-77580000D01*
X101071148Y-77589299D01*
X101071148Y-77658414D01*
X101070091Y-77669144D01*
X101039495Y-77822958D01*
X101036365Y-77833276D01*
X100976350Y-77978165D01*
X100971268Y-77987673D01*
X100884139Y-78118071D01*
X100877299Y-78126406D01*
X100766406Y-78237299D01*
X100758071Y-78244139D01*
X100627673Y-78331268D01*
X100618165Y-78336350D01*
X100473276Y-78396365D01*
X100462958Y-78399495D01*
X100309144Y-78430091D01*
X100298414Y-78431148D01*
X100292273Y-78431148D01*
X100147727Y-78431148D01*
X100141586Y-78431148D01*
X100130856Y-78430091D01*
X99977042Y-78399495D01*
X99966724Y-78396365D01*
X99821835Y-78336350D01*
X99812327Y-78331268D01*
X99681929Y-78244139D01*
X99673594Y-78237299D01*
X99562701Y-78126406D01*
X99555861Y-78118071D01*
X99468732Y-77987673D01*
X99463650Y-77978165D01*
X99403635Y-77833276D01*
X99400505Y-77822958D01*
X99369909Y-77669144D01*
X99368852Y-77658414D01*
X99368852Y-77597033D01*
X99366310Y-77583163D01*
X99365000Y-77580000D01*
X99365000Y-76980000D01*
X99368843Y-76970722D01*
X99368843Y-76940982D01*
X99373030Y-76919934D01*
X99377737Y-76908568D01*
X99377739Y-76908562D01*
X99398181Y-76859211D01*
X99398184Y-76859206D01*
X99402893Y-76847838D01*
X99414815Y-76829995D01*
X99423514Y-76821295D01*
X99423517Y-76821292D01*
X99461292Y-76783517D01*
X99461295Y-76783514D01*
X99469995Y-76774815D01*
X99487838Y-76762893D01*
X99499206Y-76758184D01*
X99499211Y-76758181D01*
X99548562Y-76737739D01*
X99548568Y-76737737D01*
X99559934Y-76733030D01*
X99580982Y-76728843D01*
X99599471Y-76728843D01*
X99608888Y-76728131D01*
X99614505Y-76727276D01*
X99620000Y-76725000D01*
X100820000Y-76725000D01*
X100829278Y-76728843D01*
G37*
G36*
X113529278Y-76728843D02*
G01*
X113546709Y-76728843D01*
X113559018Y-76728843D01*
X113580066Y-76733030D01*
X113591432Y-76737738D01*
X113591437Y-76737739D01*
X113640788Y-76758181D01*
X113640790Y-76758182D01*
X113652162Y-76762893D01*
X113670005Y-76774815D01*
X113725185Y-76829995D01*
X113737107Y-76847838D01*
X113766970Y-76919934D01*
X113771157Y-76940982D01*
X113771157Y-76953290D01*
X113771157Y-76959471D01*
X113771869Y-76968888D01*
X113772723Y-76974505D01*
X113775000Y-76980000D01*
X113775000Y-77580000D01*
X113771148Y-77589299D01*
X113771148Y-77658414D01*
X113770091Y-77669144D01*
X113739495Y-77822958D01*
X113736365Y-77833276D01*
X113676350Y-77978165D01*
X113671268Y-77987673D01*
X113584139Y-78118071D01*
X113577299Y-78126406D01*
X113466406Y-78237299D01*
X113458071Y-78244139D01*
X113327673Y-78331268D01*
X113318165Y-78336350D01*
X113173276Y-78396365D01*
X113162958Y-78399495D01*
X113009144Y-78430091D01*
X112998414Y-78431148D01*
X112992273Y-78431148D01*
X112847727Y-78431148D01*
X112841586Y-78431148D01*
X112830856Y-78430091D01*
X112677042Y-78399495D01*
X112666724Y-78396365D01*
X112521835Y-78336350D01*
X112512327Y-78331268D01*
X112381929Y-78244139D01*
X112373594Y-78237299D01*
X112262701Y-78126406D01*
X112255861Y-78118071D01*
X112168732Y-77987673D01*
X112163650Y-77978165D01*
X112103635Y-77833276D01*
X112100505Y-77822958D01*
X112069909Y-77669144D01*
X112068852Y-77658414D01*
X112068852Y-77597033D01*
X112066310Y-77583163D01*
X112065000Y-77580000D01*
X112065000Y-76980000D01*
X112068843Y-76970722D01*
X112068843Y-76940982D01*
X112073030Y-76919934D01*
X112077737Y-76908568D01*
X112077739Y-76908562D01*
X112098181Y-76859211D01*
X112098184Y-76859206D01*
X112102893Y-76847838D01*
X112114815Y-76829995D01*
X112123514Y-76821295D01*
X112123517Y-76821292D01*
X112161292Y-76783517D01*
X112161295Y-76783514D01*
X112169995Y-76774815D01*
X112187838Y-76762893D01*
X112199206Y-76758184D01*
X112199211Y-76758181D01*
X112248562Y-76737739D01*
X112248568Y-76737737D01*
X112259934Y-76733030D01*
X112280982Y-76728843D01*
X112299471Y-76728843D01*
X112308888Y-76728131D01*
X112314505Y-76727276D01*
X112320000Y-76725000D01*
X113520000Y-76725000D01*
X113529278Y-76728843D01*
G37*
G36*
X126229278Y-76728843D02*
G01*
X126246709Y-76728843D01*
X126259018Y-76728843D01*
X126280066Y-76733030D01*
X126291432Y-76737738D01*
X126291437Y-76737739D01*
X126340788Y-76758181D01*
X126340790Y-76758182D01*
X126352162Y-76762893D01*
X126370005Y-76774815D01*
X126425185Y-76829995D01*
X126437107Y-76847838D01*
X126466970Y-76919934D01*
X126471157Y-76940982D01*
X126471157Y-76953290D01*
X126471157Y-76959471D01*
X126471869Y-76968888D01*
X126472723Y-76974505D01*
X126475000Y-76980000D01*
X126475000Y-77580000D01*
X126471148Y-77589299D01*
X126471148Y-77658414D01*
X126470091Y-77669144D01*
X126439495Y-77822958D01*
X126436365Y-77833276D01*
X126376350Y-77978165D01*
X126371268Y-77987673D01*
X126284139Y-78118071D01*
X126277299Y-78126406D01*
X126166406Y-78237299D01*
X126158071Y-78244139D01*
X126027673Y-78331268D01*
X126018165Y-78336350D01*
X125873276Y-78396365D01*
X125862958Y-78399495D01*
X125709144Y-78430091D01*
X125698414Y-78431148D01*
X125692273Y-78431148D01*
X125547727Y-78431148D01*
X125541586Y-78431148D01*
X125530856Y-78430091D01*
X125377042Y-78399495D01*
X125366724Y-78396365D01*
X125221835Y-78336350D01*
X125212327Y-78331268D01*
X125081929Y-78244139D01*
X125073594Y-78237299D01*
X124962701Y-78126406D01*
X124955861Y-78118071D01*
X124868732Y-77987673D01*
X124863650Y-77978165D01*
X124803635Y-77833276D01*
X124800505Y-77822958D01*
X124769909Y-77669144D01*
X124768852Y-77658414D01*
X124768852Y-77597033D01*
X124766310Y-77583163D01*
X124765000Y-77580000D01*
X124765000Y-76980000D01*
X124768843Y-76970722D01*
X124768843Y-76940982D01*
X124773030Y-76919934D01*
X124777737Y-76908568D01*
X124777739Y-76908562D01*
X124798181Y-76859211D01*
X124798184Y-76859206D01*
X124802893Y-76847838D01*
X124814815Y-76829995D01*
X124823514Y-76821295D01*
X124823517Y-76821292D01*
X124861292Y-76783517D01*
X124861295Y-76783514D01*
X124869995Y-76774815D01*
X124887838Y-76762893D01*
X124899206Y-76758184D01*
X124899211Y-76758181D01*
X124948562Y-76737739D01*
X124948568Y-76737737D01*
X124959934Y-76733030D01*
X124980982Y-76728843D01*
X124999471Y-76728843D01*
X125008888Y-76728131D01*
X125014505Y-76727276D01*
X125020000Y-76725000D01*
X126220000Y-76725000D01*
X126229278Y-76728843D01*
G37*
G36*
X138929278Y-76728843D02*
G01*
X138946709Y-76728843D01*
X138959018Y-76728843D01*
X138980066Y-76733030D01*
X138991432Y-76737738D01*
X138991437Y-76737739D01*
X139040788Y-76758181D01*
X139040790Y-76758182D01*
X139052162Y-76762893D01*
X139070005Y-76774815D01*
X139125185Y-76829995D01*
X139137107Y-76847838D01*
X139166970Y-76919934D01*
X139171157Y-76940982D01*
X139171157Y-76953290D01*
X139171157Y-76959471D01*
X139171869Y-76968888D01*
X139172723Y-76974505D01*
X139175000Y-76980000D01*
X139175000Y-77580000D01*
X139171148Y-77589299D01*
X139171148Y-77658414D01*
X139170091Y-77669144D01*
X139139495Y-77822958D01*
X139136365Y-77833276D01*
X139076350Y-77978165D01*
X139071268Y-77987673D01*
X138984139Y-78118071D01*
X138977299Y-78126406D01*
X138866406Y-78237299D01*
X138858071Y-78244139D01*
X138727673Y-78331268D01*
X138718165Y-78336350D01*
X138573276Y-78396365D01*
X138562958Y-78399495D01*
X138409144Y-78430091D01*
X138398414Y-78431148D01*
X138392273Y-78431148D01*
X138247727Y-78431148D01*
X138241586Y-78431148D01*
X138230856Y-78430091D01*
X138077042Y-78399495D01*
X138066724Y-78396365D01*
X137921835Y-78336350D01*
X137912327Y-78331268D01*
X137781929Y-78244139D01*
X137773594Y-78237299D01*
X137662701Y-78126406D01*
X137655861Y-78118071D01*
X137568732Y-77987673D01*
X137563650Y-77978165D01*
X137503635Y-77833276D01*
X137500505Y-77822958D01*
X137469909Y-77669144D01*
X137468852Y-77658414D01*
X137468852Y-77597033D01*
X137466310Y-77583163D01*
X137465000Y-77580000D01*
X137465000Y-76980000D01*
X137468843Y-76970722D01*
X137468843Y-76940982D01*
X137473030Y-76919934D01*
X137477737Y-76908568D01*
X137477739Y-76908562D01*
X137498181Y-76859211D01*
X137498184Y-76859206D01*
X137502893Y-76847838D01*
X137514815Y-76829995D01*
X137523514Y-76821295D01*
X137523517Y-76821292D01*
X137561292Y-76783517D01*
X137561295Y-76783514D01*
X137569995Y-76774815D01*
X137587838Y-76762893D01*
X137599206Y-76758184D01*
X137599211Y-76758181D01*
X137648562Y-76737739D01*
X137648568Y-76737737D01*
X137659934Y-76733030D01*
X137680982Y-76728843D01*
X137699471Y-76728843D01*
X137708888Y-76728131D01*
X137714505Y-76727276D01*
X137720000Y-76725000D01*
X138920000Y-76725000D01*
X138929278Y-76728843D01*
G37*
G36*
X95386742Y-76766601D02*
G01*
X95540687Y-76830367D01*
X95679234Y-76922941D01*
X95797059Y-77040766D01*
X95889633Y-77179313D01*
X95953399Y-77333258D01*
X95985907Y-77496685D01*
X95985907Y-77663315D01*
X95953399Y-77826742D01*
X95889633Y-77980687D01*
X95797059Y-78119234D01*
X95679234Y-78237059D01*
X95540687Y-78329633D01*
X95386742Y-78393399D01*
X95223315Y-78425907D01*
X95056685Y-78425907D01*
X94893258Y-78393399D01*
X94739313Y-78329633D01*
X94600766Y-78237059D01*
X94482941Y-78119234D01*
X94390367Y-77980687D01*
X94326601Y-77826742D01*
X94294093Y-77663315D01*
X94294093Y-77496685D01*
X94326601Y-77333258D01*
X94390367Y-77179313D01*
X94482941Y-77040766D01*
X94600766Y-76922941D01*
X94739313Y-76830367D01*
X94893258Y-76766601D01*
X95056685Y-76734093D01*
X95223315Y-76734093D01*
X95386742Y-76766601D01*
G37*
G36*
X97926742Y-76766601D02*
G01*
X98080687Y-76830367D01*
X98219234Y-76922941D01*
X98337059Y-77040766D01*
X98429633Y-77179313D01*
X98493399Y-77333258D01*
X98525907Y-77496685D01*
X98525907Y-77663315D01*
X98493399Y-77826742D01*
X98429633Y-77980687D01*
X98337059Y-78119234D01*
X98219234Y-78237059D01*
X98080687Y-78329633D01*
X97926742Y-78393399D01*
X97763315Y-78425907D01*
X97596685Y-78425907D01*
X97433258Y-78393399D01*
X97279313Y-78329633D01*
X97140766Y-78237059D01*
X97022941Y-78119234D01*
X96930367Y-77980687D01*
X96866601Y-77826742D01*
X96834093Y-77663315D01*
X96834093Y-77496685D01*
X96866601Y-77333258D01*
X96930367Y-77179313D01*
X97022941Y-77040766D01*
X97140766Y-76922941D01*
X97279313Y-76830367D01*
X97433258Y-76766601D01*
X97596685Y-76734093D01*
X97763315Y-76734093D01*
X97926742Y-76766601D01*
G37*
G36*
X103006742Y-76766601D02*
G01*
X103160687Y-76830367D01*
X103299234Y-76922941D01*
X103417059Y-77040766D01*
X103509633Y-77179313D01*
X103573399Y-77333258D01*
X103605907Y-77496685D01*
X103605907Y-77663315D01*
X103573399Y-77826742D01*
X103509633Y-77980687D01*
X103417059Y-78119234D01*
X103299234Y-78237059D01*
X103160687Y-78329633D01*
X103006742Y-78393399D01*
X102843315Y-78425907D01*
X102676685Y-78425907D01*
X102513258Y-78393399D01*
X102359313Y-78329633D01*
X102220766Y-78237059D01*
X102102941Y-78119234D01*
X102010367Y-77980687D01*
X101946601Y-77826742D01*
X101914093Y-77663315D01*
X101914093Y-77496685D01*
X101946601Y-77333258D01*
X102010367Y-77179313D01*
X102102941Y-77040766D01*
X102220766Y-76922941D01*
X102359313Y-76830367D01*
X102513258Y-76766601D01*
X102676685Y-76734093D01*
X102843315Y-76734093D01*
X103006742Y-76766601D01*
G37*
G36*
X105546742Y-76766601D02*
G01*
X105700687Y-76830367D01*
X105839234Y-76922941D01*
X105957059Y-77040766D01*
X106049633Y-77179313D01*
X106113399Y-77333258D01*
X106145907Y-77496685D01*
X106145907Y-77663315D01*
X106113399Y-77826742D01*
X106049633Y-77980687D01*
X105957059Y-78119234D01*
X105839234Y-78237059D01*
X105700687Y-78329633D01*
X105546742Y-78393399D01*
X105383315Y-78425907D01*
X105216685Y-78425907D01*
X105053258Y-78393399D01*
X104899313Y-78329633D01*
X104760766Y-78237059D01*
X104642941Y-78119234D01*
X104550367Y-77980687D01*
X104486601Y-77826742D01*
X104454093Y-77663315D01*
X104454093Y-77496685D01*
X104486601Y-77333258D01*
X104550367Y-77179313D01*
X104642941Y-77040766D01*
X104760766Y-76922941D01*
X104899313Y-76830367D01*
X105053258Y-76766601D01*
X105216685Y-76734093D01*
X105383315Y-76734093D01*
X105546742Y-76766601D01*
G37*
G36*
X108086742Y-76766601D02*
G01*
X108240687Y-76830367D01*
X108379234Y-76922941D01*
X108497059Y-77040766D01*
X108589633Y-77179313D01*
X108653399Y-77333258D01*
X108685907Y-77496685D01*
X108685907Y-77663315D01*
X108653399Y-77826742D01*
X108589633Y-77980687D01*
X108497059Y-78119234D01*
X108379234Y-78237059D01*
X108240687Y-78329633D01*
X108086742Y-78393399D01*
X107923315Y-78425907D01*
X107756685Y-78425907D01*
X107593258Y-78393399D01*
X107439313Y-78329633D01*
X107300766Y-78237059D01*
X107182941Y-78119234D01*
X107090367Y-77980687D01*
X107026601Y-77826742D01*
X106994093Y-77663315D01*
X106994093Y-77496685D01*
X107026601Y-77333258D01*
X107090367Y-77179313D01*
X107182941Y-77040766D01*
X107300766Y-76922941D01*
X107439313Y-76830367D01*
X107593258Y-76766601D01*
X107756685Y-76734093D01*
X107923315Y-76734093D01*
X108086742Y-76766601D01*
G37*
G36*
X110626742Y-76766601D02*
G01*
X110780687Y-76830367D01*
X110919234Y-76922941D01*
X111037059Y-77040766D01*
X111129633Y-77179313D01*
X111193399Y-77333258D01*
X111225907Y-77496685D01*
X111225907Y-77663315D01*
X111193399Y-77826742D01*
X111129633Y-77980687D01*
X111037059Y-78119234D01*
X110919234Y-78237059D01*
X110780687Y-78329633D01*
X110626742Y-78393399D01*
X110463315Y-78425907D01*
X110296685Y-78425907D01*
X110133258Y-78393399D01*
X109979313Y-78329633D01*
X109840766Y-78237059D01*
X109722941Y-78119234D01*
X109630367Y-77980687D01*
X109566601Y-77826742D01*
X109534093Y-77663315D01*
X109534093Y-77496685D01*
X109566601Y-77333258D01*
X109630367Y-77179313D01*
X109722941Y-77040766D01*
X109840766Y-76922941D01*
X109979313Y-76830367D01*
X110133258Y-76766601D01*
X110296685Y-76734093D01*
X110463315Y-76734093D01*
X110626742Y-76766601D01*
G37*
G36*
X115706742Y-76766601D02*
G01*
X115860687Y-76830367D01*
X115999234Y-76922941D01*
X116117059Y-77040766D01*
X116209633Y-77179313D01*
X116273399Y-77333258D01*
X116305907Y-77496685D01*
X116305907Y-77663315D01*
X116273399Y-77826742D01*
X116209633Y-77980687D01*
X116117059Y-78119234D01*
X115999234Y-78237059D01*
X115860687Y-78329633D01*
X115706742Y-78393399D01*
X115543315Y-78425907D01*
X115376685Y-78425907D01*
X115213258Y-78393399D01*
X115059313Y-78329633D01*
X114920766Y-78237059D01*
X114802941Y-78119234D01*
X114710367Y-77980687D01*
X114646601Y-77826742D01*
X114614093Y-77663315D01*
X114614093Y-77496685D01*
X114646601Y-77333258D01*
X114710367Y-77179313D01*
X114802941Y-77040766D01*
X114920766Y-76922941D01*
X115059313Y-76830367D01*
X115213258Y-76766601D01*
X115376685Y-76734093D01*
X115543315Y-76734093D01*
X115706742Y-76766601D01*
G37*
G36*
X118246742Y-76766601D02*
G01*
X118400687Y-76830367D01*
X118539234Y-76922941D01*
X118657059Y-77040766D01*
X118749633Y-77179313D01*
X118813399Y-77333258D01*
X118845907Y-77496685D01*
X118845907Y-77663315D01*
X118813399Y-77826742D01*
X118749633Y-77980687D01*
X118657059Y-78119234D01*
X118539234Y-78237059D01*
X118400687Y-78329633D01*
X118246742Y-78393399D01*
X118083315Y-78425907D01*
X117916685Y-78425907D01*
X117753258Y-78393399D01*
X117599313Y-78329633D01*
X117460766Y-78237059D01*
X117342941Y-78119234D01*
X117250367Y-77980687D01*
X117186601Y-77826742D01*
X117154093Y-77663315D01*
X117154093Y-77496685D01*
X117186601Y-77333258D01*
X117250367Y-77179313D01*
X117342941Y-77040766D01*
X117460766Y-76922941D01*
X117599313Y-76830367D01*
X117753258Y-76766601D01*
X117916685Y-76734093D01*
X118083315Y-76734093D01*
X118246742Y-76766601D01*
G37*
G36*
X120786742Y-76766601D02*
G01*
X120940687Y-76830367D01*
X121079234Y-76922941D01*
X121197059Y-77040766D01*
X121289633Y-77179313D01*
X121353399Y-77333258D01*
X121385907Y-77496685D01*
X121385907Y-77663315D01*
X121353399Y-77826742D01*
X121289633Y-77980687D01*
X121197059Y-78119234D01*
X121079234Y-78237059D01*
X120940687Y-78329633D01*
X120786742Y-78393399D01*
X120623315Y-78425907D01*
X120456685Y-78425907D01*
X120293258Y-78393399D01*
X120139313Y-78329633D01*
X120000766Y-78237059D01*
X119882941Y-78119234D01*
X119790367Y-77980687D01*
X119726601Y-77826742D01*
X119694093Y-77663315D01*
X119694093Y-77496685D01*
X119726601Y-77333258D01*
X119790367Y-77179313D01*
X119882941Y-77040766D01*
X120000766Y-76922941D01*
X120139313Y-76830367D01*
X120293258Y-76766601D01*
X120456685Y-76734093D01*
X120623315Y-76734093D01*
X120786742Y-76766601D01*
G37*
G36*
X123326742Y-76766601D02*
G01*
X123480687Y-76830367D01*
X123619234Y-76922941D01*
X123737059Y-77040766D01*
X123829633Y-77179313D01*
X123893399Y-77333258D01*
X123925907Y-77496685D01*
X123925907Y-77663315D01*
X123893399Y-77826742D01*
X123829633Y-77980687D01*
X123737059Y-78119234D01*
X123619234Y-78237059D01*
X123480687Y-78329633D01*
X123326742Y-78393399D01*
X123163315Y-78425907D01*
X122996685Y-78425907D01*
X122833258Y-78393399D01*
X122679313Y-78329633D01*
X122540766Y-78237059D01*
X122422941Y-78119234D01*
X122330367Y-77980687D01*
X122266601Y-77826742D01*
X122234093Y-77663315D01*
X122234093Y-77496685D01*
X122266601Y-77333258D01*
X122330367Y-77179313D01*
X122422941Y-77040766D01*
X122540766Y-76922941D01*
X122679313Y-76830367D01*
X122833258Y-76766601D01*
X122996685Y-76734093D01*
X123163315Y-76734093D01*
X123326742Y-76766601D01*
G37*
G36*
X128406742Y-76766601D02*
G01*
X128560687Y-76830367D01*
X128699234Y-76922941D01*
X128817059Y-77040766D01*
X128909633Y-77179313D01*
X128973399Y-77333258D01*
X129005907Y-77496685D01*
X129005907Y-77663315D01*
X128973399Y-77826742D01*
X128909633Y-77980687D01*
X128817059Y-78119234D01*
X128699234Y-78237059D01*
X128560687Y-78329633D01*
X128406742Y-78393399D01*
X128243315Y-78425907D01*
X128076685Y-78425907D01*
X127913258Y-78393399D01*
X127759313Y-78329633D01*
X127620766Y-78237059D01*
X127502941Y-78119234D01*
X127410367Y-77980687D01*
X127346601Y-77826742D01*
X127314093Y-77663315D01*
X127314093Y-77496685D01*
X127346601Y-77333258D01*
X127410367Y-77179313D01*
X127502941Y-77040766D01*
X127620766Y-76922941D01*
X127759313Y-76830367D01*
X127913258Y-76766601D01*
X128076685Y-76734093D01*
X128243315Y-76734093D01*
X128406742Y-76766601D01*
G37*
G36*
X130946742Y-76766601D02*
G01*
X131100687Y-76830367D01*
X131239234Y-76922941D01*
X131357059Y-77040766D01*
X131449633Y-77179313D01*
X131513399Y-77333258D01*
X131545907Y-77496685D01*
X131545907Y-77663315D01*
X131513399Y-77826742D01*
X131449633Y-77980687D01*
X131357059Y-78119234D01*
X131239234Y-78237059D01*
X131100687Y-78329633D01*
X130946742Y-78393399D01*
X130783315Y-78425907D01*
X130616685Y-78425907D01*
X130453258Y-78393399D01*
X130299313Y-78329633D01*
X130160766Y-78237059D01*
X130042941Y-78119234D01*
X129950367Y-77980687D01*
X129886601Y-77826742D01*
X129854093Y-77663315D01*
X129854093Y-77496685D01*
X129886601Y-77333258D01*
X129950367Y-77179313D01*
X130042941Y-77040766D01*
X130160766Y-76922941D01*
X130299313Y-76830367D01*
X130453258Y-76766601D01*
X130616685Y-76734093D01*
X130783315Y-76734093D01*
X130946742Y-76766601D01*
G37*
G36*
X133486742Y-76766601D02*
G01*
X133640687Y-76830367D01*
X133779234Y-76922941D01*
X133897059Y-77040766D01*
X133989633Y-77179313D01*
X134053399Y-77333258D01*
X134085907Y-77496685D01*
X134085907Y-77663315D01*
X134053399Y-77826742D01*
X133989633Y-77980687D01*
X133897059Y-78119234D01*
X133779234Y-78237059D01*
X133640687Y-78329633D01*
X133486742Y-78393399D01*
X133323315Y-78425907D01*
X133156685Y-78425907D01*
X132993258Y-78393399D01*
X132839313Y-78329633D01*
X132700766Y-78237059D01*
X132582941Y-78119234D01*
X132490367Y-77980687D01*
X132426601Y-77826742D01*
X132394093Y-77663315D01*
X132394093Y-77496685D01*
X132426601Y-77333258D01*
X132490367Y-77179313D01*
X132582941Y-77040766D01*
X132700766Y-76922941D01*
X132839313Y-76830367D01*
X132993258Y-76766601D01*
X133156685Y-76734093D01*
X133323315Y-76734093D01*
X133486742Y-76766601D01*
G37*
G36*
X136026742Y-76766601D02*
G01*
X136180687Y-76830367D01*
X136319234Y-76922941D01*
X136437059Y-77040766D01*
X136529633Y-77179313D01*
X136593399Y-77333258D01*
X136625907Y-77496685D01*
X136625907Y-77663315D01*
X136593399Y-77826742D01*
X136529633Y-77980687D01*
X136437059Y-78119234D01*
X136319234Y-78237059D01*
X136180687Y-78329633D01*
X136026742Y-78393399D01*
X135863315Y-78425907D01*
X135696685Y-78425907D01*
X135533258Y-78393399D01*
X135379313Y-78329633D01*
X135240766Y-78237059D01*
X135122941Y-78119234D01*
X135030367Y-77980687D01*
X134966601Y-77826742D01*
X134934093Y-77663315D01*
X134934093Y-77496685D01*
X134966601Y-77333258D01*
X135030367Y-77179313D01*
X135122941Y-77040766D01*
X135240766Y-76922941D01*
X135379313Y-76830367D01*
X135533258Y-76766601D01*
X135696685Y-76734093D01*
X135863315Y-76734093D01*
X136026742Y-76766601D01*
G37*
G36*
X141106742Y-76766601D02*
G01*
X141260687Y-76830367D01*
X141399234Y-76922941D01*
X141517059Y-77040766D01*
X141609633Y-77179313D01*
X141673399Y-77333258D01*
X141705907Y-77496685D01*
X141705907Y-77663315D01*
X141673399Y-77826742D01*
X141609633Y-77980687D01*
X141517059Y-78119234D01*
X141399234Y-78237059D01*
X141260687Y-78329633D01*
X141106742Y-78393399D01*
X140943315Y-78425907D01*
X140776685Y-78425907D01*
X140613258Y-78393399D01*
X140459313Y-78329633D01*
X140320766Y-78237059D01*
X140202941Y-78119234D01*
X140110367Y-77980687D01*
X140046601Y-77826742D01*
X140014093Y-77663315D01*
X140014093Y-77496685D01*
X140046601Y-77333258D01*
X140110367Y-77179313D01*
X140202941Y-77040766D01*
X140320766Y-76922941D01*
X140459313Y-76830367D01*
X140613258Y-76766601D01*
X140776685Y-76734093D01*
X140943315Y-76734093D01*
X141106742Y-76766601D01*
G37*
G36*
X143646742Y-76766601D02*
G01*
X143800687Y-76830367D01*
X143939234Y-76922941D01*
X144057059Y-77040766D01*
X144149633Y-77179313D01*
X144213399Y-77333258D01*
X144245907Y-77496685D01*
X144245907Y-77663315D01*
X144213399Y-77826742D01*
X144149633Y-77980687D01*
X144057059Y-78119234D01*
X143939234Y-78237059D01*
X143800687Y-78329633D01*
X143646742Y-78393399D01*
X143483315Y-78425907D01*
X143316685Y-78425907D01*
X143153258Y-78393399D01*
X142999313Y-78329633D01*
X142860766Y-78237059D01*
X142742941Y-78119234D01*
X142650367Y-77980687D01*
X142586601Y-77826742D01*
X142554093Y-77663315D01*
X142554093Y-77496685D01*
X142586601Y-77333258D01*
X142650367Y-77179313D01*
X142742941Y-77040766D01*
X142860766Y-76922941D01*
X142999313Y-76830367D01*
X143153258Y-76766601D01*
X143316685Y-76734093D01*
X143483315Y-76734093D01*
X143646742Y-76766601D01*
G37*
G36*
X100309144Y-58949909D02*
G01*
X100315164Y-58951106D01*
X100315169Y-58951107D01*
X100456937Y-58979307D01*
X100456940Y-58979307D01*
X100462958Y-58980505D01*
X100473276Y-58983635D01*
X100478943Y-58985982D01*
X100478945Y-58985983D01*
X100612490Y-59041299D01*
X100612492Y-59041300D01*
X100618165Y-59043650D01*
X100627673Y-59048732D01*
X100758071Y-59135861D01*
X100766406Y-59142701D01*
X100877299Y-59253594D01*
X100884139Y-59261929D01*
X100971268Y-59392327D01*
X100976350Y-59401835D01*
X101036365Y-59546724D01*
X101039495Y-59557042D01*
X101070091Y-59710856D01*
X101071148Y-59721586D01*
X101071148Y-59727727D01*
X101071148Y-59782964D01*
X101073689Y-59796837D01*
X101075000Y-59800000D01*
X101075000Y-60400000D01*
X101071157Y-60409277D01*
X101071157Y-60439018D01*
X101066970Y-60460066D01*
X101037107Y-60532162D01*
X101025185Y-60550005D01*
X100970005Y-60605185D01*
X100952162Y-60617107D01*
X100880066Y-60646970D01*
X100859018Y-60651157D01*
X100846709Y-60651157D01*
X100840529Y-60651157D01*
X100831112Y-60651869D01*
X100825494Y-60652723D01*
X100820000Y-60655000D01*
X100810542Y-60655000D01*
X99635177Y-60655000D01*
X99620000Y-60655000D01*
X99610722Y-60651157D01*
X99593291Y-60651157D01*
X99580982Y-60651157D01*
X99559934Y-60646970D01*
X99548563Y-60642260D01*
X99548562Y-60642260D01*
X99499211Y-60621818D01*
X99499210Y-60621817D01*
X99487838Y-60617107D01*
X99469995Y-60605185D01*
X99414815Y-60550005D01*
X99402893Y-60532162D01*
X99398182Y-60520790D01*
X99398181Y-60520788D01*
X99377739Y-60471437D01*
X99377738Y-60471432D01*
X99373030Y-60460066D01*
X99368843Y-60439018D01*
X99368843Y-60420528D01*
X99368130Y-60411110D01*
X99367275Y-60405492D01*
X99365000Y-60400000D01*
X99365000Y-59800000D01*
X99368852Y-59790700D01*
X99368852Y-59721586D01*
X99369909Y-59710856D01*
X99371106Y-59704836D01*
X99371107Y-59704830D01*
X99399307Y-59563062D01*
X99399308Y-59563056D01*
X99400505Y-59557042D01*
X99403635Y-59546724D01*
X99405981Y-59541059D01*
X99405983Y-59541054D01*
X99461299Y-59407509D01*
X99461302Y-59407502D01*
X99463650Y-59401835D01*
X99468732Y-59392327D01*
X99472140Y-59387226D01*
X99472143Y-59387221D01*
X99552450Y-59267033D01*
X99552453Y-59267028D01*
X99555861Y-59261929D01*
X99562701Y-59253594D01*
X99567036Y-59249258D01*
X99567041Y-59249253D01*
X99669253Y-59147041D01*
X99669258Y-59147036D01*
X99673594Y-59142701D01*
X99681929Y-59135861D01*
X99687028Y-59132453D01*
X99687033Y-59132450D01*
X99807221Y-59052143D01*
X99807226Y-59052140D01*
X99812327Y-59048732D01*
X99821835Y-59043650D01*
X99827502Y-59041302D01*
X99827509Y-59041299D01*
X99961054Y-58985983D01*
X99961059Y-58985981D01*
X99966724Y-58983635D01*
X99977042Y-58980505D01*
X99983056Y-58979308D01*
X99983062Y-58979307D01*
X100124830Y-58951107D01*
X100124836Y-58951106D01*
X100130856Y-58949909D01*
X100141586Y-58948852D01*
X100298414Y-58948852D01*
X100309144Y-58949909D01*
G37*
G36*
X113009144Y-58949909D02*
G01*
X113015164Y-58951106D01*
X113015169Y-58951107D01*
X113156937Y-58979307D01*
X113156940Y-58979307D01*
X113162958Y-58980505D01*
X113173276Y-58983635D01*
X113178943Y-58985982D01*
X113178945Y-58985983D01*
X113312490Y-59041299D01*
X113312492Y-59041300D01*
X113318165Y-59043650D01*
X113327673Y-59048732D01*
X113458071Y-59135861D01*
X113466406Y-59142701D01*
X113577299Y-59253594D01*
X113584139Y-59261929D01*
X113671268Y-59392327D01*
X113676350Y-59401835D01*
X113736365Y-59546724D01*
X113739495Y-59557042D01*
X113770091Y-59710856D01*
X113771148Y-59721586D01*
X113771148Y-59727727D01*
X113771148Y-59782964D01*
X113773689Y-59796837D01*
X113775000Y-59800000D01*
X113775000Y-60400000D01*
X113771157Y-60409277D01*
X113771157Y-60439018D01*
X113766970Y-60460066D01*
X113737107Y-60532162D01*
X113725185Y-60550005D01*
X113670005Y-60605185D01*
X113652162Y-60617107D01*
X113580066Y-60646970D01*
X113559018Y-60651157D01*
X113546709Y-60651157D01*
X113540529Y-60651157D01*
X113531112Y-60651869D01*
X113525494Y-60652723D01*
X113520000Y-60655000D01*
X113510542Y-60655000D01*
X112335177Y-60655000D01*
X112320000Y-60655000D01*
X112310722Y-60651157D01*
X112293291Y-60651157D01*
X112280982Y-60651157D01*
X112259934Y-60646970D01*
X112248563Y-60642260D01*
X112248562Y-60642260D01*
X112199211Y-60621818D01*
X112199210Y-60621817D01*
X112187838Y-60617107D01*
X112169995Y-60605185D01*
X112114815Y-60550005D01*
X112102893Y-60532162D01*
X112098182Y-60520790D01*
X112098181Y-60520788D01*
X112077739Y-60471437D01*
X112077738Y-60471432D01*
X112073030Y-60460066D01*
X112068843Y-60439018D01*
X112068843Y-60420528D01*
X112068130Y-60411110D01*
X112067275Y-60405492D01*
X112065000Y-60400000D01*
X112065000Y-59800000D01*
X112068852Y-59790700D01*
X112068852Y-59721586D01*
X112069909Y-59710856D01*
X112071106Y-59704836D01*
X112071107Y-59704830D01*
X112099307Y-59563062D01*
X112099308Y-59563056D01*
X112100505Y-59557042D01*
X112103635Y-59546724D01*
X112105981Y-59541059D01*
X112105983Y-59541054D01*
X112161299Y-59407509D01*
X112161302Y-59407502D01*
X112163650Y-59401835D01*
X112168732Y-59392327D01*
X112172140Y-59387226D01*
X112172143Y-59387221D01*
X112252450Y-59267033D01*
X112252453Y-59267028D01*
X112255861Y-59261929D01*
X112262701Y-59253594D01*
X112267036Y-59249258D01*
X112267041Y-59249253D01*
X112369253Y-59147041D01*
X112369258Y-59147036D01*
X112373594Y-59142701D01*
X112381929Y-59135861D01*
X112387028Y-59132453D01*
X112387033Y-59132450D01*
X112507221Y-59052143D01*
X112507226Y-59052140D01*
X112512327Y-59048732D01*
X112521835Y-59043650D01*
X112527502Y-59041302D01*
X112527509Y-59041299D01*
X112661054Y-58985983D01*
X112661059Y-58985981D01*
X112666724Y-58983635D01*
X112677042Y-58980505D01*
X112683056Y-58979308D01*
X112683062Y-58979307D01*
X112824830Y-58951107D01*
X112824836Y-58951106D01*
X112830856Y-58949909D01*
X112841586Y-58948852D01*
X112998414Y-58948852D01*
X113009144Y-58949909D01*
G37*
G36*
X125709144Y-58949909D02*
G01*
X125715164Y-58951106D01*
X125715169Y-58951107D01*
X125856937Y-58979307D01*
X125856940Y-58979307D01*
X125862958Y-58980505D01*
X125873276Y-58983635D01*
X125878943Y-58985982D01*
X125878945Y-58985983D01*
X126012490Y-59041299D01*
X126012492Y-59041300D01*
X126018165Y-59043650D01*
X126027673Y-59048732D01*
X126158071Y-59135861D01*
X126166406Y-59142701D01*
X126277299Y-59253594D01*
X126284139Y-59261929D01*
X126371268Y-59392327D01*
X126376350Y-59401835D01*
X126436365Y-59546724D01*
X126439495Y-59557042D01*
X126470091Y-59710856D01*
X126471148Y-59721586D01*
X126471148Y-59727727D01*
X126471148Y-59782964D01*
X126473689Y-59796837D01*
X126475000Y-59800000D01*
X126475000Y-60400000D01*
X126471157Y-60409277D01*
X126471157Y-60439018D01*
X126466970Y-60460066D01*
X126437107Y-60532162D01*
X126425185Y-60550005D01*
X126370005Y-60605185D01*
X126352162Y-60617107D01*
X126280066Y-60646970D01*
X126259018Y-60651157D01*
X126246709Y-60651157D01*
X126240529Y-60651157D01*
X126231112Y-60651869D01*
X126225494Y-60652723D01*
X126220000Y-60655000D01*
X126210542Y-60655000D01*
X125035177Y-60655000D01*
X125020000Y-60655000D01*
X125010722Y-60651157D01*
X124993291Y-60651157D01*
X124980982Y-60651157D01*
X124959934Y-60646970D01*
X124948563Y-60642260D01*
X124948562Y-60642260D01*
X124899211Y-60621818D01*
X124899210Y-60621817D01*
X124887838Y-60617107D01*
X124869995Y-60605185D01*
X124814815Y-60550005D01*
X124802893Y-60532162D01*
X124798182Y-60520790D01*
X124798181Y-60520788D01*
X124777739Y-60471437D01*
X124777738Y-60471432D01*
X124773030Y-60460066D01*
X124768843Y-60439018D01*
X124768843Y-60420528D01*
X124768130Y-60411110D01*
X124767275Y-60405492D01*
X124765000Y-60400000D01*
X124765000Y-59800000D01*
X124768852Y-59790700D01*
X124768852Y-59721586D01*
X124769909Y-59710856D01*
X124771106Y-59704836D01*
X124771107Y-59704830D01*
X124799307Y-59563062D01*
X124799308Y-59563056D01*
X124800505Y-59557042D01*
X124803635Y-59546724D01*
X124805981Y-59541059D01*
X124805983Y-59541054D01*
X124861299Y-59407509D01*
X124861302Y-59407502D01*
X124863650Y-59401835D01*
X124868732Y-59392327D01*
X124872140Y-59387226D01*
X124872143Y-59387221D01*
X124952450Y-59267033D01*
X124952453Y-59267028D01*
X124955861Y-59261929D01*
X124962701Y-59253594D01*
X124967036Y-59249258D01*
X124967041Y-59249253D01*
X125069253Y-59147041D01*
X125069258Y-59147036D01*
X125073594Y-59142701D01*
X125081929Y-59135861D01*
X125087028Y-59132453D01*
X125087033Y-59132450D01*
X125207221Y-59052143D01*
X125207226Y-59052140D01*
X125212327Y-59048732D01*
X125221835Y-59043650D01*
X125227502Y-59041302D01*
X125227509Y-59041299D01*
X125361054Y-58985983D01*
X125361059Y-58985981D01*
X125366724Y-58983635D01*
X125377042Y-58980505D01*
X125383056Y-58979308D01*
X125383062Y-58979307D01*
X125524830Y-58951107D01*
X125524836Y-58951106D01*
X125530856Y-58949909D01*
X125541586Y-58948852D01*
X125698414Y-58948852D01*
X125709144Y-58949909D01*
G37*
G36*
X138409144Y-58949909D02*
G01*
X138415164Y-58951106D01*
X138415169Y-58951107D01*
X138556937Y-58979307D01*
X138556940Y-58979307D01*
X138562958Y-58980505D01*
X138573276Y-58983635D01*
X138578943Y-58985982D01*
X138578945Y-58985983D01*
X138712490Y-59041299D01*
X138712492Y-59041300D01*
X138718165Y-59043650D01*
X138727673Y-59048732D01*
X138858071Y-59135861D01*
X138866406Y-59142701D01*
X138977299Y-59253594D01*
X138984139Y-59261929D01*
X139071268Y-59392327D01*
X139076350Y-59401835D01*
X139136365Y-59546724D01*
X139139495Y-59557042D01*
X139170091Y-59710856D01*
X139171148Y-59721586D01*
X139171148Y-59727727D01*
X139171148Y-59782964D01*
X139173689Y-59796837D01*
X139175000Y-59800000D01*
X139175000Y-60400000D01*
X139171157Y-60409277D01*
X139171157Y-60439018D01*
X139166970Y-60460066D01*
X139137107Y-60532162D01*
X139125185Y-60550005D01*
X139070005Y-60605185D01*
X139052162Y-60617107D01*
X138980066Y-60646970D01*
X138959018Y-60651157D01*
X138946709Y-60651157D01*
X138940529Y-60651157D01*
X138931112Y-60651869D01*
X138925494Y-60652723D01*
X138920000Y-60655000D01*
X138910542Y-60655000D01*
X137735177Y-60655000D01*
X137720000Y-60655000D01*
X137710722Y-60651157D01*
X137693291Y-60651157D01*
X137680982Y-60651157D01*
X137659934Y-60646970D01*
X137648563Y-60642260D01*
X137648562Y-60642260D01*
X137599211Y-60621818D01*
X137599210Y-60621817D01*
X137587838Y-60617107D01*
X137569995Y-60605185D01*
X137514815Y-60550005D01*
X137502893Y-60532162D01*
X137498182Y-60520790D01*
X137498181Y-60520788D01*
X137477739Y-60471437D01*
X137477738Y-60471432D01*
X137473030Y-60460066D01*
X137468843Y-60439018D01*
X137468843Y-60420528D01*
X137468130Y-60411110D01*
X137467275Y-60405492D01*
X137465000Y-60400000D01*
X137465000Y-59800000D01*
X137468852Y-59790700D01*
X137468852Y-59721586D01*
X137469909Y-59710856D01*
X137471106Y-59704836D01*
X137471107Y-59704830D01*
X137499307Y-59563062D01*
X137499308Y-59563056D01*
X137500505Y-59557042D01*
X137503635Y-59546724D01*
X137505981Y-59541059D01*
X137505983Y-59541054D01*
X137561299Y-59407509D01*
X137561302Y-59407502D01*
X137563650Y-59401835D01*
X137568732Y-59392327D01*
X137572140Y-59387226D01*
X137572143Y-59387221D01*
X137652450Y-59267033D01*
X137652453Y-59267028D01*
X137655861Y-59261929D01*
X137662701Y-59253594D01*
X137667036Y-59249258D01*
X137667041Y-59249253D01*
X137769253Y-59147041D01*
X137769258Y-59147036D01*
X137773594Y-59142701D01*
X137781929Y-59135861D01*
X137787028Y-59132453D01*
X137787033Y-59132450D01*
X137907221Y-59052143D01*
X137907226Y-59052140D01*
X137912327Y-59048732D01*
X137921835Y-59043650D01*
X137927502Y-59041302D01*
X137927509Y-59041299D01*
X138061054Y-58985983D01*
X138061059Y-58985981D01*
X138066724Y-58983635D01*
X138077042Y-58980505D01*
X138083056Y-58979308D01*
X138083062Y-58979307D01*
X138224830Y-58951107D01*
X138224836Y-58951106D01*
X138230856Y-58949909D01*
X138241586Y-58948852D01*
X138398414Y-58948852D01*
X138409144Y-58949909D01*
G37*
G36*
X144024797Y-58954932D02*
G01*
X144069650Y-58961467D01*
X144077882Y-58965491D01*
X144095671Y-58969030D01*
X144124440Y-58988253D01*
X144144263Y-58997944D01*
X144154973Y-59008654D01*
X144176777Y-59023223D01*
X144191345Y-59045026D01*
X144202055Y-59055736D01*
X144211744Y-59075556D01*
X144230970Y-59104329D01*
X144234508Y-59122119D01*
X144238532Y-59130349D01*
X144245064Y-59175187D01*
X144250000Y-59200000D01*
X144250000Y-60400000D01*
X144245063Y-60424816D01*
X144238532Y-60469650D01*
X144234509Y-60477878D01*
X144230970Y-60495671D01*
X144211742Y-60524446D01*
X144202055Y-60544263D01*
X144191347Y-60554970D01*
X144176777Y-60576777D01*
X144154970Y-60591347D01*
X144144263Y-60602055D01*
X144124446Y-60611742D01*
X144095671Y-60630970D01*
X144077878Y-60634509D01*
X144069650Y-60638532D01*
X144024814Y-60645064D01*
X144000000Y-60650000D01*
X142800000Y-60650000D01*
X142775186Y-60645064D01*
X142730349Y-60638532D01*
X142722119Y-60634508D01*
X142704329Y-60630970D01*
X142675556Y-60611744D01*
X142655736Y-60602055D01*
X142645026Y-60591345D01*
X142623223Y-60576777D01*
X142608654Y-60554973D01*
X142597944Y-60544263D01*
X142588253Y-60524440D01*
X142569030Y-60495671D01*
X142565491Y-60477882D01*
X142561467Y-60469650D01*
X142554932Y-60424796D01*
X142550000Y-60400000D01*
X142550000Y-59200000D01*
X142554931Y-59175205D01*
X142561467Y-59130349D01*
X142565491Y-59122115D01*
X142569030Y-59104329D01*
X142588251Y-59075561D01*
X142597944Y-59055736D01*
X142608656Y-59045023D01*
X142623223Y-59023223D01*
X142645023Y-59008656D01*
X142655736Y-58997944D01*
X142675561Y-58988251D01*
X142704329Y-58969030D01*
X142722115Y-58965491D01*
X142730349Y-58961467D01*
X142775206Y-58954931D01*
X142800000Y-58950000D01*
X144000000Y-58950000D01*
X144024797Y-58954932D01*
G37*
G36*
X95386742Y-58986601D02*
G01*
X95540687Y-59050367D01*
X95679234Y-59142941D01*
X95797059Y-59260766D01*
X95889633Y-59399313D01*
X95953399Y-59553258D01*
X95985907Y-59716685D01*
X95985907Y-59883315D01*
X95953399Y-60046742D01*
X95889633Y-60200687D01*
X95797059Y-60339234D01*
X95679234Y-60457059D01*
X95540687Y-60549633D01*
X95386742Y-60613399D01*
X95223315Y-60645907D01*
X95056685Y-60645907D01*
X94893258Y-60613399D01*
X94739313Y-60549633D01*
X94600766Y-60457059D01*
X94482941Y-60339234D01*
X94390367Y-60200687D01*
X94326601Y-60046742D01*
X94294093Y-59883315D01*
X94294093Y-59716685D01*
X94326601Y-59553258D01*
X94390367Y-59399313D01*
X94482941Y-59260766D01*
X94600766Y-59142941D01*
X94739313Y-59050367D01*
X94893258Y-58986601D01*
X95056685Y-58954093D01*
X95223315Y-58954093D01*
X95386742Y-58986601D01*
G37*
G36*
X97926742Y-58986601D02*
G01*
X98080687Y-59050367D01*
X98219234Y-59142941D01*
X98337059Y-59260766D01*
X98429633Y-59399313D01*
X98493399Y-59553258D01*
X98525907Y-59716685D01*
X98525907Y-59883315D01*
X98493399Y-60046742D01*
X98429633Y-60200687D01*
X98337059Y-60339234D01*
X98219234Y-60457059D01*
X98080687Y-60549633D01*
X97926742Y-60613399D01*
X97763315Y-60645907D01*
X97596685Y-60645907D01*
X97433258Y-60613399D01*
X97279313Y-60549633D01*
X97140766Y-60457059D01*
X97022941Y-60339234D01*
X96930367Y-60200687D01*
X96866601Y-60046742D01*
X96834093Y-59883315D01*
X96834093Y-59716685D01*
X96866601Y-59553258D01*
X96930367Y-59399313D01*
X97022941Y-59260766D01*
X97140766Y-59142941D01*
X97279313Y-59050367D01*
X97433258Y-58986601D01*
X97596685Y-58954093D01*
X97763315Y-58954093D01*
X97926742Y-58986601D01*
G37*
G36*
X103006742Y-58986601D02*
G01*
X103160687Y-59050367D01*
X103299234Y-59142941D01*
X103417059Y-59260766D01*
X103509633Y-59399313D01*
X103573399Y-59553258D01*
X103605907Y-59716685D01*
X103605907Y-59883315D01*
X103573399Y-60046742D01*
X103509633Y-60200687D01*
X103417059Y-60339234D01*
X103299234Y-60457059D01*
X103160687Y-60549633D01*
X103006742Y-60613399D01*
X102843315Y-60645907D01*
X102676685Y-60645907D01*
X102513258Y-60613399D01*
X102359313Y-60549633D01*
X102220766Y-60457059D01*
X102102941Y-60339234D01*
X102010367Y-60200687D01*
X101946601Y-60046742D01*
X101914093Y-59883315D01*
X101914093Y-59716685D01*
X101946601Y-59553258D01*
X102010367Y-59399313D01*
X102102941Y-59260766D01*
X102220766Y-59142941D01*
X102359313Y-59050367D01*
X102513258Y-58986601D01*
X102676685Y-58954093D01*
X102843315Y-58954093D01*
X103006742Y-58986601D01*
G37*
G36*
X105546742Y-58986601D02*
G01*
X105700687Y-59050367D01*
X105839234Y-59142941D01*
X105957059Y-59260766D01*
X106049633Y-59399313D01*
X106113399Y-59553258D01*
X106145907Y-59716685D01*
X106145907Y-59883315D01*
X106113399Y-60046742D01*
X106049633Y-60200687D01*
X105957059Y-60339234D01*
X105839234Y-60457059D01*
X105700687Y-60549633D01*
X105546742Y-60613399D01*
X105383315Y-60645907D01*
X105216685Y-60645907D01*
X105053258Y-60613399D01*
X104899313Y-60549633D01*
X104760766Y-60457059D01*
X104642941Y-60339234D01*
X104550367Y-60200687D01*
X104486601Y-60046742D01*
X104454093Y-59883315D01*
X104454093Y-59716685D01*
X104486601Y-59553258D01*
X104550367Y-59399313D01*
X104642941Y-59260766D01*
X104760766Y-59142941D01*
X104899313Y-59050367D01*
X105053258Y-58986601D01*
X105216685Y-58954093D01*
X105383315Y-58954093D01*
X105546742Y-58986601D01*
G37*
G36*
X108086742Y-58986601D02*
G01*
X108240687Y-59050367D01*
X108379234Y-59142941D01*
X108497059Y-59260766D01*
X108589633Y-59399313D01*
X108653399Y-59553258D01*
X108685907Y-59716685D01*
X108685907Y-59883315D01*
X108653399Y-60046742D01*
X108589633Y-60200687D01*
X108497059Y-60339234D01*
X108379234Y-60457059D01*
X108240687Y-60549633D01*
X108086742Y-60613399D01*
X107923315Y-60645907D01*
X107756685Y-60645907D01*
X107593258Y-60613399D01*
X107439313Y-60549633D01*
X107300766Y-60457059D01*
X107182941Y-60339234D01*
X107090367Y-60200687D01*
X107026601Y-60046742D01*
X106994093Y-59883315D01*
X106994093Y-59716685D01*
X107026601Y-59553258D01*
X107090367Y-59399313D01*
X107182941Y-59260766D01*
X107300766Y-59142941D01*
X107439313Y-59050367D01*
X107593258Y-58986601D01*
X107756685Y-58954093D01*
X107923315Y-58954093D01*
X108086742Y-58986601D01*
G37*
G36*
X110626742Y-58986601D02*
G01*
X110780687Y-59050367D01*
X110919234Y-59142941D01*
X111037059Y-59260766D01*
X111129633Y-59399313D01*
X111193399Y-59553258D01*
X111225907Y-59716685D01*
X111225907Y-59883315D01*
X111193399Y-60046742D01*
X111129633Y-60200687D01*
X111037059Y-60339234D01*
X110919234Y-60457059D01*
X110780687Y-60549633D01*
X110626742Y-60613399D01*
X110463315Y-60645907D01*
X110296685Y-60645907D01*
X110133258Y-60613399D01*
X109979313Y-60549633D01*
X109840766Y-60457059D01*
X109722941Y-60339234D01*
X109630367Y-60200687D01*
X109566601Y-60046742D01*
X109534093Y-59883315D01*
X109534093Y-59716685D01*
X109566601Y-59553258D01*
X109630367Y-59399313D01*
X109722941Y-59260766D01*
X109840766Y-59142941D01*
X109979313Y-59050367D01*
X110133258Y-58986601D01*
X110296685Y-58954093D01*
X110463315Y-58954093D01*
X110626742Y-58986601D01*
G37*
G36*
X115706742Y-58986601D02*
G01*
X115860687Y-59050367D01*
X115999234Y-59142941D01*
X116117059Y-59260766D01*
X116209633Y-59399313D01*
X116273399Y-59553258D01*
X116305907Y-59716685D01*
X116305907Y-59883315D01*
X116273399Y-60046742D01*
X116209633Y-60200687D01*
X116117059Y-60339234D01*
X115999234Y-60457059D01*
X115860687Y-60549633D01*
X115706742Y-60613399D01*
X115543315Y-60645907D01*
X115376685Y-60645907D01*
X115213258Y-60613399D01*
X115059313Y-60549633D01*
X114920766Y-60457059D01*
X114802941Y-60339234D01*
X114710367Y-60200687D01*
X114646601Y-60046742D01*
X114614093Y-59883315D01*
X114614093Y-59716685D01*
X114646601Y-59553258D01*
X114710367Y-59399313D01*
X114802941Y-59260766D01*
X114920766Y-59142941D01*
X115059313Y-59050367D01*
X115213258Y-58986601D01*
X115376685Y-58954093D01*
X115543315Y-58954093D01*
X115706742Y-58986601D01*
G37*
G36*
X118246742Y-58986601D02*
G01*
X118400687Y-59050367D01*
X118539234Y-59142941D01*
X118657059Y-59260766D01*
X118749633Y-59399313D01*
X118813399Y-59553258D01*
X118845907Y-59716685D01*
X118845907Y-59883315D01*
X118813399Y-60046742D01*
X118749633Y-60200687D01*
X118657059Y-60339234D01*
X118539234Y-60457059D01*
X118400687Y-60549633D01*
X118246742Y-60613399D01*
X118083315Y-60645907D01*
X117916685Y-60645907D01*
X117753258Y-60613399D01*
X117599313Y-60549633D01*
X117460766Y-60457059D01*
X117342941Y-60339234D01*
X117250367Y-60200687D01*
X117186601Y-60046742D01*
X117154093Y-59883315D01*
X117154093Y-59716685D01*
X117186601Y-59553258D01*
X117250367Y-59399313D01*
X117342941Y-59260766D01*
X117460766Y-59142941D01*
X117599313Y-59050367D01*
X117753258Y-58986601D01*
X117916685Y-58954093D01*
X118083315Y-58954093D01*
X118246742Y-58986601D01*
G37*
G36*
X120786742Y-58986601D02*
G01*
X120940687Y-59050367D01*
X121079234Y-59142941D01*
X121197059Y-59260766D01*
X121289633Y-59399313D01*
X121353399Y-59553258D01*
X121385907Y-59716685D01*
X121385907Y-59883315D01*
X121353399Y-60046742D01*
X121289633Y-60200687D01*
X121197059Y-60339234D01*
X121079234Y-60457059D01*
X120940687Y-60549633D01*
X120786742Y-60613399D01*
X120623315Y-60645907D01*
X120456685Y-60645907D01*
X120293258Y-60613399D01*
X120139313Y-60549633D01*
X120000766Y-60457059D01*
X119882941Y-60339234D01*
X119790367Y-60200687D01*
X119726601Y-60046742D01*
X119694093Y-59883315D01*
X119694093Y-59716685D01*
X119726601Y-59553258D01*
X119790367Y-59399313D01*
X119882941Y-59260766D01*
X120000766Y-59142941D01*
X120139313Y-59050367D01*
X120293258Y-58986601D01*
X120456685Y-58954093D01*
X120623315Y-58954093D01*
X120786742Y-58986601D01*
G37*
G36*
X123326742Y-58986601D02*
G01*
X123480687Y-59050367D01*
X123619234Y-59142941D01*
X123737059Y-59260766D01*
X123829633Y-59399313D01*
X123893399Y-59553258D01*
X123925907Y-59716685D01*
X123925907Y-59883315D01*
X123893399Y-60046742D01*
X123829633Y-60200687D01*
X123737059Y-60339234D01*
X123619234Y-60457059D01*
X123480687Y-60549633D01*
X123326742Y-60613399D01*
X123163315Y-60645907D01*
X122996685Y-60645907D01*
X122833258Y-60613399D01*
X122679313Y-60549633D01*
X122540766Y-60457059D01*
X122422941Y-60339234D01*
X122330367Y-60200687D01*
X122266601Y-60046742D01*
X122234093Y-59883315D01*
X122234093Y-59716685D01*
X122266601Y-59553258D01*
X122330367Y-59399313D01*
X122422941Y-59260766D01*
X122540766Y-59142941D01*
X122679313Y-59050367D01*
X122833258Y-58986601D01*
X122996685Y-58954093D01*
X123163315Y-58954093D01*
X123326742Y-58986601D01*
G37*
G36*
X128406742Y-58986601D02*
G01*
X128560687Y-59050367D01*
X128699234Y-59142941D01*
X128817059Y-59260766D01*
X128909633Y-59399313D01*
X128973399Y-59553258D01*
X129005907Y-59716685D01*
X129005907Y-59883315D01*
X128973399Y-60046742D01*
X128909633Y-60200687D01*
X128817059Y-60339234D01*
X128699234Y-60457059D01*
X128560687Y-60549633D01*
X128406742Y-60613399D01*
X128243315Y-60645907D01*
X128076685Y-60645907D01*
X127913258Y-60613399D01*
X127759313Y-60549633D01*
X127620766Y-60457059D01*
X127502941Y-60339234D01*
X127410367Y-60200687D01*
X127346601Y-60046742D01*
X127314093Y-59883315D01*
X127314093Y-59716685D01*
X127346601Y-59553258D01*
X127410367Y-59399313D01*
X127502941Y-59260766D01*
X127620766Y-59142941D01*
X127759313Y-59050367D01*
X127913258Y-58986601D01*
X128076685Y-58954093D01*
X128243315Y-58954093D01*
X128406742Y-58986601D01*
G37*
G36*
X130946742Y-58986601D02*
G01*
X131100687Y-59050367D01*
X131239234Y-59142941D01*
X131357059Y-59260766D01*
X131449633Y-59399313D01*
X131513399Y-59553258D01*
X131545907Y-59716685D01*
X131545907Y-59883315D01*
X131513399Y-60046742D01*
X131449633Y-60200687D01*
X131357059Y-60339234D01*
X131239234Y-60457059D01*
X131100687Y-60549633D01*
X130946742Y-60613399D01*
X130783315Y-60645907D01*
X130616685Y-60645907D01*
X130453258Y-60613399D01*
X130299313Y-60549633D01*
X130160766Y-60457059D01*
X130042941Y-60339234D01*
X129950367Y-60200687D01*
X129886601Y-60046742D01*
X129854093Y-59883315D01*
X129854093Y-59716685D01*
X129886601Y-59553258D01*
X129950367Y-59399313D01*
X130042941Y-59260766D01*
X130160766Y-59142941D01*
X130299313Y-59050367D01*
X130453258Y-58986601D01*
X130616685Y-58954093D01*
X130783315Y-58954093D01*
X130946742Y-58986601D01*
G37*
G36*
X133486742Y-58986601D02*
G01*
X133640687Y-59050367D01*
X133779234Y-59142941D01*
X133897059Y-59260766D01*
X133989633Y-59399313D01*
X134053399Y-59553258D01*
X134085907Y-59716685D01*
X134085907Y-59883315D01*
X134053399Y-60046742D01*
X133989633Y-60200687D01*
X133897059Y-60339234D01*
X133779234Y-60457059D01*
X133640687Y-60549633D01*
X133486742Y-60613399D01*
X133323315Y-60645907D01*
X133156685Y-60645907D01*
X132993258Y-60613399D01*
X132839313Y-60549633D01*
X132700766Y-60457059D01*
X132582941Y-60339234D01*
X132490367Y-60200687D01*
X132426601Y-60046742D01*
X132394093Y-59883315D01*
X132394093Y-59716685D01*
X132426601Y-59553258D01*
X132490367Y-59399313D01*
X132582941Y-59260766D01*
X132700766Y-59142941D01*
X132839313Y-59050367D01*
X132993258Y-58986601D01*
X133156685Y-58954093D01*
X133323315Y-58954093D01*
X133486742Y-58986601D01*
G37*
G36*
X136026742Y-58986601D02*
G01*
X136180687Y-59050367D01*
X136319234Y-59142941D01*
X136437059Y-59260766D01*
X136529633Y-59399313D01*
X136593399Y-59553258D01*
X136625907Y-59716685D01*
X136625907Y-59883315D01*
X136593399Y-60046742D01*
X136529633Y-60200687D01*
X136437059Y-60339234D01*
X136319234Y-60457059D01*
X136180687Y-60549633D01*
X136026742Y-60613399D01*
X135863315Y-60645907D01*
X135696685Y-60645907D01*
X135533258Y-60613399D01*
X135379313Y-60549633D01*
X135240766Y-60457059D01*
X135122941Y-60339234D01*
X135030367Y-60200687D01*
X134966601Y-60046742D01*
X134934093Y-59883315D01*
X134934093Y-59716685D01*
X134966601Y-59553258D01*
X135030367Y-59399313D01*
X135122941Y-59260766D01*
X135240766Y-59142941D01*
X135379313Y-59050367D01*
X135533258Y-58986601D01*
X135696685Y-58954093D01*
X135863315Y-58954093D01*
X136026742Y-58986601D01*
G37*
G36*
X141106742Y-58986601D02*
G01*
X141260687Y-59050367D01*
X141399234Y-59142941D01*
X141517059Y-59260766D01*
X141609633Y-59399313D01*
X141673399Y-59553258D01*
X141705907Y-59716685D01*
X141705907Y-59883315D01*
X141673399Y-60046742D01*
X141609633Y-60200687D01*
X141517059Y-60339234D01*
X141399234Y-60457059D01*
X141260687Y-60549633D01*
X141106742Y-60613399D01*
X140943315Y-60645907D01*
X140776685Y-60645907D01*
X140613258Y-60613399D01*
X140459313Y-60549633D01*
X140320766Y-60457059D01*
X140202941Y-60339234D01*
X140110367Y-60200687D01*
X140046601Y-60046742D01*
X140014093Y-59883315D01*
X140014093Y-59716685D01*
X140046601Y-59553258D01*
X140110367Y-59399313D01*
X140202941Y-59260766D01*
X140320766Y-59142941D01*
X140459313Y-59050367D01*
X140613258Y-58986601D01*
X140776685Y-58954093D01*
X140943315Y-58954093D01*
X141106742Y-58986601D01*
G37*
G36*
X88617662Y-50355086D02*
G01*
X88629458Y-50355086D01*
X88687536Y-50364284D01*
X88821848Y-50381967D01*
X88854625Y-50390749D01*
X88885185Y-50395590D01*
X88943956Y-50414685D01*
X89030290Y-50437819D01*
X89085367Y-50460633D01*
X89131428Y-50475599D01*
X89174584Y-50497588D01*
X89229661Y-50520402D01*
X89307061Y-50565088D01*
X89362123Y-50593144D01*
X89387151Y-50611328D01*
X89416539Y-50628295D01*
X89524031Y-50710777D01*
X89571589Y-50745330D01*
X89579926Y-50753667D01*
X89587740Y-50759663D01*
X89740336Y-50912259D01*
X89746331Y-50920072D01*
X89754670Y-50928411D01*
X89789226Y-50975973D01*
X89871704Y-51083460D01*
X89888669Y-51112845D01*
X89906856Y-51137877D01*
X89934914Y-51192944D01*
X89979597Y-51270338D01*
X90002408Y-51325409D01*
X90024401Y-51368572D01*
X90039369Y-51414639D01*
X90062180Y-51469709D01*
X90085309Y-51556030D01*
X90104410Y-51614815D01*
X90109251Y-51645380D01*
X90118032Y-51678151D01*
X90135713Y-51812451D01*
X90144914Y-51870542D01*
X90144914Y-51882337D01*
X90146200Y-51892106D01*
X90146200Y-52107893D01*
X90144914Y-52117661D01*
X90144914Y-52129458D01*
X90135712Y-52187553D01*
X90118032Y-52321848D01*
X90109251Y-52354616D01*
X90104410Y-52385185D01*
X90085308Y-52443973D01*
X90062180Y-52530290D01*
X90039370Y-52585356D01*
X90024401Y-52631428D01*
X90002406Y-52674594D01*
X89979597Y-52729661D01*
X89934918Y-52807046D01*
X89906856Y-52862123D01*
X89888666Y-52887158D01*
X89871704Y-52916539D01*
X89789240Y-53024007D01*
X89754670Y-53071589D01*
X89746328Y-53079930D01*
X89740336Y-53087740D01*
X89587740Y-53240336D01*
X89579930Y-53246328D01*
X89571589Y-53254670D01*
X89524007Y-53289240D01*
X89416539Y-53371704D01*
X89387158Y-53388666D01*
X89362123Y-53406856D01*
X89307046Y-53434918D01*
X89229661Y-53479597D01*
X89174594Y-53502406D01*
X89131428Y-53524401D01*
X89085356Y-53539370D01*
X89030290Y-53562180D01*
X88943973Y-53585308D01*
X88885185Y-53604410D01*
X88854616Y-53609251D01*
X88821848Y-53618032D01*
X88687550Y-53635712D01*
X88629458Y-53644914D01*
X88617662Y-53644914D01*
X88607894Y-53646200D01*
X88392106Y-53646200D01*
X88382338Y-53644914D01*
X88370542Y-53644914D01*
X88312451Y-53635713D01*
X88178151Y-53618032D01*
X88145380Y-53609251D01*
X88114815Y-53604410D01*
X88056030Y-53585309D01*
X87969709Y-53562180D01*
X87914639Y-53539369D01*
X87868572Y-53524401D01*
X87825409Y-53502408D01*
X87770338Y-53479597D01*
X87692944Y-53434914D01*
X87637877Y-53406856D01*
X87612845Y-53388669D01*
X87583460Y-53371704D01*
X87475973Y-53289226D01*
X87428411Y-53254670D01*
X87420072Y-53246331D01*
X87412259Y-53240336D01*
X87259663Y-53087740D01*
X87253667Y-53079926D01*
X87245330Y-53071589D01*
X87210777Y-53024031D01*
X87128295Y-52916539D01*
X87111328Y-52887151D01*
X87093144Y-52862123D01*
X87065088Y-52807061D01*
X87020402Y-52729661D01*
X86997588Y-52674584D01*
X86975599Y-52631428D01*
X86960633Y-52585367D01*
X86937819Y-52530290D01*
X86914685Y-52443956D01*
X86895590Y-52385185D01*
X86890749Y-52354625D01*
X86881967Y-52321848D01*
X86864285Y-52187539D01*
X86855086Y-52129458D01*
X86855086Y-52117661D01*
X86853800Y-52107893D01*
X86853800Y-51892106D01*
X86855086Y-51882337D01*
X86855086Y-51870542D01*
X86864284Y-51812465D01*
X86881967Y-51678151D01*
X86890750Y-51645371D01*
X86895590Y-51614815D01*
X86914684Y-51556048D01*
X86937819Y-51469709D01*
X86960634Y-51414627D01*
X86975599Y-51368572D01*
X86997586Y-51325419D01*
X87020402Y-51270338D01*
X87065093Y-51192929D01*
X87093144Y-51137877D01*
X87111325Y-51112852D01*
X87128295Y-51083460D01*
X87210791Y-50975949D01*
X87245330Y-50928411D01*
X87253663Y-50920077D01*
X87259663Y-50912259D01*
X87412259Y-50759663D01*
X87420077Y-50753663D01*
X87428411Y-50745330D01*
X87475949Y-50710791D01*
X87583460Y-50628295D01*
X87612852Y-50611325D01*
X87637877Y-50593144D01*
X87692929Y-50565093D01*
X87770338Y-50520402D01*
X87825419Y-50497586D01*
X87868572Y-50475599D01*
X87914627Y-50460634D01*
X87969709Y-50437819D01*
X88056048Y-50414684D01*
X88114815Y-50395590D01*
X88145371Y-50390750D01*
X88178151Y-50381967D01*
X88312465Y-50364284D01*
X88370542Y-50355086D01*
X88382338Y-50355086D01*
X88392106Y-50353800D01*
X88607894Y-50353800D01*
X88617662Y-50355086D01*
G37*
G36*
X140617662Y-50355086D02*
G01*
X140629458Y-50355086D01*
X140687536Y-50364284D01*
X140821848Y-50381967D01*
X140854625Y-50390749D01*
X140885185Y-50395590D01*
X140943956Y-50414685D01*
X141030290Y-50437819D01*
X141085367Y-50460633D01*
X141131428Y-50475599D01*
X141174584Y-50497588D01*
X141229661Y-50520402D01*
X141307061Y-50565088D01*
X141362123Y-50593144D01*
X141387151Y-50611328D01*
X141416539Y-50628295D01*
X141524031Y-50710777D01*
X141571589Y-50745330D01*
X141579926Y-50753667D01*
X141587740Y-50759663D01*
X141740336Y-50912259D01*
X141746331Y-50920072D01*
X141754670Y-50928411D01*
X141789226Y-50975973D01*
X141871704Y-51083460D01*
X141888669Y-51112845D01*
X141906856Y-51137877D01*
X141934914Y-51192944D01*
X141979597Y-51270338D01*
X142002408Y-51325409D01*
X142024401Y-51368572D01*
X142039369Y-51414639D01*
X142062180Y-51469709D01*
X142085309Y-51556030D01*
X142104410Y-51614815D01*
X142109251Y-51645380D01*
X142118032Y-51678151D01*
X142135713Y-51812451D01*
X142144914Y-51870542D01*
X142144914Y-51882337D01*
X142146200Y-51892106D01*
X142146200Y-52107893D01*
X142144914Y-52117661D01*
X142144914Y-52129458D01*
X142135712Y-52187553D01*
X142118032Y-52321848D01*
X142109251Y-52354616D01*
X142104410Y-52385185D01*
X142085308Y-52443973D01*
X142062180Y-52530290D01*
X142039370Y-52585356D01*
X142024401Y-52631428D01*
X142002406Y-52674594D01*
X141979597Y-52729661D01*
X141934918Y-52807046D01*
X141906856Y-52862123D01*
X141888666Y-52887158D01*
X141871704Y-52916539D01*
X141789240Y-53024007D01*
X141754670Y-53071589D01*
X141746328Y-53079930D01*
X141740336Y-53087740D01*
X141587740Y-53240336D01*
X141579930Y-53246328D01*
X141571589Y-53254670D01*
X141524007Y-53289240D01*
X141416539Y-53371704D01*
X141387158Y-53388666D01*
X141362123Y-53406856D01*
X141307046Y-53434918D01*
X141229661Y-53479597D01*
X141174594Y-53502406D01*
X141131428Y-53524401D01*
X141085356Y-53539370D01*
X141030290Y-53562180D01*
X140943973Y-53585308D01*
X140885185Y-53604410D01*
X140854616Y-53609251D01*
X140821848Y-53618032D01*
X140687550Y-53635712D01*
X140629458Y-53644914D01*
X140617662Y-53644914D01*
X140607894Y-53646200D01*
X140392106Y-53646200D01*
X140382338Y-53644914D01*
X140370542Y-53644914D01*
X140312451Y-53635713D01*
X140178151Y-53618032D01*
X140145380Y-53609251D01*
X140114815Y-53604410D01*
X140056030Y-53585309D01*
X139969709Y-53562180D01*
X139914639Y-53539369D01*
X139868572Y-53524401D01*
X139825409Y-53502408D01*
X139770338Y-53479597D01*
X139692944Y-53434914D01*
X139637877Y-53406856D01*
X139612845Y-53388669D01*
X139583460Y-53371704D01*
X139475973Y-53289226D01*
X139428411Y-53254670D01*
X139420072Y-53246331D01*
X139412259Y-53240336D01*
X139259663Y-53087740D01*
X139253667Y-53079926D01*
X139245330Y-53071589D01*
X139210777Y-53024031D01*
X139128295Y-52916539D01*
X139111328Y-52887151D01*
X139093144Y-52862123D01*
X139065088Y-52807061D01*
X139020402Y-52729661D01*
X138997588Y-52674584D01*
X138975599Y-52631428D01*
X138960633Y-52585367D01*
X138937819Y-52530290D01*
X138914685Y-52443956D01*
X138895590Y-52385185D01*
X138890749Y-52354625D01*
X138881967Y-52321848D01*
X138864285Y-52187539D01*
X138855086Y-52129458D01*
X138855086Y-52117661D01*
X138853800Y-52107893D01*
X138853800Y-51892106D01*
X138855086Y-51882337D01*
X138855086Y-51870542D01*
X138864284Y-51812465D01*
X138881967Y-51678151D01*
X138890750Y-51645371D01*
X138895590Y-51614815D01*
X138914684Y-51556048D01*
X138937819Y-51469709D01*
X138960634Y-51414627D01*
X138975599Y-51368572D01*
X138997586Y-51325419D01*
X139020402Y-51270338D01*
X139065093Y-51192929D01*
X139093144Y-51137877D01*
X139111325Y-51112852D01*
X139128295Y-51083460D01*
X139210791Y-50975949D01*
X139245330Y-50928411D01*
X139253663Y-50920077D01*
X139259663Y-50912259D01*
X139412259Y-50759663D01*
X139420077Y-50753663D01*
X139428411Y-50745330D01*
X139475949Y-50710791D01*
X139583460Y-50628295D01*
X139612852Y-50611325D01*
X139637877Y-50593144D01*
X139692929Y-50565093D01*
X139770338Y-50520402D01*
X139825419Y-50497586D01*
X139868572Y-50475599D01*
X139914627Y-50460634D01*
X139969709Y-50437819D01*
X140056048Y-50414684D01*
X140114815Y-50395590D01*
X140145371Y-50390750D01*
X140178151Y-50381967D01*
X140312465Y-50364284D01*
X140370542Y-50355086D01*
X140382338Y-50355086D01*
X140392106Y-50353800D01*
X140607894Y-50353800D01*
X140617662Y-50355086D01*
G37*
G36*
X100918685Y-51582969D02*
G01*
X100934461Y-51589934D01*
X100942222Y-51591164D01*
X100974542Y-51607632D01*
X101019541Y-51627501D01*
X101097499Y-51705459D01*
X101117370Y-51750464D01*
X101133835Y-51782777D01*
X101135063Y-51790535D01*
X101142031Y-51806315D01*
X101150000Y-51875000D01*
X101150000Y-53125000D01*
X101142031Y-53193685D01*
X101135063Y-53209464D01*
X101133835Y-53217222D01*
X101117373Y-53249528D01*
X101097499Y-53294541D01*
X101019541Y-53372499D01*
X100974528Y-53392373D01*
X100942222Y-53408835D01*
X100934464Y-53410063D01*
X100918685Y-53417031D01*
X100850000Y-53425000D01*
X100150000Y-53425000D01*
X100081315Y-53417031D01*
X100065535Y-53410063D01*
X100057777Y-53408835D01*
X100025464Y-53392370D01*
X99980459Y-53372499D01*
X99902501Y-53294541D01*
X99882632Y-53249542D01*
X99866164Y-53217222D01*
X99864934Y-53209461D01*
X99857969Y-53193685D01*
X99850000Y-53125000D01*
X99850000Y-51875000D01*
X99857969Y-51806315D01*
X99864934Y-51790539D01*
X99866164Y-51782777D01*
X99882635Y-51750449D01*
X99902501Y-51705459D01*
X99980459Y-51627501D01*
X100025449Y-51607635D01*
X100057777Y-51591164D01*
X100065539Y-51589934D01*
X100081315Y-51582969D01*
X100150000Y-51575000D01*
X100850000Y-51575000D01*
X100918685Y-51582969D01*
G37*
G36*
X98688685Y-51602989D02*
G01*
X98806408Y-51651751D01*
X98912356Y-51722543D01*
X99002457Y-51812644D01*
X99073249Y-51918592D01*
X99122011Y-52036315D01*
X99146870Y-52161289D01*
X99150000Y-52225000D01*
X99150000Y-52775000D01*
X99146870Y-52838711D01*
X99122011Y-52963685D01*
X99073249Y-53081408D01*
X99002457Y-53187356D01*
X98912356Y-53277457D01*
X98806408Y-53348249D01*
X98688685Y-53397011D01*
X98563711Y-53421870D01*
X98436289Y-53421870D01*
X98311315Y-53397011D01*
X98193592Y-53348249D01*
X98087644Y-53277457D01*
X97997543Y-53187356D01*
X97926751Y-53081408D01*
X97877989Y-52963685D01*
X97853130Y-52838711D01*
X97850000Y-52775000D01*
X97850000Y-52225000D01*
X97853130Y-52161289D01*
X97877989Y-52036315D01*
X97926751Y-51918592D01*
X97997543Y-51812644D01*
X98087644Y-51722543D01*
X98193592Y-51651751D01*
X98311315Y-51602989D01*
X98436289Y-51578130D01*
X98563711Y-51578130D01*
X98688685Y-51602989D01*
G37*
G36*
X126329134Y-51103806D02*
G01*
X126345355Y-51114645D01*
X126356194Y-51130866D01*
X126360000Y-51150000D01*
X126360000Y-52850000D01*
X126356194Y-52869134D01*
X126345355Y-52885355D01*
X126329134Y-52896194D01*
X126310000Y-52900000D01*
X124610000Y-52900000D01*
X124590866Y-52896194D01*
X124574645Y-52885355D01*
X124563806Y-52869134D01*
X124560000Y-52850000D01*
X124560000Y-51150000D01*
X124563806Y-51130866D01*
X124574645Y-51114645D01*
X124590866Y-51103806D01*
X124610000Y-51100000D01*
X126310000Y-51100000D01*
X126329134Y-51103806D01*
G37*
G36*
X128261256Y-51138754D02*
G01*
X128424257Y-51206271D01*
X128570954Y-51304291D01*
X128695709Y-51429046D01*
X128793729Y-51575743D01*
X128861246Y-51738744D01*
X128895666Y-51911785D01*
X128895666Y-52088215D01*
X128861246Y-52261256D01*
X128793729Y-52424257D01*
X128695709Y-52570954D01*
X128570954Y-52695709D01*
X128424257Y-52793729D01*
X128261256Y-52861246D01*
X128088215Y-52895666D01*
X127911785Y-52895666D01*
X127738744Y-52861246D01*
X127575743Y-52793729D01*
X127429046Y-52695709D01*
X127304291Y-52570954D01*
X127206271Y-52424257D01*
X127138754Y-52261256D01*
X127104334Y-52088215D01*
X127104334Y-51911785D01*
X127138754Y-51738744D01*
X127206271Y-51575743D01*
X127304291Y-51429046D01*
X127429046Y-51304291D01*
X127575743Y-51206271D01*
X127738744Y-51138754D01*
X127911785Y-51104334D01*
X128088215Y-51104334D01*
X128261256Y-51138754D01*
G37*
G36*
X130801256Y-51138754D02*
G01*
X130964257Y-51206271D01*
X131110954Y-51304291D01*
X131235709Y-51429046D01*
X131333729Y-51575743D01*
X131401246Y-51738744D01*
X131435666Y-51911785D01*
X131435666Y-52088215D01*
X131401246Y-52261256D01*
X131333729Y-52424257D01*
X131235709Y-52570954D01*
X131110954Y-52695709D01*
X130964257Y-52793729D01*
X130801256Y-52861246D01*
X130628215Y-52895666D01*
X130451785Y-52895666D01*
X130278744Y-52861246D01*
X130115743Y-52793729D01*
X129969046Y-52695709D01*
X129844291Y-52570954D01*
X129746271Y-52424257D01*
X129678754Y-52261256D01*
X129644334Y-52088215D01*
X129644334Y-51911785D01*
X129678754Y-51738744D01*
X129746271Y-51575743D01*
X129844291Y-51429046D01*
X129969046Y-51304291D01*
X130115743Y-51206271D01*
X130278744Y-51138754D01*
X130451785Y-51104334D01*
X130628215Y-51104334D01*
X130801256Y-51138754D01*
G37*
G36*
X133341256Y-51138754D02*
G01*
X133504257Y-51206271D01*
X133650954Y-51304291D01*
X133775709Y-51429046D01*
X133873729Y-51575743D01*
X133941246Y-51738744D01*
X133975666Y-51911785D01*
X133975666Y-52088215D01*
X133941246Y-52261256D01*
X133873729Y-52424257D01*
X133775709Y-52570954D01*
X133650954Y-52695709D01*
X133504257Y-52793729D01*
X133341256Y-52861246D01*
X133168215Y-52895666D01*
X132991785Y-52895666D01*
X132818744Y-52861246D01*
X132655743Y-52793729D01*
X132509046Y-52695709D01*
X132384291Y-52570954D01*
X132286271Y-52424257D01*
X132218754Y-52261256D01*
X132184334Y-52088215D01*
X132184334Y-51911785D01*
X132218754Y-51738744D01*
X132286271Y-51575743D01*
X132384291Y-51429046D01*
X132509046Y-51304291D01*
X132655743Y-51206271D01*
X132818744Y-51138754D01*
X132991785Y-51104334D01*
X133168215Y-51104334D01*
X133341256Y-51138754D01*
G37*
G36*
X135881256Y-51138754D02*
G01*
X136044257Y-51206271D01*
X136190954Y-51304291D01*
X136315709Y-51429046D01*
X136413729Y-51575743D01*
X136481246Y-51738744D01*
X136515666Y-51911785D01*
X136515666Y-52088215D01*
X136481246Y-52261256D01*
X136413729Y-52424257D01*
X136315709Y-52570954D01*
X136190954Y-52695709D01*
X136044257Y-52793729D01*
X135881256Y-52861246D01*
X135708215Y-52895666D01*
X135531785Y-52895666D01*
X135358744Y-52861246D01*
X135195743Y-52793729D01*
X135049046Y-52695709D01*
X134924291Y-52570954D01*
X134826271Y-52424257D01*
X134758754Y-52261256D01*
X134724334Y-52088215D01*
X134724334Y-51911785D01*
X134758754Y-51738744D01*
X134826271Y-51575743D01*
X134924291Y-51429046D01*
X135049046Y-51304291D01*
X135195743Y-51206271D01*
X135358744Y-51138754D01*
X135531785Y-51104334D01*
X135708215Y-51104334D01*
X135881256Y-51138754D01*
G37*
%LPD*%
M02*
