%TF.GenerationSoftware,KiCad,Pcbnew,10.0.5*%
%TF.CreationDate,2026-09-27T19:16:07+02:00*%
%TF.ProjectId,sst_v2,7373745f-7632-42e6-9b69-6361645f7063,A*%
%TF.SameCoordinates,Original*%
%TF.FileFunction,Legend,Bot*%
%TF.FilePolarity,Positive*%
%FSLAX46Y46*%
G04 Gerber Fmt 4.6, Leading zero omitted, Abs format (unit mm)*
G04 Created by KiCad (PCBNEW 10.0.5) date 2026-09-27 19:16:07*
%MOMM*%
%LPD*%
G01*
G04 APERTURE LIST*
G04 APERTURE END LIST*
%LPC*%
G36*
X88618894Y-132355086D02*
G01*
X88629458Y-132355086D01*
X88681477Y-132363325D01*
X88821877Y-132381809D01*
X88856138Y-132390989D01*
X88885185Y-132395590D01*
X88941045Y-132413740D01*
X89030338Y-132437666D01*
X89087309Y-132461264D01*
X89131428Y-132475599D01*
X89172755Y-132496656D01*
X89229733Y-132520257D01*
X89309803Y-132566485D01*
X89362123Y-132593144D01*
X89385909Y-132610425D01*
X89416624Y-132628159D01*
X89528975Y-132714369D01*
X89571589Y-132745330D01*
X89579058Y-132752799D01*
X89587848Y-132759544D01*
X89740455Y-132912151D01*
X89747199Y-132920940D01*
X89754670Y-132928411D01*
X89785634Y-132971030D01*
X89871840Y-133083375D01*
X89889572Y-133114087D01*
X89906856Y-133137877D01*
X89933517Y-133190203D01*
X89979742Y-133270266D01*
X90003340Y-133327237D01*
X90024401Y-133368572D01*
X90038738Y-133412696D01*
X90062333Y-133469661D01*
X90086255Y-133558941D01*
X90104410Y-133614815D01*
X90109011Y-133643867D01*
X90118190Y-133678122D01*
X90136673Y-133818514D01*
X90144914Y-133870542D01*
X90144914Y-133881105D01*
X90146360Y-133892089D01*
X90146360Y-134107910D01*
X90144914Y-134118893D01*
X90144914Y-134129458D01*
X90136672Y-134181490D01*
X90118190Y-134321877D01*
X90109011Y-134356129D01*
X90104410Y-134385185D01*
X90086254Y-134441063D01*
X90062333Y-134530338D01*
X90038739Y-134587298D01*
X90024401Y-134631428D01*
X90003337Y-134672766D01*
X89979742Y-134729733D01*
X89933521Y-134809788D01*
X89906856Y-134862123D01*
X89889569Y-134885916D01*
X89871840Y-134916624D01*
X89785648Y-135028950D01*
X89754670Y-135071589D01*
X89747195Y-135079063D01*
X89740455Y-135087848D01*
X89587848Y-135240455D01*
X89579063Y-135247195D01*
X89571589Y-135254670D01*
X89528950Y-135285648D01*
X89416624Y-135371840D01*
X89385916Y-135389569D01*
X89362123Y-135406856D01*
X89309788Y-135433521D01*
X89229733Y-135479742D01*
X89172766Y-135503337D01*
X89131428Y-135524401D01*
X89087298Y-135538739D01*
X89030338Y-135562333D01*
X88941063Y-135586254D01*
X88885185Y-135604410D01*
X88856129Y-135609011D01*
X88821877Y-135618190D01*
X88681490Y-135636672D01*
X88629458Y-135644914D01*
X88618893Y-135644914D01*
X88607910Y-135646360D01*
X88392090Y-135646360D01*
X88381107Y-135644914D01*
X88370542Y-135644914D01*
X88318511Y-135636672D01*
X88178122Y-135618190D01*
X88143867Y-135609011D01*
X88114815Y-135604410D01*
X88058941Y-135586255D01*
X87969661Y-135562333D01*
X87912696Y-135538738D01*
X87868572Y-135524401D01*
X87827237Y-135503340D01*
X87770266Y-135479742D01*
X87690203Y-135433517D01*
X87637877Y-135406856D01*
X87614087Y-135389572D01*
X87583375Y-135371840D01*
X87471030Y-135285634D01*
X87428411Y-135254670D01*
X87420940Y-135247199D01*
X87412151Y-135240455D01*
X87259544Y-135087848D01*
X87252799Y-135079058D01*
X87245330Y-135071589D01*
X87214369Y-135028975D01*
X87128159Y-134916624D01*
X87110425Y-134885909D01*
X87093144Y-134862123D01*
X87066485Y-134809803D01*
X87020257Y-134729733D01*
X86996656Y-134672755D01*
X86975599Y-134631428D01*
X86961264Y-134587309D01*
X86937666Y-134530338D01*
X86913740Y-134441045D01*
X86895590Y-134385185D01*
X86890989Y-134356138D01*
X86881809Y-134321877D01*
X86863325Y-134181477D01*
X86855086Y-134129458D01*
X86855086Y-134118893D01*
X86853640Y-134107910D01*
X86853640Y-133892089D01*
X86855086Y-133881105D01*
X86855086Y-133870542D01*
X86863324Y-133818527D01*
X86881809Y-133678122D01*
X86890989Y-133643858D01*
X86895590Y-133614815D01*
X86913738Y-133558959D01*
X86937666Y-133469661D01*
X86961265Y-133412685D01*
X86975599Y-133368572D01*
X86996654Y-133327248D01*
X87020257Y-133270266D01*
X87066489Y-133190188D01*
X87093144Y-133137877D01*
X87110423Y-133114094D01*
X87128159Y-133083375D01*
X87214383Y-132971005D01*
X87245330Y-132928411D01*
X87252796Y-132920944D01*
X87259544Y-132912151D01*
X87412151Y-132759544D01*
X87420944Y-132752796D01*
X87428411Y-132745330D01*
X87471005Y-132714383D01*
X87583375Y-132628159D01*
X87614094Y-132610423D01*
X87637877Y-132593144D01*
X87690188Y-132566489D01*
X87770266Y-132520257D01*
X87827248Y-132496654D01*
X87868572Y-132475599D01*
X87912685Y-132461265D01*
X87969661Y-132437666D01*
X88058959Y-132413738D01*
X88114815Y-132395590D01*
X88143858Y-132390989D01*
X88178122Y-132381809D01*
X88318524Y-132363324D01*
X88370542Y-132355086D01*
X88381106Y-132355086D01*
X88392090Y-132353640D01*
X88607910Y-132353640D01*
X88618894Y-132355086D01*
G37*
G36*
X140618894Y-132355086D02*
G01*
X140629458Y-132355086D01*
X140681477Y-132363325D01*
X140821877Y-132381809D01*
X140856138Y-132390989D01*
X140885185Y-132395590D01*
X140941045Y-132413740D01*
X141030338Y-132437666D01*
X141087309Y-132461264D01*
X141131428Y-132475599D01*
X141172755Y-132496656D01*
X141229733Y-132520257D01*
X141309803Y-132566485D01*
X141362123Y-132593144D01*
X141385909Y-132610425D01*
X141416624Y-132628159D01*
X141528975Y-132714369D01*
X141571589Y-132745330D01*
X141579058Y-132752799D01*
X141587848Y-132759544D01*
X141740455Y-132912151D01*
X141747199Y-132920940D01*
X141754670Y-132928411D01*
X141785634Y-132971030D01*
X141871840Y-133083375D01*
X141889572Y-133114087D01*
X141906856Y-133137877D01*
X141933517Y-133190203D01*
X141979742Y-133270266D01*
X142003340Y-133327237D01*
X142024401Y-133368572D01*
X142038738Y-133412696D01*
X142062333Y-133469661D01*
X142086255Y-133558941D01*
X142104410Y-133614815D01*
X142109011Y-133643867D01*
X142118190Y-133678122D01*
X142136673Y-133818514D01*
X142144914Y-133870542D01*
X142144914Y-133881105D01*
X142146360Y-133892089D01*
X142146360Y-134107910D01*
X142144914Y-134118893D01*
X142144914Y-134129458D01*
X142136672Y-134181490D01*
X142118190Y-134321877D01*
X142109011Y-134356129D01*
X142104410Y-134385185D01*
X142086254Y-134441063D01*
X142062333Y-134530338D01*
X142038739Y-134587298D01*
X142024401Y-134631428D01*
X142003337Y-134672766D01*
X141979742Y-134729733D01*
X141933521Y-134809788D01*
X141906856Y-134862123D01*
X141889569Y-134885916D01*
X141871840Y-134916624D01*
X141785648Y-135028950D01*
X141754670Y-135071589D01*
X141747195Y-135079063D01*
X141740455Y-135087848D01*
X141587848Y-135240455D01*
X141579063Y-135247195D01*
X141571589Y-135254670D01*
X141528950Y-135285648D01*
X141416624Y-135371840D01*
X141385916Y-135389569D01*
X141362123Y-135406856D01*
X141309788Y-135433521D01*
X141229733Y-135479742D01*
X141172766Y-135503337D01*
X141131428Y-135524401D01*
X141087298Y-135538739D01*
X141030338Y-135562333D01*
X140941063Y-135586254D01*
X140885185Y-135604410D01*
X140856129Y-135609011D01*
X140821877Y-135618190D01*
X140681490Y-135636672D01*
X140629458Y-135644914D01*
X140618893Y-135644914D01*
X140607910Y-135646360D01*
X140392090Y-135646360D01*
X140381107Y-135644914D01*
X140370542Y-135644914D01*
X140318511Y-135636672D01*
X140178122Y-135618190D01*
X140143867Y-135609011D01*
X140114815Y-135604410D01*
X140058941Y-135586255D01*
X139969661Y-135562333D01*
X139912696Y-135538738D01*
X139868572Y-135524401D01*
X139827237Y-135503340D01*
X139770266Y-135479742D01*
X139690203Y-135433517D01*
X139637877Y-135406856D01*
X139614087Y-135389572D01*
X139583375Y-135371840D01*
X139471030Y-135285634D01*
X139428411Y-135254670D01*
X139420940Y-135247199D01*
X139412151Y-135240455D01*
X139259544Y-135087848D01*
X139252799Y-135079058D01*
X139245330Y-135071589D01*
X139214369Y-135028975D01*
X139128159Y-134916624D01*
X139110425Y-134885909D01*
X139093144Y-134862123D01*
X139066485Y-134809803D01*
X139020257Y-134729733D01*
X138996656Y-134672755D01*
X138975599Y-134631428D01*
X138961264Y-134587309D01*
X138937666Y-134530338D01*
X138913740Y-134441045D01*
X138895590Y-134385185D01*
X138890989Y-134356138D01*
X138881809Y-134321877D01*
X138863325Y-134181477D01*
X138855086Y-134129458D01*
X138855086Y-134118893D01*
X138853640Y-134107910D01*
X138853640Y-133892089D01*
X138855086Y-133881105D01*
X138855086Y-133870542D01*
X138863324Y-133818527D01*
X138881809Y-133678122D01*
X138890989Y-133643858D01*
X138895590Y-133614815D01*
X138913738Y-133558959D01*
X138937666Y-133469661D01*
X138961265Y-133412685D01*
X138975599Y-133368572D01*
X138996654Y-133327248D01*
X139020257Y-133270266D01*
X139066489Y-133190188D01*
X139093144Y-133137877D01*
X139110423Y-133114094D01*
X139128159Y-133083375D01*
X139214383Y-132971005D01*
X139245330Y-132928411D01*
X139252796Y-132920944D01*
X139259544Y-132912151D01*
X139412151Y-132759544D01*
X139420944Y-132752796D01*
X139428411Y-132745330D01*
X139471005Y-132714383D01*
X139583375Y-132628159D01*
X139614094Y-132610423D01*
X139637877Y-132593144D01*
X139690188Y-132566489D01*
X139770266Y-132520257D01*
X139827248Y-132496654D01*
X139868572Y-132475599D01*
X139912685Y-132461265D01*
X139969661Y-132437666D01*
X140058959Y-132413738D01*
X140114815Y-132395590D01*
X140143858Y-132390989D01*
X140178122Y-132381809D01*
X140318524Y-132363324D01*
X140370542Y-132355086D01*
X140381106Y-132355086D01*
X140392090Y-132353640D01*
X140607910Y-132353640D01*
X140618894Y-132355086D01*
G37*
G36*
X101161840Y-96492827D02*
G01*
X101393159Y-96567987D01*
X101609873Y-96678408D01*
X101806644Y-96821371D01*
X101978629Y-96993356D01*
X102121592Y-97190127D01*
X102232013Y-97406841D01*
X102307173Y-97638160D01*
X102345222Y-97878388D01*
X102345222Y-98121612D01*
X102307173Y-98361840D01*
X102232013Y-98593159D01*
X102121592Y-98809873D01*
X101978629Y-99006644D01*
X101806644Y-99178629D01*
X101609873Y-99321592D01*
X101393159Y-99432013D01*
X101161840Y-99507173D01*
X100921612Y-99545222D01*
X100678388Y-99545222D01*
X100438160Y-99507173D01*
X100206841Y-99432013D01*
X99990127Y-99321592D01*
X99793356Y-99178629D01*
X99621371Y-99006644D01*
X99478408Y-98809873D01*
X99367987Y-98593159D01*
X99292827Y-98361840D01*
X99254778Y-98121612D01*
X99254778Y-97878388D01*
X99292827Y-97638160D01*
X99367987Y-97406841D01*
X99478408Y-97190127D01*
X99621371Y-96993356D01*
X99793356Y-96821371D01*
X99990127Y-96678408D01*
X100206841Y-96567987D01*
X100438160Y-96492827D01*
X100678388Y-96454778D01*
X100921612Y-96454778D01*
X101161840Y-96492827D01*
G37*
G36*
X114361840Y-96492827D02*
G01*
X114593159Y-96567987D01*
X114809873Y-96678408D01*
X115006644Y-96821371D01*
X115178629Y-96993356D01*
X115321592Y-97190127D01*
X115432013Y-97406841D01*
X115507173Y-97638160D01*
X115545222Y-97878388D01*
X115545222Y-98121612D01*
X115507173Y-98361840D01*
X115432013Y-98593159D01*
X115321592Y-98809873D01*
X115178629Y-99006644D01*
X115006644Y-99178629D01*
X114809873Y-99321592D01*
X114593159Y-99432013D01*
X114361840Y-99507173D01*
X114121612Y-99545222D01*
X113878388Y-99545222D01*
X113638160Y-99507173D01*
X113406841Y-99432013D01*
X113190127Y-99321592D01*
X112993356Y-99178629D01*
X112821371Y-99006644D01*
X112678408Y-98809873D01*
X112567987Y-98593159D01*
X112492827Y-98361840D01*
X112454778Y-98121612D01*
X112454778Y-97878388D01*
X112492827Y-97638160D01*
X112567987Y-97406841D01*
X112678408Y-97190127D01*
X112821371Y-96993356D01*
X112993356Y-96821371D01*
X113190127Y-96678408D01*
X113406841Y-96567987D01*
X113638160Y-96492827D01*
X113878388Y-96454778D01*
X114121612Y-96454778D01*
X114361840Y-96492827D01*
G37*
G36*
X117219134Y-86453806D02*
G01*
X117235355Y-86464645D01*
X117246194Y-86480866D01*
X117250000Y-86500000D01*
X117250000Y-88500000D01*
X117246194Y-88519134D01*
X117235355Y-88535355D01*
X117219134Y-88546194D01*
X117200000Y-88550000D01*
X115200000Y-88550000D01*
X115180866Y-88546194D01*
X115164645Y-88535355D01*
X115153806Y-88519134D01*
X115150000Y-88500000D01*
X115150000Y-86500000D01*
X115153806Y-86480866D01*
X115164645Y-86464645D01*
X115180866Y-86453806D01*
X115200000Y-86450000D01*
X117200000Y-86450000D01*
X117219134Y-86453806D01*
G37*
G36*
X121292885Y-86455056D02*
G01*
X121302918Y-86455056D01*
X121342117Y-86462853D01*
X121445078Y-86479160D01*
X121478200Y-86489922D01*
X121504799Y-86495213D01*
X121542335Y-86510760D01*
X121601762Y-86530070D01*
X121657433Y-86558435D01*
X121694967Y-86573983D01*
X121717517Y-86589050D01*
X121748539Y-86604857D01*
X121832866Y-86666124D01*
X121866113Y-86688339D01*
X121873208Y-86695434D01*
X121881817Y-86701689D01*
X121998310Y-86818182D01*
X122004564Y-86826790D01*
X122011661Y-86833887D01*
X122033878Y-86867138D01*
X122095142Y-86951460D01*
X122110947Y-86982479D01*
X122126017Y-87005033D01*
X122141566Y-87042572D01*
X122169929Y-87098237D01*
X122189235Y-87157657D01*
X122204787Y-87195201D01*
X122210078Y-87221805D01*
X122220839Y-87254921D01*
X122237145Y-87357876D01*
X122244944Y-87397082D01*
X122244944Y-87407114D01*
X122246609Y-87417627D01*
X122246609Y-87582372D01*
X122244944Y-87592884D01*
X122244944Y-87602918D01*
X122237144Y-87642126D01*
X122220839Y-87745078D01*
X122210079Y-87778192D01*
X122204787Y-87804799D01*
X122189234Y-87842346D01*
X122169929Y-87901762D01*
X122141568Y-87957422D01*
X122126017Y-87994967D01*
X122110945Y-88017523D01*
X122095142Y-88048539D01*
X122033887Y-88132849D01*
X122011661Y-88166113D01*
X122004561Y-88173212D01*
X121998310Y-88181817D01*
X121881817Y-88298310D01*
X121873212Y-88304561D01*
X121866113Y-88311661D01*
X121832849Y-88333887D01*
X121748539Y-88395142D01*
X121717523Y-88410945D01*
X121694967Y-88426017D01*
X121657422Y-88441568D01*
X121601762Y-88469929D01*
X121542346Y-88489234D01*
X121504799Y-88504787D01*
X121478192Y-88510079D01*
X121445078Y-88520839D01*
X121342126Y-88537144D01*
X121302918Y-88544944D01*
X121292884Y-88544944D01*
X121282372Y-88546609D01*
X121117628Y-88546609D01*
X121107115Y-88544944D01*
X121097082Y-88544944D01*
X121057874Y-88537145D01*
X120954921Y-88520839D01*
X120921805Y-88510078D01*
X120895201Y-88504787D01*
X120857657Y-88489235D01*
X120798237Y-88469929D01*
X120742572Y-88441566D01*
X120705033Y-88426017D01*
X120682479Y-88410947D01*
X120651460Y-88395142D01*
X120567138Y-88333878D01*
X120533887Y-88311661D01*
X120526790Y-88304564D01*
X120518182Y-88298310D01*
X120401689Y-88181817D01*
X120395434Y-88173208D01*
X120388339Y-88166113D01*
X120366124Y-88132866D01*
X120304857Y-88048539D01*
X120289050Y-88017517D01*
X120273983Y-87994967D01*
X120258435Y-87957433D01*
X120230070Y-87901762D01*
X120210760Y-87842335D01*
X120195213Y-87804799D01*
X120189922Y-87778200D01*
X120179160Y-87745078D01*
X120162853Y-87642117D01*
X120155056Y-87602918D01*
X120155056Y-87592884D01*
X120153391Y-87582372D01*
X120153391Y-87417627D01*
X120155056Y-87407114D01*
X120155056Y-87397082D01*
X120162852Y-87357886D01*
X120179160Y-87254921D01*
X120189922Y-87221797D01*
X120195213Y-87195201D01*
X120210759Y-87157668D01*
X120230070Y-87098237D01*
X120258438Y-87042561D01*
X120273983Y-87005033D01*
X120289048Y-86982486D01*
X120304857Y-86951460D01*
X120366132Y-86867121D01*
X120388339Y-86833887D01*
X120395432Y-86826793D01*
X120401689Y-86818182D01*
X120518182Y-86701689D01*
X120526793Y-86695432D01*
X120533887Y-86688339D01*
X120567121Y-86666132D01*
X120651460Y-86604857D01*
X120682486Y-86589048D01*
X120705033Y-86573983D01*
X120742561Y-86558438D01*
X120798237Y-86530070D01*
X120857668Y-86510759D01*
X120895201Y-86495213D01*
X120921797Y-86489922D01*
X120954921Y-86479160D01*
X121057883Y-86462853D01*
X121097082Y-86455056D01*
X121107115Y-86455056D01*
X121117628Y-86453391D01*
X121282372Y-86453391D01*
X121292885Y-86455056D01*
G37*
G36*
X100829278Y-76728843D02*
G01*
X100854094Y-76728843D01*
X100859018Y-76728843D01*
X100880066Y-76733030D01*
X100952162Y-76762893D01*
X100970005Y-76774815D01*
X101025185Y-76829995D01*
X101037107Y-76847838D01*
X101066970Y-76919934D01*
X101071157Y-76940982D01*
X101071157Y-76945906D01*
X101071157Y-76964487D01*
X101073920Y-76975995D01*
X101074641Y-76977410D01*
X101074808Y-76979538D01*
X101075000Y-76980000D01*
X101075000Y-77580000D01*
X101071148Y-77589299D01*
X101071148Y-77658414D01*
X101070091Y-77669144D01*
X101039495Y-77822958D01*
X101036365Y-77833276D01*
X100976350Y-77978165D01*
X100971268Y-77987673D01*
X100884139Y-78118071D01*
X100877299Y-78126406D01*
X100766406Y-78237299D01*
X100758071Y-78244139D01*
X100627673Y-78331268D01*
X100618165Y-78336350D01*
X100473276Y-78396365D01*
X100462958Y-78399495D01*
X100309144Y-78430091D01*
X100298414Y-78431148D01*
X100295958Y-78431148D01*
X100144042Y-78431148D01*
X100141586Y-78431148D01*
X100130856Y-78430091D01*
X99977042Y-78399495D01*
X99966724Y-78396365D01*
X99821835Y-78336350D01*
X99812327Y-78331268D01*
X99810288Y-78329905D01*
X99810285Y-78329904D01*
X99683970Y-78245503D01*
X99683968Y-78245501D01*
X99681929Y-78244139D01*
X99673594Y-78237299D01*
X99562701Y-78126406D01*
X99555861Y-78118071D01*
X99554499Y-78116032D01*
X99554496Y-78116029D01*
X99470095Y-77989714D01*
X99470092Y-77989708D01*
X99468732Y-77987673D01*
X99463650Y-77978165D01*
X99403635Y-77833276D01*
X99400505Y-77822958D01*
X99400025Y-77820548D01*
X99400024Y-77820543D01*
X99370388Y-77671555D01*
X99370387Y-77671549D01*
X99369909Y-77669144D01*
X99368852Y-77658414D01*
X99368852Y-77602355D01*
X99368544Y-77598439D01*
X99366009Y-77582435D01*
X99365000Y-77580000D01*
X99365000Y-76980000D01*
X99368843Y-76970722D01*
X99368843Y-76940982D01*
X99373030Y-76919934D01*
X99402893Y-76847838D01*
X99414815Y-76829995D01*
X99418291Y-76826518D01*
X99418294Y-76826515D01*
X99466515Y-76778294D01*
X99466518Y-76778291D01*
X99469995Y-76774815D01*
X99487838Y-76762893D01*
X99559934Y-76733030D01*
X99580982Y-76728843D01*
X99604487Y-76728843D01*
X99615995Y-76726080D01*
X99617410Y-76725358D01*
X99619539Y-76725190D01*
X99620000Y-76725000D01*
X100820000Y-76725000D01*
X100829278Y-76728843D01*
G37*
G36*
X113529278Y-76728843D02*
G01*
X113554094Y-76728843D01*
X113559018Y-76728843D01*
X113580066Y-76733030D01*
X113652162Y-76762893D01*
X113670005Y-76774815D01*
X113725185Y-76829995D01*
X113737107Y-76847838D01*
X113766970Y-76919934D01*
X113771157Y-76940982D01*
X113771157Y-76945906D01*
X113771157Y-76964487D01*
X113773920Y-76975995D01*
X113774641Y-76977410D01*
X113774808Y-76979538D01*
X113775000Y-76980000D01*
X113775000Y-77580000D01*
X113771148Y-77589299D01*
X113771148Y-77658414D01*
X113770091Y-77669144D01*
X113739495Y-77822958D01*
X113736365Y-77833276D01*
X113676350Y-77978165D01*
X113671268Y-77987673D01*
X113584139Y-78118071D01*
X113577299Y-78126406D01*
X113466406Y-78237299D01*
X113458071Y-78244139D01*
X113327673Y-78331268D01*
X113318165Y-78336350D01*
X113173276Y-78396365D01*
X113162958Y-78399495D01*
X113009144Y-78430091D01*
X112998414Y-78431148D01*
X112995958Y-78431148D01*
X112844042Y-78431148D01*
X112841586Y-78431148D01*
X112830856Y-78430091D01*
X112677042Y-78399495D01*
X112666724Y-78396365D01*
X112521835Y-78336350D01*
X112512327Y-78331268D01*
X112510288Y-78329905D01*
X112510285Y-78329904D01*
X112383970Y-78245503D01*
X112383968Y-78245501D01*
X112381929Y-78244139D01*
X112373594Y-78237299D01*
X112262701Y-78126406D01*
X112255861Y-78118071D01*
X112254499Y-78116032D01*
X112254496Y-78116029D01*
X112170095Y-77989714D01*
X112170092Y-77989708D01*
X112168732Y-77987673D01*
X112163650Y-77978165D01*
X112103635Y-77833276D01*
X112100505Y-77822958D01*
X112100025Y-77820548D01*
X112100024Y-77820543D01*
X112070388Y-77671555D01*
X112070387Y-77671549D01*
X112069909Y-77669144D01*
X112068852Y-77658414D01*
X112068852Y-77602355D01*
X112068544Y-77598439D01*
X112066009Y-77582435D01*
X112065000Y-77580000D01*
X112065000Y-76980000D01*
X112068843Y-76970722D01*
X112068843Y-76940982D01*
X112073030Y-76919934D01*
X112102893Y-76847838D01*
X112114815Y-76829995D01*
X112118291Y-76826518D01*
X112118294Y-76826515D01*
X112166515Y-76778294D01*
X112166518Y-76778291D01*
X112169995Y-76774815D01*
X112187838Y-76762893D01*
X112259934Y-76733030D01*
X112280982Y-76728843D01*
X112304487Y-76728843D01*
X112315995Y-76726080D01*
X112317410Y-76725358D01*
X112319539Y-76725190D01*
X112320000Y-76725000D01*
X113520000Y-76725000D01*
X113529278Y-76728843D01*
G37*
G36*
X126229278Y-76728843D02*
G01*
X126254094Y-76728843D01*
X126259018Y-76728843D01*
X126280066Y-76733030D01*
X126352162Y-76762893D01*
X126370005Y-76774815D01*
X126425185Y-76829995D01*
X126437107Y-76847838D01*
X126466970Y-76919934D01*
X126471157Y-76940982D01*
X126471157Y-76945906D01*
X126471157Y-76964487D01*
X126473920Y-76975995D01*
X126474641Y-76977410D01*
X126474808Y-76979538D01*
X126475000Y-76980000D01*
X126475000Y-77580000D01*
X126471148Y-77589299D01*
X126471148Y-77658414D01*
X126470091Y-77669144D01*
X126439495Y-77822958D01*
X126436365Y-77833276D01*
X126376350Y-77978165D01*
X126371268Y-77987673D01*
X126284139Y-78118071D01*
X126277299Y-78126406D01*
X126166406Y-78237299D01*
X126158071Y-78244139D01*
X126027673Y-78331268D01*
X126018165Y-78336350D01*
X125873276Y-78396365D01*
X125862958Y-78399495D01*
X125709144Y-78430091D01*
X125698414Y-78431148D01*
X125695958Y-78431148D01*
X125544042Y-78431148D01*
X125541586Y-78431148D01*
X125530856Y-78430091D01*
X125377042Y-78399495D01*
X125366724Y-78396365D01*
X125221835Y-78336350D01*
X125212327Y-78331268D01*
X125210288Y-78329905D01*
X125210285Y-78329904D01*
X125083970Y-78245503D01*
X125083968Y-78245501D01*
X125081929Y-78244139D01*
X125073594Y-78237299D01*
X124962701Y-78126406D01*
X124955861Y-78118071D01*
X124954499Y-78116032D01*
X124954496Y-78116029D01*
X124870095Y-77989714D01*
X124870092Y-77989708D01*
X124868732Y-77987673D01*
X124863650Y-77978165D01*
X124803635Y-77833276D01*
X124800505Y-77822958D01*
X124800025Y-77820548D01*
X124800024Y-77820543D01*
X124770388Y-77671555D01*
X124770387Y-77671549D01*
X124769909Y-77669144D01*
X124768852Y-77658414D01*
X124768852Y-77602355D01*
X124768544Y-77598439D01*
X124766009Y-77582435D01*
X124765000Y-77580000D01*
X124765000Y-76980000D01*
X124768843Y-76970722D01*
X124768843Y-76940982D01*
X124773030Y-76919934D01*
X124802893Y-76847838D01*
X124814815Y-76829995D01*
X124818291Y-76826518D01*
X124818294Y-76826515D01*
X124866515Y-76778294D01*
X124866518Y-76778291D01*
X124869995Y-76774815D01*
X124887838Y-76762893D01*
X124959934Y-76733030D01*
X124980982Y-76728843D01*
X125004487Y-76728843D01*
X125015995Y-76726080D01*
X125017410Y-76725358D01*
X125019539Y-76725190D01*
X125020000Y-76725000D01*
X126220000Y-76725000D01*
X126229278Y-76728843D01*
G37*
G36*
X138929278Y-76728843D02*
G01*
X138954094Y-76728843D01*
X138959018Y-76728843D01*
X138980066Y-76733030D01*
X139052162Y-76762893D01*
X139070005Y-76774815D01*
X139125185Y-76829995D01*
X139137107Y-76847838D01*
X139166970Y-76919934D01*
X139171157Y-76940982D01*
X139171157Y-76945906D01*
X139171157Y-76964487D01*
X139173920Y-76975995D01*
X139174641Y-76977410D01*
X139174808Y-76979538D01*
X139175000Y-76980000D01*
X139175000Y-77580000D01*
X139171148Y-77589299D01*
X139171148Y-77658414D01*
X139170091Y-77669144D01*
X139139495Y-77822958D01*
X139136365Y-77833276D01*
X139076350Y-77978165D01*
X139071268Y-77987673D01*
X138984139Y-78118071D01*
X138977299Y-78126406D01*
X138866406Y-78237299D01*
X138858071Y-78244139D01*
X138727673Y-78331268D01*
X138718165Y-78336350D01*
X138573276Y-78396365D01*
X138562958Y-78399495D01*
X138409144Y-78430091D01*
X138398414Y-78431148D01*
X138395958Y-78431148D01*
X138244042Y-78431148D01*
X138241586Y-78431148D01*
X138230856Y-78430091D01*
X138077042Y-78399495D01*
X138066724Y-78396365D01*
X137921835Y-78336350D01*
X137912327Y-78331268D01*
X137910288Y-78329905D01*
X137910285Y-78329904D01*
X137783970Y-78245503D01*
X137783968Y-78245501D01*
X137781929Y-78244139D01*
X137773594Y-78237299D01*
X137662701Y-78126406D01*
X137655861Y-78118071D01*
X137654499Y-78116032D01*
X137654496Y-78116029D01*
X137570095Y-77989714D01*
X137570092Y-77989708D01*
X137568732Y-77987673D01*
X137563650Y-77978165D01*
X137503635Y-77833276D01*
X137500505Y-77822958D01*
X137500025Y-77820548D01*
X137500024Y-77820543D01*
X137470388Y-77671555D01*
X137470387Y-77671549D01*
X137469909Y-77669144D01*
X137468852Y-77658414D01*
X137468852Y-77602355D01*
X137468544Y-77598439D01*
X137466009Y-77582435D01*
X137465000Y-77580000D01*
X137465000Y-76980000D01*
X137468843Y-76970722D01*
X137468843Y-76940982D01*
X137473030Y-76919934D01*
X137502893Y-76847838D01*
X137514815Y-76829995D01*
X137518291Y-76826518D01*
X137518294Y-76826515D01*
X137566515Y-76778294D01*
X137566518Y-76778291D01*
X137569995Y-76774815D01*
X137587838Y-76762893D01*
X137659934Y-76733030D01*
X137680982Y-76728843D01*
X137704487Y-76728843D01*
X137715995Y-76726080D01*
X137717410Y-76725358D01*
X137719539Y-76725190D01*
X137720000Y-76725000D01*
X138920000Y-76725000D01*
X138929278Y-76728843D01*
G37*
G36*
X95386742Y-76766601D02*
G01*
X95540687Y-76830367D01*
X95679234Y-76922941D01*
X95797059Y-77040766D01*
X95889633Y-77179313D01*
X95953399Y-77333258D01*
X95985907Y-77496685D01*
X95985907Y-77663315D01*
X95953399Y-77826742D01*
X95889633Y-77980687D01*
X95797059Y-78119234D01*
X95679234Y-78237059D01*
X95540687Y-78329633D01*
X95386742Y-78393399D01*
X95223315Y-78425907D01*
X95056685Y-78425907D01*
X94893258Y-78393399D01*
X94739313Y-78329633D01*
X94600766Y-78237059D01*
X94482941Y-78119234D01*
X94390367Y-77980687D01*
X94326601Y-77826742D01*
X94294093Y-77663315D01*
X94294093Y-77496685D01*
X94326601Y-77333258D01*
X94390367Y-77179313D01*
X94482941Y-77040766D01*
X94600766Y-76922941D01*
X94739313Y-76830367D01*
X94893258Y-76766601D01*
X95056685Y-76734093D01*
X95223315Y-76734093D01*
X95386742Y-76766601D01*
G37*
G36*
X97926742Y-76766601D02*
G01*
X98080687Y-76830367D01*
X98219234Y-76922941D01*
X98337059Y-77040766D01*
X98429633Y-77179313D01*
X98493399Y-77333258D01*
X98525907Y-77496685D01*
X98525907Y-77663315D01*
X98493399Y-77826742D01*
X98429633Y-77980687D01*
X98337059Y-78119234D01*
X98219234Y-78237059D01*
X98080687Y-78329633D01*
X97926742Y-78393399D01*
X97763315Y-78425907D01*
X97596685Y-78425907D01*
X97433258Y-78393399D01*
X97279313Y-78329633D01*
X97140766Y-78237059D01*
X97022941Y-78119234D01*
X96930367Y-77980687D01*
X96866601Y-77826742D01*
X96834093Y-77663315D01*
X96834093Y-77496685D01*
X96866601Y-77333258D01*
X96930367Y-77179313D01*
X97022941Y-77040766D01*
X97140766Y-76922941D01*
X97279313Y-76830367D01*
X97433258Y-76766601D01*
X97596685Y-76734093D01*
X97763315Y-76734093D01*
X97926742Y-76766601D01*
G37*
G36*
X103006742Y-76766601D02*
G01*
X103160687Y-76830367D01*
X103299234Y-76922941D01*
X103417059Y-77040766D01*
X103509633Y-77179313D01*
X103573399Y-77333258D01*
X103605907Y-77496685D01*
X103605907Y-77663315D01*
X103573399Y-77826742D01*
X103509633Y-77980687D01*
X103417059Y-78119234D01*
X103299234Y-78237059D01*
X103160687Y-78329633D01*
X103006742Y-78393399D01*
X102843315Y-78425907D01*
X102676685Y-78425907D01*
X102513258Y-78393399D01*
X102359313Y-78329633D01*
X102220766Y-78237059D01*
X102102941Y-78119234D01*
X102010367Y-77980687D01*
X101946601Y-77826742D01*
X101914093Y-77663315D01*
X101914093Y-77496685D01*
X101946601Y-77333258D01*
X102010367Y-77179313D01*
X102102941Y-77040766D01*
X102220766Y-76922941D01*
X102359313Y-76830367D01*
X102513258Y-76766601D01*
X102676685Y-76734093D01*
X102843315Y-76734093D01*
X103006742Y-76766601D01*
G37*
G36*
X105546742Y-76766601D02*
G01*
X105700687Y-76830367D01*
X105839234Y-76922941D01*
X105957059Y-77040766D01*
X106049633Y-77179313D01*
X106113399Y-77333258D01*
X106145907Y-77496685D01*
X106145907Y-77663315D01*
X106113399Y-77826742D01*
X106049633Y-77980687D01*
X105957059Y-78119234D01*
X105839234Y-78237059D01*
X105700687Y-78329633D01*
X105546742Y-78393399D01*
X105383315Y-78425907D01*
X105216685Y-78425907D01*
X105053258Y-78393399D01*
X104899313Y-78329633D01*
X104760766Y-78237059D01*
X104642941Y-78119234D01*
X104550367Y-77980687D01*
X104486601Y-77826742D01*
X104454093Y-77663315D01*
X104454093Y-77496685D01*
X104486601Y-77333258D01*
X104550367Y-77179313D01*
X104642941Y-77040766D01*
X104760766Y-76922941D01*
X104899313Y-76830367D01*
X105053258Y-76766601D01*
X105216685Y-76734093D01*
X105383315Y-76734093D01*
X105546742Y-76766601D01*
G37*
G36*
X108086742Y-76766601D02*
G01*
X108240687Y-76830367D01*
X108379234Y-76922941D01*
X108497059Y-77040766D01*
X108589633Y-77179313D01*
X108653399Y-77333258D01*
X108685907Y-77496685D01*
X108685907Y-77663315D01*
X108653399Y-77826742D01*
X108589633Y-77980687D01*
X108497059Y-78119234D01*
X108379234Y-78237059D01*
X108240687Y-78329633D01*
X108086742Y-78393399D01*
X107923315Y-78425907D01*
X107756685Y-78425907D01*
X107593258Y-78393399D01*
X107439313Y-78329633D01*
X107300766Y-78237059D01*
X107182941Y-78119234D01*
X107090367Y-77980687D01*
X107026601Y-77826742D01*
X106994093Y-77663315D01*
X106994093Y-77496685D01*
X107026601Y-77333258D01*
X107090367Y-77179313D01*
X107182941Y-77040766D01*
X107300766Y-76922941D01*
X107439313Y-76830367D01*
X107593258Y-76766601D01*
X107756685Y-76734093D01*
X107923315Y-76734093D01*
X108086742Y-76766601D01*
G37*
G36*
X110626742Y-76766601D02*
G01*
X110780687Y-76830367D01*
X110919234Y-76922941D01*
X111037059Y-77040766D01*
X111129633Y-77179313D01*
X111193399Y-77333258D01*
X111225907Y-77496685D01*
X111225907Y-77663315D01*
X111193399Y-77826742D01*
X111129633Y-77980687D01*
X111037059Y-78119234D01*
X110919234Y-78237059D01*
X110780687Y-78329633D01*
X110626742Y-78393399D01*
X110463315Y-78425907D01*
X110296685Y-78425907D01*
X110133258Y-78393399D01*
X109979313Y-78329633D01*
X109840766Y-78237059D01*
X109722941Y-78119234D01*
X109630367Y-77980687D01*
X109566601Y-77826742D01*
X109534093Y-77663315D01*
X109534093Y-77496685D01*
X109566601Y-77333258D01*
X109630367Y-77179313D01*
X109722941Y-77040766D01*
X109840766Y-76922941D01*
X109979313Y-76830367D01*
X110133258Y-76766601D01*
X110296685Y-76734093D01*
X110463315Y-76734093D01*
X110626742Y-76766601D01*
G37*
G36*
X115706742Y-76766601D02*
G01*
X115860687Y-76830367D01*
X115999234Y-76922941D01*
X116117059Y-77040766D01*
X116209633Y-77179313D01*
X116273399Y-77333258D01*
X116305907Y-77496685D01*
X116305907Y-77663315D01*
X116273399Y-77826742D01*
X116209633Y-77980687D01*
X116117059Y-78119234D01*
X115999234Y-78237059D01*
X115860687Y-78329633D01*
X115706742Y-78393399D01*
X115543315Y-78425907D01*
X115376685Y-78425907D01*
X115213258Y-78393399D01*
X115059313Y-78329633D01*
X114920766Y-78237059D01*
X114802941Y-78119234D01*
X114710367Y-77980687D01*
X114646601Y-77826742D01*
X114614093Y-77663315D01*
X114614093Y-77496685D01*
X114646601Y-77333258D01*
X114710367Y-77179313D01*
X114802941Y-77040766D01*
X114920766Y-76922941D01*
X115059313Y-76830367D01*
X115213258Y-76766601D01*
X115376685Y-76734093D01*
X115543315Y-76734093D01*
X115706742Y-76766601D01*
G37*
G36*
X118246742Y-76766601D02*
G01*
X118400687Y-76830367D01*
X118539234Y-76922941D01*
X118657059Y-77040766D01*
X118749633Y-77179313D01*
X118813399Y-77333258D01*
X118845907Y-77496685D01*
X118845907Y-77663315D01*
X118813399Y-77826742D01*
X118749633Y-77980687D01*
X118657059Y-78119234D01*
X118539234Y-78237059D01*
X118400687Y-78329633D01*
X118246742Y-78393399D01*
X118083315Y-78425907D01*
X117916685Y-78425907D01*
X117753258Y-78393399D01*
X117599313Y-78329633D01*
X117460766Y-78237059D01*
X117342941Y-78119234D01*
X117250367Y-77980687D01*
X117186601Y-77826742D01*
X117154093Y-77663315D01*
X117154093Y-77496685D01*
X117186601Y-77333258D01*
X117250367Y-77179313D01*
X117342941Y-77040766D01*
X117460766Y-76922941D01*
X117599313Y-76830367D01*
X117753258Y-76766601D01*
X117916685Y-76734093D01*
X118083315Y-76734093D01*
X118246742Y-76766601D01*
G37*
G36*
X120786742Y-76766601D02*
G01*
X120940687Y-76830367D01*
X121079234Y-76922941D01*
X121197059Y-77040766D01*
X121289633Y-77179313D01*
X121353399Y-77333258D01*
X121385907Y-77496685D01*
X121385907Y-77663315D01*
X121353399Y-77826742D01*
X121289633Y-77980687D01*
X121197059Y-78119234D01*
X121079234Y-78237059D01*
X120940687Y-78329633D01*
X120786742Y-78393399D01*
X120623315Y-78425907D01*
X120456685Y-78425907D01*
X120293258Y-78393399D01*
X120139313Y-78329633D01*
X120000766Y-78237059D01*
X119882941Y-78119234D01*
X119790367Y-77980687D01*
X119726601Y-77826742D01*
X119694093Y-77663315D01*
X119694093Y-77496685D01*
X119726601Y-77333258D01*
X119790367Y-77179313D01*
X119882941Y-77040766D01*
X120000766Y-76922941D01*
X120139313Y-76830367D01*
X120293258Y-76766601D01*
X120456685Y-76734093D01*
X120623315Y-76734093D01*
X120786742Y-76766601D01*
G37*
G36*
X123326742Y-76766601D02*
G01*
X123480687Y-76830367D01*
X123619234Y-76922941D01*
X123737059Y-77040766D01*
X123829633Y-77179313D01*
X123893399Y-77333258D01*
X123925907Y-77496685D01*
X123925907Y-77663315D01*
X123893399Y-77826742D01*
X123829633Y-77980687D01*
X123737059Y-78119234D01*
X123619234Y-78237059D01*
X123480687Y-78329633D01*
X123326742Y-78393399D01*
X123163315Y-78425907D01*
X122996685Y-78425907D01*
X122833258Y-78393399D01*
X122679313Y-78329633D01*
X122540766Y-78237059D01*
X122422941Y-78119234D01*
X122330367Y-77980687D01*
X122266601Y-77826742D01*
X122234093Y-77663315D01*
X122234093Y-77496685D01*
X122266601Y-77333258D01*
X122330367Y-77179313D01*
X122422941Y-77040766D01*
X122540766Y-76922941D01*
X122679313Y-76830367D01*
X122833258Y-76766601D01*
X122996685Y-76734093D01*
X123163315Y-76734093D01*
X123326742Y-76766601D01*
G37*
G36*
X128406742Y-76766601D02*
G01*
X128560687Y-76830367D01*
X128699234Y-76922941D01*
X128817059Y-77040766D01*
X128909633Y-77179313D01*
X128973399Y-77333258D01*
X129005907Y-77496685D01*
X129005907Y-77663315D01*
X128973399Y-77826742D01*
X128909633Y-77980687D01*
X128817059Y-78119234D01*
X128699234Y-78237059D01*
X128560687Y-78329633D01*
X128406742Y-78393399D01*
X128243315Y-78425907D01*
X128076685Y-78425907D01*
X127913258Y-78393399D01*
X127759313Y-78329633D01*
X127620766Y-78237059D01*
X127502941Y-78119234D01*
X127410367Y-77980687D01*
X127346601Y-77826742D01*
X127314093Y-77663315D01*
X127314093Y-77496685D01*
X127346601Y-77333258D01*
X127410367Y-77179313D01*
X127502941Y-77040766D01*
X127620766Y-76922941D01*
X127759313Y-76830367D01*
X127913258Y-76766601D01*
X128076685Y-76734093D01*
X128243315Y-76734093D01*
X128406742Y-76766601D01*
G37*
G36*
X130946742Y-76766601D02*
G01*
X131100687Y-76830367D01*
X131239234Y-76922941D01*
X131357059Y-77040766D01*
X131449633Y-77179313D01*
X131513399Y-77333258D01*
X131545907Y-77496685D01*
X131545907Y-77663315D01*
X131513399Y-77826742D01*
X131449633Y-77980687D01*
X131357059Y-78119234D01*
X131239234Y-78237059D01*
X131100687Y-78329633D01*
X130946742Y-78393399D01*
X130783315Y-78425907D01*
X130616685Y-78425907D01*
X130453258Y-78393399D01*
X130299313Y-78329633D01*
X130160766Y-78237059D01*
X130042941Y-78119234D01*
X129950367Y-77980687D01*
X129886601Y-77826742D01*
X129854093Y-77663315D01*
X129854093Y-77496685D01*
X129886601Y-77333258D01*
X129950367Y-77179313D01*
X130042941Y-77040766D01*
X130160766Y-76922941D01*
X130299313Y-76830367D01*
X130453258Y-76766601D01*
X130616685Y-76734093D01*
X130783315Y-76734093D01*
X130946742Y-76766601D01*
G37*
G36*
X133486742Y-76766601D02*
G01*
X133640687Y-76830367D01*
X133779234Y-76922941D01*
X133897059Y-77040766D01*
X133989633Y-77179313D01*
X134053399Y-77333258D01*
X134085907Y-77496685D01*
X134085907Y-77663315D01*
X134053399Y-77826742D01*
X133989633Y-77980687D01*
X133897059Y-78119234D01*
X133779234Y-78237059D01*
X133640687Y-78329633D01*
X133486742Y-78393399D01*
X133323315Y-78425907D01*
X133156685Y-78425907D01*
X132993258Y-78393399D01*
X132839313Y-78329633D01*
X132700766Y-78237059D01*
X132582941Y-78119234D01*
X132490367Y-77980687D01*
X132426601Y-77826742D01*
X132394093Y-77663315D01*
X132394093Y-77496685D01*
X132426601Y-77333258D01*
X132490367Y-77179313D01*
X132582941Y-77040766D01*
X132700766Y-76922941D01*
X132839313Y-76830367D01*
X132993258Y-76766601D01*
X133156685Y-76734093D01*
X133323315Y-76734093D01*
X133486742Y-76766601D01*
G37*
G36*
X136026742Y-76766601D02*
G01*
X136180687Y-76830367D01*
X136319234Y-76922941D01*
X136437059Y-77040766D01*
X136529633Y-77179313D01*
X136593399Y-77333258D01*
X136625907Y-77496685D01*
X136625907Y-77663315D01*
X136593399Y-77826742D01*
X136529633Y-77980687D01*
X136437059Y-78119234D01*
X136319234Y-78237059D01*
X136180687Y-78329633D01*
X136026742Y-78393399D01*
X135863315Y-78425907D01*
X135696685Y-78425907D01*
X135533258Y-78393399D01*
X135379313Y-78329633D01*
X135240766Y-78237059D01*
X135122941Y-78119234D01*
X135030367Y-77980687D01*
X134966601Y-77826742D01*
X134934093Y-77663315D01*
X134934093Y-77496685D01*
X134966601Y-77333258D01*
X135030367Y-77179313D01*
X135122941Y-77040766D01*
X135240766Y-76922941D01*
X135379313Y-76830367D01*
X135533258Y-76766601D01*
X135696685Y-76734093D01*
X135863315Y-76734093D01*
X136026742Y-76766601D01*
G37*
G36*
X141106742Y-76766601D02*
G01*
X141260687Y-76830367D01*
X141399234Y-76922941D01*
X141517059Y-77040766D01*
X141609633Y-77179313D01*
X141673399Y-77333258D01*
X141705907Y-77496685D01*
X141705907Y-77663315D01*
X141673399Y-77826742D01*
X141609633Y-77980687D01*
X141517059Y-78119234D01*
X141399234Y-78237059D01*
X141260687Y-78329633D01*
X141106742Y-78393399D01*
X140943315Y-78425907D01*
X140776685Y-78425907D01*
X140613258Y-78393399D01*
X140459313Y-78329633D01*
X140320766Y-78237059D01*
X140202941Y-78119234D01*
X140110367Y-77980687D01*
X140046601Y-77826742D01*
X140014093Y-77663315D01*
X140014093Y-77496685D01*
X140046601Y-77333258D01*
X140110367Y-77179313D01*
X140202941Y-77040766D01*
X140320766Y-76922941D01*
X140459313Y-76830367D01*
X140613258Y-76766601D01*
X140776685Y-76734093D01*
X140943315Y-76734093D01*
X141106742Y-76766601D01*
G37*
G36*
X143646742Y-76766601D02*
G01*
X143800687Y-76830367D01*
X143939234Y-76922941D01*
X144057059Y-77040766D01*
X144149633Y-77179313D01*
X144213399Y-77333258D01*
X144245907Y-77496685D01*
X144245907Y-77663315D01*
X144213399Y-77826742D01*
X144149633Y-77980687D01*
X144057059Y-78119234D01*
X143939234Y-78237059D01*
X143800687Y-78329633D01*
X143646742Y-78393399D01*
X143483315Y-78425907D01*
X143316685Y-78425907D01*
X143153258Y-78393399D01*
X142999313Y-78329633D01*
X142860766Y-78237059D01*
X142742941Y-78119234D01*
X142650367Y-77980687D01*
X142586601Y-77826742D01*
X142554093Y-77663315D01*
X142554093Y-77496685D01*
X142586601Y-77333258D01*
X142650367Y-77179313D01*
X142742941Y-77040766D01*
X142860766Y-76922941D01*
X142999313Y-76830367D01*
X143153258Y-76766601D01*
X143316685Y-76734093D01*
X143483315Y-76734093D01*
X143646742Y-76766601D01*
G37*
G36*
X100309144Y-58949909D02*
G01*
X100311549Y-58950387D01*
X100311555Y-58950388D01*
X100460543Y-58980024D01*
X100460548Y-58980025D01*
X100462958Y-58980505D01*
X100473276Y-58983635D01*
X100475543Y-58984574D01*
X100475546Y-58984575D01*
X100480437Y-58986601D01*
X100618165Y-59043650D01*
X100627673Y-59048732D01*
X100629708Y-59050092D01*
X100629714Y-59050095D01*
X100756029Y-59134496D01*
X100756032Y-59134499D01*
X100758071Y-59135861D01*
X100766406Y-59142701D01*
X100877299Y-59253594D01*
X100884139Y-59261929D01*
X100971268Y-59392327D01*
X100976350Y-59401835D01*
X101036365Y-59546724D01*
X101039495Y-59557042D01*
X101070091Y-59710856D01*
X101071148Y-59721586D01*
X101071148Y-59724041D01*
X101071148Y-59777643D01*
X101071456Y-59781560D01*
X101073991Y-59797564D01*
X101075000Y-59800000D01*
X101075000Y-60400000D01*
X101071157Y-60409277D01*
X101071157Y-60439018D01*
X101066970Y-60460066D01*
X101037107Y-60532162D01*
X101025185Y-60550005D01*
X100970005Y-60605185D01*
X100952162Y-60617107D01*
X100880066Y-60646970D01*
X100859018Y-60651157D01*
X100854094Y-60651157D01*
X100835513Y-60651157D01*
X100824005Y-60653920D01*
X100822589Y-60654641D01*
X100820462Y-60654808D01*
X100820000Y-60655000D01*
X100818032Y-60655000D01*
X99627919Y-60655000D01*
X99620000Y-60655000D01*
X99610722Y-60651157D01*
X99585906Y-60651157D01*
X99580982Y-60651157D01*
X99559934Y-60646970D01*
X99487838Y-60617107D01*
X99469995Y-60605185D01*
X99414815Y-60550005D01*
X99402893Y-60532162D01*
X99373030Y-60460066D01*
X99368843Y-60439018D01*
X99368843Y-60415511D01*
X99366079Y-60404001D01*
X99365358Y-60402587D01*
X99365190Y-60400460D01*
X99365000Y-60400000D01*
X99365000Y-59800000D01*
X99368852Y-59790700D01*
X99368852Y-59721586D01*
X99369909Y-59710856D01*
X99370387Y-59708451D01*
X99370388Y-59708444D01*
X99400024Y-59559456D01*
X99400026Y-59559448D01*
X99400505Y-59557042D01*
X99403635Y-59546724D01*
X99404573Y-59544459D01*
X99404575Y-59544453D01*
X99462710Y-59404104D01*
X99462710Y-59404102D01*
X99463650Y-59401835D01*
X99468732Y-59392327D01*
X99470089Y-59390295D01*
X99470095Y-59390285D01*
X99554496Y-59263970D01*
X99554502Y-59263961D01*
X99555861Y-59261929D01*
X99562701Y-59253594D01*
X99564431Y-59251863D01*
X99564436Y-59251858D01*
X99671858Y-59144436D01*
X99671863Y-59144431D01*
X99673594Y-59142701D01*
X99681929Y-59135861D01*
X99683961Y-59134502D01*
X99683970Y-59134496D01*
X99810285Y-59050095D01*
X99810295Y-59050089D01*
X99812327Y-59048732D01*
X99821835Y-59043650D01*
X99824104Y-59042710D01*
X99964453Y-58984575D01*
X99964459Y-58984573D01*
X99966724Y-58983635D01*
X99977042Y-58980505D01*
X99979448Y-58980026D01*
X99979456Y-58980024D01*
X100128444Y-58950388D01*
X100128451Y-58950387D01*
X100130856Y-58949909D01*
X100141586Y-58948852D01*
X100298414Y-58948852D01*
X100309144Y-58949909D01*
G37*
G36*
X113009144Y-58949909D02*
G01*
X113011549Y-58950387D01*
X113011555Y-58950388D01*
X113160543Y-58980024D01*
X113160548Y-58980025D01*
X113162958Y-58980505D01*
X113173276Y-58983635D01*
X113175543Y-58984574D01*
X113175546Y-58984575D01*
X113180437Y-58986601D01*
X113318165Y-59043650D01*
X113327673Y-59048732D01*
X113329708Y-59050092D01*
X113329714Y-59050095D01*
X113456029Y-59134496D01*
X113456032Y-59134499D01*
X113458071Y-59135861D01*
X113466406Y-59142701D01*
X113577299Y-59253594D01*
X113584139Y-59261929D01*
X113671268Y-59392327D01*
X113676350Y-59401835D01*
X113736365Y-59546724D01*
X113739495Y-59557042D01*
X113770091Y-59710856D01*
X113771148Y-59721586D01*
X113771148Y-59724041D01*
X113771148Y-59777643D01*
X113771456Y-59781560D01*
X113773991Y-59797564D01*
X113775000Y-59800000D01*
X113775000Y-60400000D01*
X113771157Y-60409277D01*
X113771157Y-60439018D01*
X113766970Y-60460066D01*
X113737107Y-60532162D01*
X113725185Y-60550005D01*
X113670005Y-60605185D01*
X113652162Y-60617107D01*
X113580066Y-60646970D01*
X113559018Y-60651157D01*
X113554094Y-60651157D01*
X113535513Y-60651157D01*
X113524005Y-60653920D01*
X113522589Y-60654641D01*
X113520462Y-60654808D01*
X113520000Y-60655000D01*
X113518032Y-60655000D01*
X112327919Y-60655000D01*
X112320000Y-60655000D01*
X112310722Y-60651157D01*
X112285906Y-60651157D01*
X112280982Y-60651157D01*
X112259934Y-60646970D01*
X112187838Y-60617107D01*
X112169995Y-60605185D01*
X112114815Y-60550005D01*
X112102893Y-60532162D01*
X112073030Y-60460066D01*
X112068843Y-60439018D01*
X112068843Y-60415511D01*
X112066079Y-60404001D01*
X112065358Y-60402587D01*
X112065190Y-60400460D01*
X112065000Y-60400000D01*
X112065000Y-59800000D01*
X112068852Y-59790700D01*
X112068852Y-59721586D01*
X112069909Y-59710856D01*
X112070387Y-59708451D01*
X112070388Y-59708444D01*
X112100024Y-59559456D01*
X112100026Y-59559448D01*
X112100505Y-59557042D01*
X112103635Y-59546724D01*
X112104573Y-59544459D01*
X112104575Y-59544453D01*
X112162710Y-59404104D01*
X112162710Y-59404102D01*
X112163650Y-59401835D01*
X112168732Y-59392327D01*
X112170089Y-59390295D01*
X112170095Y-59390285D01*
X112254496Y-59263970D01*
X112254502Y-59263961D01*
X112255861Y-59261929D01*
X112262701Y-59253594D01*
X112264431Y-59251863D01*
X112264436Y-59251858D01*
X112371858Y-59144436D01*
X112371863Y-59144431D01*
X112373594Y-59142701D01*
X112381929Y-59135861D01*
X112383961Y-59134502D01*
X112383970Y-59134496D01*
X112510285Y-59050095D01*
X112510295Y-59050089D01*
X112512327Y-59048732D01*
X112521835Y-59043650D01*
X112524104Y-59042710D01*
X112664453Y-58984575D01*
X112664459Y-58984573D01*
X112666724Y-58983635D01*
X112677042Y-58980505D01*
X112679448Y-58980026D01*
X112679456Y-58980024D01*
X112828444Y-58950388D01*
X112828451Y-58950387D01*
X112830856Y-58949909D01*
X112841586Y-58948852D01*
X112998414Y-58948852D01*
X113009144Y-58949909D01*
G37*
G36*
X125709144Y-58949909D02*
G01*
X125711549Y-58950387D01*
X125711555Y-58950388D01*
X125860543Y-58980024D01*
X125860548Y-58980025D01*
X125862958Y-58980505D01*
X125873276Y-58983635D01*
X125875543Y-58984574D01*
X125875546Y-58984575D01*
X125880437Y-58986601D01*
X126018165Y-59043650D01*
X126027673Y-59048732D01*
X126029708Y-59050092D01*
X126029714Y-59050095D01*
X126156029Y-59134496D01*
X126156032Y-59134499D01*
X126158071Y-59135861D01*
X126166406Y-59142701D01*
X126277299Y-59253594D01*
X126284139Y-59261929D01*
X126371268Y-59392327D01*
X126376350Y-59401835D01*
X126436365Y-59546724D01*
X126439495Y-59557042D01*
X126470091Y-59710856D01*
X126471148Y-59721586D01*
X126471148Y-59724041D01*
X126471148Y-59777643D01*
X126471456Y-59781560D01*
X126473991Y-59797564D01*
X126475000Y-59800000D01*
X126475000Y-60400000D01*
X126471157Y-60409277D01*
X126471157Y-60439018D01*
X126466970Y-60460066D01*
X126437107Y-60532162D01*
X126425185Y-60550005D01*
X126370005Y-60605185D01*
X126352162Y-60617107D01*
X126280066Y-60646970D01*
X126259018Y-60651157D01*
X126254094Y-60651157D01*
X126235513Y-60651157D01*
X126224005Y-60653920D01*
X126222589Y-60654641D01*
X126220462Y-60654808D01*
X126220000Y-60655000D01*
X126218032Y-60655000D01*
X125027919Y-60655000D01*
X125020000Y-60655000D01*
X125010722Y-60651157D01*
X124985906Y-60651157D01*
X124980982Y-60651157D01*
X124959934Y-60646970D01*
X124887838Y-60617107D01*
X124869995Y-60605185D01*
X124814815Y-60550005D01*
X124802893Y-60532162D01*
X124773030Y-60460066D01*
X124768843Y-60439018D01*
X124768843Y-60415511D01*
X124766079Y-60404001D01*
X124765358Y-60402587D01*
X124765190Y-60400460D01*
X124765000Y-60400000D01*
X124765000Y-59800000D01*
X124768852Y-59790700D01*
X124768852Y-59721586D01*
X124769909Y-59710856D01*
X124770387Y-59708451D01*
X124770388Y-59708444D01*
X124800024Y-59559456D01*
X124800026Y-59559448D01*
X124800505Y-59557042D01*
X124803635Y-59546724D01*
X124804573Y-59544459D01*
X124804575Y-59544453D01*
X124862710Y-59404104D01*
X124862710Y-59404102D01*
X124863650Y-59401835D01*
X124868732Y-59392327D01*
X124870089Y-59390295D01*
X124870095Y-59390285D01*
X124954496Y-59263970D01*
X124954502Y-59263961D01*
X124955861Y-59261929D01*
X124962701Y-59253594D01*
X124964431Y-59251863D01*
X124964436Y-59251858D01*
X125071858Y-59144436D01*
X125071863Y-59144431D01*
X125073594Y-59142701D01*
X125081929Y-59135861D01*
X125083961Y-59134502D01*
X125083970Y-59134496D01*
X125210285Y-59050095D01*
X125210295Y-59050089D01*
X125212327Y-59048732D01*
X125221835Y-59043650D01*
X125224104Y-59042710D01*
X125364453Y-58984575D01*
X125364459Y-58984573D01*
X125366724Y-58983635D01*
X125377042Y-58980505D01*
X125379448Y-58980026D01*
X125379456Y-58980024D01*
X125528444Y-58950388D01*
X125528451Y-58950387D01*
X125530856Y-58949909D01*
X125541586Y-58948852D01*
X125698414Y-58948852D01*
X125709144Y-58949909D01*
G37*
G36*
X138409144Y-58949909D02*
G01*
X138411549Y-58950387D01*
X138411555Y-58950388D01*
X138560543Y-58980024D01*
X138560548Y-58980025D01*
X138562958Y-58980505D01*
X138573276Y-58983635D01*
X138575543Y-58984574D01*
X138575546Y-58984575D01*
X138580437Y-58986601D01*
X138718165Y-59043650D01*
X138727673Y-59048732D01*
X138729708Y-59050092D01*
X138729714Y-59050095D01*
X138856029Y-59134496D01*
X138856032Y-59134499D01*
X138858071Y-59135861D01*
X138866406Y-59142701D01*
X138977299Y-59253594D01*
X138984139Y-59261929D01*
X139071268Y-59392327D01*
X139076350Y-59401835D01*
X139136365Y-59546724D01*
X139139495Y-59557042D01*
X139170091Y-59710856D01*
X139171148Y-59721586D01*
X139171148Y-59724041D01*
X139171148Y-59777643D01*
X139171456Y-59781560D01*
X139173991Y-59797564D01*
X139175000Y-59800000D01*
X139175000Y-60400000D01*
X139171157Y-60409277D01*
X139171157Y-60439018D01*
X139166970Y-60460066D01*
X139137107Y-60532162D01*
X139125185Y-60550005D01*
X139070005Y-60605185D01*
X139052162Y-60617107D01*
X138980066Y-60646970D01*
X138959018Y-60651157D01*
X138954094Y-60651157D01*
X138935513Y-60651157D01*
X138924005Y-60653920D01*
X138922589Y-60654641D01*
X138920462Y-60654808D01*
X138920000Y-60655000D01*
X138918032Y-60655000D01*
X137727919Y-60655000D01*
X137720000Y-60655000D01*
X137710722Y-60651157D01*
X137685906Y-60651157D01*
X137680982Y-60651157D01*
X137659934Y-60646970D01*
X137587838Y-60617107D01*
X137569995Y-60605185D01*
X137514815Y-60550005D01*
X137502893Y-60532162D01*
X137473030Y-60460066D01*
X137468843Y-60439018D01*
X137468843Y-60415511D01*
X137466079Y-60404001D01*
X137465358Y-60402587D01*
X137465190Y-60400460D01*
X137465000Y-60400000D01*
X137465000Y-59800000D01*
X137468852Y-59790700D01*
X137468852Y-59721586D01*
X137469909Y-59710856D01*
X137470387Y-59708451D01*
X137470388Y-59708444D01*
X137500024Y-59559456D01*
X137500026Y-59559448D01*
X137500505Y-59557042D01*
X137503635Y-59546724D01*
X137504573Y-59544459D01*
X137504575Y-59544453D01*
X137562710Y-59404104D01*
X137562710Y-59404102D01*
X137563650Y-59401835D01*
X137568732Y-59392327D01*
X137570089Y-59390295D01*
X137570095Y-59390285D01*
X137654496Y-59263970D01*
X137654502Y-59263961D01*
X137655861Y-59261929D01*
X137662701Y-59253594D01*
X137664431Y-59251863D01*
X137664436Y-59251858D01*
X137771858Y-59144436D01*
X137771863Y-59144431D01*
X137773594Y-59142701D01*
X137781929Y-59135861D01*
X137783961Y-59134502D01*
X137783970Y-59134496D01*
X137910285Y-59050095D01*
X137910295Y-59050089D01*
X137912327Y-59048732D01*
X137921835Y-59043650D01*
X137924104Y-59042710D01*
X138064453Y-58984575D01*
X138064459Y-58984573D01*
X138066724Y-58983635D01*
X138077042Y-58980505D01*
X138079448Y-58980026D01*
X138079456Y-58980024D01*
X138228444Y-58950388D01*
X138228451Y-58950387D01*
X138230856Y-58949909D01*
X138241586Y-58948852D01*
X138398414Y-58948852D01*
X138409144Y-58949909D01*
G37*
G36*
X144004047Y-58950805D02*
G01*
X144055408Y-58956764D01*
X144072954Y-58964511D01*
X144095671Y-58969030D01*
X144119991Y-58985280D01*
X144140793Y-58994465D01*
X144155000Y-59008672D01*
X144176777Y-59023223D01*
X144191327Y-59044999D01*
X144205534Y-59059206D01*
X144214718Y-59080006D01*
X144230970Y-59104329D01*
X144235489Y-59127048D01*
X144243235Y-59144591D01*
X144249192Y-59195940D01*
X144250000Y-59200000D01*
X144250000Y-60400000D01*
X144249192Y-60404059D01*
X144243235Y-60455408D01*
X144235489Y-60472950D01*
X144230970Y-60495671D01*
X144214716Y-60519995D01*
X144205534Y-60540793D01*
X144191329Y-60554997D01*
X144176777Y-60576777D01*
X144154997Y-60591329D01*
X144140793Y-60605534D01*
X144119995Y-60614716D01*
X144095671Y-60630970D01*
X144072950Y-60635489D01*
X144055408Y-60643235D01*
X144004061Y-60649192D01*
X144000000Y-60650000D01*
X142800000Y-60650000D01*
X142795941Y-60649192D01*
X142744591Y-60643235D01*
X142727048Y-60635489D01*
X142704329Y-60630970D01*
X142680006Y-60614718D01*
X142659206Y-60605534D01*
X142644999Y-60591327D01*
X142623223Y-60576777D01*
X142608672Y-60555000D01*
X142594465Y-60540793D01*
X142585280Y-60519991D01*
X142569030Y-60495671D01*
X142564511Y-60472954D01*
X142556764Y-60455408D01*
X142550805Y-60404049D01*
X142550000Y-60400000D01*
X142550000Y-59200000D01*
X142550804Y-59195953D01*
X142556764Y-59144591D01*
X142564511Y-59127043D01*
X142569030Y-59104329D01*
X142585278Y-59080010D01*
X142594465Y-59059206D01*
X142608674Y-59044996D01*
X142623223Y-59023223D01*
X142644996Y-59008674D01*
X142659206Y-58994465D01*
X142680010Y-58985278D01*
X142704329Y-58969030D01*
X142727043Y-58964511D01*
X142744591Y-58956764D01*
X142795952Y-58950805D01*
X142800000Y-58950000D01*
X144000000Y-58950000D01*
X144004047Y-58950805D01*
G37*
G36*
X95386742Y-58986601D02*
G01*
X95540687Y-59050367D01*
X95679234Y-59142941D01*
X95797059Y-59260766D01*
X95889633Y-59399313D01*
X95953399Y-59553258D01*
X95985907Y-59716685D01*
X95985907Y-59883315D01*
X95953399Y-60046742D01*
X95889633Y-60200687D01*
X95797059Y-60339234D01*
X95679234Y-60457059D01*
X95540687Y-60549633D01*
X95386742Y-60613399D01*
X95223315Y-60645907D01*
X95056685Y-60645907D01*
X94893258Y-60613399D01*
X94739313Y-60549633D01*
X94600766Y-60457059D01*
X94482941Y-60339234D01*
X94390367Y-60200687D01*
X94326601Y-60046742D01*
X94294093Y-59883315D01*
X94294093Y-59716685D01*
X94326601Y-59553258D01*
X94390367Y-59399313D01*
X94482941Y-59260766D01*
X94600766Y-59142941D01*
X94739313Y-59050367D01*
X94893258Y-58986601D01*
X95056685Y-58954093D01*
X95223315Y-58954093D01*
X95386742Y-58986601D01*
G37*
G36*
X97926742Y-58986601D02*
G01*
X98080687Y-59050367D01*
X98219234Y-59142941D01*
X98337059Y-59260766D01*
X98429633Y-59399313D01*
X98493399Y-59553258D01*
X98525907Y-59716685D01*
X98525907Y-59883315D01*
X98493399Y-60046742D01*
X98429633Y-60200687D01*
X98337059Y-60339234D01*
X98219234Y-60457059D01*
X98080687Y-60549633D01*
X97926742Y-60613399D01*
X97763315Y-60645907D01*
X97596685Y-60645907D01*
X97433258Y-60613399D01*
X97279313Y-60549633D01*
X97140766Y-60457059D01*
X97022941Y-60339234D01*
X96930367Y-60200687D01*
X96866601Y-60046742D01*
X96834093Y-59883315D01*
X96834093Y-59716685D01*
X96866601Y-59553258D01*
X96930367Y-59399313D01*
X97022941Y-59260766D01*
X97140766Y-59142941D01*
X97279313Y-59050367D01*
X97433258Y-58986601D01*
X97596685Y-58954093D01*
X97763315Y-58954093D01*
X97926742Y-58986601D01*
G37*
G36*
X103006742Y-58986601D02*
G01*
X103160687Y-59050367D01*
X103299234Y-59142941D01*
X103417059Y-59260766D01*
X103509633Y-59399313D01*
X103573399Y-59553258D01*
X103605907Y-59716685D01*
X103605907Y-59883315D01*
X103573399Y-60046742D01*
X103509633Y-60200687D01*
X103417059Y-60339234D01*
X103299234Y-60457059D01*
X103160687Y-60549633D01*
X103006742Y-60613399D01*
X102843315Y-60645907D01*
X102676685Y-60645907D01*
X102513258Y-60613399D01*
X102359313Y-60549633D01*
X102220766Y-60457059D01*
X102102941Y-60339234D01*
X102010367Y-60200687D01*
X101946601Y-60046742D01*
X101914093Y-59883315D01*
X101914093Y-59716685D01*
X101946601Y-59553258D01*
X102010367Y-59399313D01*
X102102941Y-59260766D01*
X102220766Y-59142941D01*
X102359313Y-59050367D01*
X102513258Y-58986601D01*
X102676685Y-58954093D01*
X102843315Y-58954093D01*
X103006742Y-58986601D01*
G37*
G36*
X105546742Y-58986601D02*
G01*
X105700687Y-59050367D01*
X105839234Y-59142941D01*
X105957059Y-59260766D01*
X106049633Y-59399313D01*
X106113399Y-59553258D01*
X106145907Y-59716685D01*
X106145907Y-59883315D01*
X106113399Y-60046742D01*
X106049633Y-60200687D01*
X105957059Y-60339234D01*
X105839234Y-60457059D01*
X105700687Y-60549633D01*
X105546742Y-60613399D01*
X105383315Y-60645907D01*
X105216685Y-60645907D01*
X105053258Y-60613399D01*
X104899313Y-60549633D01*
X104760766Y-60457059D01*
X104642941Y-60339234D01*
X104550367Y-60200687D01*
X104486601Y-60046742D01*
X104454093Y-59883315D01*
X104454093Y-59716685D01*
X104486601Y-59553258D01*
X104550367Y-59399313D01*
X104642941Y-59260766D01*
X104760766Y-59142941D01*
X104899313Y-59050367D01*
X105053258Y-58986601D01*
X105216685Y-58954093D01*
X105383315Y-58954093D01*
X105546742Y-58986601D01*
G37*
G36*
X108086742Y-58986601D02*
G01*
X108240687Y-59050367D01*
X108379234Y-59142941D01*
X108497059Y-59260766D01*
X108589633Y-59399313D01*
X108653399Y-59553258D01*
X108685907Y-59716685D01*
X108685907Y-59883315D01*
X108653399Y-60046742D01*
X108589633Y-60200687D01*
X108497059Y-60339234D01*
X108379234Y-60457059D01*
X108240687Y-60549633D01*
X108086742Y-60613399D01*
X107923315Y-60645907D01*
X107756685Y-60645907D01*
X107593258Y-60613399D01*
X107439313Y-60549633D01*
X107300766Y-60457059D01*
X107182941Y-60339234D01*
X107090367Y-60200687D01*
X107026601Y-60046742D01*
X106994093Y-59883315D01*
X106994093Y-59716685D01*
X107026601Y-59553258D01*
X107090367Y-59399313D01*
X107182941Y-59260766D01*
X107300766Y-59142941D01*
X107439313Y-59050367D01*
X107593258Y-58986601D01*
X107756685Y-58954093D01*
X107923315Y-58954093D01*
X108086742Y-58986601D01*
G37*
G36*
X110626742Y-58986601D02*
G01*
X110780687Y-59050367D01*
X110919234Y-59142941D01*
X111037059Y-59260766D01*
X111129633Y-59399313D01*
X111193399Y-59553258D01*
X111225907Y-59716685D01*
X111225907Y-59883315D01*
X111193399Y-60046742D01*
X111129633Y-60200687D01*
X111037059Y-60339234D01*
X110919234Y-60457059D01*
X110780687Y-60549633D01*
X110626742Y-60613399D01*
X110463315Y-60645907D01*
X110296685Y-60645907D01*
X110133258Y-60613399D01*
X109979313Y-60549633D01*
X109840766Y-60457059D01*
X109722941Y-60339234D01*
X109630367Y-60200687D01*
X109566601Y-60046742D01*
X109534093Y-59883315D01*
X109534093Y-59716685D01*
X109566601Y-59553258D01*
X109630367Y-59399313D01*
X109722941Y-59260766D01*
X109840766Y-59142941D01*
X109979313Y-59050367D01*
X110133258Y-58986601D01*
X110296685Y-58954093D01*
X110463315Y-58954093D01*
X110626742Y-58986601D01*
G37*
G36*
X115706742Y-58986601D02*
G01*
X115860687Y-59050367D01*
X115999234Y-59142941D01*
X116117059Y-59260766D01*
X116209633Y-59399313D01*
X116273399Y-59553258D01*
X116305907Y-59716685D01*
X116305907Y-59883315D01*
X116273399Y-60046742D01*
X116209633Y-60200687D01*
X116117059Y-60339234D01*
X115999234Y-60457059D01*
X115860687Y-60549633D01*
X115706742Y-60613399D01*
X115543315Y-60645907D01*
X115376685Y-60645907D01*
X115213258Y-60613399D01*
X115059313Y-60549633D01*
X114920766Y-60457059D01*
X114802941Y-60339234D01*
X114710367Y-60200687D01*
X114646601Y-60046742D01*
X114614093Y-59883315D01*
X114614093Y-59716685D01*
X114646601Y-59553258D01*
X114710367Y-59399313D01*
X114802941Y-59260766D01*
X114920766Y-59142941D01*
X115059313Y-59050367D01*
X115213258Y-58986601D01*
X115376685Y-58954093D01*
X115543315Y-58954093D01*
X115706742Y-58986601D01*
G37*
G36*
X118246742Y-58986601D02*
G01*
X118400687Y-59050367D01*
X118539234Y-59142941D01*
X118657059Y-59260766D01*
X118749633Y-59399313D01*
X118813399Y-59553258D01*
X118845907Y-59716685D01*
X118845907Y-59883315D01*
X118813399Y-60046742D01*
X118749633Y-60200687D01*
X118657059Y-60339234D01*
X118539234Y-60457059D01*
X118400687Y-60549633D01*
X118246742Y-60613399D01*
X118083315Y-60645907D01*
X117916685Y-60645907D01*
X117753258Y-60613399D01*
X117599313Y-60549633D01*
X117460766Y-60457059D01*
X117342941Y-60339234D01*
X117250367Y-60200687D01*
X117186601Y-60046742D01*
X117154093Y-59883315D01*
X117154093Y-59716685D01*
X117186601Y-59553258D01*
X117250367Y-59399313D01*
X117342941Y-59260766D01*
X117460766Y-59142941D01*
X117599313Y-59050367D01*
X117753258Y-58986601D01*
X117916685Y-58954093D01*
X118083315Y-58954093D01*
X118246742Y-58986601D01*
G37*
G36*
X120786742Y-58986601D02*
G01*
X120940687Y-59050367D01*
X121079234Y-59142941D01*
X121197059Y-59260766D01*
X121289633Y-59399313D01*
X121353399Y-59553258D01*
X121385907Y-59716685D01*
X121385907Y-59883315D01*
X121353399Y-60046742D01*
X121289633Y-60200687D01*
X121197059Y-60339234D01*
X121079234Y-60457059D01*
X120940687Y-60549633D01*
X120786742Y-60613399D01*
X120623315Y-60645907D01*
X120456685Y-60645907D01*
X120293258Y-60613399D01*
X120139313Y-60549633D01*
X120000766Y-60457059D01*
X119882941Y-60339234D01*
X119790367Y-60200687D01*
X119726601Y-60046742D01*
X119694093Y-59883315D01*
X119694093Y-59716685D01*
X119726601Y-59553258D01*
X119790367Y-59399313D01*
X119882941Y-59260766D01*
X120000766Y-59142941D01*
X120139313Y-59050367D01*
X120293258Y-58986601D01*
X120456685Y-58954093D01*
X120623315Y-58954093D01*
X120786742Y-58986601D01*
G37*
G36*
X123326742Y-58986601D02*
G01*
X123480687Y-59050367D01*
X123619234Y-59142941D01*
X123737059Y-59260766D01*
X123829633Y-59399313D01*
X123893399Y-59553258D01*
X123925907Y-59716685D01*
X123925907Y-59883315D01*
X123893399Y-60046742D01*
X123829633Y-60200687D01*
X123737059Y-60339234D01*
X123619234Y-60457059D01*
X123480687Y-60549633D01*
X123326742Y-60613399D01*
X123163315Y-60645907D01*
X122996685Y-60645907D01*
X122833258Y-60613399D01*
X122679313Y-60549633D01*
X122540766Y-60457059D01*
X122422941Y-60339234D01*
X122330367Y-60200687D01*
X122266601Y-60046742D01*
X122234093Y-59883315D01*
X122234093Y-59716685D01*
X122266601Y-59553258D01*
X122330367Y-59399313D01*
X122422941Y-59260766D01*
X122540766Y-59142941D01*
X122679313Y-59050367D01*
X122833258Y-58986601D01*
X122996685Y-58954093D01*
X123163315Y-58954093D01*
X123326742Y-58986601D01*
G37*
G36*
X128406742Y-58986601D02*
G01*
X128560687Y-59050367D01*
X128699234Y-59142941D01*
X128817059Y-59260766D01*
X128909633Y-59399313D01*
X128973399Y-59553258D01*
X129005907Y-59716685D01*
X129005907Y-59883315D01*
X128973399Y-60046742D01*
X128909633Y-60200687D01*
X128817059Y-60339234D01*
X128699234Y-60457059D01*
X128560687Y-60549633D01*
X128406742Y-60613399D01*
X128243315Y-60645907D01*
X128076685Y-60645907D01*
X127913258Y-60613399D01*
X127759313Y-60549633D01*
X127620766Y-60457059D01*
X127502941Y-60339234D01*
X127410367Y-60200687D01*
X127346601Y-60046742D01*
X127314093Y-59883315D01*
X127314093Y-59716685D01*
X127346601Y-59553258D01*
X127410367Y-59399313D01*
X127502941Y-59260766D01*
X127620766Y-59142941D01*
X127759313Y-59050367D01*
X127913258Y-58986601D01*
X128076685Y-58954093D01*
X128243315Y-58954093D01*
X128406742Y-58986601D01*
G37*
G36*
X130946742Y-58986601D02*
G01*
X131100687Y-59050367D01*
X131239234Y-59142941D01*
X131357059Y-59260766D01*
X131449633Y-59399313D01*
X131513399Y-59553258D01*
X131545907Y-59716685D01*
X131545907Y-59883315D01*
X131513399Y-60046742D01*
X131449633Y-60200687D01*
X131357059Y-60339234D01*
X131239234Y-60457059D01*
X131100687Y-60549633D01*
X130946742Y-60613399D01*
X130783315Y-60645907D01*
X130616685Y-60645907D01*
X130453258Y-60613399D01*
X130299313Y-60549633D01*
X130160766Y-60457059D01*
X130042941Y-60339234D01*
X129950367Y-60200687D01*
X129886601Y-60046742D01*
X129854093Y-59883315D01*
X129854093Y-59716685D01*
X129886601Y-59553258D01*
X129950367Y-59399313D01*
X130042941Y-59260766D01*
X130160766Y-59142941D01*
X130299313Y-59050367D01*
X130453258Y-58986601D01*
X130616685Y-58954093D01*
X130783315Y-58954093D01*
X130946742Y-58986601D01*
G37*
G36*
X133486742Y-58986601D02*
G01*
X133640687Y-59050367D01*
X133779234Y-59142941D01*
X133897059Y-59260766D01*
X133989633Y-59399313D01*
X134053399Y-59553258D01*
X134085907Y-59716685D01*
X134085907Y-59883315D01*
X134053399Y-60046742D01*
X133989633Y-60200687D01*
X133897059Y-60339234D01*
X133779234Y-60457059D01*
X133640687Y-60549633D01*
X133486742Y-60613399D01*
X133323315Y-60645907D01*
X133156685Y-60645907D01*
X132993258Y-60613399D01*
X132839313Y-60549633D01*
X132700766Y-60457059D01*
X132582941Y-60339234D01*
X132490367Y-60200687D01*
X132426601Y-60046742D01*
X132394093Y-59883315D01*
X132394093Y-59716685D01*
X132426601Y-59553258D01*
X132490367Y-59399313D01*
X132582941Y-59260766D01*
X132700766Y-59142941D01*
X132839313Y-59050367D01*
X132993258Y-58986601D01*
X133156685Y-58954093D01*
X133323315Y-58954093D01*
X133486742Y-58986601D01*
G37*
G36*
X136026742Y-58986601D02*
G01*
X136180687Y-59050367D01*
X136319234Y-59142941D01*
X136437059Y-59260766D01*
X136529633Y-59399313D01*
X136593399Y-59553258D01*
X136625907Y-59716685D01*
X136625907Y-59883315D01*
X136593399Y-60046742D01*
X136529633Y-60200687D01*
X136437059Y-60339234D01*
X136319234Y-60457059D01*
X136180687Y-60549633D01*
X136026742Y-60613399D01*
X135863315Y-60645907D01*
X135696685Y-60645907D01*
X135533258Y-60613399D01*
X135379313Y-60549633D01*
X135240766Y-60457059D01*
X135122941Y-60339234D01*
X135030367Y-60200687D01*
X134966601Y-60046742D01*
X134934093Y-59883315D01*
X134934093Y-59716685D01*
X134966601Y-59553258D01*
X135030367Y-59399313D01*
X135122941Y-59260766D01*
X135240766Y-59142941D01*
X135379313Y-59050367D01*
X135533258Y-58986601D01*
X135696685Y-58954093D01*
X135863315Y-58954093D01*
X136026742Y-58986601D01*
G37*
G36*
X141106742Y-58986601D02*
G01*
X141260687Y-59050367D01*
X141399234Y-59142941D01*
X141517059Y-59260766D01*
X141609633Y-59399313D01*
X141673399Y-59553258D01*
X141705907Y-59716685D01*
X141705907Y-59883315D01*
X141673399Y-60046742D01*
X141609633Y-60200687D01*
X141517059Y-60339234D01*
X141399234Y-60457059D01*
X141260687Y-60549633D01*
X141106742Y-60613399D01*
X140943315Y-60645907D01*
X140776685Y-60645907D01*
X140613258Y-60613399D01*
X140459313Y-60549633D01*
X140320766Y-60457059D01*
X140202941Y-60339234D01*
X140110367Y-60200687D01*
X140046601Y-60046742D01*
X140014093Y-59883315D01*
X140014093Y-59716685D01*
X140046601Y-59553258D01*
X140110367Y-59399313D01*
X140202941Y-59260766D01*
X140320766Y-59142941D01*
X140459313Y-59050367D01*
X140613258Y-58986601D01*
X140776685Y-58954093D01*
X140943315Y-58954093D01*
X141106742Y-58986601D01*
G37*
G36*
X88618894Y-50355086D02*
G01*
X88629458Y-50355086D01*
X88681477Y-50363325D01*
X88821877Y-50381809D01*
X88856138Y-50390989D01*
X88885185Y-50395590D01*
X88941045Y-50413740D01*
X89030338Y-50437666D01*
X89087309Y-50461264D01*
X89131428Y-50475599D01*
X89172755Y-50496656D01*
X89229733Y-50520257D01*
X89309803Y-50566485D01*
X89362123Y-50593144D01*
X89385909Y-50610425D01*
X89416624Y-50628159D01*
X89528975Y-50714369D01*
X89571589Y-50745330D01*
X89579058Y-50752799D01*
X89587848Y-50759544D01*
X89740455Y-50912151D01*
X89747199Y-50920940D01*
X89754670Y-50928411D01*
X89785634Y-50971030D01*
X89871840Y-51083375D01*
X89889572Y-51114087D01*
X89906856Y-51137877D01*
X89933517Y-51190203D01*
X89979742Y-51270266D01*
X90003340Y-51327237D01*
X90024401Y-51368572D01*
X90038738Y-51412696D01*
X90062333Y-51469661D01*
X90086255Y-51558941D01*
X90104410Y-51614815D01*
X90109011Y-51643867D01*
X90118190Y-51678122D01*
X90136673Y-51818514D01*
X90144914Y-51870542D01*
X90144914Y-51881105D01*
X90146360Y-51892089D01*
X90146360Y-52107910D01*
X90144914Y-52118893D01*
X90144914Y-52129458D01*
X90136672Y-52181490D01*
X90118190Y-52321877D01*
X90109011Y-52356129D01*
X90104410Y-52385185D01*
X90086254Y-52441063D01*
X90062333Y-52530338D01*
X90038739Y-52587298D01*
X90024401Y-52631428D01*
X90003337Y-52672766D01*
X89979742Y-52729733D01*
X89933521Y-52809788D01*
X89906856Y-52862123D01*
X89889569Y-52885916D01*
X89871840Y-52916624D01*
X89785648Y-53028950D01*
X89754670Y-53071589D01*
X89747195Y-53079063D01*
X89740455Y-53087848D01*
X89587848Y-53240455D01*
X89579063Y-53247195D01*
X89571589Y-53254670D01*
X89528950Y-53285648D01*
X89416624Y-53371840D01*
X89385916Y-53389569D01*
X89362123Y-53406856D01*
X89309788Y-53433521D01*
X89229733Y-53479742D01*
X89172766Y-53503337D01*
X89131428Y-53524401D01*
X89087298Y-53538739D01*
X89030338Y-53562333D01*
X88941063Y-53586254D01*
X88885185Y-53604410D01*
X88856129Y-53609011D01*
X88821877Y-53618190D01*
X88681490Y-53636672D01*
X88629458Y-53644914D01*
X88618893Y-53644914D01*
X88607910Y-53646360D01*
X88392090Y-53646360D01*
X88381107Y-53644914D01*
X88370542Y-53644914D01*
X88318511Y-53636672D01*
X88178122Y-53618190D01*
X88143867Y-53609011D01*
X88114815Y-53604410D01*
X88058941Y-53586255D01*
X87969661Y-53562333D01*
X87912696Y-53538738D01*
X87868572Y-53524401D01*
X87827237Y-53503340D01*
X87770266Y-53479742D01*
X87690203Y-53433517D01*
X87637877Y-53406856D01*
X87614087Y-53389572D01*
X87583375Y-53371840D01*
X87471030Y-53285634D01*
X87428411Y-53254670D01*
X87420940Y-53247199D01*
X87412151Y-53240455D01*
X87259544Y-53087848D01*
X87252799Y-53079058D01*
X87245330Y-53071589D01*
X87214369Y-53028975D01*
X87128159Y-52916624D01*
X87110425Y-52885909D01*
X87093144Y-52862123D01*
X87066485Y-52809803D01*
X87020257Y-52729733D01*
X86996656Y-52672755D01*
X86975599Y-52631428D01*
X86961264Y-52587309D01*
X86937666Y-52530338D01*
X86913740Y-52441045D01*
X86895590Y-52385185D01*
X86890989Y-52356138D01*
X86881809Y-52321877D01*
X86863325Y-52181477D01*
X86855086Y-52129458D01*
X86855086Y-52118893D01*
X86853640Y-52107910D01*
X86853640Y-51892089D01*
X86855086Y-51881105D01*
X86855086Y-51870542D01*
X86863324Y-51818527D01*
X86881809Y-51678122D01*
X86890989Y-51643858D01*
X86895590Y-51614815D01*
X86913738Y-51558959D01*
X86937666Y-51469661D01*
X86961265Y-51412685D01*
X86975599Y-51368572D01*
X86996654Y-51327248D01*
X87020257Y-51270266D01*
X87066489Y-51190188D01*
X87093144Y-51137877D01*
X87110423Y-51114094D01*
X87128159Y-51083375D01*
X87214383Y-50971005D01*
X87245330Y-50928411D01*
X87252796Y-50920944D01*
X87259544Y-50912151D01*
X87412151Y-50759544D01*
X87420944Y-50752796D01*
X87428411Y-50745330D01*
X87471005Y-50714383D01*
X87583375Y-50628159D01*
X87614094Y-50610423D01*
X87637877Y-50593144D01*
X87690188Y-50566489D01*
X87770266Y-50520257D01*
X87827248Y-50496654D01*
X87868572Y-50475599D01*
X87912685Y-50461265D01*
X87969661Y-50437666D01*
X88058959Y-50413738D01*
X88114815Y-50395590D01*
X88143858Y-50390989D01*
X88178122Y-50381809D01*
X88318524Y-50363324D01*
X88370542Y-50355086D01*
X88381106Y-50355086D01*
X88392090Y-50353640D01*
X88607910Y-50353640D01*
X88618894Y-50355086D01*
G37*
G36*
X140618894Y-50355086D02*
G01*
X140629458Y-50355086D01*
X140681477Y-50363325D01*
X140821877Y-50381809D01*
X140856138Y-50390989D01*
X140885185Y-50395590D01*
X140941045Y-50413740D01*
X141030338Y-50437666D01*
X141087309Y-50461264D01*
X141131428Y-50475599D01*
X141172755Y-50496656D01*
X141229733Y-50520257D01*
X141309803Y-50566485D01*
X141362123Y-50593144D01*
X141385909Y-50610425D01*
X141416624Y-50628159D01*
X141528975Y-50714369D01*
X141571589Y-50745330D01*
X141579058Y-50752799D01*
X141587848Y-50759544D01*
X141740455Y-50912151D01*
X141747199Y-50920940D01*
X141754670Y-50928411D01*
X141785634Y-50971030D01*
X141871840Y-51083375D01*
X141889572Y-51114087D01*
X141906856Y-51137877D01*
X141933517Y-51190203D01*
X141979742Y-51270266D01*
X142003340Y-51327237D01*
X142024401Y-51368572D01*
X142038738Y-51412696D01*
X142062333Y-51469661D01*
X142086255Y-51558941D01*
X142104410Y-51614815D01*
X142109011Y-51643867D01*
X142118190Y-51678122D01*
X142136673Y-51818514D01*
X142144914Y-51870542D01*
X142144914Y-51881105D01*
X142146360Y-51892089D01*
X142146360Y-52107910D01*
X142144914Y-52118893D01*
X142144914Y-52129458D01*
X142136672Y-52181490D01*
X142118190Y-52321877D01*
X142109011Y-52356129D01*
X142104410Y-52385185D01*
X142086254Y-52441063D01*
X142062333Y-52530338D01*
X142038739Y-52587298D01*
X142024401Y-52631428D01*
X142003337Y-52672766D01*
X141979742Y-52729733D01*
X141933521Y-52809788D01*
X141906856Y-52862123D01*
X141889569Y-52885916D01*
X141871840Y-52916624D01*
X141785648Y-53028950D01*
X141754670Y-53071589D01*
X141747195Y-53079063D01*
X141740455Y-53087848D01*
X141587848Y-53240455D01*
X141579063Y-53247195D01*
X141571589Y-53254670D01*
X141528950Y-53285648D01*
X141416624Y-53371840D01*
X141385916Y-53389569D01*
X141362123Y-53406856D01*
X141309788Y-53433521D01*
X141229733Y-53479742D01*
X141172766Y-53503337D01*
X141131428Y-53524401D01*
X141087298Y-53538739D01*
X141030338Y-53562333D01*
X140941063Y-53586254D01*
X140885185Y-53604410D01*
X140856129Y-53609011D01*
X140821877Y-53618190D01*
X140681490Y-53636672D01*
X140629458Y-53644914D01*
X140618893Y-53644914D01*
X140607910Y-53646360D01*
X140392090Y-53646360D01*
X140381107Y-53644914D01*
X140370542Y-53644914D01*
X140318511Y-53636672D01*
X140178122Y-53618190D01*
X140143867Y-53609011D01*
X140114815Y-53604410D01*
X140058941Y-53586255D01*
X139969661Y-53562333D01*
X139912696Y-53538738D01*
X139868572Y-53524401D01*
X139827237Y-53503340D01*
X139770266Y-53479742D01*
X139690203Y-53433517D01*
X139637877Y-53406856D01*
X139614087Y-53389572D01*
X139583375Y-53371840D01*
X139471030Y-53285634D01*
X139428411Y-53254670D01*
X139420940Y-53247199D01*
X139412151Y-53240455D01*
X139259544Y-53087848D01*
X139252799Y-53079058D01*
X139245330Y-53071589D01*
X139214369Y-53028975D01*
X139128159Y-52916624D01*
X139110425Y-52885909D01*
X139093144Y-52862123D01*
X139066485Y-52809803D01*
X139020257Y-52729733D01*
X138996656Y-52672755D01*
X138975599Y-52631428D01*
X138961264Y-52587309D01*
X138937666Y-52530338D01*
X138913740Y-52441045D01*
X138895590Y-52385185D01*
X138890989Y-52356138D01*
X138881809Y-52321877D01*
X138863325Y-52181477D01*
X138855086Y-52129458D01*
X138855086Y-52118893D01*
X138853640Y-52107910D01*
X138853640Y-51892089D01*
X138855086Y-51881105D01*
X138855086Y-51870542D01*
X138863324Y-51818527D01*
X138881809Y-51678122D01*
X138890989Y-51643858D01*
X138895590Y-51614815D01*
X138913738Y-51558959D01*
X138937666Y-51469661D01*
X138961265Y-51412685D01*
X138975599Y-51368572D01*
X138996654Y-51327248D01*
X139020257Y-51270266D01*
X139066489Y-51190188D01*
X139093144Y-51137877D01*
X139110423Y-51114094D01*
X139128159Y-51083375D01*
X139214383Y-50971005D01*
X139245330Y-50928411D01*
X139252796Y-50920944D01*
X139259544Y-50912151D01*
X139412151Y-50759544D01*
X139420944Y-50752796D01*
X139428411Y-50745330D01*
X139471005Y-50714383D01*
X139583375Y-50628159D01*
X139614094Y-50610423D01*
X139637877Y-50593144D01*
X139690188Y-50566489D01*
X139770266Y-50520257D01*
X139827248Y-50496654D01*
X139868572Y-50475599D01*
X139912685Y-50461265D01*
X139969661Y-50437666D01*
X140058959Y-50413738D01*
X140114815Y-50395590D01*
X140143858Y-50390989D01*
X140178122Y-50381809D01*
X140318524Y-50363324D01*
X140370542Y-50355086D01*
X140381106Y-50355086D01*
X140392090Y-50353640D01*
X140607910Y-50353640D01*
X140618894Y-50355086D01*
G37*
G36*
X100918685Y-51582969D02*
G01*
X100927358Y-51586798D01*
X100934925Y-51587901D01*
X100982223Y-51611023D01*
X101019541Y-51627501D01*
X101022996Y-51630956D01*
X101023920Y-51631408D01*
X101093591Y-51701079D01*
X101094042Y-51702002D01*
X101097499Y-51705459D01*
X101113978Y-51742782D01*
X101137098Y-51790073D01*
X101138200Y-51797639D01*
X101142031Y-51806315D01*
X101150000Y-51875000D01*
X101150000Y-53125000D01*
X101142031Y-53193685D01*
X101138199Y-53202361D01*
X101137098Y-53209925D01*
X101113985Y-53257202D01*
X101097499Y-53294541D01*
X101094041Y-53297998D01*
X101093591Y-53298920D01*
X101023920Y-53368591D01*
X101022998Y-53369041D01*
X101019541Y-53372499D01*
X100982207Y-53388983D01*
X100934926Y-53412098D01*
X100927361Y-53413200D01*
X100918685Y-53417031D01*
X100850000Y-53425000D01*
X100150000Y-53425000D01*
X100081315Y-53417031D01*
X100072638Y-53413200D01*
X100065074Y-53412098D01*
X100017787Y-53388981D01*
X99980459Y-53372499D01*
X99977002Y-53369042D01*
X99976079Y-53368591D01*
X99906408Y-53298920D01*
X99905956Y-53297996D01*
X99902501Y-53294541D01*
X99886025Y-53257228D01*
X99862901Y-53209926D01*
X99861798Y-53202357D01*
X99857969Y-53193685D01*
X99850000Y-53125000D01*
X99850000Y-51875000D01*
X99857969Y-51806315D01*
X99861798Y-51797642D01*
X99862901Y-51790074D01*
X99886028Y-51742766D01*
X99902501Y-51705459D01*
X99905955Y-51702004D01*
X99906408Y-51701079D01*
X99976079Y-51631408D01*
X99977004Y-51630955D01*
X99980459Y-51627501D01*
X100017761Y-51611030D01*
X100065073Y-51587901D01*
X100072642Y-51586798D01*
X100081315Y-51582969D01*
X100150000Y-51575000D01*
X100850000Y-51575000D01*
X100918685Y-51582969D01*
G37*
G36*
X98688685Y-51602989D02*
G01*
X98806408Y-51651751D01*
X98912356Y-51722543D01*
X99002457Y-51812644D01*
X99073249Y-51918592D01*
X99122011Y-52036315D01*
X99146870Y-52161289D01*
X99150000Y-52225000D01*
X99150000Y-52775000D01*
X99146870Y-52838711D01*
X99122011Y-52963685D01*
X99073249Y-53081408D01*
X99002457Y-53187356D01*
X98912356Y-53277457D01*
X98806408Y-53348249D01*
X98688685Y-53397011D01*
X98563711Y-53421870D01*
X98436289Y-53421870D01*
X98311315Y-53397011D01*
X98193592Y-53348249D01*
X98087644Y-53277457D01*
X97997543Y-53187356D01*
X97926751Y-53081408D01*
X97877989Y-52963685D01*
X97853130Y-52838711D01*
X97850000Y-52775000D01*
X97850000Y-52225000D01*
X97853130Y-52161289D01*
X97877989Y-52036315D01*
X97926751Y-51918592D01*
X97997543Y-51812644D01*
X98087644Y-51722543D01*
X98193592Y-51651751D01*
X98311315Y-51602989D01*
X98436289Y-51578130D01*
X98563711Y-51578130D01*
X98688685Y-51602989D01*
G37*
G36*
X126329134Y-51103806D02*
G01*
X126345355Y-51114645D01*
X126356194Y-51130866D01*
X126360000Y-51150000D01*
X126360000Y-52850000D01*
X126356194Y-52869134D01*
X126345355Y-52885355D01*
X126329134Y-52896194D01*
X126310000Y-52900000D01*
X124610000Y-52900000D01*
X124590866Y-52896194D01*
X124574645Y-52885355D01*
X124563806Y-52869134D01*
X124560000Y-52850000D01*
X124560000Y-51150000D01*
X124563806Y-51130866D01*
X124574645Y-51114645D01*
X124590866Y-51103806D01*
X124610000Y-51100000D01*
X126310000Y-51100000D01*
X126329134Y-51103806D01*
G37*
G36*
X128261256Y-51138754D02*
G01*
X128424257Y-51206271D01*
X128570954Y-51304291D01*
X128695709Y-51429046D01*
X128793729Y-51575743D01*
X128861246Y-51738744D01*
X128895666Y-51911785D01*
X128895666Y-52088215D01*
X128861246Y-52261256D01*
X128793729Y-52424257D01*
X128695709Y-52570954D01*
X128570954Y-52695709D01*
X128424257Y-52793729D01*
X128261256Y-52861246D01*
X128088215Y-52895666D01*
X127911785Y-52895666D01*
X127738744Y-52861246D01*
X127575743Y-52793729D01*
X127429046Y-52695709D01*
X127304291Y-52570954D01*
X127206271Y-52424257D01*
X127138754Y-52261256D01*
X127104334Y-52088215D01*
X127104334Y-51911785D01*
X127138754Y-51738744D01*
X127206271Y-51575743D01*
X127304291Y-51429046D01*
X127429046Y-51304291D01*
X127575743Y-51206271D01*
X127738744Y-51138754D01*
X127911785Y-51104334D01*
X128088215Y-51104334D01*
X128261256Y-51138754D01*
G37*
G36*
X130801256Y-51138754D02*
G01*
X130964257Y-51206271D01*
X131110954Y-51304291D01*
X131235709Y-51429046D01*
X131333729Y-51575743D01*
X131401246Y-51738744D01*
X131435666Y-51911785D01*
X131435666Y-52088215D01*
X131401246Y-52261256D01*
X131333729Y-52424257D01*
X131235709Y-52570954D01*
X131110954Y-52695709D01*
X130964257Y-52793729D01*
X130801256Y-52861246D01*
X130628215Y-52895666D01*
X130451785Y-52895666D01*
X130278744Y-52861246D01*
X130115743Y-52793729D01*
X129969046Y-52695709D01*
X129844291Y-52570954D01*
X129746271Y-52424257D01*
X129678754Y-52261256D01*
X129644334Y-52088215D01*
X129644334Y-51911785D01*
X129678754Y-51738744D01*
X129746271Y-51575743D01*
X129844291Y-51429046D01*
X129969046Y-51304291D01*
X130115743Y-51206271D01*
X130278744Y-51138754D01*
X130451785Y-51104334D01*
X130628215Y-51104334D01*
X130801256Y-51138754D01*
G37*
%LPD*%
M02*
