%TF.GenerationSoftware,KiCad,Pcbnew,10.0.5*%
%TF.CreationDate,2026-09-27T19:12:04+02:00*%
%TF.ProjectId,sst_v2,7373745f-7632-42e6-9b69-6361645f7063,A*%
%TF.SameCoordinates,Original*%
%TF.FileFunction,Drillmap*%
%TF.FilePolarity,Positive*%
%FSLAX45Y45*%
G04 Gerber Fmt 4.5, Leading zero omitted, Abs format (unit mm)*
G04 Created by KiCad (PCBNEW 10.0.5) date 2026-09-27 19:12:04*
%MOMM*%
%LPD*%
G01*
G04 APERTURE LIST*
%ADD10C,0.100000*%
%ADD11C,0.200000*%
%ADD12C,0.190000*%
G04 APERTURE END LIST*
D10*
X8450000Y-4800000D02*
X14450000Y-4800000D01*
X8450000Y-13800000D02*
X8450000Y-4800000D01*
X14450000Y-4800000D02*
X14450000Y-13800000D01*
X14450000Y-13800000D02*
X8450000Y-13800000D01*
D11*
D10*
X8557500Y-11615000D02*
X8587500Y-11645000D01*
X8587500Y-11615000D02*
X8557500Y-11645000D01*
X8570000Y-13110000D02*
X8600000Y-13140000D01*
X8600000Y-13110000D02*
X8570000Y-13140000D01*
X8585000Y-12535000D02*
X8615000Y-12565000D01*
X8615000Y-12535000D02*
X8585000Y-12565000D01*
X8585000Y-13335000D02*
X8615000Y-13365000D01*
X8615000Y-13335000D02*
X8585000Y-13365000D01*
X8600000Y-10790000D02*
X8630000Y-10820000D01*
X8630000Y-10790000D02*
X8600000Y-10820000D01*
X8608728Y-13177478D02*
X8638728Y-13207478D01*
X8638728Y-13177478D02*
X8608728Y-13207478D01*
X8640000Y-12475500D02*
X8670000Y-12505500D01*
X8670000Y-12475500D02*
X8640000Y-12505500D01*
X8650000Y-12655500D02*
X8680000Y-12685500D01*
X8680000Y-12655500D02*
X8650000Y-12685500D01*
X8680000Y-12380000D02*
X8710000Y-12410000D01*
X8710000Y-12380000D02*
X8680000Y-12410000D01*
X8710000Y-10730000D02*
X8740000Y-10760000D01*
X8740000Y-10730000D02*
X8710000Y-10760000D01*
X8720000Y-11937500D02*
X8750000Y-11967500D01*
X8750000Y-11937500D02*
X8720000Y-11967500D01*
X8760000Y-11002500D02*
X8790000Y-11032500D01*
X8790000Y-11002500D02*
X8760000Y-11032500D01*
X8780000Y-12835500D02*
X8810000Y-12865500D01*
X8810000Y-12835500D02*
X8780000Y-12865500D01*
X8865050Y-10530000D02*
X8895050Y-10560000D01*
X8895050Y-10530000D02*
X8865050Y-10560000D01*
X8890000Y-12320000D02*
X8920000Y-12350000D01*
X8920000Y-12320000D02*
X8890000Y-12350000D01*
X8900000Y-12640500D02*
X8930000Y-12670500D01*
X8930000Y-12640500D02*
X8900000Y-12670500D01*
X8910000Y-12400000D02*
X8940000Y-12430000D01*
X8940000Y-12400000D02*
X8910000Y-12430000D01*
X8950000Y-11050000D02*
X8980000Y-11080000D01*
X8980000Y-11050000D02*
X8950000Y-11080000D01*
X8960000Y-10445000D02*
X8990000Y-10475000D01*
X8990000Y-10445000D02*
X8960000Y-10475000D01*
X8960000Y-10540000D02*
X8990000Y-10570000D01*
X8990000Y-10540000D02*
X8960000Y-10570000D01*
X8985000Y-10135000D02*
X9015000Y-10165000D01*
X9015000Y-10135000D02*
X8985000Y-10165000D01*
X8985000Y-12535000D02*
X9015000Y-12565000D01*
X9015000Y-12535000D02*
X8985000Y-12565000D01*
X9020000Y-9405000D02*
X9050000Y-9435000D01*
X9050000Y-9405000D02*
X9020000Y-9435000D01*
X9030000Y-9790000D02*
X9060000Y-9820000D01*
X9060000Y-9790000D02*
X9030000Y-9820000D01*
X9030050Y-10640709D02*
X9060050Y-10670709D01*
X9060050Y-10640709D02*
X9030050Y-10670709D01*
X9076320Y-9613850D02*
X9106320Y-9643850D01*
X9106320Y-9613850D02*
X9076320Y-9643850D01*
X9080000Y-13310000D02*
X9110000Y-13340000D01*
X9110000Y-13310000D02*
X9080000Y-13340000D01*
X9145087Y-13319918D02*
X9175087Y-13349918D01*
X9175087Y-13319918D02*
X9145087Y-13349918D01*
X9152500Y-11055000D02*
X9182500Y-11085000D01*
X9182500Y-11055000D02*
X9152500Y-11085000D01*
X9170000Y-9785000D02*
X9200000Y-9815000D01*
X9200000Y-9785000D02*
X9170000Y-9815000D01*
X9175000Y-12640500D02*
X9205000Y-12670500D01*
X9205000Y-12640500D02*
X9175000Y-12670500D01*
X9200000Y-13362500D02*
X9230000Y-13392500D01*
X9230000Y-13362500D02*
X9200000Y-13392500D01*
X9200000Y-13422500D02*
X9230000Y-13452500D01*
X9230000Y-13422500D02*
X9200000Y-13452500D01*
X9211529Y-9686507D02*
X9241529Y-9716507D01*
X9241529Y-9686507D02*
X9211529Y-9716507D01*
X9220000Y-12560500D02*
X9250000Y-12590500D01*
X9250000Y-12560500D02*
X9220000Y-12590500D01*
X9240000Y-12445500D02*
X9270000Y-12475500D01*
X9270000Y-12445500D02*
X9240000Y-12475500D01*
X9250000Y-12855500D02*
X9280000Y-12885500D01*
X9280000Y-12855500D02*
X9250000Y-12885500D01*
X9260000Y-13352500D02*
X9290000Y-13382500D01*
X9290000Y-13352500D02*
X9260000Y-13382500D01*
X9304480Y-9654780D02*
X9334480Y-9684780D01*
X9334480Y-9654780D02*
X9304480Y-9684780D01*
X9310993Y-10725971D02*
X9340993Y-10755971D01*
X9340993Y-10725971D02*
X9310993Y-10755971D01*
X9340000Y-9960000D02*
X9370000Y-9990000D01*
X9370000Y-9960000D02*
X9340000Y-9990000D01*
X9360000Y-10760970D02*
X9390000Y-10790970D01*
X9390000Y-10760970D02*
X9360000Y-10790970D01*
X9380000Y-6530000D02*
X9410000Y-6560000D01*
X9410000Y-6530000D02*
X9380000Y-6560000D01*
X9385000Y-9335000D02*
X9415000Y-9365000D01*
X9415000Y-9335000D02*
X9385000Y-9365000D01*
X9385000Y-12135000D02*
X9415000Y-12165000D01*
X9415000Y-12135000D02*
X9385000Y-12165000D01*
X9385000Y-12935000D02*
X9415000Y-12965000D01*
X9415000Y-12935000D02*
X9385000Y-12965000D01*
X9385000Y-13335000D02*
X9415000Y-13365000D01*
X9415000Y-13335000D02*
X9385000Y-13365000D01*
X9430000Y-9060000D02*
X9460000Y-9090000D01*
X9460000Y-9060000D02*
X9430000Y-9090000D01*
X9430000Y-11651680D02*
X9460000Y-11681680D01*
X9460000Y-11651680D02*
X9430000Y-11681680D01*
X9430000Y-11711680D02*
X9460000Y-11741680D01*
X9460000Y-11711680D02*
X9430000Y-11741680D01*
X9465000Y-10445000D02*
X9495000Y-10475000D01*
X9495000Y-10445000D02*
X9465000Y-10475000D01*
X9490000Y-11171680D02*
X9520000Y-11201680D01*
X9520000Y-11171680D02*
X9490000Y-11201680D01*
X9502500Y-12897500D02*
X9532500Y-12927500D01*
X9532500Y-12897500D02*
X9502500Y-12927500D01*
X9522500Y-11297500D02*
X9552500Y-11327500D01*
X9552500Y-11297500D02*
X9522500Y-11327500D01*
X9522500Y-11357500D02*
X9552500Y-11387500D01*
X9552500Y-11357500D02*
X9522500Y-11387500D01*
X9560000Y-10490000D02*
X9590000Y-10520000D01*
X9590000Y-10490000D02*
X9560000Y-10520000D01*
X9560000Y-10950000D02*
X9590000Y-10980000D01*
X9590000Y-10950000D02*
X9560000Y-10980000D01*
X9590000Y-11030000D02*
X9620000Y-11060000D01*
X9620000Y-11030000D02*
X9590000Y-11060000D01*
X9590000Y-13335000D02*
X9620000Y-13365000D01*
X9620000Y-13335000D02*
X9590000Y-13365000D01*
X9600000Y-12677500D02*
X9630000Y-12707500D01*
X9630000Y-12677500D02*
X9600000Y-12707500D01*
X9630000Y-10640000D02*
X9660000Y-10670000D01*
X9660000Y-10640000D02*
X9630000Y-10670000D01*
X9657500Y-12537500D02*
X9687500Y-12567500D01*
X9687500Y-12537500D02*
X9657500Y-12567500D01*
X9657500Y-12607500D02*
X9687500Y-12637500D01*
X9687500Y-12607500D02*
X9657500Y-12637500D01*
X9680000Y-10300000D02*
X9710000Y-10330000D01*
X9710000Y-10300000D02*
X9680000Y-10330000D01*
X9687522Y-10699978D02*
X9717522Y-10729978D01*
X9717522Y-10699978D02*
X9687522Y-10729978D01*
X9710000Y-8600000D02*
X9740000Y-8630000D01*
X9740000Y-8600000D02*
X9710000Y-8630000D01*
X9717500Y-12517500D02*
X9747500Y-12547500D01*
X9747500Y-12517500D02*
X9717500Y-12547500D01*
X9720000Y-9350000D02*
X9750000Y-9380000D01*
X9750000Y-9350000D02*
X9720000Y-9380000D01*
X9757500Y-12327500D02*
X9787500Y-12357500D01*
X9787500Y-12327500D02*
X9757500Y-12357500D01*
X9775000Y-13177000D02*
X9805000Y-13207000D01*
X9805000Y-13177000D02*
X9775000Y-13207000D01*
X9785000Y-4935000D02*
X9815000Y-4965000D01*
X9815000Y-4935000D02*
X9785000Y-4965000D01*
X9785000Y-5335000D02*
X9815000Y-5365000D01*
X9815000Y-5335000D02*
X9785000Y-5365000D01*
X9785000Y-8135000D02*
X9815000Y-8165000D01*
X9815000Y-8135000D02*
X9785000Y-8165000D01*
X9785000Y-11335000D02*
X9815000Y-11365000D01*
X9815000Y-11335000D02*
X9785000Y-11365000D01*
X9790000Y-12760500D02*
X9820000Y-12790500D01*
X9820000Y-12760500D02*
X9790000Y-12790500D01*
X9899500Y-8009195D02*
X9929500Y-8039195D01*
X9929500Y-8009195D02*
X9899500Y-8039195D01*
X9900000Y-9530000D02*
X9930000Y-9560000D01*
X9930000Y-9530000D02*
X9900000Y-9560000D01*
X9910000Y-12051000D02*
X9940000Y-12081000D01*
X9940000Y-12051000D02*
X9910000Y-12081000D01*
X9930000Y-12327500D02*
X9960000Y-12357500D01*
X9960000Y-12327500D02*
X9930000Y-12357500D01*
X9930000Y-12506000D02*
X9960000Y-12536000D01*
X9960000Y-12506000D02*
X9930000Y-12536000D01*
X9960000Y-12677500D02*
X9990000Y-12707500D01*
X9990000Y-12677500D02*
X9960000Y-12707500D01*
X9970000Y-8120000D02*
X10000000Y-8150000D01*
X10000000Y-8120000D02*
X9970000Y-8150000D01*
X9988500Y-13159380D02*
X10018500Y-13189380D01*
X10018500Y-13159380D02*
X9988500Y-13189380D01*
X9990000Y-13450000D02*
X10020000Y-13480000D01*
X10020000Y-13450000D02*
X9990000Y-13480000D01*
X10007478Y-10899978D02*
X10037478Y-10929978D01*
X10037478Y-10899978D02*
X10007478Y-10929978D01*
X10020000Y-11102500D02*
X10050000Y-11132500D01*
X10050000Y-11102500D02*
X10020000Y-11132500D01*
X10080000Y-11112500D02*
X10110000Y-11142500D01*
X10110000Y-11112500D02*
X10080000Y-11142500D01*
X10085000Y-13448040D02*
X10115000Y-13478040D01*
X10115000Y-13448040D02*
X10085000Y-13478040D01*
X10099978Y-12917478D02*
X10129978Y-12947478D01*
X10129978Y-12917478D02*
X10099978Y-12947478D01*
X10100000Y-12207500D02*
X10130000Y-12237500D01*
X10130000Y-12207500D02*
X10100000Y-12237500D01*
X10130000Y-12626000D02*
X10160000Y-12656000D01*
X10160000Y-12626000D02*
X10130000Y-12656000D01*
X10130000Y-12737500D02*
X10160000Y-12767500D01*
X10160000Y-12737500D02*
X10130000Y-12767500D01*
X10150000Y-8060000D02*
X10180000Y-8090000D01*
X10180000Y-8060000D02*
X10150000Y-8090000D01*
X10170000Y-12281000D02*
X10200000Y-12311000D01*
X10200000Y-12281000D02*
X10170000Y-12311000D01*
X10185000Y-4935000D02*
X10215000Y-4965000D01*
X10215000Y-4935000D02*
X10185000Y-4965000D01*
X10185000Y-8135000D02*
X10215000Y-8165000D01*
X10215000Y-8135000D02*
X10185000Y-8165000D01*
X10185000Y-8535000D02*
X10215000Y-8565000D01*
X10215000Y-8535000D02*
X10185000Y-8565000D01*
X10185000Y-8935000D02*
X10215000Y-8965000D01*
X10215000Y-8935000D02*
X10185000Y-8965000D01*
X10185000Y-10535000D02*
X10215000Y-10565000D01*
X10215000Y-10535000D02*
X10185000Y-10565000D01*
X10185000Y-10935000D02*
X10215000Y-10965000D01*
X10215000Y-10935000D02*
X10185000Y-10965000D01*
X10200000Y-12685500D02*
X10230000Y-12715500D01*
X10230000Y-12685500D02*
X10200000Y-12715500D01*
X10215550Y-11643750D02*
X10245550Y-11673750D01*
X10245550Y-11643750D02*
X10215550Y-11673750D01*
X10222956Y-11889951D02*
X10252956Y-11919951D01*
X10252956Y-11889951D02*
X10222956Y-11919951D01*
X10257500Y-12947500D02*
X10287500Y-12977500D01*
X10287500Y-12947500D02*
X10257500Y-12977500D01*
X10290000Y-12737500D02*
X10320000Y-12767500D01*
X10320000Y-12737500D02*
X10290000Y-12767500D01*
X10297500Y-12897500D02*
X10327500Y-12927500D01*
X10327500Y-12897500D02*
X10297500Y-12927500D01*
X10330000Y-8050000D02*
X10360000Y-8080000D01*
X10360000Y-8050000D02*
X10330000Y-8080000D01*
X10360000Y-12280000D02*
X10390000Y-12310000D01*
X10390000Y-12280000D02*
X10360000Y-12310000D01*
X10415000Y-5527000D02*
X10445000Y-5557000D01*
X10445000Y-5527000D02*
X10415000Y-5557000D01*
X10424870Y-8265300D02*
X10454870Y-8295300D01*
X10454870Y-8265300D02*
X10424870Y-8295300D01*
X10460000Y-13000000D02*
X10490000Y-13030000D01*
X10490000Y-13000000D02*
X10460000Y-13030000D01*
X10485000Y-11695000D02*
X10515000Y-11725000D01*
X10515000Y-11695000D02*
X10485000Y-11725000D01*
X10485000Y-11775000D02*
X10515000Y-11805000D01*
X10515000Y-11775000D02*
X10485000Y-11805000D01*
X10490000Y-8140000D02*
X10520000Y-8170000D01*
X10520000Y-8140000D02*
X10490000Y-8170000D01*
X10561380Y-8061360D02*
X10591380Y-8091360D01*
X10591380Y-8061360D02*
X10561380Y-8091360D01*
X10585000Y-6135000D02*
X10615000Y-6165000D01*
X10615000Y-6135000D02*
X10585000Y-6165000D01*
X10585000Y-6535000D02*
X10615000Y-6565000D01*
X10615000Y-6535000D02*
X10585000Y-6565000D01*
X10585000Y-6935000D02*
X10615000Y-6965000D01*
X10615000Y-6935000D02*
X10585000Y-6965000D01*
X10585000Y-7335000D02*
X10615000Y-7365000D01*
X10615000Y-7335000D02*
X10585000Y-7365000D01*
X10585000Y-8535000D02*
X10615000Y-8565000D01*
X10615000Y-8535000D02*
X10585000Y-8565000D01*
X10585000Y-9335000D02*
X10615000Y-9365000D01*
X10615000Y-9335000D02*
X10585000Y-9365000D01*
X10585000Y-10535000D02*
X10615000Y-10565000D01*
X10615000Y-10535000D02*
X10585000Y-10565000D01*
X10585000Y-11735000D02*
X10615000Y-11765000D01*
X10615000Y-11735000D02*
X10585000Y-11765000D01*
X10585000Y-12935000D02*
X10615000Y-12965000D01*
X10615000Y-12935000D02*
X10585000Y-12965000D01*
X10650000Y-10927500D02*
X10680000Y-10957500D01*
X10680000Y-10927500D02*
X10650000Y-10957500D01*
X10670000Y-12207500D02*
X10700000Y-12237500D01*
X10700000Y-12207500D02*
X10670000Y-12237500D01*
X10670000Y-12417500D02*
X10700000Y-12447500D01*
X10700000Y-12417500D02*
X10670000Y-12447500D01*
X10730000Y-10807500D02*
X10760000Y-10837500D01*
X10760000Y-10807500D02*
X10730000Y-10837500D01*
X10770000Y-11017500D02*
X10800000Y-11047500D01*
X10800000Y-11017500D02*
X10770000Y-11047500D01*
X10790000Y-12820000D02*
X10820000Y-12850000D01*
X10820000Y-12820000D02*
X10790000Y-12850000D01*
X10812550Y-11126032D02*
X10842550Y-11156032D01*
X10842550Y-11126032D02*
X10812550Y-11156032D01*
X10820000Y-8000000D02*
X10850000Y-8030000D01*
X10850000Y-8000000D02*
X10820000Y-8030000D01*
X10846650Y-13205150D02*
X10876650Y-13235150D01*
X10876650Y-13205150D02*
X10846650Y-13235150D01*
X10870000Y-10807500D02*
X10900000Y-10837500D01*
X10900000Y-10807500D02*
X10870000Y-10837500D01*
X10900000Y-10540000D02*
X10930000Y-10570000D01*
X10930000Y-10540000D02*
X10900000Y-10570000D01*
X10907478Y-11340021D02*
X10937478Y-11370021D01*
X10937478Y-11340021D02*
X10907478Y-11370021D01*
X10930000Y-13025000D02*
X10960000Y-13055000D01*
X10960000Y-13025000D02*
X10930000Y-13055000D01*
X10935000Y-5013000D02*
X10965000Y-5043000D01*
X10965000Y-5013000D02*
X10935000Y-5043000D01*
X10960000Y-12280000D02*
X10990000Y-12310000D01*
X10990000Y-12280000D02*
X10960000Y-12310000D01*
X10960000Y-12417500D02*
X10990000Y-12447500D01*
X10990000Y-12417500D02*
X10960000Y-12447500D01*
X10985000Y-9335000D02*
X11015000Y-9365000D01*
X11015000Y-9335000D02*
X10985000Y-9365000D01*
X10985000Y-10535000D02*
X11015000Y-10565000D01*
X11015000Y-10535000D02*
X10985000Y-10565000D01*
X10985000Y-13335000D02*
X11015000Y-13365000D01*
X11015000Y-13335000D02*
X10985000Y-13365000D01*
X11066120Y-8370716D02*
X11096120Y-8400716D01*
X11096120Y-8370716D02*
X11066120Y-8400716D01*
X11170000Y-10810000D02*
X11200000Y-10840000D01*
X11200000Y-10810000D02*
X11170000Y-10840000D01*
X11170000Y-11110000D02*
X11200000Y-11140000D01*
X11200000Y-11110000D02*
X11170000Y-11140000D01*
X11287500Y-12477500D02*
X11317500Y-12507500D01*
X11317500Y-12477500D02*
X11287500Y-12507500D01*
X11290000Y-13615660D02*
X11320000Y-13645660D01*
X11320000Y-13615660D02*
X11290000Y-13645660D01*
X11385000Y-4935000D02*
X11415000Y-4965000D01*
X11415000Y-4935000D02*
X11385000Y-4965000D01*
X11385000Y-5735000D02*
X11415000Y-5765000D01*
X11415000Y-5735000D02*
X11385000Y-5765000D01*
X11385000Y-6135000D02*
X11415000Y-6165000D01*
X11415000Y-6135000D02*
X11385000Y-6165000D01*
X11385000Y-6535000D02*
X11415000Y-6565000D01*
X11415000Y-6535000D02*
X11385000Y-6565000D01*
X11385000Y-7735000D02*
X11415000Y-7765000D01*
X11415000Y-7735000D02*
X11385000Y-7765000D01*
X11385000Y-8535000D02*
X11415000Y-8565000D01*
X11415000Y-8535000D02*
X11385000Y-8565000D01*
X11385000Y-11335000D02*
X11415000Y-11365000D01*
X11415000Y-11335000D02*
X11385000Y-11365000D01*
X11385000Y-11735000D02*
X11415000Y-11765000D01*
X11415000Y-11735000D02*
X11385000Y-11765000D01*
X11385000Y-12135000D02*
X11415000Y-12165000D01*
X11415000Y-12135000D02*
X11385000Y-12165000D01*
X11385000Y-12535000D02*
X11415000Y-12565000D01*
X11415000Y-12535000D02*
X11385000Y-12565000D01*
X11385000Y-13335000D02*
X11415000Y-13365000D01*
X11415000Y-13335000D02*
X11385000Y-13365000D01*
X11455570Y-13155660D02*
X11485570Y-13185660D01*
X11485570Y-13155660D02*
X11455570Y-13185660D01*
X11520000Y-13615660D02*
X11550000Y-13645660D01*
X11550000Y-13615660D02*
X11520000Y-13645660D01*
X11530000Y-9930000D02*
X11560000Y-9960000D01*
X11560000Y-9930000D02*
X11530000Y-9960000D01*
X11550000Y-11080000D02*
X11580000Y-11110000D01*
X11580000Y-11080000D02*
X11550000Y-11110000D01*
X11550000Y-11177500D02*
X11580000Y-11207500D01*
X11580000Y-11177500D02*
X11550000Y-11207500D01*
X11569293Y-13442485D02*
X11599293Y-13472485D01*
X11599293Y-13442485D02*
X11569293Y-13472485D01*
X11580000Y-10277500D02*
X11610000Y-10307500D01*
X11610000Y-10277500D02*
X11580000Y-10307500D01*
X11610000Y-10177500D02*
X11640000Y-10207500D01*
X11640000Y-10177500D02*
X11610000Y-10207500D01*
X11610000Y-13620000D02*
X11640000Y-13650000D01*
X11640000Y-13620000D02*
X11610000Y-13650000D01*
X11612500Y-12175000D02*
X11642500Y-12205000D01*
X11642500Y-12175000D02*
X11612500Y-12205000D01*
X11617320Y-8070540D02*
X11647320Y-8100540D01*
X11647320Y-8070540D02*
X11617320Y-8100540D01*
X11624880Y-13182130D02*
X11654880Y-13212130D01*
X11654880Y-13182130D02*
X11624880Y-13212130D01*
X11650000Y-12090000D02*
X11680000Y-12120000D01*
X11680000Y-12090000D02*
X11650000Y-12120000D01*
X11652500Y-12767500D02*
X11682500Y-12797500D01*
X11682500Y-12767500D02*
X11652500Y-12797500D01*
X11730000Y-6220000D02*
X11760000Y-6250000D01*
X11760000Y-6220000D02*
X11730000Y-6250000D01*
X11748820Y-9652890D02*
X11778820Y-9682890D01*
X11778820Y-9652890D02*
X11748820Y-9682890D01*
X11780000Y-13450000D02*
X11810000Y-13480000D01*
X11810000Y-13450000D02*
X11780000Y-13480000D01*
X11785000Y-4935000D02*
X11815000Y-4965000D01*
X11815000Y-4935000D02*
X11785000Y-4965000D01*
X11785000Y-5335000D02*
X11815000Y-5365000D01*
X11815000Y-5335000D02*
X11785000Y-5365000D01*
X11785000Y-6135000D02*
X11815000Y-6165000D01*
X11815000Y-6135000D02*
X11785000Y-6165000D01*
X11785000Y-6535000D02*
X11815000Y-6565000D01*
X11815000Y-6535000D02*
X11785000Y-6565000D01*
X11785000Y-6935000D02*
X11815000Y-6965000D01*
X11815000Y-6935000D02*
X11785000Y-6965000D01*
X11785000Y-7335000D02*
X11815000Y-7365000D01*
X11815000Y-7335000D02*
X11785000Y-7365000D01*
X11815000Y-13217000D02*
X11845000Y-13247000D01*
X11845000Y-13217000D02*
X11815000Y-13247000D01*
X11840000Y-6330000D02*
X11870000Y-6360000D01*
X11870000Y-6330000D02*
X11840000Y-6360000D01*
X11900850Y-12403819D02*
X11930850Y-12433819D01*
X11930850Y-12403819D02*
X11900850Y-12433819D01*
X11920000Y-11295000D02*
X11950000Y-11325000D01*
X11950000Y-11295000D02*
X11920000Y-11325000D01*
X11935000Y-13448040D02*
X11965000Y-13478040D01*
X11965000Y-13448040D02*
X11935000Y-13478040D01*
X11950850Y-13051043D02*
X11980850Y-13081043D01*
X11980850Y-13051043D02*
X11950850Y-13081043D01*
X11960000Y-12460000D02*
X11990000Y-12490000D01*
X11990000Y-12460000D02*
X11960000Y-12490000D01*
X11960910Y-11052267D02*
X11990910Y-11082267D01*
X11990910Y-11052267D02*
X11960910Y-11082267D01*
X11990000Y-6480000D02*
X12020000Y-6510000D01*
X12020000Y-6480000D02*
X11990000Y-6510000D01*
X12040000Y-12562437D02*
X12070000Y-12592437D01*
X12070000Y-12562437D02*
X12040000Y-12592437D01*
X12080000Y-12920000D02*
X12110000Y-12950000D01*
X12110000Y-12920000D02*
X12080000Y-12950000D01*
X12090000Y-6480000D02*
X12120000Y-6510000D01*
X12120000Y-6480000D02*
X12090000Y-6510000D01*
X12100000Y-12177500D02*
X12130000Y-12207500D01*
X12130000Y-12177500D02*
X12100000Y-12207500D01*
X12105000Y-9930000D02*
X12135000Y-9960000D01*
X12135000Y-9930000D02*
X12105000Y-9960000D01*
X12157500Y-11252500D02*
X12187500Y-11282500D01*
X12187500Y-11252500D02*
X12157500Y-11282500D01*
X12165050Y-9601770D02*
X12195050Y-9631770D01*
X12195050Y-9601770D02*
X12165050Y-9631770D01*
X12169652Y-12853750D02*
X12199652Y-12883750D01*
X12199652Y-12853750D02*
X12169652Y-12883750D01*
X12181110Y-12462980D02*
X12211110Y-12492980D01*
X12211110Y-12462980D02*
X12181110Y-12492980D01*
X12185000Y-4935000D02*
X12215000Y-4965000D01*
X12215000Y-4935000D02*
X12185000Y-4965000D01*
X12185000Y-5335000D02*
X12215000Y-5365000D01*
X12215000Y-5335000D02*
X12185000Y-5365000D01*
X12185000Y-6135000D02*
X12215000Y-6165000D01*
X12215000Y-6135000D02*
X12185000Y-6165000D01*
X12185000Y-6535000D02*
X12215000Y-6565000D01*
X12215000Y-6535000D02*
X12185000Y-6565000D01*
X12185000Y-6935000D02*
X12215000Y-6965000D01*
X12215000Y-6935000D02*
X12185000Y-6965000D01*
X12185000Y-7335000D02*
X12215000Y-7365000D01*
X12215000Y-7335000D02*
X12185000Y-7365000D01*
X12185000Y-8135000D02*
X12215000Y-8165000D01*
X12215000Y-8135000D02*
X12185000Y-8165000D01*
X12185000Y-8535000D02*
X12215000Y-8565000D01*
X12215000Y-8535000D02*
X12185000Y-8565000D01*
X12185000Y-9335000D02*
X12215000Y-9365000D01*
X12215000Y-9335000D02*
X12185000Y-9365000D01*
X12185000Y-12135000D02*
X12215000Y-12165000D01*
X12215000Y-12135000D02*
X12185000Y-12165000D01*
X12226690Y-10036780D02*
X12256690Y-10066780D01*
X12256690Y-10036780D02*
X12226690Y-10066780D01*
X12245100Y-10355650D02*
X12275100Y-10385650D01*
X12275100Y-10355650D02*
X12245100Y-10385650D01*
X12288330Y-8918500D02*
X12318330Y-8948500D01*
X12318330Y-8918500D02*
X12288330Y-8948500D01*
X12292500Y-10977500D02*
X12322500Y-11007500D01*
X12322500Y-10977500D02*
X12292500Y-11007500D01*
X12310000Y-11857500D02*
X12340000Y-11887500D01*
X12340000Y-11857500D02*
X12310000Y-11887500D01*
X12318378Y-10562854D02*
X12348378Y-10592854D01*
X12348378Y-10562854D02*
X12318378Y-10592854D01*
X12380000Y-11330000D02*
X12410000Y-11360000D01*
X12410000Y-11330000D02*
X12380000Y-11360000D01*
X12412521Y-10679978D02*
X12442521Y-10709978D01*
X12442521Y-10679978D02*
X12412521Y-10709978D01*
X12429367Y-8048000D02*
X12459367Y-8078000D01*
X12459367Y-8048000D02*
X12429367Y-8078000D01*
X12570000Y-8380000D02*
X12600000Y-8410000D01*
X12600000Y-8380000D02*
X12570000Y-8410000D01*
X12585000Y-4935000D02*
X12615000Y-4965000D01*
X12615000Y-4935000D02*
X12585000Y-4965000D01*
X12585000Y-5735000D02*
X12615000Y-5765000D01*
X12615000Y-5735000D02*
X12585000Y-5765000D01*
X12585000Y-6135000D02*
X12615000Y-6165000D01*
X12615000Y-6135000D02*
X12585000Y-6165000D01*
X12585000Y-6535000D02*
X12615000Y-6565000D01*
X12615000Y-6535000D02*
X12585000Y-6565000D01*
X12585000Y-6935000D02*
X12615000Y-6965000D01*
X12615000Y-6935000D02*
X12585000Y-6965000D01*
X12585000Y-9335000D02*
X12615000Y-9365000D01*
X12615000Y-9335000D02*
X12585000Y-9365000D01*
X12585000Y-10135000D02*
X12615000Y-10165000D01*
X12615000Y-10135000D02*
X12585000Y-10165000D01*
X12600000Y-6310000D02*
X12630000Y-6340000D01*
X12630000Y-6310000D02*
X12600000Y-6340000D01*
X12602500Y-12077500D02*
X12632500Y-12107500D01*
X12632500Y-12077500D02*
X12602500Y-12107500D01*
X12602500Y-12402500D02*
X12632500Y-12432500D01*
X12632500Y-12402500D02*
X12602500Y-12432500D01*
X12635000Y-13135000D02*
X12665000Y-13165000D01*
X12665000Y-13135000D02*
X12635000Y-13165000D01*
X12662500Y-12342500D02*
X12692500Y-12372500D01*
X12692500Y-12342500D02*
X12662500Y-12372500D01*
X12682478Y-12440021D02*
X12712478Y-12470021D01*
X12712478Y-12440021D02*
X12682478Y-12470021D01*
X12700000Y-6410000D02*
X12730000Y-6440000D01*
X12730000Y-6410000D02*
X12700000Y-6440000D01*
X12700000Y-11230000D02*
X12730000Y-11260000D01*
X12730000Y-11230000D02*
X12700000Y-11260000D01*
X12722500Y-10770000D02*
X12752500Y-10800000D01*
X12752500Y-10770000D02*
X12722500Y-10800000D01*
X12757500Y-8287500D02*
X12787500Y-8317500D01*
X12787500Y-8287500D02*
X12757500Y-8317500D01*
X12790000Y-11830000D02*
X12820000Y-11860000D01*
X12820000Y-11830000D02*
X12790000Y-11860000D01*
X12810000Y-11220000D02*
X12840000Y-11250000D01*
X12840000Y-11220000D02*
X12810000Y-11250000D01*
X12810000Y-11910000D02*
X12840000Y-11940000D01*
X12840000Y-11910000D02*
X12810000Y-11940000D01*
X12833780Y-9824610D02*
X12863780Y-9854610D01*
X12863780Y-9824610D02*
X12833780Y-9854610D01*
X12870000Y-9660000D02*
X12900000Y-9690000D01*
X12900000Y-9660000D02*
X12870000Y-9690000D01*
X12875000Y-9385000D02*
X12905000Y-9415000D01*
X12905000Y-9385000D02*
X12875000Y-9415000D01*
X12880000Y-10277500D02*
X12910000Y-10307500D01*
X12910000Y-10277500D02*
X12880000Y-10307500D01*
X12926032Y-10789652D02*
X12956032Y-10819652D01*
X12956032Y-10789652D02*
X12926032Y-10819652D01*
X12950000Y-12260000D02*
X12980000Y-12290000D01*
X12980000Y-12260000D02*
X12950000Y-12290000D01*
X12985000Y-4935000D02*
X13015000Y-4965000D01*
X13015000Y-4935000D02*
X12985000Y-4965000D01*
X12985000Y-6935000D02*
X13015000Y-6965000D01*
X13015000Y-6935000D02*
X12985000Y-6965000D01*
X12985000Y-7335000D02*
X13015000Y-7365000D01*
X13015000Y-7335000D02*
X12985000Y-7365000D01*
X12985000Y-8535000D02*
X13015000Y-8565000D01*
X13015000Y-8535000D02*
X12985000Y-8565000D01*
X12985000Y-12135000D02*
X13015000Y-12165000D01*
X13015000Y-12135000D02*
X12985000Y-12165000D01*
X12985000Y-12535000D02*
X13015000Y-12565000D01*
X13015000Y-12535000D02*
X12985000Y-12565000D01*
X12985000Y-12935000D02*
X13015000Y-12965000D01*
X13015000Y-12935000D02*
X12985000Y-12965000D01*
X13044844Y-10920156D02*
X13074844Y-10950156D01*
X13074844Y-10920156D02*
X13044844Y-10950156D01*
X13069840Y-10865000D02*
X13099840Y-10895000D01*
X13099840Y-10865000D02*
X13069840Y-10895000D01*
X13085000Y-11225000D02*
X13115000Y-11255000D01*
X13115000Y-11225000D02*
X13085000Y-11255000D01*
X13090000Y-10480000D02*
X13120000Y-10510000D01*
X13120000Y-10480000D02*
X13090000Y-10510000D01*
X13093768Y-13575000D02*
X13123768Y-13605000D01*
X13123768Y-13575000D02*
X13093768Y-13605000D01*
X13138960Y-9003750D02*
X13168960Y-9033750D01*
X13168960Y-9003750D02*
X13138960Y-9033750D01*
X13160000Y-11097500D02*
X13190000Y-11127500D01*
X13190000Y-11097500D02*
X13160000Y-11127500D01*
X13205870Y-8311590D02*
X13235870Y-8341590D01*
X13235870Y-8311590D02*
X13205870Y-8341590D01*
X13229000Y-7653000D02*
X13259000Y-7683000D01*
X13259000Y-7653000D02*
X13229000Y-7683000D01*
X13245000Y-9145000D02*
X13275000Y-9175000D01*
X13275000Y-9145000D02*
X13245000Y-9175000D01*
X13360000Y-8370000D02*
X13390000Y-8400000D01*
X13390000Y-8370000D02*
X13360000Y-8400000D01*
X13385000Y-4935000D02*
X13415000Y-4965000D01*
X13415000Y-4935000D02*
X13385000Y-4965000D01*
X13385000Y-6135000D02*
X13415000Y-6165000D01*
X13415000Y-6135000D02*
X13385000Y-6165000D01*
X13385000Y-6935000D02*
X13415000Y-6965000D01*
X13415000Y-6935000D02*
X13385000Y-6965000D01*
X13385000Y-7335000D02*
X13415000Y-7365000D01*
X13415000Y-7335000D02*
X13385000Y-7365000D01*
X13385000Y-10135000D02*
X13415000Y-10165000D01*
X13415000Y-10135000D02*
X13385000Y-10165000D01*
X13385000Y-10935000D02*
X13415000Y-10965000D01*
X13415000Y-10935000D02*
X13385000Y-10965000D01*
X13385000Y-11735000D02*
X13415000Y-11765000D01*
X13415000Y-11735000D02*
X13385000Y-11765000D01*
X13385000Y-13335000D02*
X13415000Y-13365000D01*
X13415000Y-13335000D02*
X13385000Y-13365000D01*
X13390000Y-10397500D02*
X13420000Y-10427500D01*
X13420000Y-10397500D02*
X13390000Y-10427500D01*
X13420000Y-8010000D02*
X13450000Y-8040000D01*
X13450000Y-8010000D02*
X13420000Y-8040000D01*
X13441220Y-11269970D02*
X13471220Y-11299970D01*
X13471220Y-11269970D02*
X13441220Y-11299970D01*
X13460000Y-9920000D02*
X13490000Y-9950000D01*
X13490000Y-9920000D02*
X13460000Y-9950000D01*
X13490000Y-10400000D02*
X13520000Y-10430000D01*
X13520000Y-10400000D02*
X13490000Y-10430000D01*
X13506250Y-11113500D02*
X13536250Y-11143500D01*
X13536250Y-11113500D02*
X13506250Y-11143500D01*
X13517500Y-8257430D02*
X13547500Y-8287430D01*
X13547500Y-8257430D02*
X13517500Y-8287430D01*
X13535000Y-9385000D02*
X13565000Y-9415000D01*
X13565000Y-9385000D02*
X13535000Y-9415000D01*
X13566250Y-11083500D02*
X13596250Y-11113500D01*
X13596250Y-11083500D02*
X13566250Y-11113500D01*
X13570000Y-10207500D02*
X13600000Y-10237500D01*
X13600000Y-10207500D02*
X13570000Y-10237500D01*
X13585625Y-11018499D02*
X13615625Y-11048499D01*
X13615625Y-11018499D02*
X13585625Y-11048499D01*
X13589320Y-9912833D02*
X13619320Y-9942833D01*
X13619320Y-9912833D02*
X13589320Y-9942833D01*
X13645000Y-8190000D02*
X13675000Y-8220000D01*
X13675000Y-8190000D02*
X13645000Y-8220000D01*
X13650000Y-10770000D02*
X13680000Y-10800000D01*
X13680000Y-10770000D02*
X13650000Y-10800000D01*
X13650000Y-10960000D02*
X13680000Y-10990000D01*
X13680000Y-10960000D02*
X13650000Y-10990000D01*
X13660000Y-7370000D02*
X13690000Y-7400000D01*
X13690000Y-7370000D02*
X13660000Y-7400000D01*
X13670000Y-10210000D02*
X13700000Y-10240000D01*
X13700000Y-10210000D02*
X13670000Y-10240000D01*
X13685750Y-11213430D02*
X13715750Y-11243430D01*
X13715750Y-11213430D02*
X13685750Y-11243430D01*
X13690000Y-8230000D02*
X13720000Y-8260000D01*
X13720000Y-8230000D02*
X13690000Y-8260000D01*
X13738010Y-8280000D02*
X13768010Y-8310000D01*
X13768010Y-8280000D02*
X13738010Y-8310000D01*
X13775000Y-8060000D02*
X13805000Y-8090000D01*
X13805000Y-8060000D02*
X13775000Y-8090000D01*
X13785000Y-4935000D02*
X13815000Y-4965000D01*
X13815000Y-4935000D02*
X13785000Y-4965000D01*
X13785000Y-5735000D02*
X13815000Y-5765000D01*
X13815000Y-5735000D02*
X13785000Y-5765000D01*
X13785000Y-6135000D02*
X13815000Y-6165000D01*
X13815000Y-6135000D02*
X13785000Y-6165000D01*
X13785000Y-11735000D02*
X13815000Y-11765000D01*
X13815000Y-11735000D02*
X13785000Y-11765000D01*
X13785000Y-12135000D02*
X13815000Y-12165000D01*
X13815000Y-12135000D02*
X13785000Y-12165000D01*
X13785000Y-12535000D02*
X13815000Y-12565000D01*
X13815000Y-12535000D02*
X13785000Y-12565000D01*
X13785000Y-13335000D02*
X13815000Y-13365000D01*
X13815000Y-13335000D02*
X13785000Y-13365000D01*
X13790000Y-8800000D02*
X13820000Y-8830000D01*
X13820000Y-8800000D02*
X13790000Y-8830000D01*
X14000000Y-9620000D02*
X14030000Y-9650000D01*
X14030000Y-9620000D02*
X14000000Y-9650000D01*
X14050060Y-12450640D02*
X14080060Y-12480640D01*
X14080060Y-12450640D02*
X14050060Y-12480640D01*
X14185000Y-4935000D02*
X14215000Y-4965000D01*
X14215000Y-4935000D02*
X14185000Y-4965000D01*
X14185000Y-6135000D02*
X14215000Y-6165000D01*
X14215000Y-6135000D02*
X14185000Y-6165000D01*
X14185000Y-6935000D02*
X14215000Y-6965000D01*
X14215000Y-6935000D02*
X14185000Y-6965000D01*
X14185000Y-7335000D02*
X14215000Y-7365000D01*
X14215000Y-7335000D02*
X14185000Y-7365000D01*
X14185000Y-8535000D02*
X14215000Y-8565000D01*
X14215000Y-8535000D02*
X14185000Y-8565000D01*
X14185000Y-8935000D02*
X14215000Y-8965000D01*
X14215000Y-8935000D02*
X14185000Y-8965000D01*
X14185000Y-9335000D02*
X14215000Y-9365000D01*
X14215000Y-9335000D02*
X14185000Y-9365000D01*
X14185000Y-9735000D02*
X14215000Y-9765000D01*
X14215000Y-9735000D02*
X14185000Y-9765000D01*
X14185000Y-10935000D02*
X14215000Y-10965000D01*
X14215000Y-10935000D02*
X14185000Y-10965000D01*
X14185000Y-11735000D02*
X14215000Y-11765000D01*
X14215000Y-11735000D02*
X14185000Y-11765000D01*
X14185000Y-12135000D02*
X14215000Y-12165000D01*
X14215000Y-12135000D02*
X14185000Y-12165000D01*
X14185000Y-12535000D02*
X14215000Y-12565000D01*
X14215000Y-12535000D02*
X14185000Y-12565000D01*
X14247500Y-11272500D02*
X14277500Y-11302500D01*
X14277500Y-11272500D02*
X14247500Y-11302500D01*
X8801950Y-11275000D02*
G75*
G02*
X8761950Y-11275000I-20000J0D01*
G01*
X8761950Y-11275000D02*
G75*
G02*
X8801950Y-11275000I20000J0D01*
G01*
X8875560Y-11615610D02*
G75*
G02*
X8835560Y-11615610I-20000J0D01*
G01*
X8835560Y-11615610D02*
G75*
G02*
X8875560Y-11615610I20000J0D01*
G01*
X10820000Y-13496030D02*
G75*
G02*
X10780000Y-13496030I-20000J0D01*
G01*
X10780000Y-13496030D02*
G75*
G02*
X10820000Y-13496030I20000J0D01*
G01*
X10970000Y-5280000D02*
G75*
G02*
X10930000Y-5280000I-20000J0D01*
G01*
X10930000Y-5280000D02*
G75*
G02*
X10970000Y-5280000I20000J0D01*
G01*
X11675060Y-11415120D02*
G75*
G02*
X11635060Y-11415120I-20000J0D01*
G01*
X11635060Y-11415120D02*
G75*
G02*
X11675060Y-11415120I20000J0D01*
G01*
X12407980Y-11243700D02*
G75*
G02*
X12367980Y-11243700I-20000J0D01*
G01*
X12367980Y-11243700D02*
G75*
G02*
X12407980Y-11243700I20000J0D01*
G01*
X12635340Y-13467330D02*
G75*
G02*
X12595340Y-13467330I-20000J0D01*
G01*
X12595340Y-13467330D02*
G75*
G02*
X12635340Y-13467330I20000J0D01*
G01*
X12873740Y-8544160D02*
G75*
G02*
X12833740Y-8544160I-20000J0D01*
G01*
X12833740Y-8544160D02*
G75*
G02*
X12873740Y-8544160I20000J0D01*
G01*
X12960120Y-8132600D02*
G75*
G02*
X12920120Y-8132600I-20000J0D01*
G01*
X12920120Y-8132600D02*
G75*
G02*
X12960120Y-8132600I20000J0D01*
G01*
X13165350Y-8722660D02*
G75*
G02*
X13125350Y-8722660I-20000J0D01*
G01*
X13125350Y-8722660D02*
G75*
G02*
X13165350Y-8722660I20000J0D01*
G01*
X13820740Y-9529600D02*
G75*
G02*
X13780740Y-9529600I-20000J0D01*
G01*
X13780740Y-9529600D02*
G75*
G02*
X13820740Y-9529600I20000J0D01*
G01*
X9850000Y-5212500D02*
X9850000Y-5287500D01*
X9812500Y-5250000D02*
X9887500Y-5250000D01*
X10050000Y-5212500D02*
X10050000Y-5287500D01*
X10012500Y-5250000D02*
X10087500Y-5250000D01*
X9549356Y-6015356D02*
X9549356Y-5944644D01*
X9478644Y-5944644D01*
X9478644Y-6015356D01*
X9549356Y-6015356D01*
X9549356Y-7793356D02*
X9549356Y-7722644D01*
X9478644Y-7722644D01*
X9478644Y-7793356D01*
X9549356Y-7793356D01*
X9803356Y-6015356D02*
X9803356Y-5944644D01*
X9732644Y-5944644D01*
X9732644Y-6015356D01*
X9803356Y-6015356D01*
X9803356Y-7793356D02*
X9803356Y-7722644D01*
X9732644Y-7722644D01*
X9732644Y-7793356D01*
X9803356Y-7793356D01*
X10057356Y-6015356D02*
X10057356Y-5944644D01*
X9986644Y-5944644D01*
X9986644Y-6015356D01*
X10057356Y-6015356D01*
X10057356Y-7793356D02*
X10057356Y-7722644D01*
X9986644Y-7722644D01*
X9986644Y-7793356D01*
X10057356Y-7793356D01*
X10311356Y-6015356D02*
X10311356Y-5944644D01*
X10240644Y-5944644D01*
X10240644Y-6015356D01*
X10311356Y-6015356D01*
X10311356Y-7793356D02*
X10311356Y-7722644D01*
X10240644Y-7722644D01*
X10240644Y-7793356D01*
X10311356Y-7793356D01*
X10565356Y-6015356D02*
X10565356Y-5944644D01*
X10494644Y-5944644D01*
X10494644Y-6015356D01*
X10565356Y-6015356D01*
X10565356Y-7793356D02*
X10565356Y-7722644D01*
X10494644Y-7722644D01*
X10494644Y-7793356D01*
X10565356Y-7793356D01*
X10819356Y-6015356D02*
X10819356Y-5944644D01*
X10748644Y-5944644D01*
X10748644Y-6015356D01*
X10819356Y-6015356D01*
X10819356Y-7793356D02*
X10819356Y-7722644D01*
X10748644Y-7722644D01*
X10748644Y-7793356D01*
X10819356Y-7793356D01*
X11073356Y-6015356D02*
X11073356Y-5944644D01*
X11002644Y-5944644D01*
X11002644Y-6015356D01*
X11073356Y-6015356D01*
X11073356Y-7793356D02*
X11073356Y-7722644D01*
X11002644Y-7722644D01*
X11002644Y-7793356D01*
X11073356Y-7793356D01*
X11327356Y-6015356D02*
X11327356Y-5944644D01*
X11256644Y-5944644D01*
X11256644Y-6015356D01*
X11327356Y-6015356D01*
X11327356Y-7793356D02*
X11327356Y-7722644D01*
X11256644Y-7722644D01*
X11256644Y-7793356D01*
X11327356Y-7793356D01*
X11581356Y-6015356D02*
X11581356Y-5944644D01*
X11510644Y-5944644D01*
X11510644Y-6015356D01*
X11581356Y-6015356D01*
X11581356Y-7793356D02*
X11581356Y-7722644D01*
X11510644Y-7722644D01*
X11510644Y-7793356D01*
X11581356Y-7793356D01*
X11655356Y-8785356D02*
X11655356Y-8714644D01*
X11584644Y-8714644D01*
X11584644Y-8785356D01*
X11655356Y-8785356D01*
X11835356Y-6015356D02*
X11835356Y-5944644D01*
X11764644Y-5944644D01*
X11764644Y-6015356D01*
X11835356Y-6015356D01*
X11835356Y-7793356D02*
X11835356Y-7722644D01*
X11764644Y-7722644D01*
X11764644Y-7793356D01*
X11835356Y-7793356D01*
X12089356Y-6015356D02*
X12089356Y-5944644D01*
X12018644Y-5944644D01*
X12018644Y-6015356D01*
X12089356Y-6015356D01*
X12089356Y-7793356D02*
X12089356Y-7722644D01*
X12018644Y-7722644D01*
X12018644Y-7793356D01*
X12089356Y-7793356D01*
X12155356Y-8785356D02*
X12155356Y-8714644D01*
X12084644Y-8714644D01*
X12084644Y-8785356D01*
X12155356Y-8785356D01*
X12343356Y-6015356D02*
X12343356Y-5944644D01*
X12272644Y-5944644D01*
X12272644Y-6015356D01*
X12343356Y-6015356D01*
X12343356Y-7793356D02*
X12343356Y-7722644D01*
X12272644Y-7722644D01*
X12272644Y-7793356D01*
X12343356Y-7793356D01*
X12581356Y-5235356D02*
X12581356Y-5164644D01*
X12510644Y-5164644D01*
X12510644Y-5235356D01*
X12581356Y-5235356D01*
X12597356Y-6015356D02*
X12597356Y-5944644D01*
X12526644Y-5944644D01*
X12526644Y-6015356D01*
X12597356Y-6015356D01*
X12597356Y-7793356D02*
X12597356Y-7722644D01*
X12526644Y-7722644D01*
X12526644Y-7793356D01*
X12597356Y-7793356D01*
X12835356Y-5235356D02*
X12835356Y-5164644D01*
X12764644Y-5164644D01*
X12764644Y-5235356D01*
X12835356Y-5235356D01*
X12851356Y-6015356D02*
X12851356Y-5944644D01*
X12780644Y-5944644D01*
X12780644Y-6015356D01*
X12851356Y-6015356D01*
X12851356Y-7793356D02*
X12851356Y-7722644D01*
X12780644Y-7722644D01*
X12780644Y-7793356D01*
X12851356Y-7793356D01*
X13089356Y-5235356D02*
X13089356Y-5164644D01*
X13018644Y-5164644D01*
X13018644Y-5235356D01*
X13089356Y-5235356D01*
X13105356Y-6015356D02*
X13105356Y-5944644D01*
X13034644Y-5944644D01*
X13034644Y-6015356D01*
X13105356Y-6015356D01*
X13105356Y-7793356D02*
X13105356Y-7722644D01*
X13034644Y-7722644D01*
X13034644Y-7793356D01*
X13105356Y-7793356D01*
X13359356Y-6015356D02*
X13359356Y-5944644D01*
X13288644Y-5944644D01*
X13288644Y-6015356D01*
X13359356Y-6015356D01*
X13359356Y-7793356D02*
X13359356Y-7722644D01*
X13288644Y-7722644D01*
X13288644Y-7793356D01*
X13359356Y-7793356D01*
X13613356Y-6015356D02*
X13613356Y-5944644D01*
X13542644Y-5944644D01*
X13542644Y-6015356D01*
X13613356Y-6015356D01*
X13613356Y-7793356D02*
X13613356Y-7722644D01*
X13542644Y-7722644D01*
X13542644Y-7793356D01*
X13613356Y-7793356D01*
X13867356Y-6015356D02*
X13867356Y-5944644D01*
X13796644Y-5944644D01*
X13796644Y-6015356D01*
X13867356Y-6015356D01*
X13867356Y-7793356D02*
X13867356Y-7722644D01*
X13796644Y-7722644D01*
X13796644Y-7793356D01*
X13867356Y-7793356D01*
X14121356Y-6015356D02*
X14121356Y-5944644D01*
X14050644Y-5944644D01*
X14050644Y-6015356D01*
X14121356Y-6015356D01*
X14121356Y-7793356D02*
X14121356Y-7722644D01*
X14050644Y-7722644D01*
X14050644Y-7793356D01*
X14121356Y-7793356D01*
X14375356Y-6015356D02*
X14375356Y-5944644D01*
X14304644Y-5944644D01*
X14304644Y-6015356D01*
X14375356Y-6015356D01*
X14375356Y-7793356D02*
X14375356Y-7722644D01*
X14304644Y-7722644D01*
X14304644Y-7793356D01*
X14375356Y-7793356D01*
D12*
X10080000Y-9895000D02*
X10175000Y-9800000D01*
X10080000Y-9705000D01*
X9985000Y-9800000D01*
X10080000Y-9895000D01*
X11400000Y-9895000D02*
X11495000Y-9800000D01*
X11400000Y-9705000D01*
X11305000Y-9800000D01*
X11400000Y-9895000D01*
D11*
X8705777Y-14116484D02*
X8705777Y-13916484D01*
X8705777Y-13916484D02*
X8753396Y-13916484D01*
X8753396Y-13916484D02*
X8781967Y-13926008D01*
X8781967Y-13926008D02*
X8801015Y-13945055D01*
X8801015Y-13945055D02*
X8810539Y-13964103D01*
X8810539Y-13964103D02*
X8820063Y-14002198D01*
X8820063Y-14002198D02*
X8820063Y-14030769D01*
X8820063Y-14030769D02*
X8810539Y-14068865D01*
X8810539Y-14068865D02*
X8801015Y-14087912D01*
X8801015Y-14087912D02*
X8781967Y-14106960D01*
X8781967Y-14106960D02*
X8753396Y-14116484D01*
X8753396Y-14116484D02*
X8705777Y-14116484D01*
X8905777Y-14116484D02*
X8905777Y-13983150D01*
X8905777Y-14021246D02*
X8915301Y-14002198D01*
X8915301Y-14002198D02*
X8924824Y-13992674D01*
X8924824Y-13992674D02*
X8943872Y-13983150D01*
X8943872Y-13983150D02*
X8962920Y-13983150D01*
X9029586Y-14116484D02*
X9029586Y-13983150D01*
X9029586Y-13916484D02*
X9020063Y-13926008D01*
X9020063Y-13926008D02*
X9029586Y-13935531D01*
X9029586Y-13935531D02*
X9039110Y-13926008D01*
X9039110Y-13926008D02*
X9029586Y-13916484D01*
X9029586Y-13916484D02*
X9029586Y-13935531D01*
X9153396Y-14116484D02*
X9134348Y-14106960D01*
X9134348Y-14106960D02*
X9124824Y-14087912D01*
X9124824Y-14087912D02*
X9124824Y-13916484D01*
X9258158Y-14116484D02*
X9239110Y-14106960D01*
X9239110Y-14106960D02*
X9229586Y-14087912D01*
X9229586Y-14087912D02*
X9229586Y-13916484D01*
X9486729Y-14116484D02*
X9486729Y-13916484D01*
X9486729Y-13916484D02*
X9553396Y-14059341D01*
X9553396Y-14059341D02*
X9620063Y-13916484D01*
X9620063Y-13916484D02*
X9620063Y-14116484D01*
X9801015Y-14116484D02*
X9801015Y-14011722D01*
X9801015Y-14011722D02*
X9791491Y-13992674D01*
X9791491Y-13992674D02*
X9772444Y-13983150D01*
X9772444Y-13983150D02*
X9734348Y-13983150D01*
X9734348Y-13983150D02*
X9715301Y-13992674D01*
X9801015Y-14106960D02*
X9781967Y-14116484D01*
X9781967Y-14116484D02*
X9734348Y-14116484D01*
X9734348Y-14116484D02*
X9715301Y-14106960D01*
X9715301Y-14106960D02*
X9705777Y-14087912D01*
X9705777Y-14087912D02*
X9705777Y-14068865D01*
X9705777Y-14068865D02*
X9715301Y-14049817D01*
X9715301Y-14049817D02*
X9734348Y-14040293D01*
X9734348Y-14040293D02*
X9781967Y-14040293D01*
X9781967Y-14040293D02*
X9801015Y-14030769D01*
X9896253Y-13983150D02*
X9896253Y-14183150D01*
X9896253Y-13992674D02*
X9915301Y-13983150D01*
X9915301Y-13983150D02*
X9953396Y-13983150D01*
X9953396Y-13983150D02*
X9972444Y-13992674D01*
X9972444Y-13992674D02*
X9981967Y-14002198D01*
X9981967Y-14002198D02*
X9991491Y-14021246D01*
X9991491Y-14021246D02*
X9991491Y-14078388D01*
X9991491Y-14078388D02*
X9981967Y-14097436D01*
X9981967Y-14097436D02*
X9972444Y-14106960D01*
X9972444Y-14106960D02*
X9953396Y-14116484D01*
X9953396Y-14116484D02*
X9915301Y-14116484D01*
X9915301Y-14116484D02*
X9896253Y-14106960D01*
X10077205Y-14097436D02*
X10086729Y-14106960D01*
X10086729Y-14106960D02*
X10077205Y-14116484D01*
X10077205Y-14116484D02*
X10067682Y-14106960D01*
X10067682Y-14106960D02*
X10077205Y-14097436D01*
X10077205Y-14097436D02*
X10077205Y-14116484D01*
X10077205Y-13992674D02*
X10086729Y-14002198D01*
X10086729Y-14002198D02*
X10077205Y-14011722D01*
X10077205Y-14011722D02*
X10067682Y-14002198D01*
X10067682Y-14002198D02*
X10077205Y-13992674D01*
X10077205Y-13992674D02*
X10077205Y-14011722D01*
D10*
X8415000Y-14430000D02*
X8445000Y-14460000D01*
X8445000Y-14430000D02*
X8415000Y-14460000D01*
D11*
X8743872Y-14336484D02*
X8762920Y-14336484D01*
X8762920Y-14336484D02*
X8781967Y-14346008D01*
X8781967Y-14346008D02*
X8791491Y-14355531D01*
X8791491Y-14355531D02*
X8801015Y-14374579D01*
X8801015Y-14374579D02*
X8810539Y-14412674D01*
X8810539Y-14412674D02*
X8810539Y-14460293D01*
X8810539Y-14460293D02*
X8801015Y-14498388D01*
X8801015Y-14498388D02*
X8791491Y-14517436D01*
X8791491Y-14517436D02*
X8781967Y-14526960D01*
X8781967Y-14526960D02*
X8762920Y-14536484D01*
X8762920Y-14536484D02*
X8743872Y-14536484D01*
X8743872Y-14536484D02*
X8724824Y-14526960D01*
X8724824Y-14526960D02*
X8715301Y-14517436D01*
X8715301Y-14517436D02*
X8705777Y-14498388D01*
X8705777Y-14498388D02*
X8696253Y-14460293D01*
X8696253Y-14460293D02*
X8696253Y-14412674D01*
X8696253Y-14412674D02*
X8705777Y-14374579D01*
X8705777Y-14374579D02*
X8715301Y-14355531D01*
X8715301Y-14355531D02*
X8724824Y-14346008D01*
X8724824Y-14346008D02*
X8743872Y-14336484D01*
X8896253Y-14517436D02*
X8905777Y-14526960D01*
X8905777Y-14526960D02*
X8896253Y-14536484D01*
X8896253Y-14536484D02*
X8886729Y-14526960D01*
X8886729Y-14526960D02*
X8896253Y-14517436D01*
X8896253Y-14517436D02*
X8896253Y-14536484D01*
X8972444Y-14336484D02*
X9096253Y-14336484D01*
X9096253Y-14336484D02*
X9029586Y-14412674D01*
X9029586Y-14412674D02*
X9058158Y-14412674D01*
X9058158Y-14412674D02*
X9077205Y-14422198D01*
X9077205Y-14422198D02*
X9086729Y-14431722D01*
X9086729Y-14431722D02*
X9096253Y-14450769D01*
X9096253Y-14450769D02*
X9096253Y-14498388D01*
X9096253Y-14498388D02*
X9086729Y-14517436D01*
X9086729Y-14517436D02*
X9077205Y-14526960D01*
X9077205Y-14526960D02*
X9058158Y-14536484D01*
X9058158Y-14536484D02*
X9001015Y-14536484D01*
X9001015Y-14536484D02*
X8981967Y-14526960D01*
X8981967Y-14526960D02*
X8972444Y-14517436D01*
X9220063Y-14336484D02*
X9239110Y-14336484D01*
X9239110Y-14336484D02*
X9258158Y-14346008D01*
X9258158Y-14346008D02*
X9267682Y-14355531D01*
X9267682Y-14355531D02*
X9277205Y-14374579D01*
X9277205Y-14374579D02*
X9286729Y-14412674D01*
X9286729Y-14412674D02*
X9286729Y-14460293D01*
X9286729Y-14460293D02*
X9277205Y-14498388D01*
X9277205Y-14498388D02*
X9267682Y-14517436D01*
X9267682Y-14517436D02*
X9258158Y-14526960D01*
X9258158Y-14526960D02*
X9239110Y-14536484D01*
X9239110Y-14536484D02*
X9220063Y-14536484D01*
X9220063Y-14536484D02*
X9201015Y-14526960D01*
X9201015Y-14526960D02*
X9191491Y-14517436D01*
X9191491Y-14517436D02*
X9181967Y-14498388D01*
X9181967Y-14498388D02*
X9172444Y-14460293D01*
X9172444Y-14460293D02*
X9172444Y-14412674D01*
X9172444Y-14412674D02*
X9181967Y-14374579D01*
X9181967Y-14374579D02*
X9191491Y-14355531D01*
X9191491Y-14355531D02*
X9201015Y-14346008D01*
X9201015Y-14346008D02*
X9220063Y-14336484D01*
X9410539Y-14336484D02*
X9429586Y-14336484D01*
X9429586Y-14336484D02*
X9448634Y-14346008D01*
X9448634Y-14346008D02*
X9458158Y-14355531D01*
X9458158Y-14355531D02*
X9467682Y-14374579D01*
X9467682Y-14374579D02*
X9477205Y-14412674D01*
X9477205Y-14412674D02*
X9477205Y-14460293D01*
X9477205Y-14460293D02*
X9467682Y-14498388D01*
X9467682Y-14498388D02*
X9458158Y-14517436D01*
X9458158Y-14517436D02*
X9448634Y-14526960D01*
X9448634Y-14526960D02*
X9429586Y-14536484D01*
X9429586Y-14536484D02*
X9410539Y-14536484D01*
X9410539Y-14536484D02*
X9391491Y-14526960D01*
X9391491Y-14526960D02*
X9381967Y-14517436D01*
X9381967Y-14517436D02*
X9372444Y-14498388D01*
X9372444Y-14498388D02*
X9362920Y-14460293D01*
X9362920Y-14460293D02*
X9362920Y-14412674D01*
X9362920Y-14412674D02*
X9372444Y-14374579D01*
X9372444Y-14374579D02*
X9381967Y-14355531D01*
X9381967Y-14355531D02*
X9391491Y-14346008D01*
X9391491Y-14346008D02*
X9410539Y-14336484D01*
X9562920Y-14536484D02*
X9562920Y-14403150D01*
X9562920Y-14422198D02*
X9572444Y-14412674D01*
X9572444Y-14412674D02*
X9591491Y-14403150D01*
X9591491Y-14403150D02*
X9620063Y-14403150D01*
X9620063Y-14403150D02*
X9639110Y-14412674D01*
X9639110Y-14412674D02*
X9648634Y-14431722D01*
X9648634Y-14431722D02*
X9648634Y-14536484D01*
X9648634Y-14431722D02*
X9658158Y-14412674D01*
X9658158Y-14412674D02*
X9677205Y-14403150D01*
X9677205Y-14403150D02*
X9705777Y-14403150D01*
X9705777Y-14403150D02*
X9724825Y-14412674D01*
X9724825Y-14412674D02*
X9734348Y-14431722D01*
X9734348Y-14431722D02*
X9734348Y-14536484D01*
X9829586Y-14536484D02*
X9829586Y-14403150D01*
X9829586Y-14422198D02*
X9839110Y-14412674D01*
X9839110Y-14412674D02*
X9858158Y-14403150D01*
X9858158Y-14403150D02*
X9886729Y-14403150D01*
X9886729Y-14403150D02*
X9905777Y-14412674D01*
X9905777Y-14412674D02*
X9915301Y-14431722D01*
X9915301Y-14431722D02*
X9915301Y-14536484D01*
X9915301Y-14431722D02*
X9924825Y-14412674D01*
X9924825Y-14412674D02*
X9943872Y-14403150D01*
X9943872Y-14403150D02*
X9972444Y-14403150D01*
X9972444Y-14403150D02*
X9991491Y-14412674D01*
X9991491Y-14412674D02*
X10001015Y-14431722D01*
X10001015Y-14431722D02*
X10001015Y-14536484D01*
X10391491Y-14326960D02*
X10220063Y-14584103D01*
X10648634Y-14336484D02*
X10667682Y-14336484D01*
X10667682Y-14336484D02*
X10686729Y-14346008D01*
X10686729Y-14346008D02*
X10696253Y-14355531D01*
X10696253Y-14355531D02*
X10705777Y-14374579D01*
X10705777Y-14374579D02*
X10715301Y-14412674D01*
X10715301Y-14412674D02*
X10715301Y-14460293D01*
X10715301Y-14460293D02*
X10705777Y-14498388D01*
X10705777Y-14498388D02*
X10696253Y-14517436D01*
X10696253Y-14517436D02*
X10686729Y-14526960D01*
X10686729Y-14526960D02*
X10667682Y-14536484D01*
X10667682Y-14536484D02*
X10648634Y-14536484D01*
X10648634Y-14536484D02*
X10629587Y-14526960D01*
X10629587Y-14526960D02*
X10620063Y-14517436D01*
X10620063Y-14517436D02*
X10610539Y-14498388D01*
X10610539Y-14498388D02*
X10601015Y-14460293D01*
X10601015Y-14460293D02*
X10601015Y-14412674D01*
X10601015Y-14412674D02*
X10610539Y-14374579D01*
X10610539Y-14374579D02*
X10620063Y-14355531D01*
X10620063Y-14355531D02*
X10629587Y-14346008D01*
X10629587Y-14346008D02*
X10648634Y-14336484D01*
X10801015Y-14517436D02*
X10810539Y-14526960D01*
X10810539Y-14526960D02*
X10801015Y-14536484D01*
X10801015Y-14536484D02*
X10791491Y-14526960D01*
X10791491Y-14526960D02*
X10801015Y-14517436D01*
X10801015Y-14517436D02*
X10801015Y-14536484D01*
X10934348Y-14336484D02*
X10953396Y-14336484D01*
X10953396Y-14336484D02*
X10972444Y-14346008D01*
X10972444Y-14346008D02*
X10981968Y-14355531D01*
X10981968Y-14355531D02*
X10991491Y-14374579D01*
X10991491Y-14374579D02*
X11001015Y-14412674D01*
X11001015Y-14412674D02*
X11001015Y-14460293D01*
X11001015Y-14460293D02*
X10991491Y-14498388D01*
X10991491Y-14498388D02*
X10981968Y-14517436D01*
X10981968Y-14517436D02*
X10972444Y-14526960D01*
X10972444Y-14526960D02*
X10953396Y-14536484D01*
X10953396Y-14536484D02*
X10934348Y-14536484D01*
X10934348Y-14536484D02*
X10915301Y-14526960D01*
X10915301Y-14526960D02*
X10905777Y-14517436D01*
X10905777Y-14517436D02*
X10896253Y-14498388D01*
X10896253Y-14498388D02*
X10886729Y-14460293D01*
X10886729Y-14460293D02*
X10886729Y-14412674D01*
X10886729Y-14412674D02*
X10896253Y-14374579D01*
X10896253Y-14374579D02*
X10905777Y-14355531D01*
X10905777Y-14355531D02*
X10915301Y-14346008D01*
X10915301Y-14346008D02*
X10934348Y-14336484D01*
X11191491Y-14536484D02*
X11077206Y-14536484D01*
X11134348Y-14536484D02*
X11134348Y-14336484D01*
X11134348Y-14336484D02*
X11115301Y-14365055D01*
X11115301Y-14365055D02*
X11096253Y-14384103D01*
X11096253Y-14384103D02*
X11077206Y-14393627D01*
X11381967Y-14536484D02*
X11267682Y-14536484D01*
X11324825Y-14536484D02*
X11324825Y-14336484D01*
X11324825Y-14336484D02*
X11305777Y-14365055D01*
X11305777Y-14365055D02*
X11286729Y-14384103D01*
X11286729Y-14384103D02*
X11267682Y-14393627D01*
X11496253Y-14422198D02*
X11477206Y-14412674D01*
X11477206Y-14412674D02*
X11467682Y-14403150D01*
X11467682Y-14403150D02*
X11458158Y-14384103D01*
X11458158Y-14384103D02*
X11458158Y-14374579D01*
X11458158Y-14374579D02*
X11467682Y-14355531D01*
X11467682Y-14355531D02*
X11477206Y-14346008D01*
X11477206Y-14346008D02*
X11496253Y-14336484D01*
X11496253Y-14336484D02*
X11534348Y-14336484D01*
X11534348Y-14336484D02*
X11553396Y-14346008D01*
X11553396Y-14346008D02*
X11562920Y-14355531D01*
X11562920Y-14355531D02*
X11572444Y-14374579D01*
X11572444Y-14374579D02*
X11572444Y-14384103D01*
X11572444Y-14384103D02*
X11562920Y-14403150D01*
X11562920Y-14403150D02*
X11553396Y-14412674D01*
X11553396Y-14412674D02*
X11534348Y-14422198D01*
X11534348Y-14422198D02*
X11496253Y-14422198D01*
X11496253Y-14422198D02*
X11477206Y-14431722D01*
X11477206Y-14431722D02*
X11467682Y-14441246D01*
X11467682Y-14441246D02*
X11458158Y-14460293D01*
X11458158Y-14460293D02*
X11458158Y-14498388D01*
X11458158Y-14498388D02*
X11467682Y-14517436D01*
X11467682Y-14517436D02*
X11477206Y-14526960D01*
X11477206Y-14526960D02*
X11496253Y-14536484D01*
X11496253Y-14536484D02*
X11534348Y-14536484D01*
X11534348Y-14536484D02*
X11553396Y-14526960D01*
X11553396Y-14526960D02*
X11562920Y-14517436D01*
X11562920Y-14517436D02*
X11572444Y-14498388D01*
X11572444Y-14498388D02*
X11572444Y-14460293D01*
X11572444Y-14460293D02*
X11562920Y-14441246D01*
X11562920Y-14441246D02*
X11553396Y-14431722D01*
X11553396Y-14431722D02*
X11534348Y-14422198D01*
X11648634Y-14336484D02*
X11648634Y-14374579D01*
X11724825Y-14336484D02*
X11724825Y-14374579D01*
X12020063Y-14612674D02*
X12010539Y-14603150D01*
X12010539Y-14603150D02*
X11991491Y-14574579D01*
X11991491Y-14574579D02*
X11981968Y-14555531D01*
X11981968Y-14555531D02*
X11972444Y-14526960D01*
X11972444Y-14526960D02*
X11962920Y-14479341D01*
X11962920Y-14479341D02*
X11962920Y-14441246D01*
X11962920Y-14441246D02*
X11972444Y-14393627D01*
X11972444Y-14393627D02*
X11981968Y-14365055D01*
X11981968Y-14365055D02*
X11991491Y-14346008D01*
X11991491Y-14346008D02*
X12010539Y-14317436D01*
X12010539Y-14317436D02*
X12020063Y-14307912D01*
X12077206Y-14336484D02*
X12201015Y-14336484D01*
X12201015Y-14336484D02*
X12134348Y-14412674D01*
X12134348Y-14412674D02*
X12162920Y-14412674D01*
X12162920Y-14412674D02*
X12181968Y-14422198D01*
X12181968Y-14422198D02*
X12191491Y-14431722D01*
X12191491Y-14431722D02*
X12201015Y-14450769D01*
X12201015Y-14450769D02*
X12201015Y-14498388D01*
X12201015Y-14498388D02*
X12191491Y-14517436D01*
X12191491Y-14517436D02*
X12181968Y-14526960D01*
X12181968Y-14526960D02*
X12162920Y-14536484D01*
X12162920Y-14536484D02*
X12105777Y-14536484D01*
X12105777Y-14536484D02*
X12086729Y-14526960D01*
X12086729Y-14526960D02*
X12077206Y-14517436D01*
X12391491Y-14536484D02*
X12277206Y-14536484D01*
X12334348Y-14536484D02*
X12334348Y-14336484D01*
X12334348Y-14336484D02*
X12315301Y-14365055D01*
X12315301Y-14365055D02*
X12296253Y-14384103D01*
X12296253Y-14384103D02*
X12277206Y-14393627D01*
X12562920Y-14336484D02*
X12524825Y-14336484D01*
X12524825Y-14336484D02*
X12505777Y-14346008D01*
X12505777Y-14346008D02*
X12496253Y-14355531D01*
X12496253Y-14355531D02*
X12477206Y-14384103D01*
X12477206Y-14384103D02*
X12467682Y-14422198D01*
X12467682Y-14422198D02*
X12467682Y-14498388D01*
X12467682Y-14498388D02*
X12477206Y-14517436D01*
X12477206Y-14517436D02*
X12486729Y-14526960D01*
X12486729Y-14526960D02*
X12505777Y-14536484D01*
X12505777Y-14536484D02*
X12543872Y-14536484D01*
X12543872Y-14536484D02*
X12562920Y-14526960D01*
X12562920Y-14526960D02*
X12572444Y-14517436D01*
X12572444Y-14517436D02*
X12581968Y-14498388D01*
X12581968Y-14498388D02*
X12581968Y-14450769D01*
X12581968Y-14450769D02*
X12572444Y-14431722D01*
X12572444Y-14431722D02*
X12562920Y-14422198D01*
X12562920Y-14422198D02*
X12543872Y-14412674D01*
X12543872Y-14412674D02*
X12505777Y-14412674D01*
X12505777Y-14412674D02*
X12486729Y-14422198D01*
X12486729Y-14422198D02*
X12477206Y-14431722D01*
X12477206Y-14431722D02*
X12467682Y-14450769D01*
X12820063Y-14536484D02*
X12820063Y-14336484D01*
X12905777Y-14536484D02*
X12905777Y-14431722D01*
X12905777Y-14431722D02*
X12896253Y-14412674D01*
X12896253Y-14412674D02*
X12877206Y-14403150D01*
X12877206Y-14403150D02*
X12848634Y-14403150D01*
X12848634Y-14403150D02*
X12829587Y-14412674D01*
X12829587Y-14412674D02*
X12820063Y-14422198D01*
X13029587Y-14536484D02*
X13010539Y-14526960D01*
X13010539Y-14526960D02*
X13001015Y-14517436D01*
X13001015Y-14517436D02*
X12991491Y-14498388D01*
X12991491Y-14498388D02*
X12991491Y-14441246D01*
X12991491Y-14441246D02*
X13001015Y-14422198D01*
X13001015Y-14422198D02*
X13010539Y-14412674D01*
X13010539Y-14412674D02*
X13029587Y-14403150D01*
X13029587Y-14403150D02*
X13058158Y-14403150D01*
X13058158Y-14403150D02*
X13077206Y-14412674D01*
X13077206Y-14412674D02*
X13086730Y-14422198D01*
X13086730Y-14422198D02*
X13096253Y-14441246D01*
X13096253Y-14441246D02*
X13096253Y-14498388D01*
X13096253Y-14498388D02*
X13086730Y-14517436D01*
X13086730Y-14517436D02*
X13077206Y-14526960D01*
X13077206Y-14526960D02*
X13058158Y-14536484D01*
X13058158Y-14536484D02*
X13029587Y-14536484D01*
X13210539Y-14536484D02*
X13191491Y-14526960D01*
X13191491Y-14526960D02*
X13181968Y-14507912D01*
X13181968Y-14507912D02*
X13181968Y-14336484D01*
X13362920Y-14526960D02*
X13343872Y-14536484D01*
X13343872Y-14536484D02*
X13305777Y-14536484D01*
X13305777Y-14536484D02*
X13286730Y-14526960D01*
X13286730Y-14526960D02*
X13277206Y-14507912D01*
X13277206Y-14507912D02*
X13277206Y-14431722D01*
X13277206Y-14431722D02*
X13286730Y-14412674D01*
X13286730Y-14412674D02*
X13305777Y-14403150D01*
X13305777Y-14403150D02*
X13343872Y-14403150D01*
X13343872Y-14403150D02*
X13362920Y-14412674D01*
X13362920Y-14412674D02*
X13372444Y-14431722D01*
X13372444Y-14431722D02*
X13372444Y-14450769D01*
X13372444Y-14450769D02*
X13277206Y-14469817D01*
X13448634Y-14526960D02*
X13467682Y-14536484D01*
X13467682Y-14536484D02*
X13505777Y-14536484D01*
X13505777Y-14536484D02*
X13524825Y-14526960D01*
X13524825Y-14526960D02*
X13534349Y-14507912D01*
X13534349Y-14507912D02*
X13534349Y-14498388D01*
X13534349Y-14498388D02*
X13524825Y-14479341D01*
X13524825Y-14479341D02*
X13505777Y-14469817D01*
X13505777Y-14469817D02*
X13477206Y-14469817D01*
X13477206Y-14469817D02*
X13458158Y-14460293D01*
X13458158Y-14460293D02*
X13448634Y-14441246D01*
X13448634Y-14441246D02*
X13448634Y-14431722D01*
X13448634Y-14431722D02*
X13458158Y-14412674D01*
X13458158Y-14412674D02*
X13477206Y-14403150D01*
X13477206Y-14403150D02*
X13505777Y-14403150D01*
X13505777Y-14403150D02*
X13524825Y-14412674D01*
X13601015Y-14612674D02*
X13610539Y-14603150D01*
X13610539Y-14603150D02*
X13629587Y-14574579D01*
X13629587Y-14574579D02*
X13639111Y-14555531D01*
X13639111Y-14555531D02*
X13648634Y-14526960D01*
X13648634Y-14526960D02*
X13658158Y-14479341D01*
X13658158Y-14479341D02*
X13658158Y-14441246D01*
X13658158Y-14441246D02*
X13648634Y-14393627D01*
X13648634Y-14393627D02*
X13639111Y-14365055D01*
X13639111Y-14365055D02*
X13629587Y-14346008D01*
X13629587Y-14346008D02*
X13610539Y-14317436D01*
X13610539Y-14317436D02*
X13601015Y-14307912D01*
D10*
X8445000Y-14709000D02*
G75*
G02*
X8405000Y-14709000I-20000J0D01*
G01*
X8405000Y-14709000D02*
G75*
G02*
X8445000Y-14709000I20000J0D01*
G01*
D11*
X8743872Y-14600484D02*
X8762920Y-14600484D01*
X8762920Y-14600484D02*
X8781967Y-14610008D01*
X8781967Y-14610008D02*
X8791491Y-14619531D01*
X8791491Y-14619531D02*
X8801015Y-14638579D01*
X8801015Y-14638579D02*
X8810539Y-14676674D01*
X8810539Y-14676674D02*
X8810539Y-14724293D01*
X8810539Y-14724293D02*
X8801015Y-14762388D01*
X8801015Y-14762388D02*
X8791491Y-14781436D01*
X8791491Y-14781436D02*
X8781967Y-14790960D01*
X8781967Y-14790960D02*
X8762920Y-14800484D01*
X8762920Y-14800484D02*
X8743872Y-14800484D01*
X8743872Y-14800484D02*
X8724824Y-14790960D01*
X8724824Y-14790960D02*
X8715301Y-14781436D01*
X8715301Y-14781436D02*
X8705777Y-14762388D01*
X8705777Y-14762388D02*
X8696253Y-14724293D01*
X8696253Y-14724293D02*
X8696253Y-14676674D01*
X8696253Y-14676674D02*
X8705777Y-14638579D01*
X8705777Y-14638579D02*
X8715301Y-14619531D01*
X8715301Y-14619531D02*
X8724824Y-14610008D01*
X8724824Y-14610008D02*
X8743872Y-14600484D01*
X8896253Y-14781436D02*
X8905777Y-14790960D01*
X8905777Y-14790960D02*
X8896253Y-14800484D01*
X8896253Y-14800484D02*
X8886729Y-14790960D01*
X8886729Y-14790960D02*
X8896253Y-14781436D01*
X8896253Y-14781436D02*
X8896253Y-14800484D01*
X9077205Y-14667150D02*
X9077205Y-14800484D01*
X9029586Y-14590960D02*
X8981967Y-14733817D01*
X8981967Y-14733817D02*
X9105777Y-14733817D01*
X9220063Y-14600484D02*
X9239110Y-14600484D01*
X9239110Y-14600484D02*
X9258158Y-14610008D01*
X9258158Y-14610008D02*
X9267682Y-14619531D01*
X9267682Y-14619531D02*
X9277205Y-14638579D01*
X9277205Y-14638579D02*
X9286729Y-14676674D01*
X9286729Y-14676674D02*
X9286729Y-14724293D01*
X9286729Y-14724293D02*
X9277205Y-14762388D01*
X9277205Y-14762388D02*
X9267682Y-14781436D01*
X9267682Y-14781436D02*
X9258158Y-14790960D01*
X9258158Y-14790960D02*
X9239110Y-14800484D01*
X9239110Y-14800484D02*
X9220063Y-14800484D01*
X9220063Y-14800484D02*
X9201015Y-14790960D01*
X9201015Y-14790960D02*
X9191491Y-14781436D01*
X9191491Y-14781436D02*
X9181967Y-14762388D01*
X9181967Y-14762388D02*
X9172444Y-14724293D01*
X9172444Y-14724293D02*
X9172444Y-14676674D01*
X9172444Y-14676674D02*
X9181967Y-14638579D01*
X9181967Y-14638579D02*
X9191491Y-14619531D01*
X9191491Y-14619531D02*
X9201015Y-14610008D01*
X9201015Y-14610008D02*
X9220063Y-14600484D01*
X9410539Y-14600484D02*
X9429586Y-14600484D01*
X9429586Y-14600484D02*
X9448634Y-14610008D01*
X9448634Y-14610008D02*
X9458158Y-14619531D01*
X9458158Y-14619531D02*
X9467682Y-14638579D01*
X9467682Y-14638579D02*
X9477205Y-14676674D01*
X9477205Y-14676674D02*
X9477205Y-14724293D01*
X9477205Y-14724293D02*
X9467682Y-14762388D01*
X9467682Y-14762388D02*
X9458158Y-14781436D01*
X9458158Y-14781436D02*
X9448634Y-14790960D01*
X9448634Y-14790960D02*
X9429586Y-14800484D01*
X9429586Y-14800484D02*
X9410539Y-14800484D01*
X9410539Y-14800484D02*
X9391491Y-14790960D01*
X9391491Y-14790960D02*
X9381967Y-14781436D01*
X9381967Y-14781436D02*
X9372444Y-14762388D01*
X9372444Y-14762388D02*
X9362920Y-14724293D01*
X9362920Y-14724293D02*
X9362920Y-14676674D01*
X9362920Y-14676674D02*
X9372444Y-14638579D01*
X9372444Y-14638579D02*
X9381967Y-14619531D01*
X9381967Y-14619531D02*
X9391491Y-14610008D01*
X9391491Y-14610008D02*
X9410539Y-14600484D01*
X9562920Y-14800484D02*
X9562920Y-14667150D01*
X9562920Y-14686198D02*
X9572444Y-14676674D01*
X9572444Y-14676674D02*
X9591491Y-14667150D01*
X9591491Y-14667150D02*
X9620063Y-14667150D01*
X9620063Y-14667150D02*
X9639110Y-14676674D01*
X9639110Y-14676674D02*
X9648634Y-14695722D01*
X9648634Y-14695722D02*
X9648634Y-14800484D01*
X9648634Y-14695722D02*
X9658158Y-14676674D01*
X9658158Y-14676674D02*
X9677205Y-14667150D01*
X9677205Y-14667150D02*
X9705777Y-14667150D01*
X9705777Y-14667150D02*
X9724825Y-14676674D01*
X9724825Y-14676674D02*
X9734348Y-14695722D01*
X9734348Y-14695722D02*
X9734348Y-14800484D01*
X9829586Y-14800484D02*
X9829586Y-14667150D01*
X9829586Y-14686198D02*
X9839110Y-14676674D01*
X9839110Y-14676674D02*
X9858158Y-14667150D01*
X9858158Y-14667150D02*
X9886729Y-14667150D01*
X9886729Y-14667150D02*
X9905777Y-14676674D01*
X9905777Y-14676674D02*
X9915301Y-14695722D01*
X9915301Y-14695722D02*
X9915301Y-14800484D01*
X9915301Y-14695722D02*
X9924825Y-14676674D01*
X9924825Y-14676674D02*
X9943872Y-14667150D01*
X9943872Y-14667150D02*
X9972444Y-14667150D01*
X9972444Y-14667150D02*
X9991491Y-14676674D01*
X9991491Y-14676674D02*
X10001015Y-14695722D01*
X10001015Y-14695722D02*
X10001015Y-14800484D01*
X10391491Y-14590960D02*
X10220063Y-14848103D01*
X10648634Y-14600484D02*
X10667682Y-14600484D01*
X10667682Y-14600484D02*
X10686729Y-14610008D01*
X10686729Y-14610008D02*
X10696253Y-14619531D01*
X10696253Y-14619531D02*
X10705777Y-14638579D01*
X10705777Y-14638579D02*
X10715301Y-14676674D01*
X10715301Y-14676674D02*
X10715301Y-14724293D01*
X10715301Y-14724293D02*
X10705777Y-14762388D01*
X10705777Y-14762388D02*
X10696253Y-14781436D01*
X10696253Y-14781436D02*
X10686729Y-14790960D01*
X10686729Y-14790960D02*
X10667682Y-14800484D01*
X10667682Y-14800484D02*
X10648634Y-14800484D01*
X10648634Y-14800484D02*
X10629587Y-14790960D01*
X10629587Y-14790960D02*
X10620063Y-14781436D01*
X10620063Y-14781436D02*
X10610539Y-14762388D01*
X10610539Y-14762388D02*
X10601015Y-14724293D01*
X10601015Y-14724293D02*
X10601015Y-14676674D01*
X10601015Y-14676674D02*
X10610539Y-14638579D01*
X10610539Y-14638579D02*
X10620063Y-14619531D01*
X10620063Y-14619531D02*
X10629587Y-14610008D01*
X10629587Y-14610008D02*
X10648634Y-14600484D01*
X10801015Y-14781436D02*
X10810539Y-14790960D01*
X10810539Y-14790960D02*
X10801015Y-14800484D01*
X10801015Y-14800484D02*
X10791491Y-14790960D01*
X10791491Y-14790960D02*
X10801015Y-14781436D01*
X10801015Y-14781436D02*
X10801015Y-14800484D01*
X10934348Y-14600484D02*
X10953396Y-14600484D01*
X10953396Y-14600484D02*
X10972444Y-14610008D01*
X10972444Y-14610008D02*
X10981968Y-14619531D01*
X10981968Y-14619531D02*
X10991491Y-14638579D01*
X10991491Y-14638579D02*
X11001015Y-14676674D01*
X11001015Y-14676674D02*
X11001015Y-14724293D01*
X11001015Y-14724293D02*
X10991491Y-14762388D01*
X10991491Y-14762388D02*
X10981968Y-14781436D01*
X10981968Y-14781436D02*
X10972444Y-14790960D01*
X10972444Y-14790960D02*
X10953396Y-14800484D01*
X10953396Y-14800484D02*
X10934348Y-14800484D01*
X10934348Y-14800484D02*
X10915301Y-14790960D01*
X10915301Y-14790960D02*
X10905777Y-14781436D01*
X10905777Y-14781436D02*
X10896253Y-14762388D01*
X10896253Y-14762388D02*
X10886729Y-14724293D01*
X10886729Y-14724293D02*
X10886729Y-14676674D01*
X10886729Y-14676674D02*
X10896253Y-14638579D01*
X10896253Y-14638579D02*
X10905777Y-14619531D01*
X10905777Y-14619531D02*
X10915301Y-14610008D01*
X10915301Y-14610008D02*
X10934348Y-14600484D01*
X11191491Y-14800484D02*
X11077206Y-14800484D01*
X11134348Y-14800484D02*
X11134348Y-14600484D01*
X11134348Y-14600484D02*
X11115301Y-14629055D01*
X11115301Y-14629055D02*
X11096253Y-14648103D01*
X11096253Y-14648103D02*
X11077206Y-14657627D01*
X11372444Y-14600484D02*
X11277206Y-14600484D01*
X11277206Y-14600484D02*
X11267682Y-14695722D01*
X11267682Y-14695722D02*
X11277206Y-14686198D01*
X11277206Y-14686198D02*
X11296253Y-14676674D01*
X11296253Y-14676674D02*
X11343872Y-14676674D01*
X11343872Y-14676674D02*
X11362920Y-14686198D01*
X11362920Y-14686198D02*
X11372444Y-14695722D01*
X11372444Y-14695722D02*
X11381967Y-14714769D01*
X11381967Y-14714769D02*
X11381967Y-14762388D01*
X11381967Y-14762388D02*
X11372444Y-14781436D01*
X11372444Y-14781436D02*
X11362920Y-14790960D01*
X11362920Y-14790960D02*
X11343872Y-14800484D01*
X11343872Y-14800484D02*
X11296253Y-14800484D01*
X11296253Y-14800484D02*
X11277206Y-14790960D01*
X11277206Y-14790960D02*
X11267682Y-14781436D01*
X11448634Y-14600484D02*
X11581967Y-14600484D01*
X11581967Y-14600484D02*
X11496253Y-14800484D01*
X11648634Y-14600484D02*
X11648634Y-14638579D01*
X11724825Y-14600484D02*
X11724825Y-14638579D01*
X12020063Y-14876674D02*
X12010539Y-14867150D01*
X12010539Y-14867150D02*
X11991491Y-14838579D01*
X11991491Y-14838579D02*
X11981968Y-14819531D01*
X11981968Y-14819531D02*
X11972444Y-14790960D01*
X11972444Y-14790960D02*
X11962920Y-14743341D01*
X11962920Y-14743341D02*
X11962920Y-14705246D01*
X11962920Y-14705246D02*
X11972444Y-14657627D01*
X11972444Y-14657627D02*
X11981968Y-14629055D01*
X11981968Y-14629055D02*
X11991491Y-14610008D01*
X11991491Y-14610008D02*
X12010539Y-14581436D01*
X12010539Y-14581436D02*
X12020063Y-14571912D01*
X12201015Y-14800484D02*
X12086729Y-14800484D01*
X12143872Y-14800484D02*
X12143872Y-14600484D01*
X12143872Y-14600484D02*
X12124825Y-14629055D01*
X12124825Y-14629055D02*
X12105777Y-14648103D01*
X12105777Y-14648103D02*
X12086729Y-14657627D01*
X12391491Y-14800484D02*
X12277206Y-14800484D01*
X12334348Y-14800484D02*
X12334348Y-14600484D01*
X12334348Y-14600484D02*
X12315301Y-14629055D01*
X12315301Y-14629055D02*
X12296253Y-14648103D01*
X12296253Y-14648103D02*
X12277206Y-14657627D01*
X12629587Y-14800484D02*
X12629587Y-14600484D01*
X12715301Y-14800484D02*
X12715301Y-14695722D01*
X12715301Y-14695722D02*
X12705777Y-14676674D01*
X12705777Y-14676674D02*
X12686730Y-14667150D01*
X12686730Y-14667150D02*
X12658158Y-14667150D01*
X12658158Y-14667150D02*
X12639110Y-14676674D01*
X12639110Y-14676674D02*
X12629587Y-14686198D01*
X12839110Y-14800484D02*
X12820063Y-14790960D01*
X12820063Y-14790960D02*
X12810539Y-14781436D01*
X12810539Y-14781436D02*
X12801015Y-14762388D01*
X12801015Y-14762388D02*
X12801015Y-14705246D01*
X12801015Y-14705246D02*
X12810539Y-14686198D01*
X12810539Y-14686198D02*
X12820063Y-14676674D01*
X12820063Y-14676674D02*
X12839110Y-14667150D01*
X12839110Y-14667150D02*
X12867682Y-14667150D01*
X12867682Y-14667150D02*
X12886730Y-14676674D01*
X12886730Y-14676674D02*
X12896253Y-14686198D01*
X12896253Y-14686198D02*
X12905777Y-14705246D01*
X12905777Y-14705246D02*
X12905777Y-14762388D01*
X12905777Y-14762388D02*
X12896253Y-14781436D01*
X12896253Y-14781436D02*
X12886730Y-14790960D01*
X12886730Y-14790960D02*
X12867682Y-14800484D01*
X12867682Y-14800484D02*
X12839110Y-14800484D01*
X13020063Y-14800484D02*
X13001015Y-14790960D01*
X13001015Y-14790960D02*
X12991491Y-14771912D01*
X12991491Y-14771912D02*
X12991491Y-14600484D01*
X13172444Y-14790960D02*
X13153396Y-14800484D01*
X13153396Y-14800484D02*
X13115301Y-14800484D01*
X13115301Y-14800484D02*
X13096253Y-14790960D01*
X13096253Y-14790960D02*
X13086730Y-14771912D01*
X13086730Y-14771912D02*
X13086730Y-14695722D01*
X13086730Y-14695722D02*
X13096253Y-14676674D01*
X13096253Y-14676674D02*
X13115301Y-14667150D01*
X13115301Y-14667150D02*
X13153396Y-14667150D01*
X13153396Y-14667150D02*
X13172444Y-14676674D01*
X13172444Y-14676674D02*
X13181968Y-14695722D01*
X13181968Y-14695722D02*
X13181968Y-14714769D01*
X13181968Y-14714769D02*
X13086730Y-14733817D01*
X13258158Y-14790960D02*
X13277206Y-14800484D01*
X13277206Y-14800484D02*
X13315301Y-14800484D01*
X13315301Y-14800484D02*
X13334349Y-14790960D01*
X13334349Y-14790960D02*
X13343872Y-14771912D01*
X13343872Y-14771912D02*
X13343872Y-14762388D01*
X13343872Y-14762388D02*
X13334349Y-14743341D01*
X13334349Y-14743341D02*
X13315301Y-14733817D01*
X13315301Y-14733817D02*
X13286730Y-14733817D01*
X13286730Y-14733817D02*
X13267682Y-14724293D01*
X13267682Y-14724293D02*
X13258158Y-14705246D01*
X13258158Y-14705246D02*
X13258158Y-14695722D01*
X13258158Y-14695722D02*
X13267682Y-14676674D01*
X13267682Y-14676674D02*
X13286730Y-14667150D01*
X13286730Y-14667150D02*
X13315301Y-14667150D01*
X13315301Y-14667150D02*
X13334349Y-14676674D01*
X13410539Y-14876674D02*
X13420063Y-14867150D01*
X13420063Y-14867150D02*
X13439111Y-14838579D01*
X13439111Y-14838579D02*
X13448634Y-14819531D01*
X13448634Y-14819531D02*
X13458158Y-14790960D01*
X13458158Y-14790960D02*
X13467682Y-14743341D01*
X13467682Y-14743341D02*
X13467682Y-14705246D01*
X13467682Y-14705246D02*
X13458158Y-14657627D01*
X13458158Y-14657627D02*
X13448634Y-14629055D01*
X13448634Y-14629055D02*
X13439111Y-14610008D01*
X13439111Y-14610008D02*
X13420063Y-14581436D01*
X13420063Y-14581436D02*
X13410539Y-14571912D01*
D10*
X8407500Y-14935500D02*
X8407500Y-15010500D01*
X8370000Y-14973000D02*
X8445000Y-14973000D01*
D11*
X8743872Y-14864484D02*
X8762920Y-14864484D01*
X8762920Y-14864484D02*
X8781967Y-14874008D01*
X8781967Y-14874008D02*
X8791491Y-14883531D01*
X8791491Y-14883531D02*
X8801015Y-14902579D01*
X8801015Y-14902579D02*
X8810539Y-14940674D01*
X8810539Y-14940674D02*
X8810539Y-14988293D01*
X8810539Y-14988293D02*
X8801015Y-15026388D01*
X8801015Y-15026388D02*
X8791491Y-15045436D01*
X8791491Y-15045436D02*
X8781967Y-15054960D01*
X8781967Y-15054960D02*
X8762920Y-15064484D01*
X8762920Y-15064484D02*
X8743872Y-15064484D01*
X8743872Y-15064484D02*
X8724824Y-15054960D01*
X8724824Y-15054960D02*
X8715301Y-15045436D01*
X8715301Y-15045436D02*
X8705777Y-15026388D01*
X8705777Y-15026388D02*
X8696253Y-14988293D01*
X8696253Y-14988293D02*
X8696253Y-14940674D01*
X8696253Y-14940674D02*
X8705777Y-14902579D01*
X8705777Y-14902579D02*
X8715301Y-14883531D01*
X8715301Y-14883531D02*
X8724824Y-14874008D01*
X8724824Y-14874008D02*
X8743872Y-14864484D01*
X8896253Y-15045436D02*
X8905777Y-15054960D01*
X8905777Y-15054960D02*
X8896253Y-15064484D01*
X8896253Y-15064484D02*
X8886729Y-15054960D01*
X8886729Y-15054960D02*
X8896253Y-15045436D01*
X8896253Y-15045436D02*
X8896253Y-15064484D01*
X8972444Y-14864484D02*
X9105777Y-14864484D01*
X9105777Y-14864484D02*
X9020063Y-15064484D01*
X9277205Y-14864484D02*
X9181967Y-14864484D01*
X9181967Y-14864484D02*
X9172444Y-14959722D01*
X9172444Y-14959722D02*
X9181967Y-14950198D01*
X9181967Y-14950198D02*
X9201015Y-14940674D01*
X9201015Y-14940674D02*
X9248634Y-14940674D01*
X9248634Y-14940674D02*
X9267682Y-14950198D01*
X9267682Y-14950198D02*
X9277205Y-14959722D01*
X9277205Y-14959722D02*
X9286729Y-14978769D01*
X9286729Y-14978769D02*
X9286729Y-15026388D01*
X9286729Y-15026388D02*
X9277205Y-15045436D01*
X9277205Y-15045436D02*
X9267682Y-15054960D01*
X9267682Y-15054960D02*
X9248634Y-15064484D01*
X9248634Y-15064484D02*
X9201015Y-15064484D01*
X9201015Y-15064484D02*
X9181967Y-15054960D01*
X9181967Y-15054960D02*
X9172444Y-15045436D01*
X9410539Y-14864484D02*
X9429586Y-14864484D01*
X9429586Y-14864484D02*
X9448634Y-14874008D01*
X9448634Y-14874008D02*
X9458158Y-14883531D01*
X9458158Y-14883531D02*
X9467682Y-14902579D01*
X9467682Y-14902579D02*
X9477205Y-14940674D01*
X9477205Y-14940674D02*
X9477205Y-14988293D01*
X9477205Y-14988293D02*
X9467682Y-15026388D01*
X9467682Y-15026388D02*
X9458158Y-15045436D01*
X9458158Y-15045436D02*
X9448634Y-15054960D01*
X9448634Y-15054960D02*
X9429586Y-15064484D01*
X9429586Y-15064484D02*
X9410539Y-15064484D01*
X9410539Y-15064484D02*
X9391491Y-15054960D01*
X9391491Y-15054960D02*
X9381967Y-15045436D01*
X9381967Y-15045436D02*
X9372444Y-15026388D01*
X9372444Y-15026388D02*
X9362920Y-14988293D01*
X9362920Y-14988293D02*
X9362920Y-14940674D01*
X9362920Y-14940674D02*
X9372444Y-14902579D01*
X9372444Y-14902579D02*
X9381967Y-14883531D01*
X9381967Y-14883531D02*
X9391491Y-14874008D01*
X9391491Y-14874008D02*
X9410539Y-14864484D01*
X9562920Y-15064484D02*
X9562920Y-14931150D01*
X9562920Y-14950198D02*
X9572444Y-14940674D01*
X9572444Y-14940674D02*
X9591491Y-14931150D01*
X9591491Y-14931150D02*
X9620063Y-14931150D01*
X9620063Y-14931150D02*
X9639110Y-14940674D01*
X9639110Y-14940674D02*
X9648634Y-14959722D01*
X9648634Y-14959722D02*
X9648634Y-15064484D01*
X9648634Y-14959722D02*
X9658158Y-14940674D01*
X9658158Y-14940674D02*
X9677205Y-14931150D01*
X9677205Y-14931150D02*
X9705777Y-14931150D01*
X9705777Y-14931150D02*
X9724825Y-14940674D01*
X9724825Y-14940674D02*
X9734348Y-14959722D01*
X9734348Y-14959722D02*
X9734348Y-15064484D01*
X9829586Y-15064484D02*
X9829586Y-14931150D01*
X9829586Y-14950198D02*
X9839110Y-14940674D01*
X9839110Y-14940674D02*
X9858158Y-14931150D01*
X9858158Y-14931150D02*
X9886729Y-14931150D01*
X9886729Y-14931150D02*
X9905777Y-14940674D01*
X9905777Y-14940674D02*
X9915301Y-14959722D01*
X9915301Y-14959722D02*
X9915301Y-15064484D01*
X9915301Y-14959722D02*
X9924825Y-14940674D01*
X9924825Y-14940674D02*
X9943872Y-14931150D01*
X9943872Y-14931150D02*
X9972444Y-14931150D01*
X9972444Y-14931150D02*
X9991491Y-14940674D01*
X9991491Y-14940674D02*
X10001015Y-14959722D01*
X10001015Y-14959722D02*
X10001015Y-15064484D01*
X10391491Y-14854960D02*
X10220063Y-15112103D01*
X10648634Y-14864484D02*
X10667682Y-14864484D01*
X10667682Y-14864484D02*
X10686729Y-14874008D01*
X10686729Y-14874008D02*
X10696253Y-14883531D01*
X10696253Y-14883531D02*
X10705777Y-14902579D01*
X10705777Y-14902579D02*
X10715301Y-14940674D01*
X10715301Y-14940674D02*
X10715301Y-14988293D01*
X10715301Y-14988293D02*
X10705777Y-15026388D01*
X10705777Y-15026388D02*
X10696253Y-15045436D01*
X10696253Y-15045436D02*
X10686729Y-15054960D01*
X10686729Y-15054960D02*
X10667682Y-15064484D01*
X10667682Y-15064484D02*
X10648634Y-15064484D01*
X10648634Y-15064484D02*
X10629587Y-15054960D01*
X10629587Y-15054960D02*
X10620063Y-15045436D01*
X10620063Y-15045436D02*
X10610539Y-15026388D01*
X10610539Y-15026388D02*
X10601015Y-14988293D01*
X10601015Y-14988293D02*
X10601015Y-14940674D01*
X10601015Y-14940674D02*
X10610539Y-14902579D01*
X10610539Y-14902579D02*
X10620063Y-14883531D01*
X10620063Y-14883531D02*
X10629587Y-14874008D01*
X10629587Y-14874008D02*
X10648634Y-14864484D01*
X10801015Y-15045436D02*
X10810539Y-15054960D01*
X10810539Y-15054960D02*
X10801015Y-15064484D01*
X10801015Y-15064484D02*
X10791491Y-15054960D01*
X10791491Y-15054960D02*
X10801015Y-15045436D01*
X10801015Y-15045436D02*
X10801015Y-15064484D01*
X10934348Y-14864484D02*
X10953396Y-14864484D01*
X10953396Y-14864484D02*
X10972444Y-14874008D01*
X10972444Y-14874008D02*
X10981968Y-14883531D01*
X10981968Y-14883531D02*
X10991491Y-14902579D01*
X10991491Y-14902579D02*
X11001015Y-14940674D01*
X11001015Y-14940674D02*
X11001015Y-14988293D01*
X11001015Y-14988293D02*
X10991491Y-15026388D01*
X10991491Y-15026388D02*
X10981968Y-15045436D01*
X10981968Y-15045436D02*
X10972444Y-15054960D01*
X10972444Y-15054960D02*
X10953396Y-15064484D01*
X10953396Y-15064484D02*
X10934348Y-15064484D01*
X10934348Y-15064484D02*
X10915301Y-15054960D01*
X10915301Y-15054960D02*
X10905777Y-15045436D01*
X10905777Y-15045436D02*
X10896253Y-15026388D01*
X10896253Y-15026388D02*
X10886729Y-14988293D01*
X10886729Y-14988293D02*
X10886729Y-14940674D01*
X10886729Y-14940674D02*
X10896253Y-14902579D01*
X10896253Y-14902579D02*
X10905777Y-14883531D01*
X10905777Y-14883531D02*
X10915301Y-14874008D01*
X10915301Y-14874008D02*
X10934348Y-14864484D01*
X11077206Y-14883531D02*
X11086729Y-14874008D01*
X11086729Y-14874008D02*
X11105777Y-14864484D01*
X11105777Y-14864484D02*
X11153396Y-14864484D01*
X11153396Y-14864484D02*
X11172444Y-14874008D01*
X11172444Y-14874008D02*
X11181968Y-14883531D01*
X11181968Y-14883531D02*
X11191491Y-14902579D01*
X11191491Y-14902579D02*
X11191491Y-14921627D01*
X11191491Y-14921627D02*
X11181968Y-14950198D01*
X11181968Y-14950198D02*
X11067682Y-15064484D01*
X11067682Y-15064484D02*
X11191491Y-15064484D01*
X11286729Y-15064484D02*
X11324825Y-15064484D01*
X11324825Y-15064484D02*
X11343872Y-15054960D01*
X11343872Y-15054960D02*
X11353396Y-15045436D01*
X11353396Y-15045436D02*
X11372444Y-15016865D01*
X11372444Y-15016865D02*
X11381967Y-14978769D01*
X11381967Y-14978769D02*
X11381967Y-14902579D01*
X11381967Y-14902579D02*
X11372444Y-14883531D01*
X11372444Y-14883531D02*
X11362920Y-14874008D01*
X11362920Y-14874008D02*
X11343872Y-14864484D01*
X11343872Y-14864484D02*
X11305777Y-14864484D01*
X11305777Y-14864484D02*
X11286729Y-14874008D01*
X11286729Y-14874008D02*
X11277206Y-14883531D01*
X11277206Y-14883531D02*
X11267682Y-14902579D01*
X11267682Y-14902579D02*
X11267682Y-14950198D01*
X11267682Y-14950198D02*
X11277206Y-14969246D01*
X11277206Y-14969246D02*
X11286729Y-14978769D01*
X11286729Y-14978769D02*
X11305777Y-14988293D01*
X11305777Y-14988293D02*
X11343872Y-14988293D01*
X11343872Y-14988293D02*
X11362920Y-14978769D01*
X11362920Y-14978769D02*
X11372444Y-14969246D01*
X11372444Y-14969246D02*
X11381967Y-14950198D01*
X11562920Y-14864484D02*
X11467682Y-14864484D01*
X11467682Y-14864484D02*
X11458158Y-14959722D01*
X11458158Y-14959722D02*
X11467682Y-14950198D01*
X11467682Y-14950198D02*
X11486729Y-14940674D01*
X11486729Y-14940674D02*
X11534348Y-14940674D01*
X11534348Y-14940674D02*
X11553396Y-14950198D01*
X11553396Y-14950198D02*
X11562920Y-14959722D01*
X11562920Y-14959722D02*
X11572444Y-14978769D01*
X11572444Y-14978769D02*
X11572444Y-15026388D01*
X11572444Y-15026388D02*
X11562920Y-15045436D01*
X11562920Y-15045436D02*
X11553396Y-15054960D01*
X11553396Y-15054960D02*
X11534348Y-15064484D01*
X11534348Y-15064484D02*
X11486729Y-15064484D01*
X11486729Y-15064484D02*
X11467682Y-15054960D01*
X11467682Y-15054960D02*
X11458158Y-15045436D01*
X11648634Y-14864484D02*
X11648634Y-14902579D01*
X11724825Y-14864484D02*
X11724825Y-14902579D01*
X12020063Y-15140674D02*
X12010539Y-15131150D01*
X12010539Y-15131150D02*
X11991491Y-15102579D01*
X11991491Y-15102579D02*
X11981968Y-15083531D01*
X11981968Y-15083531D02*
X11972444Y-15054960D01*
X11972444Y-15054960D02*
X11962920Y-15007341D01*
X11962920Y-15007341D02*
X11962920Y-14969246D01*
X11962920Y-14969246D02*
X11972444Y-14921627D01*
X11972444Y-14921627D02*
X11981968Y-14893055D01*
X11981968Y-14893055D02*
X11991491Y-14874008D01*
X11991491Y-14874008D02*
X12010539Y-14845436D01*
X12010539Y-14845436D02*
X12020063Y-14835912D01*
X12086729Y-14883531D02*
X12096253Y-14874008D01*
X12096253Y-14874008D02*
X12115301Y-14864484D01*
X12115301Y-14864484D02*
X12162920Y-14864484D01*
X12162920Y-14864484D02*
X12181968Y-14874008D01*
X12181968Y-14874008D02*
X12191491Y-14883531D01*
X12191491Y-14883531D02*
X12201015Y-14902579D01*
X12201015Y-14902579D02*
X12201015Y-14921627D01*
X12201015Y-14921627D02*
X12191491Y-14950198D01*
X12191491Y-14950198D02*
X12077206Y-15064484D01*
X12077206Y-15064484D02*
X12201015Y-15064484D01*
X12439110Y-15064484D02*
X12439110Y-14864484D01*
X12524825Y-15064484D02*
X12524825Y-14959722D01*
X12524825Y-14959722D02*
X12515301Y-14940674D01*
X12515301Y-14940674D02*
X12496253Y-14931150D01*
X12496253Y-14931150D02*
X12467682Y-14931150D01*
X12467682Y-14931150D02*
X12448634Y-14940674D01*
X12448634Y-14940674D02*
X12439110Y-14950198D01*
X12648634Y-15064484D02*
X12629587Y-15054960D01*
X12629587Y-15054960D02*
X12620063Y-15045436D01*
X12620063Y-15045436D02*
X12610539Y-15026388D01*
X12610539Y-15026388D02*
X12610539Y-14969246D01*
X12610539Y-14969246D02*
X12620063Y-14950198D01*
X12620063Y-14950198D02*
X12629587Y-14940674D01*
X12629587Y-14940674D02*
X12648634Y-14931150D01*
X12648634Y-14931150D02*
X12677206Y-14931150D01*
X12677206Y-14931150D02*
X12696253Y-14940674D01*
X12696253Y-14940674D02*
X12705777Y-14950198D01*
X12705777Y-14950198D02*
X12715301Y-14969246D01*
X12715301Y-14969246D02*
X12715301Y-15026388D01*
X12715301Y-15026388D02*
X12705777Y-15045436D01*
X12705777Y-15045436D02*
X12696253Y-15054960D01*
X12696253Y-15054960D02*
X12677206Y-15064484D01*
X12677206Y-15064484D02*
X12648634Y-15064484D01*
X12829587Y-15064484D02*
X12810539Y-15054960D01*
X12810539Y-15054960D02*
X12801015Y-15035912D01*
X12801015Y-15035912D02*
X12801015Y-14864484D01*
X12981968Y-15054960D02*
X12962920Y-15064484D01*
X12962920Y-15064484D02*
X12924825Y-15064484D01*
X12924825Y-15064484D02*
X12905777Y-15054960D01*
X12905777Y-15054960D02*
X12896253Y-15035912D01*
X12896253Y-15035912D02*
X12896253Y-14959722D01*
X12896253Y-14959722D02*
X12905777Y-14940674D01*
X12905777Y-14940674D02*
X12924825Y-14931150D01*
X12924825Y-14931150D02*
X12962920Y-14931150D01*
X12962920Y-14931150D02*
X12981968Y-14940674D01*
X12981968Y-14940674D02*
X12991491Y-14959722D01*
X12991491Y-14959722D02*
X12991491Y-14978769D01*
X12991491Y-14978769D02*
X12896253Y-14997817D01*
X13067682Y-15054960D02*
X13086730Y-15064484D01*
X13086730Y-15064484D02*
X13124825Y-15064484D01*
X13124825Y-15064484D02*
X13143872Y-15054960D01*
X13143872Y-15054960D02*
X13153396Y-15035912D01*
X13153396Y-15035912D02*
X13153396Y-15026388D01*
X13153396Y-15026388D02*
X13143872Y-15007341D01*
X13143872Y-15007341D02*
X13124825Y-14997817D01*
X13124825Y-14997817D02*
X13096253Y-14997817D01*
X13096253Y-14997817D02*
X13077206Y-14988293D01*
X13077206Y-14988293D02*
X13067682Y-14969246D01*
X13067682Y-14969246D02*
X13067682Y-14959722D01*
X13067682Y-14959722D02*
X13077206Y-14940674D01*
X13077206Y-14940674D02*
X13096253Y-14931150D01*
X13096253Y-14931150D02*
X13124825Y-14931150D01*
X13124825Y-14931150D02*
X13143872Y-14940674D01*
X13220063Y-15140674D02*
X13229587Y-15131150D01*
X13229587Y-15131150D02*
X13248634Y-15102579D01*
X13248634Y-15102579D02*
X13258158Y-15083531D01*
X13258158Y-15083531D02*
X13267682Y-15054960D01*
X13267682Y-15054960D02*
X13277206Y-15007341D01*
X13277206Y-15007341D02*
X13277206Y-14969246D01*
X13277206Y-14969246D02*
X13267682Y-14921627D01*
X13267682Y-14921627D02*
X13258158Y-14893055D01*
X13258158Y-14893055D02*
X13248634Y-14874008D01*
X13248634Y-14874008D02*
X13229587Y-14845436D01*
X13229587Y-14845436D02*
X13220063Y-14835912D01*
D10*
X8430356Y-15272356D02*
X8430356Y-15201644D01*
X8359644Y-15201644D01*
X8359644Y-15272356D01*
X8430356Y-15272356D01*
D11*
X8810539Y-15328484D02*
X8696253Y-15328484D01*
X8753396Y-15328484D02*
X8753396Y-15128484D01*
X8753396Y-15128484D02*
X8734348Y-15157055D01*
X8734348Y-15157055D02*
X8715301Y-15176103D01*
X8715301Y-15176103D02*
X8696253Y-15185627D01*
X8896253Y-15309436D02*
X8905777Y-15318960D01*
X8905777Y-15318960D02*
X8896253Y-15328484D01*
X8896253Y-15328484D02*
X8886729Y-15318960D01*
X8886729Y-15318960D02*
X8896253Y-15309436D01*
X8896253Y-15309436D02*
X8896253Y-15328484D01*
X9029586Y-15128484D02*
X9048634Y-15128484D01*
X9048634Y-15128484D02*
X9067682Y-15138008D01*
X9067682Y-15138008D02*
X9077205Y-15147531D01*
X9077205Y-15147531D02*
X9086729Y-15166579D01*
X9086729Y-15166579D02*
X9096253Y-15204674D01*
X9096253Y-15204674D02*
X9096253Y-15252293D01*
X9096253Y-15252293D02*
X9086729Y-15290388D01*
X9086729Y-15290388D02*
X9077205Y-15309436D01*
X9077205Y-15309436D02*
X9067682Y-15318960D01*
X9067682Y-15318960D02*
X9048634Y-15328484D01*
X9048634Y-15328484D02*
X9029586Y-15328484D01*
X9029586Y-15328484D02*
X9010539Y-15318960D01*
X9010539Y-15318960D02*
X9001015Y-15309436D01*
X9001015Y-15309436D02*
X8991491Y-15290388D01*
X8991491Y-15290388D02*
X8981967Y-15252293D01*
X8981967Y-15252293D02*
X8981967Y-15204674D01*
X8981967Y-15204674D02*
X8991491Y-15166579D01*
X8991491Y-15166579D02*
X9001015Y-15147531D01*
X9001015Y-15147531D02*
X9010539Y-15138008D01*
X9010539Y-15138008D02*
X9029586Y-15128484D01*
X9220063Y-15128484D02*
X9239110Y-15128484D01*
X9239110Y-15128484D02*
X9258158Y-15138008D01*
X9258158Y-15138008D02*
X9267682Y-15147531D01*
X9267682Y-15147531D02*
X9277205Y-15166579D01*
X9277205Y-15166579D02*
X9286729Y-15204674D01*
X9286729Y-15204674D02*
X9286729Y-15252293D01*
X9286729Y-15252293D02*
X9277205Y-15290388D01*
X9277205Y-15290388D02*
X9267682Y-15309436D01*
X9267682Y-15309436D02*
X9258158Y-15318960D01*
X9258158Y-15318960D02*
X9239110Y-15328484D01*
X9239110Y-15328484D02*
X9220063Y-15328484D01*
X9220063Y-15328484D02*
X9201015Y-15318960D01*
X9201015Y-15318960D02*
X9191491Y-15309436D01*
X9191491Y-15309436D02*
X9181967Y-15290388D01*
X9181967Y-15290388D02*
X9172444Y-15252293D01*
X9172444Y-15252293D02*
X9172444Y-15204674D01*
X9172444Y-15204674D02*
X9181967Y-15166579D01*
X9181967Y-15166579D02*
X9191491Y-15147531D01*
X9191491Y-15147531D02*
X9201015Y-15138008D01*
X9201015Y-15138008D02*
X9220063Y-15128484D01*
X9410539Y-15128484D02*
X9429586Y-15128484D01*
X9429586Y-15128484D02*
X9448634Y-15138008D01*
X9448634Y-15138008D02*
X9458158Y-15147531D01*
X9458158Y-15147531D02*
X9467682Y-15166579D01*
X9467682Y-15166579D02*
X9477205Y-15204674D01*
X9477205Y-15204674D02*
X9477205Y-15252293D01*
X9477205Y-15252293D02*
X9467682Y-15290388D01*
X9467682Y-15290388D02*
X9458158Y-15309436D01*
X9458158Y-15309436D02*
X9448634Y-15318960D01*
X9448634Y-15318960D02*
X9429586Y-15328484D01*
X9429586Y-15328484D02*
X9410539Y-15328484D01*
X9410539Y-15328484D02*
X9391491Y-15318960D01*
X9391491Y-15318960D02*
X9381967Y-15309436D01*
X9381967Y-15309436D02*
X9372444Y-15290388D01*
X9372444Y-15290388D02*
X9362920Y-15252293D01*
X9362920Y-15252293D02*
X9362920Y-15204674D01*
X9362920Y-15204674D02*
X9372444Y-15166579D01*
X9372444Y-15166579D02*
X9381967Y-15147531D01*
X9381967Y-15147531D02*
X9391491Y-15138008D01*
X9391491Y-15138008D02*
X9410539Y-15128484D01*
X9562920Y-15328484D02*
X9562920Y-15195150D01*
X9562920Y-15214198D02*
X9572444Y-15204674D01*
X9572444Y-15204674D02*
X9591491Y-15195150D01*
X9591491Y-15195150D02*
X9620063Y-15195150D01*
X9620063Y-15195150D02*
X9639110Y-15204674D01*
X9639110Y-15204674D02*
X9648634Y-15223722D01*
X9648634Y-15223722D02*
X9648634Y-15328484D01*
X9648634Y-15223722D02*
X9658158Y-15204674D01*
X9658158Y-15204674D02*
X9677205Y-15195150D01*
X9677205Y-15195150D02*
X9705777Y-15195150D01*
X9705777Y-15195150D02*
X9724825Y-15204674D01*
X9724825Y-15204674D02*
X9734348Y-15223722D01*
X9734348Y-15223722D02*
X9734348Y-15328484D01*
X9829586Y-15328484D02*
X9829586Y-15195150D01*
X9829586Y-15214198D02*
X9839110Y-15204674D01*
X9839110Y-15204674D02*
X9858158Y-15195150D01*
X9858158Y-15195150D02*
X9886729Y-15195150D01*
X9886729Y-15195150D02*
X9905777Y-15204674D01*
X9905777Y-15204674D02*
X9915301Y-15223722D01*
X9915301Y-15223722D02*
X9915301Y-15328484D01*
X9915301Y-15223722D02*
X9924825Y-15204674D01*
X9924825Y-15204674D02*
X9943872Y-15195150D01*
X9943872Y-15195150D02*
X9972444Y-15195150D01*
X9972444Y-15195150D02*
X9991491Y-15204674D01*
X9991491Y-15204674D02*
X10001015Y-15223722D01*
X10001015Y-15223722D02*
X10001015Y-15328484D01*
X10391491Y-15118960D02*
X10220063Y-15376103D01*
X10648634Y-15128484D02*
X10667682Y-15128484D01*
X10667682Y-15128484D02*
X10686729Y-15138008D01*
X10686729Y-15138008D02*
X10696253Y-15147531D01*
X10696253Y-15147531D02*
X10705777Y-15166579D01*
X10705777Y-15166579D02*
X10715301Y-15204674D01*
X10715301Y-15204674D02*
X10715301Y-15252293D01*
X10715301Y-15252293D02*
X10705777Y-15290388D01*
X10705777Y-15290388D02*
X10696253Y-15309436D01*
X10696253Y-15309436D02*
X10686729Y-15318960D01*
X10686729Y-15318960D02*
X10667682Y-15328484D01*
X10667682Y-15328484D02*
X10648634Y-15328484D01*
X10648634Y-15328484D02*
X10629587Y-15318960D01*
X10629587Y-15318960D02*
X10620063Y-15309436D01*
X10620063Y-15309436D02*
X10610539Y-15290388D01*
X10610539Y-15290388D02*
X10601015Y-15252293D01*
X10601015Y-15252293D02*
X10601015Y-15204674D01*
X10601015Y-15204674D02*
X10610539Y-15166579D01*
X10610539Y-15166579D02*
X10620063Y-15147531D01*
X10620063Y-15147531D02*
X10629587Y-15138008D01*
X10629587Y-15138008D02*
X10648634Y-15128484D01*
X10801015Y-15309436D02*
X10810539Y-15318960D01*
X10810539Y-15318960D02*
X10801015Y-15328484D01*
X10801015Y-15328484D02*
X10791491Y-15318960D01*
X10791491Y-15318960D02*
X10801015Y-15309436D01*
X10801015Y-15309436D02*
X10801015Y-15328484D01*
X10934348Y-15128484D02*
X10953396Y-15128484D01*
X10953396Y-15128484D02*
X10972444Y-15138008D01*
X10972444Y-15138008D02*
X10981968Y-15147531D01*
X10981968Y-15147531D02*
X10991491Y-15166579D01*
X10991491Y-15166579D02*
X11001015Y-15204674D01*
X11001015Y-15204674D02*
X11001015Y-15252293D01*
X11001015Y-15252293D02*
X10991491Y-15290388D01*
X10991491Y-15290388D02*
X10981968Y-15309436D01*
X10981968Y-15309436D02*
X10972444Y-15318960D01*
X10972444Y-15318960D02*
X10953396Y-15328484D01*
X10953396Y-15328484D02*
X10934348Y-15328484D01*
X10934348Y-15328484D02*
X10915301Y-15318960D01*
X10915301Y-15318960D02*
X10905777Y-15309436D01*
X10905777Y-15309436D02*
X10896253Y-15290388D01*
X10896253Y-15290388D02*
X10886729Y-15252293D01*
X10886729Y-15252293D02*
X10886729Y-15204674D01*
X10886729Y-15204674D02*
X10896253Y-15166579D01*
X10896253Y-15166579D02*
X10905777Y-15147531D01*
X10905777Y-15147531D02*
X10915301Y-15138008D01*
X10915301Y-15138008D02*
X10934348Y-15128484D01*
X11067682Y-15128484D02*
X11191491Y-15128484D01*
X11191491Y-15128484D02*
X11124825Y-15204674D01*
X11124825Y-15204674D02*
X11153396Y-15204674D01*
X11153396Y-15204674D02*
X11172444Y-15214198D01*
X11172444Y-15214198D02*
X11181968Y-15223722D01*
X11181968Y-15223722D02*
X11191491Y-15242769D01*
X11191491Y-15242769D02*
X11191491Y-15290388D01*
X11191491Y-15290388D02*
X11181968Y-15309436D01*
X11181968Y-15309436D02*
X11172444Y-15318960D01*
X11172444Y-15318960D02*
X11153396Y-15328484D01*
X11153396Y-15328484D02*
X11096253Y-15328484D01*
X11096253Y-15328484D02*
X11077206Y-15318960D01*
X11077206Y-15318960D02*
X11067682Y-15309436D01*
X11286729Y-15328484D02*
X11324825Y-15328484D01*
X11324825Y-15328484D02*
X11343872Y-15318960D01*
X11343872Y-15318960D02*
X11353396Y-15309436D01*
X11353396Y-15309436D02*
X11372444Y-15280865D01*
X11372444Y-15280865D02*
X11381967Y-15242769D01*
X11381967Y-15242769D02*
X11381967Y-15166579D01*
X11381967Y-15166579D02*
X11372444Y-15147531D01*
X11372444Y-15147531D02*
X11362920Y-15138008D01*
X11362920Y-15138008D02*
X11343872Y-15128484D01*
X11343872Y-15128484D02*
X11305777Y-15128484D01*
X11305777Y-15128484D02*
X11286729Y-15138008D01*
X11286729Y-15138008D02*
X11277206Y-15147531D01*
X11277206Y-15147531D02*
X11267682Y-15166579D01*
X11267682Y-15166579D02*
X11267682Y-15214198D01*
X11267682Y-15214198D02*
X11277206Y-15233246D01*
X11277206Y-15233246D02*
X11286729Y-15242769D01*
X11286729Y-15242769D02*
X11305777Y-15252293D01*
X11305777Y-15252293D02*
X11343872Y-15252293D01*
X11343872Y-15252293D02*
X11362920Y-15242769D01*
X11362920Y-15242769D02*
X11372444Y-15233246D01*
X11372444Y-15233246D02*
X11381967Y-15214198D01*
X11553396Y-15195150D02*
X11553396Y-15328484D01*
X11505777Y-15118960D02*
X11458158Y-15261817D01*
X11458158Y-15261817D02*
X11581967Y-15261817D01*
X11648634Y-15128484D02*
X11648634Y-15166579D01*
X11724825Y-15128484D02*
X11724825Y-15166579D01*
X12020063Y-15404674D02*
X12010539Y-15395150D01*
X12010539Y-15395150D02*
X11991491Y-15366579D01*
X11991491Y-15366579D02*
X11981968Y-15347531D01*
X11981968Y-15347531D02*
X11972444Y-15318960D01*
X11972444Y-15318960D02*
X11962920Y-15271341D01*
X11962920Y-15271341D02*
X11962920Y-15233246D01*
X11962920Y-15233246D02*
X11972444Y-15185627D01*
X11972444Y-15185627D02*
X11981968Y-15157055D01*
X11981968Y-15157055D02*
X11991491Y-15138008D01*
X11991491Y-15138008D02*
X12010539Y-15109436D01*
X12010539Y-15109436D02*
X12020063Y-15099912D01*
X12181968Y-15195150D02*
X12181968Y-15328484D01*
X12134348Y-15118960D02*
X12086729Y-15261817D01*
X12086729Y-15261817D02*
X12210539Y-15261817D01*
X12381968Y-15128484D02*
X12286729Y-15128484D01*
X12286729Y-15128484D02*
X12277206Y-15223722D01*
X12277206Y-15223722D02*
X12286729Y-15214198D01*
X12286729Y-15214198D02*
X12305777Y-15204674D01*
X12305777Y-15204674D02*
X12353396Y-15204674D01*
X12353396Y-15204674D02*
X12372444Y-15214198D01*
X12372444Y-15214198D02*
X12381968Y-15223722D01*
X12381968Y-15223722D02*
X12391491Y-15242769D01*
X12391491Y-15242769D02*
X12391491Y-15290388D01*
X12391491Y-15290388D02*
X12381968Y-15309436D01*
X12381968Y-15309436D02*
X12372444Y-15318960D01*
X12372444Y-15318960D02*
X12353396Y-15328484D01*
X12353396Y-15328484D02*
X12305777Y-15328484D01*
X12305777Y-15328484D02*
X12286729Y-15318960D01*
X12286729Y-15318960D02*
X12277206Y-15309436D01*
X12629587Y-15328484D02*
X12629587Y-15128484D01*
X12715301Y-15328484D02*
X12715301Y-15223722D01*
X12715301Y-15223722D02*
X12705777Y-15204674D01*
X12705777Y-15204674D02*
X12686730Y-15195150D01*
X12686730Y-15195150D02*
X12658158Y-15195150D01*
X12658158Y-15195150D02*
X12639110Y-15204674D01*
X12639110Y-15204674D02*
X12629587Y-15214198D01*
X12839110Y-15328484D02*
X12820063Y-15318960D01*
X12820063Y-15318960D02*
X12810539Y-15309436D01*
X12810539Y-15309436D02*
X12801015Y-15290388D01*
X12801015Y-15290388D02*
X12801015Y-15233246D01*
X12801015Y-15233246D02*
X12810539Y-15214198D01*
X12810539Y-15214198D02*
X12820063Y-15204674D01*
X12820063Y-15204674D02*
X12839110Y-15195150D01*
X12839110Y-15195150D02*
X12867682Y-15195150D01*
X12867682Y-15195150D02*
X12886730Y-15204674D01*
X12886730Y-15204674D02*
X12896253Y-15214198D01*
X12896253Y-15214198D02*
X12905777Y-15233246D01*
X12905777Y-15233246D02*
X12905777Y-15290388D01*
X12905777Y-15290388D02*
X12896253Y-15309436D01*
X12896253Y-15309436D02*
X12886730Y-15318960D01*
X12886730Y-15318960D02*
X12867682Y-15328484D01*
X12867682Y-15328484D02*
X12839110Y-15328484D01*
X13020063Y-15328484D02*
X13001015Y-15318960D01*
X13001015Y-15318960D02*
X12991491Y-15299912D01*
X12991491Y-15299912D02*
X12991491Y-15128484D01*
X13172444Y-15318960D02*
X13153396Y-15328484D01*
X13153396Y-15328484D02*
X13115301Y-15328484D01*
X13115301Y-15328484D02*
X13096253Y-15318960D01*
X13096253Y-15318960D02*
X13086730Y-15299912D01*
X13086730Y-15299912D02*
X13086730Y-15223722D01*
X13086730Y-15223722D02*
X13096253Y-15204674D01*
X13096253Y-15204674D02*
X13115301Y-15195150D01*
X13115301Y-15195150D02*
X13153396Y-15195150D01*
X13153396Y-15195150D02*
X13172444Y-15204674D01*
X13172444Y-15204674D02*
X13181968Y-15223722D01*
X13181968Y-15223722D02*
X13181968Y-15242769D01*
X13181968Y-15242769D02*
X13086730Y-15261817D01*
X13258158Y-15318960D02*
X13277206Y-15328484D01*
X13277206Y-15328484D02*
X13315301Y-15328484D01*
X13315301Y-15328484D02*
X13334349Y-15318960D01*
X13334349Y-15318960D02*
X13343872Y-15299912D01*
X13343872Y-15299912D02*
X13343872Y-15290388D01*
X13343872Y-15290388D02*
X13334349Y-15271341D01*
X13334349Y-15271341D02*
X13315301Y-15261817D01*
X13315301Y-15261817D02*
X13286730Y-15261817D01*
X13286730Y-15261817D02*
X13267682Y-15252293D01*
X13267682Y-15252293D02*
X13258158Y-15233246D01*
X13258158Y-15233246D02*
X13258158Y-15223722D01*
X13258158Y-15223722D02*
X13267682Y-15204674D01*
X13267682Y-15204674D02*
X13286730Y-15195150D01*
X13286730Y-15195150D02*
X13315301Y-15195150D01*
X13315301Y-15195150D02*
X13334349Y-15204674D01*
X13410539Y-15404674D02*
X13420063Y-15395150D01*
X13420063Y-15395150D02*
X13439111Y-15366579D01*
X13439111Y-15366579D02*
X13448634Y-15347531D01*
X13448634Y-15347531D02*
X13458158Y-15318960D01*
X13458158Y-15318960D02*
X13467682Y-15271341D01*
X13467682Y-15271341D02*
X13467682Y-15233246D01*
X13467682Y-15233246D02*
X13458158Y-15185627D01*
X13458158Y-15185627D02*
X13448634Y-15157055D01*
X13448634Y-15157055D02*
X13439111Y-15138008D01*
X13439111Y-15138008D02*
X13420063Y-15109436D01*
X13420063Y-15109436D02*
X13410539Y-15099912D01*
D12*
X8350000Y-15596000D02*
X8445000Y-15501000D01*
X8350000Y-15406000D01*
X8255000Y-15501000D01*
X8350000Y-15596000D01*
D11*
X8810539Y-15592484D02*
X8696253Y-15592484D01*
X8753396Y-15592484D02*
X8753396Y-15392484D01*
X8753396Y-15392484D02*
X8734348Y-15421055D01*
X8734348Y-15421055D02*
X8715301Y-15440103D01*
X8715301Y-15440103D02*
X8696253Y-15449627D01*
X8896253Y-15573436D02*
X8905777Y-15582960D01*
X8905777Y-15582960D02*
X8896253Y-15592484D01*
X8896253Y-15592484D02*
X8886729Y-15582960D01*
X8886729Y-15582960D02*
X8896253Y-15573436D01*
X8896253Y-15573436D02*
X8896253Y-15592484D01*
X9001015Y-15592484D02*
X9039110Y-15592484D01*
X9039110Y-15592484D02*
X9058158Y-15582960D01*
X9058158Y-15582960D02*
X9067682Y-15573436D01*
X9067682Y-15573436D02*
X9086729Y-15544865D01*
X9086729Y-15544865D02*
X9096253Y-15506769D01*
X9096253Y-15506769D02*
X9096253Y-15430579D01*
X9096253Y-15430579D02*
X9086729Y-15411531D01*
X9086729Y-15411531D02*
X9077205Y-15402008D01*
X9077205Y-15402008D02*
X9058158Y-15392484D01*
X9058158Y-15392484D02*
X9020063Y-15392484D01*
X9020063Y-15392484D02*
X9001015Y-15402008D01*
X9001015Y-15402008D02*
X8991491Y-15411531D01*
X8991491Y-15411531D02*
X8981967Y-15430579D01*
X8981967Y-15430579D02*
X8981967Y-15478198D01*
X8981967Y-15478198D02*
X8991491Y-15497246D01*
X8991491Y-15497246D02*
X9001015Y-15506769D01*
X9001015Y-15506769D02*
X9020063Y-15516293D01*
X9020063Y-15516293D02*
X9058158Y-15516293D01*
X9058158Y-15516293D02*
X9077205Y-15506769D01*
X9077205Y-15506769D02*
X9086729Y-15497246D01*
X9086729Y-15497246D02*
X9096253Y-15478198D01*
X9220063Y-15392484D02*
X9239110Y-15392484D01*
X9239110Y-15392484D02*
X9258158Y-15402008D01*
X9258158Y-15402008D02*
X9267682Y-15411531D01*
X9267682Y-15411531D02*
X9277205Y-15430579D01*
X9277205Y-15430579D02*
X9286729Y-15468674D01*
X9286729Y-15468674D02*
X9286729Y-15516293D01*
X9286729Y-15516293D02*
X9277205Y-15554388D01*
X9277205Y-15554388D02*
X9267682Y-15573436D01*
X9267682Y-15573436D02*
X9258158Y-15582960D01*
X9258158Y-15582960D02*
X9239110Y-15592484D01*
X9239110Y-15592484D02*
X9220063Y-15592484D01*
X9220063Y-15592484D02*
X9201015Y-15582960D01*
X9201015Y-15582960D02*
X9191491Y-15573436D01*
X9191491Y-15573436D02*
X9181967Y-15554388D01*
X9181967Y-15554388D02*
X9172444Y-15516293D01*
X9172444Y-15516293D02*
X9172444Y-15468674D01*
X9172444Y-15468674D02*
X9181967Y-15430579D01*
X9181967Y-15430579D02*
X9191491Y-15411531D01*
X9191491Y-15411531D02*
X9201015Y-15402008D01*
X9201015Y-15402008D02*
X9220063Y-15392484D01*
X9410539Y-15392484D02*
X9429586Y-15392484D01*
X9429586Y-15392484D02*
X9448634Y-15402008D01*
X9448634Y-15402008D02*
X9458158Y-15411531D01*
X9458158Y-15411531D02*
X9467682Y-15430579D01*
X9467682Y-15430579D02*
X9477205Y-15468674D01*
X9477205Y-15468674D02*
X9477205Y-15516293D01*
X9477205Y-15516293D02*
X9467682Y-15554388D01*
X9467682Y-15554388D02*
X9458158Y-15573436D01*
X9458158Y-15573436D02*
X9448634Y-15582960D01*
X9448634Y-15582960D02*
X9429586Y-15592484D01*
X9429586Y-15592484D02*
X9410539Y-15592484D01*
X9410539Y-15592484D02*
X9391491Y-15582960D01*
X9391491Y-15582960D02*
X9381967Y-15573436D01*
X9381967Y-15573436D02*
X9372444Y-15554388D01*
X9372444Y-15554388D02*
X9362920Y-15516293D01*
X9362920Y-15516293D02*
X9362920Y-15468674D01*
X9362920Y-15468674D02*
X9372444Y-15430579D01*
X9372444Y-15430579D02*
X9381967Y-15411531D01*
X9381967Y-15411531D02*
X9391491Y-15402008D01*
X9391491Y-15402008D02*
X9410539Y-15392484D01*
X9562920Y-15592484D02*
X9562920Y-15459150D01*
X9562920Y-15478198D02*
X9572444Y-15468674D01*
X9572444Y-15468674D02*
X9591491Y-15459150D01*
X9591491Y-15459150D02*
X9620063Y-15459150D01*
X9620063Y-15459150D02*
X9639110Y-15468674D01*
X9639110Y-15468674D02*
X9648634Y-15487722D01*
X9648634Y-15487722D02*
X9648634Y-15592484D01*
X9648634Y-15487722D02*
X9658158Y-15468674D01*
X9658158Y-15468674D02*
X9677205Y-15459150D01*
X9677205Y-15459150D02*
X9705777Y-15459150D01*
X9705777Y-15459150D02*
X9724825Y-15468674D01*
X9724825Y-15468674D02*
X9734348Y-15487722D01*
X9734348Y-15487722D02*
X9734348Y-15592484D01*
X9829586Y-15592484D02*
X9829586Y-15459150D01*
X9829586Y-15478198D02*
X9839110Y-15468674D01*
X9839110Y-15468674D02*
X9858158Y-15459150D01*
X9858158Y-15459150D02*
X9886729Y-15459150D01*
X9886729Y-15459150D02*
X9905777Y-15468674D01*
X9905777Y-15468674D02*
X9915301Y-15487722D01*
X9915301Y-15487722D02*
X9915301Y-15592484D01*
X9915301Y-15487722D02*
X9924825Y-15468674D01*
X9924825Y-15468674D02*
X9943872Y-15459150D01*
X9943872Y-15459150D02*
X9972444Y-15459150D01*
X9972444Y-15459150D02*
X9991491Y-15468674D01*
X9991491Y-15468674D02*
X10001015Y-15487722D01*
X10001015Y-15487722D02*
X10001015Y-15592484D01*
X10391491Y-15382960D02*
X10220063Y-15640103D01*
X10648634Y-15392484D02*
X10667682Y-15392484D01*
X10667682Y-15392484D02*
X10686729Y-15402008D01*
X10686729Y-15402008D02*
X10696253Y-15411531D01*
X10696253Y-15411531D02*
X10705777Y-15430579D01*
X10705777Y-15430579D02*
X10715301Y-15468674D01*
X10715301Y-15468674D02*
X10715301Y-15516293D01*
X10715301Y-15516293D02*
X10705777Y-15554388D01*
X10705777Y-15554388D02*
X10696253Y-15573436D01*
X10696253Y-15573436D02*
X10686729Y-15582960D01*
X10686729Y-15582960D02*
X10667682Y-15592484D01*
X10667682Y-15592484D02*
X10648634Y-15592484D01*
X10648634Y-15592484D02*
X10629587Y-15582960D01*
X10629587Y-15582960D02*
X10620063Y-15573436D01*
X10620063Y-15573436D02*
X10610539Y-15554388D01*
X10610539Y-15554388D02*
X10601015Y-15516293D01*
X10601015Y-15516293D02*
X10601015Y-15468674D01*
X10601015Y-15468674D02*
X10610539Y-15430579D01*
X10610539Y-15430579D02*
X10620063Y-15411531D01*
X10620063Y-15411531D02*
X10629587Y-15402008D01*
X10629587Y-15402008D02*
X10648634Y-15392484D01*
X10801015Y-15573436D02*
X10810539Y-15582960D01*
X10810539Y-15582960D02*
X10801015Y-15592484D01*
X10801015Y-15592484D02*
X10791491Y-15582960D01*
X10791491Y-15582960D02*
X10801015Y-15573436D01*
X10801015Y-15573436D02*
X10801015Y-15592484D01*
X10934348Y-15392484D02*
X10953396Y-15392484D01*
X10953396Y-15392484D02*
X10972444Y-15402008D01*
X10972444Y-15402008D02*
X10981968Y-15411531D01*
X10981968Y-15411531D02*
X10991491Y-15430579D01*
X10991491Y-15430579D02*
X11001015Y-15468674D01*
X11001015Y-15468674D02*
X11001015Y-15516293D01*
X11001015Y-15516293D02*
X10991491Y-15554388D01*
X10991491Y-15554388D02*
X10981968Y-15573436D01*
X10981968Y-15573436D02*
X10972444Y-15582960D01*
X10972444Y-15582960D02*
X10953396Y-15592484D01*
X10953396Y-15592484D02*
X10934348Y-15592484D01*
X10934348Y-15592484D02*
X10915301Y-15582960D01*
X10915301Y-15582960D02*
X10905777Y-15573436D01*
X10905777Y-15573436D02*
X10896253Y-15554388D01*
X10896253Y-15554388D02*
X10886729Y-15516293D01*
X10886729Y-15516293D02*
X10886729Y-15468674D01*
X10886729Y-15468674D02*
X10896253Y-15430579D01*
X10896253Y-15430579D02*
X10905777Y-15411531D01*
X10905777Y-15411531D02*
X10915301Y-15402008D01*
X10915301Y-15402008D02*
X10934348Y-15392484D01*
X11067682Y-15392484D02*
X11201015Y-15392484D01*
X11201015Y-15392484D02*
X11115301Y-15592484D01*
X11362920Y-15459150D02*
X11362920Y-15592484D01*
X11315301Y-15382960D02*
X11267682Y-15525817D01*
X11267682Y-15525817D02*
X11391491Y-15525817D01*
X11496253Y-15478198D02*
X11477206Y-15468674D01*
X11477206Y-15468674D02*
X11467682Y-15459150D01*
X11467682Y-15459150D02*
X11458158Y-15440103D01*
X11458158Y-15440103D02*
X11458158Y-15430579D01*
X11458158Y-15430579D02*
X11467682Y-15411531D01*
X11467682Y-15411531D02*
X11477206Y-15402008D01*
X11477206Y-15402008D02*
X11496253Y-15392484D01*
X11496253Y-15392484D02*
X11534348Y-15392484D01*
X11534348Y-15392484D02*
X11553396Y-15402008D01*
X11553396Y-15402008D02*
X11562920Y-15411531D01*
X11562920Y-15411531D02*
X11572444Y-15430579D01*
X11572444Y-15430579D02*
X11572444Y-15440103D01*
X11572444Y-15440103D02*
X11562920Y-15459150D01*
X11562920Y-15459150D02*
X11553396Y-15468674D01*
X11553396Y-15468674D02*
X11534348Y-15478198D01*
X11534348Y-15478198D02*
X11496253Y-15478198D01*
X11496253Y-15478198D02*
X11477206Y-15487722D01*
X11477206Y-15487722D02*
X11467682Y-15497246D01*
X11467682Y-15497246D02*
X11458158Y-15516293D01*
X11458158Y-15516293D02*
X11458158Y-15554388D01*
X11458158Y-15554388D02*
X11467682Y-15573436D01*
X11467682Y-15573436D02*
X11477206Y-15582960D01*
X11477206Y-15582960D02*
X11496253Y-15592484D01*
X11496253Y-15592484D02*
X11534348Y-15592484D01*
X11534348Y-15592484D02*
X11553396Y-15582960D01*
X11553396Y-15582960D02*
X11562920Y-15573436D01*
X11562920Y-15573436D02*
X11572444Y-15554388D01*
X11572444Y-15554388D02*
X11572444Y-15516293D01*
X11572444Y-15516293D02*
X11562920Y-15497246D01*
X11562920Y-15497246D02*
X11553396Y-15487722D01*
X11553396Y-15487722D02*
X11534348Y-15478198D01*
X11648634Y-15392484D02*
X11648634Y-15430579D01*
X11724825Y-15392484D02*
X11724825Y-15430579D01*
X12020063Y-15668674D02*
X12010539Y-15659150D01*
X12010539Y-15659150D02*
X11991491Y-15630579D01*
X11991491Y-15630579D02*
X11981968Y-15611531D01*
X11981968Y-15611531D02*
X11972444Y-15582960D01*
X11972444Y-15582960D02*
X11962920Y-15535341D01*
X11962920Y-15535341D02*
X11962920Y-15497246D01*
X11962920Y-15497246D02*
X11972444Y-15449627D01*
X11972444Y-15449627D02*
X11981968Y-15421055D01*
X11981968Y-15421055D02*
X11991491Y-15402008D01*
X11991491Y-15402008D02*
X12010539Y-15373436D01*
X12010539Y-15373436D02*
X12020063Y-15363912D01*
X12086729Y-15411531D02*
X12096253Y-15402008D01*
X12096253Y-15402008D02*
X12115301Y-15392484D01*
X12115301Y-15392484D02*
X12162920Y-15392484D01*
X12162920Y-15392484D02*
X12181968Y-15402008D01*
X12181968Y-15402008D02*
X12191491Y-15411531D01*
X12191491Y-15411531D02*
X12201015Y-15430579D01*
X12201015Y-15430579D02*
X12201015Y-15449627D01*
X12201015Y-15449627D02*
X12191491Y-15478198D01*
X12191491Y-15478198D02*
X12077206Y-15592484D01*
X12077206Y-15592484D02*
X12201015Y-15592484D01*
X12439110Y-15592484D02*
X12439110Y-15392484D01*
X12524825Y-15592484D02*
X12524825Y-15487722D01*
X12524825Y-15487722D02*
X12515301Y-15468674D01*
X12515301Y-15468674D02*
X12496253Y-15459150D01*
X12496253Y-15459150D02*
X12467682Y-15459150D01*
X12467682Y-15459150D02*
X12448634Y-15468674D01*
X12448634Y-15468674D02*
X12439110Y-15478198D01*
X12648634Y-15592484D02*
X12629587Y-15582960D01*
X12629587Y-15582960D02*
X12620063Y-15573436D01*
X12620063Y-15573436D02*
X12610539Y-15554388D01*
X12610539Y-15554388D02*
X12610539Y-15497246D01*
X12610539Y-15497246D02*
X12620063Y-15478198D01*
X12620063Y-15478198D02*
X12629587Y-15468674D01*
X12629587Y-15468674D02*
X12648634Y-15459150D01*
X12648634Y-15459150D02*
X12677206Y-15459150D01*
X12677206Y-15459150D02*
X12696253Y-15468674D01*
X12696253Y-15468674D02*
X12705777Y-15478198D01*
X12705777Y-15478198D02*
X12715301Y-15497246D01*
X12715301Y-15497246D02*
X12715301Y-15554388D01*
X12715301Y-15554388D02*
X12705777Y-15573436D01*
X12705777Y-15573436D02*
X12696253Y-15582960D01*
X12696253Y-15582960D02*
X12677206Y-15592484D01*
X12677206Y-15592484D02*
X12648634Y-15592484D01*
X12829587Y-15592484D02*
X12810539Y-15582960D01*
X12810539Y-15582960D02*
X12801015Y-15563912D01*
X12801015Y-15563912D02*
X12801015Y-15392484D01*
X12981968Y-15582960D02*
X12962920Y-15592484D01*
X12962920Y-15592484D02*
X12924825Y-15592484D01*
X12924825Y-15592484D02*
X12905777Y-15582960D01*
X12905777Y-15582960D02*
X12896253Y-15563912D01*
X12896253Y-15563912D02*
X12896253Y-15487722D01*
X12896253Y-15487722D02*
X12905777Y-15468674D01*
X12905777Y-15468674D02*
X12924825Y-15459150D01*
X12924825Y-15459150D02*
X12962920Y-15459150D01*
X12962920Y-15459150D02*
X12981968Y-15468674D01*
X12981968Y-15468674D02*
X12991491Y-15487722D01*
X12991491Y-15487722D02*
X12991491Y-15506769D01*
X12991491Y-15506769D02*
X12896253Y-15525817D01*
X13067682Y-15582960D02*
X13086730Y-15592484D01*
X13086730Y-15592484D02*
X13124825Y-15592484D01*
X13124825Y-15592484D02*
X13143872Y-15582960D01*
X13143872Y-15582960D02*
X13153396Y-15563912D01*
X13153396Y-15563912D02*
X13153396Y-15554388D01*
X13153396Y-15554388D02*
X13143872Y-15535341D01*
X13143872Y-15535341D02*
X13124825Y-15525817D01*
X13124825Y-15525817D02*
X13096253Y-15525817D01*
X13096253Y-15525817D02*
X13077206Y-15516293D01*
X13077206Y-15516293D02*
X13067682Y-15497246D01*
X13067682Y-15497246D02*
X13067682Y-15487722D01*
X13067682Y-15487722D02*
X13077206Y-15468674D01*
X13077206Y-15468674D02*
X13096253Y-15459150D01*
X13096253Y-15459150D02*
X13124825Y-15459150D01*
X13124825Y-15459150D02*
X13143872Y-15468674D01*
X13220063Y-15668674D02*
X13229587Y-15659150D01*
X13229587Y-15659150D02*
X13248634Y-15630579D01*
X13248634Y-15630579D02*
X13258158Y-15611531D01*
X13258158Y-15611531D02*
X13267682Y-15582960D01*
X13267682Y-15582960D02*
X13277206Y-15535341D01*
X13277206Y-15535341D02*
X13277206Y-15497246D01*
X13277206Y-15497246D02*
X13267682Y-15449627D01*
X13267682Y-15449627D02*
X13258158Y-15421055D01*
X13258158Y-15421055D02*
X13248634Y-15402008D01*
X13248634Y-15402008D02*
X13229587Y-15373436D01*
X13229587Y-15373436D02*
X13220063Y-15363912D01*
M02*
