%TF.GenerationSoftware,KiCad,Pcbnew,10.0.5*%
%TF.CreationDate,2026-09-28T00:53:14+02:00*%
%TF.ProjectId,sst_v2,7373745f-7632-42e6-9b69-6361645f7063,A*%
%TF.SameCoordinates,Original*%
%TF.FileFunction,Drillmap*%
%TF.FilePolarity,Positive*%
%FSLAX45Y45*%
G04 Gerber Fmt 4.5, Leading zero omitted, Abs format (unit mm)*
G04 Created by KiCad (PCBNEW 10.0.5) date 2026-09-28 00:53:14*
%MOMM*%
%LPD*%
G01*
G04 APERTURE LIST*
%ADD10C,0.100000*%
%ADD11C,0.200000*%
%ADD12C,0.190000*%
G04 APERTURE END LIST*
D10*
X8450000Y-4800000D02*
X14450000Y-4800000D01*
X8450000Y-13800000D02*
X8450000Y-4800000D01*
X14450000Y-4800000D02*
X14450000Y-13800000D01*
X14450000Y-13800000D02*
X8450000Y-13800000D01*
D11*
D10*
X8597955Y-8766857D02*
X8627955Y-8796857D01*
X8627955Y-8766857D02*
X8597955Y-8796857D01*
X8597955Y-9603143D02*
X8627955Y-9633143D01*
X8627955Y-9603143D02*
X8597955Y-9633143D01*
X8600000Y-11550000D02*
X8630000Y-11580000D01*
X8630000Y-11550000D02*
X8600000Y-11580000D01*
X8645000Y-13043750D02*
X8675000Y-13073750D01*
X8675000Y-13043750D02*
X8645000Y-13073750D01*
X8727590Y-9158590D02*
X8757590Y-9188590D01*
X8757590Y-9158590D02*
X8727590Y-9188590D01*
X8728440Y-9035000D02*
X8758440Y-9065000D01*
X8758440Y-9035000D02*
X8728440Y-9065000D01*
X8740000Y-11310000D02*
X8770000Y-11340000D01*
X8770000Y-11310000D02*
X8740000Y-11340000D01*
X8757500Y-11615000D02*
X8787500Y-11645000D01*
X8787500Y-11615000D02*
X8757500Y-11645000D01*
X8780000Y-12050000D02*
X8810000Y-12080000D01*
X8810000Y-12050000D02*
X8780000Y-12080000D01*
X8850000Y-12100000D02*
X8880000Y-12130000D01*
X8880000Y-12100000D02*
X8850000Y-12130000D01*
X8867500Y-10960000D02*
X8897500Y-10990000D01*
X8897500Y-10960000D02*
X8867500Y-10990000D01*
X8881232Y-8899657D02*
X8911232Y-8929657D01*
X8911232Y-8899657D02*
X8881232Y-8929657D01*
X8885000Y-11342500D02*
X8915000Y-11372500D01*
X8915000Y-11342500D02*
X8885000Y-11372500D01*
X8912500Y-12969641D02*
X8942500Y-12999641D01*
X8942500Y-12969641D02*
X8912500Y-12999641D01*
X8920000Y-11937500D02*
X8950000Y-11967500D01*
X8950000Y-11937500D02*
X8920000Y-11967500D01*
X8930000Y-8823800D02*
X8960000Y-8853800D01*
X8960000Y-8823800D02*
X8930000Y-8853800D01*
X8968750Y-11310000D02*
X8998750Y-11340000D01*
X8998750Y-11310000D02*
X8968750Y-11340000D01*
X9050970Y-9465870D02*
X9080970Y-9495870D01*
X9080970Y-9465870D02*
X9050970Y-9495870D01*
X9062500Y-12050000D02*
X9092500Y-12080000D01*
X9092500Y-12050000D02*
X9062500Y-12080000D01*
X9080000Y-8768800D02*
X9110000Y-8798800D01*
X9110000Y-8768800D02*
X9080000Y-8798800D01*
X9100000Y-12640500D02*
X9130000Y-12670500D01*
X9130000Y-12640500D02*
X9100000Y-12670500D01*
X9102500Y-10960000D02*
X9132500Y-10990000D01*
X9132500Y-10960000D02*
X9102500Y-10990000D01*
X9160000Y-13055000D02*
X9190000Y-13085000D01*
X9190000Y-13055000D02*
X9160000Y-13085000D01*
X9162500Y-11815000D02*
X9192500Y-11845000D01*
X9192500Y-11815000D02*
X9162500Y-11845000D01*
X9185000Y-12535000D02*
X9215000Y-12565000D01*
X9215000Y-12535000D02*
X9185000Y-12565000D01*
X9205000Y-8651250D02*
X9235000Y-8681250D01*
X9235000Y-8651250D02*
X9205000Y-8681250D01*
X9205000Y-9051250D02*
X9235000Y-9081250D01*
X9235000Y-9051250D02*
X9205000Y-9081250D01*
X9205000Y-9451250D02*
X9235000Y-9481250D01*
X9235000Y-9451250D02*
X9205000Y-9481250D01*
X9230050Y-10640709D02*
X9260050Y-10670709D01*
X9260050Y-10640709D02*
X9230050Y-10670709D01*
X9301660Y-12731740D02*
X9331660Y-12761740D01*
X9331660Y-12731740D02*
X9301660Y-12761740D01*
X9320000Y-11228750D02*
X9350000Y-11258750D01*
X9350000Y-11228750D02*
X9320000Y-11258750D01*
X9346433Y-11143139D02*
X9376433Y-11173139D01*
X9376433Y-11143139D02*
X9346433Y-11173139D01*
X9352500Y-11055000D02*
X9382500Y-11085000D01*
X9382500Y-11055000D02*
X9352500Y-11085000D01*
X9375000Y-12640500D02*
X9405000Y-12670500D01*
X9405000Y-12640500D02*
X9375000Y-12670500D01*
X9412500Y-11985000D02*
X9442500Y-12015000D01*
X9442500Y-11985000D02*
X9412500Y-12015000D01*
X9418520Y-9543873D02*
X9448520Y-9573873D01*
X9448520Y-9543873D02*
X9418520Y-9573873D01*
X9420000Y-8330000D02*
X9450000Y-8360000D01*
X9450000Y-8330000D02*
X9420000Y-8360000D01*
X9425590Y-11766860D02*
X9455590Y-11796860D01*
X9455590Y-11766860D02*
X9425590Y-11796860D01*
X9427100Y-12431130D02*
X9457100Y-12461130D01*
X9457100Y-12431130D02*
X9427100Y-12461130D01*
X9469284Y-11661295D02*
X9499284Y-11691295D01*
X9499284Y-11661295D02*
X9469284Y-11691295D01*
X9515609Y-13573951D02*
X9545609Y-13603951D01*
X9545609Y-13573951D02*
X9515609Y-13603951D01*
X9553000Y-5744280D02*
X9583000Y-5774280D01*
X9583000Y-5744280D02*
X9553000Y-5774280D01*
X9585000Y-12135000D02*
X9615000Y-12165000D01*
X9615000Y-12135000D02*
X9585000Y-12165000D01*
X9585227Y-12734088D02*
X9615227Y-12764088D01*
X9615227Y-12734088D02*
X9585227Y-12764088D01*
X9591295Y-11539284D02*
X9621295Y-11569284D01*
X9621295Y-11539284D02*
X9591295Y-11569284D01*
X9631250Y-11390000D02*
X9661250Y-11420000D01*
X9661250Y-11390000D02*
X9631250Y-11420000D01*
X9646113Y-13305132D02*
X9676113Y-13335132D01*
X9676113Y-13305132D02*
X9646113Y-13335132D01*
X9650000Y-9242070D02*
X9680000Y-9272070D01*
X9680000Y-9242070D02*
X9650000Y-9272070D01*
X9692500Y-11510000D02*
X9722500Y-11540000D01*
X9722500Y-11510000D02*
X9692500Y-11540000D01*
X9692500Y-11685000D02*
X9722500Y-11715000D01*
X9722500Y-11685000D02*
X9692500Y-11715000D01*
X9700000Y-11310000D02*
X9730000Y-11340000D01*
X9730000Y-11310000D02*
X9700000Y-11340000D01*
X9707500Y-12845000D02*
X9737500Y-12875000D01*
X9737500Y-12845000D02*
X9707500Y-12875000D01*
X9751300Y-10310520D02*
X9781300Y-10340520D01*
X9781300Y-10310520D02*
X9751300Y-10340520D01*
X9757241Y-8560050D02*
X9787241Y-8590050D01*
X9787241Y-8560050D02*
X9757241Y-8590050D01*
X9800000Y-12677500D02*
X9830000Y-12707500D01*
X9830000Y-12677500D02*
X9800000Y-12707500D01*
X9820000Y-13205000D02*
X9850000Y-13235000D01*
X9850000Y-13205000D02*
X9820000Y-13235000D01*
X9840000Y-10015630D02*
X9870000Y-10045630D01*
X9870000Y-10015630D02*
X9840000Y-10045630D01*
X9857500Y-12537500D02*
X9887500Y-12567500D01*
X9887500Y-12537500D02*
X9857500Y-12567500D01*
X9857500Y-12607500D02*
X9887500Y-12637500D01*
X9887500Y-12607500D02*
X9857500Y-12637500D01*
X9885000Y-13106100D02*
X9915000Y-13136100D01*
X9915000Y-13106100D02*
X9885000Y-13136100D01*
X9892147Y-12266363D02*
X9922147Y-12296363D01*
X9922147Y-12266363D02*
X9892147Y-12296363D01*
X9910000Y-7620000D02*
X9940000Y-7650000D01*
X9940000Y-7620000D02*
X9910000Y-7650000D01*
X9917500Y-12517500D02*
X9947500Y-12547500D01*
X9947500Y-12517500D02*
X9917500Y-12547500D01*
X9957500Y-12327500D02*
X9987500Y-12357500D01*
X9987500Y-12327500D02*
X9957500Y-12357500D01*
X9963690Y-10856050D02*
X9993690Y-10886050D01*
X9993690Y-10856050D02*
X9963690Y-10886050D01*
X9968220Y-5865720D02*
X9998220Y-5895720D01*
X9998220Y-5865720D02*
X9968220Y-5895720D01*
X9973254Y-13276263D02*
X10003254Y-13306263D01*
X10003254Y-13276263D02*
X9973254Y-13306263D01*
X9985000Y-11335000D02*
X10015000Y-11365000D01*
X10015000Y-11335000D02*
X9985000Y-11365000D01*
X10032140Y-10992690D02*
X10062140Y-11022690D01*
X10062140Y-10992690D02*
X10032140Y-11022690D01*
X10062500Y-12948390D02*
X10092500Y-12978390D01*
X10092500Y-12948390D02*
X10062500Y-12978390D01*
X10099000Y-8383000D02*
X10129000Y-8413000D01*
X10129000Y-8383000D02*
X10099000Y-8413000D01*
X10130000Y-12506000D02*
X10160000Y-12536000D01*
X10160000Y-12506000D02*
X10130000Y-12536000D01*
X10132500Y-11531000D02*
X10162500Y-11561000D01*
X10162500Y-11531000D02*
X10132500Y-11561000D01*
X10135000Y-10867500D02*
X10165000Y-10897500D01*
X10165000Y-10867500D02*
X10135000Y-10897500D01*
X10135000Y-10967500D02*
X10165000Y-10997500D01*
X10165000Y-10967500D02*
X10135000Y-10997500D01*
X10135000Y-11202500D02*
X10165000Y-11232500D01*
X10165000Y-11202500D02*
X10135000Y-11232500D01*
X10160000Y-12677500D02*
X10190000Y-12707500D01*
X10190000Y-12677500D02*
X10160000Y-12707500D01*
X10194740Y-9673860D02*
X10224740Y-9703860D01*
X10224740Y-9673860D02*
X10194740Y-9703860D01*
X10217500Y-11735000D02*
X10247500Y-11765000D01*
X10247500Y-11735000D02*
X10217500Y-11765000D01*
X10294910Y-9354490D02*
X10324910Y-9384490D01*
X10324910Y-9354490D02*
X10294910Y-9384490D01*
X10299122Y-13277076D02*
X10329122Y-13307076D01*
X10329122Y-13277076D02*
X10299122Y-13307076D01*
X10299978Y-12917478D02*
X10329978Y-12947478D01*
X10329978Y-12917478D02*
X10299978Y-12947478D01*
X10304647Y-10968863D02*
X10334647Y-10998863D01*
X10334647Y-10968863D02*
X10304647Y-10998863D01*
X10315000Y-10622500D02*
X10345000Y-10652500D01*
X10345000Y-10622500D02*
X10315000Y-10652500D01*
X10315000Y-11202500D02*
X10345000Y-11232500D01*
X10345000Y-11202500D02*
X10315000Y-11232500D01*
X10327500Y-12206000D02*
X10357500Y-12236000D01*
X10357500Y-12206000D02*
X10327500Y-12236000D01*
X10330000Y-12626000D02*
X10360000Y-12656000D01*
X10360000Y-12626000D02*
X10330000Y-12656000D01*
X10342500Y-9425000D02*
X10372500Y-9455000D01*
X10372500Y-9425000D02*
X10342500Y-9455000D01*
X10368220Y-7560720D02*
X10398220Y-7590720D01*
X10398220Y-7560720D02*
X10368220Y-7590720D01*
X10381980Y-12738600D02*
X10411980Y-12768600D01*
X10411980Y-12738600D02*
X10381980Y-12768600D01*
X10385000Y-10535000D02*
X10415000Y-10565000D01*
X10415000Y-10535000D02*
X10385000Y-10565000D01*
X10385000Y-10935000D02*
X10415000Y-10965000D01*
X10415000Y-10935000D02*
X10385000Y-10965000D01*
X10393220Y-9965720D02*
X10423220Y-9995720D01*
X10423220Y-9965720D02*
X10393220Y-9995720D01*
X10422956Y-11889951D02*
X10452956Y-11919951D01*
X10452956Y-11889951D02*
X10422956Y-11919951D01*
X10427430Y-8805840D02*
X10457430Y-8835840D01*
X10457430Y-8805840D02*
X10427430Y-8835840D01*
X10457500Y-12947500D02*
X10487500Y-12977500D01*
X10487500Y-12947500D02*
X10457500Y-12977500D01*
X10463220Y-9510720D02*
X10493220Y-9540720D01*
X10493220Y-9510720D02*
X10463220Y-9540720D01*
X10496746Y-13276263D02*
X10526746Y-13306263D01*
X10526746Y-13276263D02*
X10496746Y-13306263D01*
X10497500Y-12897500D02*
X10527500Y-12927500D01*
X10527500Y-12897500D02*
X10497500Y-12927500D01*
X10515000Y-5567500D02*
X10545000Y-5597500D01*
X10545000Y-5567500D02*
X10515000Y-5597500D01*
X10525000Y-10610000D02*
X10555000Y-10640000D01*
X10555000Y-10610000D02*
X10525000Y-10640000D01*
X10587500Y-12845000D02*
X10617500Y-12875000D01*
X10617500Y-12845000D02*
X10587500Y-12875000D01*
X10593220Y-9380720D02*
X10623220Y-9410720D01*
X10623220Y-9380720D02*
X10593220Y-9410720D01*
X10685000Y-11695000D02*
X10715000Y-11725000D01*
X10715000Y-11695000D02*
X10685000Y-11725000D01*
X10685000Y-11775000D02*
X10715000Y-11805000D01*
X10715000Y-11775000D02*
X10685000Y-11805000D01*
X10694401Y-13275620D02*
X10724401Y-13305620D01*
X10724401Y-13275620D02*
X10694401Y-13305620D01*
X10735000Y-10922830D02*
X10765000Y-10952830D01*
X10765000Y-10922830D02*
X10735000Y-10952830D01*
X10747202Y-7014585D02*
X10777202Y-7044585D01*
X10777202Y-7014585D02*
X10747202Y-7044585D01*
X10785000Y-10535000D02*
X10815000Y-10565000D01*
X10815000Y-10535000D02*
X10785000Y-10565000D01*
X10785000Y-11735000D02*
X10815000Y-11765000D01*
X10815000Y-11735000D02*
X10785000Y-11765000D01*
X10785000Y-12935000D02*
X10815000Y-12965000D01*
X10815000Y-12935000D02*
X10785000Y-12965000D01*
X10825210Y-10976760D02*
X10855210Y-11006760D01*
X10855210Y-10976760D02*
X10825210Y-11006760D01*
X10867500Y-6615000D02*
X10897500Y-6645000D01*
X10897500Y-6615000D02*
X10867500Y-6645000D01*
X10954391Y-13573951D02*
X10984391Y-13603951D01*
X10984391Y-13573951D02*
X10954391Y-13603951D01*
X11040620Y-6373010D02*
X11070620Y-6403010D01*
X11070620Y-6373010D02*
X11040620Y-6403010D01*
X11042340Y-13249460D02*
X11072340Y-13279460D01*
X11072340Y-13249460D02*
X11042340Y-13279460D01*
X11051966Y-11300444D02*
X11081966Y-11330444D01*
X11081966Y-11300444D02*
X11051966Y-11330444D01*
X11105000Y-10807500D02*
X11135000Y-10837500D01*
X11135000Y-10807500D02*
X11105000Y-10837500D01*
X11155000Y-12632500D02*
X11185000Y-12662500D01*
X11185000Y-12632500D02*
X11155000Y-12662500D01*
X11365609Y-13573951D02*
X11395609Y-13603951D01*
X11395609Y-13573951D02*
X11365609Y-13603951D01*
X11404760Y-6560770D02*
X11434760Y-6590770D01*
X11434760Y-6560770D02*
X11404760Y-6590770D01*
X11415000Y-8575000D02*
X11445000Y-8605000D01*
X11445000Y-8575000D02*
X11415000Y-8605000D01*
X11472500Y-6100000D02*
X11502500Y-6130000D01*
X11502500Y-6100000D02*
X11472500Y-6130000D01*
X11496112Y-13305132D02*
X11526112Y-13335132D01*
X11526112Y-13305132D02*
X11496112Y-13335132D01*
X11606040Y-6347550D02*
X11636040Y-6377550D01*
X11636040Y-6347550D02*
X11606040Y-6377550D01*
X11619808Y-12238993D02*
X11649808Y-12268993D01*
X11649808Y-12238993D02*
X11619808Y-12268993D01*
X11742500Y-12480270D02*
X11772500Y-12510270D01*
X11772500Y-12480270D02*
X11742500Y-12510270D01*
X11767388Y-12952565D02*
X11797388Y-12982565D01*
X11797388Y-12952565D02*
X11767388Y-12982565D01*
X11815000Y-11258000D02*
X11845000Y-11288000D01*
X11845000Y-11258000D02*
X11815000Y-11288000D01*
X11823254Y-13276263D02*
X11853254Y-13306263D01*
X11853254Y-13276263D02*
X11823254Y-13306263D01*
X11905000Y-12223000D02*
X11935000Y-12253000D01*
X11935000Y-12223000D02*
X11905000Y-12253000D01*
X11925000Y-12517500D02*
X11955000Y-12547500D01*
X11955000Y-12517500D02*
X11925000Y-12547500D01*
X11935000Y-13140000D02*
X11965000Y-13170000D01*
X11965000Y-13140000D02*
X11935000Y-13170000D01*
X11945000Y-10855000D02*
X11975000Y-10885000D01*
X11975000Y-10855000D02*
X11945000Y-10885000D01*
X11966000Y-7256470D02*
X11996000Y-7286470D01*
X11996000Y-7256470D02*
X11966000Y-7286470D01*
X12030000Y-10755000D02*
X12060000Y-10785000D01*
X12060000Y-10755000D02*
X12030000Y-10785000D01*
X12054632Y-11571588D02*
X12084632Y-11601588D01*
X12084632Y-11571588D02*
X12054632Y-11601588D01*
X12095320Y-11115010D02*
X12125320Y-11145010D01*
X12125320Y-11115010D02*
X12095320Y-11145010D01*
X12149122Y-13277076D02*
X12179122Y-13307076D01*
X12179122Y-13277076D02*
X12149122Y-13307076D01*
X12160000Y-10795000D02*
X12190000Y-10825000D01*
X12190000Y-10795000D02*
X12160000Y-10825000D01*
X12188000Y-8780000D02*
X12218000Y-8810000D01*
X12218000Y-8780000D02*
X12188000Y-8810000D01*
X12223000Y-10670000D02*
X12253000Y-10700000D01*
X12253000Y-10670000D02*
X12223000Y-10700000D01*
X12235000Y-13049980D02*
X12265000Y-13079980D01*
X12265000Y-13049980D02*
X12235000Y-13079980D01*
X12275000Y-9750000D02*
X12305000Y-9780000D01*
X12305000Y-9750000D02*
X12275000Y-9780000D01*
X12285000Y-10525000D02*
X12315000Y-10555000D01*
X12315000Y-10525000D02*
X12285000Y-10555000D01*
X12300000Y-12223000D02*
X12330000Y-12253000D01*
X12330000Y-12223000D02*
X12300000Y-12253000D01*
X12346746Y-13276263D02*
X12376746Y-13306263D01*
X12376746Y-13276263D02*
X12346746Y-13306263D01*
X12420000Y-11377500D02*
X12450000Y-11407500D01*
X12450000Y-11377500D02*
X12420000Y-11407500D01*
X12435000Y-12793750D02*
X12465000Y-12823750D01*
X12465000Y-12793750D02*
X12435000Y-12823750D01*
X12485000Y-10567500D02*
X12515000Y-10597500D01*
X12515000Y-10567500D02*
X12485000Y-10597500D01*
X12505000Y-12223000D02*
X12535000Y-12253000D01*
X12535000Y-12223000D02*
X12505000Y-12253000D01*
X12506980Y-11731230D02*
X12536980Y-11761230D01*
X12536980Y-11731230D02*
X12506980Y-11761230D01*
X12544401Y-13275620D02*
X12574401Y-13305620D01*
X12574401Y-13275620D02*
X12544401Y-13305620D01*
X12561600Y-11791410D02*
X12591600Y-11821410D01*
X12591600Y-11791410D02*
X12561600Y-11821410D01*
X12603649Y-6900588D02*
X12633649Y-6930588D01*
X12633649Y-6900588D02*
X12603649Y-6930588D01*
X12635000Y-8067500D02*
X12665000Y-8097500D01*
X12665000Y-8067500D02*
X12635000Y-8097500D01*
X12710500Y-12518000D02*
X12740500Y-12548000D01*
X12740500Y-12518000D02*
X12710500Y-12548000D01*
X12735000Y-10600000D02*
X12765000Y-10630000D01*
X12765000Y-10600000D02*
X12735000Y-10630000D01*
X12777000Y-8615000D02*
X12807000Y-8645000D01*
X12807000Y-8615000D02*
X12777000Y-8645000D01*
X12804391Y-13573951D02*
X12834391Y-13603951D01*
X12834391Y-13573951D02*
X12804391Y-13603951D01*
X12805800Y-11621300D02*
X12835800Y-11651300D01*
X12835800Y-11621300D02*
X12805800Y-11651300D01*
X12810000Y-11157000D02*
X12840000Y-11187000D01*
X12840000Y-11157000D02*
X12810000Y-11187000D01*
X12863750Y-11415000D02*
X12893750Y-11445000D01*
X12893750Y-11415000D02*
X12863750Y-11445000D01*
X12869000Y-11513000D02*
X12899000Y-11543000D01*
X12899000Y-11513000D02*
X12869000Y-11543000D01*
X12893020Y-11596524D02*
X12923020Y-11626524D01*
X12923020Y-11596524D02*
X12893020Y-11626524D01*
X12916460Y-12304100D02*
X12946460Y-12334100D01*
X12946460Y-12304100D02*
X12916460Y-12334100D01*
X12938780Y-8105000D02*
X12968780Y-8135000D01*
X12968780Y-8105000D02*
X12938780Y-8135000D01*
X13035000Y-10750000D02*
X13065000Y-10780000D01*
X13065000Y-10750000D02*
X13035000Y-10780000D01*
X13098750Y-10960000D02*
X13128750Y-10990000D01*
X13128750Y-10960000D02*
X13098750Y-10990000D01*
X13145710Y-8757740D02*
X13175710Y-8787740D01*
X13175710Y-8757740D02*
X13145710Y-8787740D01*
X13185000Y-13327500D02*
X13215000Y-13357500D01*
X13215000Y-13327500D02*
X13185000Y-13357500D01*
X13310000Y-8675000D02*
X13340000Y-8705000D01*
X13340000Y-8675000D02*
X13310000Y-8705000D01*
X13316050Y-7441816D02*
X13346050Y-7471816D01*
X13346050Y-7441816D02*
X13316050Y-7471816D01*
X13395000Y-13310000D02*
X13425000Y-13340000D01*
X13425000Y-13310000D02*
X13395000Y-13340000D01*
X13426920Y-8826690D02*
X13456920Y-8856690D01*
X13456920Y-8826690D02*
X13426920Y-8856690D01*
X13487440Y-6668000D02*
X13517440Y-6698000D01*
X13517440Y-6668000D02*
X13487440Y-6698000D01*
X13510000Y-8687500D02*
X13540000Y-8717500D01*
X13540000Y-8687500D02*
X13510000Y-8717500D01*
X13616050Y-7995690D02*
X13646050Y-8025690D01*
X13646050Y-7995690D02*
X13616050Y-8025690D01*
X13685000Y-8692500D02*
X13715000Y-8722500D01*
X13715000Y-8692500D02*
X13685000Y-8722500D01*
X13705000Y-11157500D02*
X13735000Y-11187500D01*
X13735000Y-11157500D02*
X13705000Y-11187500D01*
X13795000Y-9167500D02*
X13825000Y-9197500D01*
X13825000Y-9167500D02*
X13795000Y-9197500D01*
X13891250Y-6895000D02*
X13921250Y-6925000D01*
X13921250Y-6895000D02*
X13891250Y-6925000D01*
X13904770Y-9694210D02*
X13934770Y-9724210D01*
X13934770Y-9694210D02*
X13904770Y-9724210D01*
X13975076Y-9875878D02*
X14005076Y-9905878D01*
X14005076Y-9875878D02*
X13975076Y-9905878D01*
X13975076Y-10485878D02*
X14005076Y-10515878D01*
X14005076Y-10485878D02*
X13975076Y-10515878D01*
X13986019Y-9409979D02*
X14016019Y-9439979D01*
X14016019Y-9409979D02*
X13986019Y-9439979D01*
X14032740Y-8088410D02*
X14062740Y-8118410D01*
X14062740Y-8088410D02*
X14032740Y-8118410D01*
X14125000Y-8435000D02*
X14155000Y-8465000D01*
X14155000Y-8435000D02*
X14125000Y-8465000D01*
X14139350Y-11005180D02*
X14169350Y-11035180D01*
X14169350Y-11005180D02*
X14139350Y-11035180D01*
X14145000Y-7125000D02*
X14175000Y-7155000D01*
X14175000Y-7125000D02*
X14145000Y-7155000D01*
X14145000Y-7575000D02*
X14175000Y-7605000D01*
X14175000Y-7575000D02*
X14145000Y-7605000D01*
X14185000Y-6327500D02*
X14215000Y-6357500D01*
X14215000Y-6327500D02*
X14185000Y-6357500D01*
X14272500Y-6160000D02*
X14302500Y-6190000D01*
X14302500Y-6160000D02*
X14272500Y-6190000D01*
X14311900Y-11241860D02*
X14341900Y-11271860D01*
X14341900Y-11241860D02*
X14311900Y-11271860D01*
X8987500Y-11725000D02*
G75*
G02*
X8947500Y-11725000I-20000J0D01*
G01*
X8947500Y-11725000D02*
G75*
G02*
X8987500Y-11725000I20000J0D01*
G01*
X9083710Y-11554300D02*
G75*
G02*
X9043710Y-11554300I-20000J0D01*
G01*
X9043710Y-11554300D02*
G75*
G02*
X9083710Y-11554300I20000J0D01*
G01*
X9176980Y-11655200D02*
G75*
G02*
X9136980Y-11655200I-20000J0D01*
G01*
X9136980Y-11655200D02*
G75*
G02*
X9176980Y-11655200I20000J0D01*
G01*
X10422500Y-5620000D02*
G75*
G02*
X10382500Y-5620000I-20000J0D01*
G01*
X10382500Y-5620000D02*
G75*
G02*
X10422500Y-5620000I20000J0D01*
G01*
X10820000Y-13537330D02*
G75*
G02*
X10780000Y-13537330I-20000J0D01*
G01*
X10780000Y-13537330D02*
G75*
G02*
X10820000Y-13537330I20000J0D01*
G01*
X10970000Y-5232040D02*
G75*
G02*
X10930000Y-5232040I-20000J0D01*
G01*
X10930000Y-5232040D02*
G75*
G02*
X10970000Y-5232040I20000J0D01*
G01*
X11140000Y-11057500D02*
G75*
G02*
X11100000Y-11057500I-20000J0D01*
G01*
X11100000Y-11057500D02*
G75*
G02*
X11140000Y-11057500I20000J0D01*
G01*
X11190000Y-12412500D02*
G75*
G02*
X11150000Y-12412500I-20000J0D01*
G01*
X11150000Y-12412500D02*
G75*
G02*
X11190000Y-12412500I20000J0D01*
G01*
X11297600Y-12332400D02*
G75*
G02*
X11257600Y-12332400I-20000J0D01*
G01*
X11257600Y-12332400D02*
G75*
G02*
X11297600Y-12332400I20000J0D01*
G01*
X11960000Y-12767500D02*
G75*
G02*
X11920000Y-12767500I-20000J0D01*
G01*
X11920000Y-12767500D02*
G75*
G02*
X11960000Y-12767500I20000J0D01*
G01*
X12295000Y-10902500D02*
G75*
G02*
X12255000Y-10902500I-20000J0D01*
G01*
X12255000Y-10902500D02*
G75*
G02*
X12295000Y-10902500I20000J0D01*
G01*
X12295000Y-11227500D02*
G75*
G02*
X12255000Y-11227500I-20000J0D01*
G01*
X12255000Y-11227500D02*
G75*
G02*
X12295000Y-11227500I20000J0D01*
G01*
X12645000Y-12002500D02*
G75*
G02*
X12605000Y-12002500I-20000J0D01*
G01*
X12605000Y-12002500D02*
G75*
G02*
X12645000Y-12002500I20000J0D01*
G01*
X12645000Y-12567500D02*
G75*
G02*
X12605000Y-12567500I-20000J0D01*
G01*
X12605000Y-12567500D02*
G75*
G02*
X12645000Y-12567500I20000J0D01*
G01*
X12670000Y-8317500D02*
G75*
G02*
X12630000Y-8317500I-20000J0D01*
G01*
X12630000Y-8317500D02*
G75*
G02*
X12670000Y-8317500I20000J0D01*
G01*
X12670000Y-13095000D02*
G75*
G02*
X12630000Y-13095000I-20000J0D01*
G01*
X12630000Y-13095000D02*
G75*
G02*
X12670000Y-13095000I20000J0D01*
G01*
X12670000Y-13481330D02*
G75*
G02*
X12630000Y-13481330I-20000J0D01*
G01*
X12630000Y-13481330D02*
G75*
G02*
X12670000Y-13481330I20000J0D01*
G01*
X12762500Y-5610000D02*
G75*
G02*
X12722500Y-5610000I-20000J0D01*
G01*
X12722500Y-5610000D02*
G75*
G02*
X12762500Y-5610000I20000J0D01*
G01*
X12770000Y-10885000D02*
G75*
G02*
X12730000Y-10885000I-20000J0D01*
G01*
X12730000Y-10885000D02*
G75*
G02*
X12770000Y-10885000I20000J0D01*
G01*
X13040000Y-13578800D02*
G75*
G02*
X13000000Y-13578800I-20000J0D01*
G01*
X13000000Y-13578800D02*
G75*
G02*
X13040000Y-13578800I20000J0D01*
G01*
X13082500Y-5610000D02*
G75*
G02*
X13042500Y-5610000I-20000J0D01*
G01*
X13042500Y-5610000D02*
G75*
G02*
X13082500Y-5610000I20000J0D01*
G01*
X13345000Y-8960000D02*
G75*
G02*
X13305000Y-8960000I-20000J0D01*
G01*
X13305000Y-8960000D02*
G75*
G02*
X13345000Y-8960000I20000J0D01*
G01*
X13538100Y-10963100D02*
G75*
G02*
X13498100Y-10963100I-20000J0D01*
G01*
X13498100Y-10963100D02*
G75*
G02*
X13538100Y-10963100I20000J0D01*
G01*
X13570300Y-11042600D02*
G75*
G02*
X13530300Y-11042600I-20000J0D01*
G01*
X13530300Y-11042600D02*
G75*
G02*
X13570300Y-11042600I20000J0D01*
G01*
X13830000Y-9417500D02*
G75*
G02*
X13790000Y-9417500I-20000J0D01*
G01*
X13790000Y-9417500D02*
G75*
G02*
X13830000Y-9417500I20000J0D01*
G01*
X14010100Y-9309120D02*
G75*
G02*
X13970100Y-9309120I-20000J0D01*
G01*
X13970100Y-9309120D02*
G75*
G02*
X14010100Y-9309120I20000J0D01*
G01*
X14011500Y-7069850D02*
G75*
G02*
X13971500Y-7069850I-20000J0D01*
G01*
X13971500Y-7069850D02*
G75*
G02*
X14011500Y-7069850I20000J0D01*
G01*
X9850000Y-5212500D02*
X9850000Y-5287500D01*
X9812500Y-5250000D02*
X9887500Y-5250000D01*
X10050000Y-5212500D02*
X10050000Y-5287500D01*
X10012500Y-5250000D02*
X10087500Y-5250000D01*
X9349356Y-6015356D02*
X9349356Y-5944644D01*
X9278644Y-5944644D01*
X9278644Y-6015356D01*
X9349356Y-6015356D01*
X9349356Y-7793356D02*
X9349356Y-7722644D01*
X9278644Y-7722644D01*
X9278644Y-7793356D01*
X9349356Y-7793356D01*
X9603356Y-6015356D02*
X9603356Y-5944644D01*
X9532644Y-5944644D01*
X9532644Y-6015356D01*
X9603356Y-6015356D01*
X9603356Y-7793356D02*
X9603356Y-7722644D01*
X9532644Y-7722644D01*
X9532644Y-7793356D01*
X9603356Y-7793356D01*
X9857356Y-6015356D02*
X9857356Y-5944644D01*
X9786644Y-5944644D01*
X9786644Y-6015356D01*
X9857356Y-6015356D01*
X9857356Y-7793356D02*
X9857356Y-7722644D01*
X9786644Y-7722644D01*
X9786644Y-7793356D01*
X9857356Y-7793356D01*
X10111356Y-6015356D02*
X10111356Y-5944644D01*
X10040644Y-5944644D01*
X10040644Y-6015356D01*
X10111356Y-6015356D01*
X10111356Y-7793356D02*
X10111356Y-7722644D01*
X10040644Y-7722644D01*
X10040644Y-7793356D01*
X10111356Y-7793356D01*
X10365356Y-6015356D02*
X10365356Y-5944644D01*
X10294644Y-5944644D01*
X10294644Y-6015356D01*
X10365356Y-6015356D01*
X10365356Y-7793356D02*
X10365356Y-7722644D01*
X10294644Y-7722644D01*
X10294644Y-7793356D01*
X10365356Y-7793356D01*
X10619356Y-6015356D02*
X10619356Y-5944644D01*
X10548644Y-5944644D01*
X10548644Y-6015356D01*
X10619356Y-6015356D01*
X10619356Y-7793356D02*
X10619356Y-7722644D01*
X10548644Y-7722644D01*
X10548644Y-7793356D01*
X10619356Y-7793356D01*
X10873356Y-6015356D02*
X10873356Y-5944644D01*
X10802644Y-5944644D01*
X10802644Y-6015356D01*
X10873356Y-6015356D01*
X10873356Y-7793356D02*
X10873356Y-7722644D01*
X10802644Y-7722644D01*
X10802644Y-7793356D01*
X10873356Y-7793356D01*
X11127356Y-6015356D02*
X11127356Y-5944644D01*
X11056644Y-5944644D01*
X11056644Y-6015356D01*
X11127356Y-6015356D01*
X11127356Y-7793356D02*
X11127356Y-7722644D01*
X11056644Y-7722644D01*
X11056644Y-7793356D01*
X11127356Y-7793356D01*
X11381356Y-6015356D02*
X11381356Y-5944644D01*
X11310644Y-5944644D01*
X11310644Y-6015356D01*
X11381356Y-6015356D01*
X11381356Y-7793356D02*
X11381356Y-7722644D01*
X11310644Y-7722644D01*
X11310644Y-7793356D01*
X11381356Y-7793356D01*
X11635356Y-6015356D02*
X11635356Y-5944644D01*
X11564644Y-5944644D01*
X11564644Y-6015356D01*
X11635356Y-6015356D01*
X11635356Y-7793356D02*
X11635356Y-7722644D01*
X11564644Y-7722644D01*
X11564644Y-7793356D01*
X11635356Y-7793356D01*
X11889356Y-6015356D02*
X11889356Y-5944644D01*
X11818644Y-5944644D01*
X11818644Y-6015356D01*
X11889356Y-6015356D01*
X11889356Y-7793356D02*
X11889356Y-7722644D01*
X11818644Y-7722644D01*
X11818644Y-7793356D01*
X11889356Y-7793356D01*
X12143356Y-6015356D02*
X12143356Y-5944644D01*
X12072644Y-5944644D01*
X12072644Y-6015356D01*
X12143356Y-6015356D01*
X12143356Y-7793356D02*
X12143356Y-7722644D01*
X12072644Y-7722644D01*
X12072644Y-7793356D01*
X12143356Y-7793356D01*
X12397356Y-6015356D02*
X12397356Y-5944644D01*
X12326644Y-5944644D01*
X12326644Y-6015356D01*
X12397356Y-6015356D01*
X12397356Y-7793356D02*
X12397356Y-7722644D01*
X12326644Y-7722644D01*
X12326644Y-7793356D01*
X12397356Y-7793356D01*
X12581356Y-5235356D02*
X12581356Y-5164644D01*
X12510644Y-5164644D01*
X12510644Y-5235356D01*
X12581356Y-5235356D01*
X12645356Y-9775356D02*
X12645356Y-9704644D01*
X12574644Y-9704644D01*
X12574644Y-9775356D01*
X12645356Y-9775356D01*
X12651356Y-6015356D02*
X12651356Y-5944644D01*
X12580644Y-5944644D01*
X12580644Y-6015356D01*
X12651356Y-6015356D01*
X12651356Y-7793356D02*
X12651356Y-7722644D01*
X12580644Y-7722644D01*
X12580644Y-7793356D01*
X12651356Y-7793356D01*
X12835356Y-5235356D02*
X12835356Y-5164644D01*
X12764644Y-5164644D01*
X12764644Y-5235356D01*
X12835356Y-5235356D01*
X12905356Y-6015356D02*
X12905356Y-5944644D01*
X12834644Y-5944644D01*
X12834644Y-6015356D01*
X12905356Y-6015356D01*
X12905356Y-7793356D02*
X12905356Y-7722644D01*
X12834644Y-7722644D01*
X12834644Y-7793356D01*
X12905356Y-7793356D01*
X13089356Y-5235356D02*
X13089356Y-5164644D01*
X13018644Y-5164644D01*
X13018644Y-5235356D01*
X13089356Y-5235356D01*
X13145356Y-9775356D02*
X13145356Y-9704644D01*
X13074644Y-9704644D01*
X13074644Y-9775356D01*
X13145356Y-9775356D01*
X13159356Y-6015356D02*
X13159356Y-5944644D01*
X13088644Y-5944644D01*
X13088644Y-6015356D01*
X13159356Y-6015356D01*
X13159356Y-7793356D02*
X13159356Y-7722644D01*
X13088644Y-7722644D01*
X13088644Y-7793356D01*
X13159356Y-7793356D01*
X13413356Y-6015356D02*
X13413356Y-5944644D01*
X13342644Y-5944644D01*
X13342644Y-6015356D01*
X13413356Y-6015356D01*
X13413356Y-7793356D02*
X13413356Y-7722644D01*
X13342644Y-7722644D01*
X13342644Y-7793356D01*
X13413356Y-7793356D01*
X13667356Y-6015356D02*
X13667356Y-5944644D01*
X13596644Y-5944644D01*
X13596644Y-6015356D01*
X13667356Y-6015356D01*
X13667356Y-7793356D02*
X13667356Y-7722644D01*
X13596644Y-7722644D01*
X13596644Y-7793356D01*
X13667356Y-7793356D01*
X13921356Y-6015356D02*
X13921356Y-5944644D01*
X13850644Y-5944644D01*
X13850644Y-6015356D01*
X13921356Y-6015356D01*
X13921356Y-7793356D02*
X13921356Y-7722644D01*
X13850644Y-7722644D01*
X13850644Y-7793356D01*
X13921356Y-7793356D01*
X14175356Y-6015356D02*
X14175356Y-5944644D01*
X14104644Y-5944644D01*
X14104644Y-6015356D01*
X14175356Y-6015356D01*
X14175356Y-7793356D02*
X14175356Y-7722644D01*
X14104644Y-7722644D01*
X14104644Y-7793356D01*
X14175356Y-7793356D01*
D12*
X10610000Y-9925000D02*
X10705000Y-9830000D01*
X10610000Y-9735000D01*
X10515000Y-9830000D01*
X10610000Y-9925000D01*
X11930000Y-9925000D02*
X12025000Y-9830000D01*
X11930000Y-9735000D01*
X11835000Y-9830000D01*
X11930000Y-9925000D01*
D11*
X8705777Y-14116484D02*
X8705777Y-13916484D01*
X8705777Y-13916484D02*
X8753396Y-13916484D01*
X8753396Y-13916484D02*
X8781967Y-13926008D01*
X8781967Y-13926008D02*
X8801015Y-13945055D01*
X8801015Y-13945055D02*
X8810539Y-13964103D01*
X8810539Y-13964103D02*
X8820063Y-14002198D01*
X8820063Y-14002198D02*
X8820063Y-14030769D01*
X8820063Y-14030769D02*
X8810539Y-14068865D01*
X8810539Y-14068865D02*
X8801015Y-14087912D01*
X8801015Y-14087912D02*
X8781967Y-14106960D01*
X8781967Y-14106960D02*
X8753396Y-14116484D01*
X8753396Y-14116484D02*
X8705777Y-14116484D01*
X8905777Y-14116484D02*
X8905777Y-13983150D01*
X8905777Y-14021246D02*
X8915301Y-14002198D01*
X8915301Y-14002198D02*
X8924824Y-13992674D01*
X8924824Y-13992674D02*
X8943872Y-13983150D01*
X8943872Y-13983150D02*
X8962920Y-13983150D01*
X9029586Y-14116484D02*
X9029586Y-13983150D01*
X9029586Y-13916484D02*
X9020063Y-13926008D01*
X9020063Y-13926008D02*
X9029586Y-13935531D01*
X9029586Y-13935531D02*
X9039110Y-13926008D01*
X9039110Y-13926008D02*
X9029586Y-13916484D01*
X9029586Y-13916484D02*
X9029586Y-13935531D01*
X9153396Y-14116484D02*
X9134348Y-14106960D01*
X9134348Y-14106960D02*
X9124824Y-14087912D01*
X9124824Y-14087912D02*
X9124824Y-13916484D01*
X9258158Y-14116484D02*
X9239110Y-14106960D01*
X9239110Y-14106960D02*
X9229586Y-14087912D01*
X9229586Y-14087912D02*
X9229586Y-13916484D01*
X9486729Y-14116484D02*
X9486729Y-13916484D01*
X9486729Y-13916484D02*
X9553396Y-14059341D01*
X9553396Y-14059341D02*
X9620063Y-13916484D01*
X9620063Y-13916484D02*
X9620063Y-14116484D01*
X9801015Y-14116484D02*
X9801015Y-14011722D01*
X9801015Y-14011722D02*
X9791491Y-13992674D01*
X9791491Y-13992674D02*
X9772444Y-13983150D01*
X9772444Y-13983150D02*
X9734348Y-13983150D01*
X9734348Y-13983150D02*
X9715301Y-13992674D01*
X9801015Y-14106960D02*
X9781967Y-14116484D01*
X9781967Y-14116484D02*
X9734348Y-14116484D01*
X9734348Y-14116484D02*
X9715301Y-14106960D01*
X9715301Y-14106960D02*
X9705777Y-14087912D01*
X9705777Y-14087912D02*
X9705777Y-14068865D01*
X9705777Y-14068865D02*
X9715301Y-14049817D01*
X9715301Y-14049817D02*
X9734348Y-14040293D01*
X9734348Y-14040293D02*
X9781967Y-14040293D01*
X9781967Y-14040293D02*
X9801015Y-14030769D01*
X9896253Y-13983150D02*
X9896253Y-14183150D01*
X9896253Y-13992674D02*
X9915301Y-13983150D01*
X9915301Y-13983150D02*
X9953396Y-13983150D01*
X9953396Y-13983150D02*
X9972444Y-13992674D01*
X9972444Y-13992674D02*
X9981967Y-14002198D01*
X9981967Y-14002198D02*
X9991491Y-14021246D01*
X9991491Y-14021246D02*
X9991491Y-14078388D01*
X9991491Y-14078388D02*
X9981967Y-14097436D01*
X9981967Y-14097436D02*
X9972444Y-14106960D01*
X9972444Y-14106960D02*
X9953396Y-14116484D01*
X9953396Y-14116484D02*
X9915301Y-14116484D01*
X9915301Y-14116484D02*
X9896253Y-14106960D01*
X10077205Y-14097436D02*
X10086729Y-14106960D01*
X10086729Y-14106960D02*
X10077205Y-14116484D01*
X10077205Y-14116484D02*
X10067682Y-14106960D01*
X10067682Y-14106960D02*
X10077205Y-14097436D01*
X10077205Y-14097436D02*
X10077205Y-14116484D01*
X10077205Y-13992674D02*
X10086729Y-14002198D01*
X10086729Y-14002198D02*
X10077205Y-14011722D01*
X10077205Y-14011722D02*
X10067682Y-14002198D01*
X10067682Y-14002198D02*
X10077205Y-13992674D01*
X10077205Y-13992674D02*
X10077205Y-14011722D01*
D10*
X8415000Y-14430000D02*
X8445000Y-14460000D01*
X8445000Y-14430000D02*
X8415000Y-14460000D01*
D11*
X8743872Y-14336484D02*
X8762920Y-14336484D01*
X8762920Y-14336484D02*
X8781967Y-14346008D01*
X8781967Y-14346008D02*
X8791491Y-14355531D01*
X8791491Y-14355531D02*
X8801015Y-14374579D01*
X8801015Y-14374579D02*
X8810539Y-14412674D01*
X8810539Y-14412674D02*
X8810539Y-14460293D01*
X8810539Y-14460293D02*
X8801015Y-14498388D01*
X8801015Y-14498388D02*
X8791491Y-14517436D01*
X8791491Y-14517436D02*
X8781967Y-14526960D01*
X8781967Y-14526960D02*
X8762920Y-14536484D01*
X8762920Y-14536484D02*
X8743872Y-14536484D01*
X8743872Y-14536484D02*
X8724824Y-14526960D01*
X8724824Y-14526960D02*
X8715301Y-14517436D01*
X8715301Y-14517436D02*
X8705777Y-14498388D01*
X8705777Y-14498388D02*
X8696253Y-14460293D01*
X8696253Y-14460293D02*
X8696253Y-14412674D01*
X8696253Y-14412674D02*
X8705777Y-14374579D01*
X8705777Y-14374579D02*
X8715301Y-14355531D01*
X8715301Y-14355531D02*
X8724824Y-14346008D01*
X8724824Y-14346008D02*
X8743872Y-14336484D01*
X8896253Y-14517436D02*
X8905777Y-14526960D01*
X8905777Y-14526960D02*
X8896253Y-14536484D01*
X8896253Y-14536484D02*
X8886729Y-14526960D01*
X8886729Y-14526960D02*
X8896253Y-14517436D01*
X8896253Y-14517436D02*
X8896253Y-14536484D01*
X8972444Y-14336484D02*
X9096253Y-14336484D01*
X9096253Y-14336484D02*
X9029586Y-14412674D01*
X9029586Y-14412674D02*
X9058158Y-14412674D01*
X9058158Y-14412674D02*
X9077205Y-14422198D01*
X9077205Y-14422198D02*
X9086729Y-14431722D01*
X9086729Y-14431722D02*
X9096253Y-14450769D01*
X9096253Y-14450769D02*
X9096253Y-14498388D01*
X9096253Y-14498388D02*
X9086729Y-14517436D01*
X9086729Y-14517436D02*
X9077205Y-14526960D01*
X9077205Y-14526960D02*
X9058158Y-14536484D01*
X9058158Y-14536484D02*
X9001015Y-14536484D01*
X9001015Y-14536484D02*
X8981967Y-14526960D01*
X8981967Y-14526960D02*
X8972444Y-14517436D01*
X9220063Y-14336484D02*
X9239110Y-14336484D01*
X9239110Y-14336484D02*
X9258158Y-14346008D01*
X9258158Y-14346008D02*
X9267682Y-14355531D01*
X9267682Y-14355531D02*
X9277205Y-14374579D01*
X9277205Y-14374579D02*
X9286729Y-14412674D01*
X9286729Y-14412674D02*
X9286729Y-14460293D01*
X9286729Y-14460293D02*
X9277205Y-14498388D01*
X9277205Y-14498388D02*
X9267682Y-14517436D01*
X9267682Y-14517436D02*
X9258158Y-14526960D01*
X9258158Y-14526960D02*
X9239110Y-14536484D01*
X9239110Y-14536484D02*
X9220063Y-14536484D01*
X9220063Y-14536484D02*
X9201015Y-14526960D01*
X9201015Y-14526960D02*
X9191491Y-14517436D01*
X9191491Y-14517436D02*
X9181967Y-14498388D01*
X9181967Y-14498388D02*
X9172444Y-14460293D01*
X9172444Y-14460293D02*
X9172444Y-14412674D01*
X9172444Y-14412674D02*
X9181967Y-14374579D01*
X9181967Y-14374579D02*
X9191491Y-14355531D01*
X9191491Y-14355531D02*
X9201015Y-14346008D01*
X9201015Y-14346008D02*
X9220063Y-14336484D01*
X9410539Y-14336484D02*
X9429586Y-14336484D01*
X9429586Y-14336484D02*
X9448634Y-14346008D01*
X9448634Y-14346008D02*
X9458158Y-14355531D01*
X9458158Y-14355531D02*
X9467682Y-14374579D01*
X9467682Y-14374579D02*
X9477205Y-14412674D01*
X9477205Y-14412674D02*
X9477205Y-14460293D01*
X9477205Y-14460293D02*
X9467682Y-14498388D01*
X9467682Y-14498388D02*
X9458158Y-14517436D01*
X9458158Y-14517436D02*
X9448634Y-14526960D01*
X9448634Y-14526960D02*
X9429586Y-14536484D01*
X9429586Y-14536484D02*
X9410539Y-14536484D01*
X9410539Y-14536484D02*
X9391491Y-14526960D01*
X9391491Y-14526960D02*
X9381967Y-14517436D01*
X9381967Y-14517436D02*
X9372444Y-14498388D01*
X9372444Y-14498388D02*
X9362920Y-14460293D01*
X9362920Y-14460293D02*
X9362920Y-14412674D01*
X9362920Y-14412674D02*
X9372444Y-14374579D01*
X9372444Y-14374579D02*
X9381967Y-14355531D01*
X9381967Y-14355531D02*
X9391491Y-14346008D01*
X9391491Y-14346008D02*
X9410539Y-14336484D01*
X9562920Y-14536484D02*
X9562920Y-14403150D01*
X9562920Y-14422198D02*
X9572444Y-14412674D01*
X9572444Y-14412674D02*
X9591491Y-14403150D01*
X9591491Y-14403150D02*
X9620063Y-14403150D01*
X9620063Y-14403150D02*
X9639110Y-14412674D01*
X9639110Y-14412674D02*
X9648634Y-14431722D01*
X9648634Y-14431722D02*
X9648634Y-14536484D01*
X9648634Y-14431722D02*
X9658158Y-14412674D01*
X9658158Y-14412674D02*
X9677205Y-14403150D01*
X9677205Y-14403150D02*
X9705777Y-14403150D01*
X9705777Y-14403150D02*
X9724825Y-14412674D01*
X9724825Y-14412674D02*
X9734348Y-14431722D01*
X9734348Y-14431722D02*
X9734348Y-14536484D01*
X9829586Y-14536484D02*
X9829586Y-14403150D01*
X9829586Y-14422198D02*
X9839110Y-14412674D01*
X9839110Y-14412674D02*
X9858158Y-14403150D01*
X9858158Y-14403150D02*
X9886729Y-14403150D01*
X9886729Y-14403150D02*
X9905777Y-14412674D01*
X9905777Y-14412674D02*
X9915301Y-14431722D01*
X9915301Y-14431722D02*
X9915301Y-14536484D01*
X9915301Y-14431722D02*
X9924825Y-14412674D01*
X9924825Y-14412674D02*
X9943872Y-14403150D01*
X9943872Y-14403150D02*
X9972444Y-14403150D01*
X9972444Y-14403150D02*
X9991491Y-14412674D01*
X9991491Y-14412674D02*
X10001015Y-14431722D01*
X10001015Y-14431722D02*
X10001015Y-14536484D01*
X10391491Y-14326960D02*
X10220063Y-14584103D01*
X10648634Y-14336484D02*
X10667682Y-14336484D01*
X10667682Y-14336484D02*
X10686729Y-14346008D01*
X10686729Y-14346008D02*
X10696253Y-14355531D01*
X10696253Y-14355531D02*
X10705777Y-14374579D01*
X10705777Y-14374579D02*
X10715301Y-14412674D01*
X10715301Y-14412674D02*
X10715301Y-14460293D01*
X10715301Y-14460293D02*
X10705777Y-14498388D01*
X10705777Y-14498388D02*
X10696253Y-14517436D01*
X10696253Y-14517436D02*
X10686729Y-14526960D01*
X10686729Y-14526960D02*
X10667682Y-14536484D01*
X10667682Y-14536484D02*
X10648634Y-14536484D01*
X10648634Y-14536484D02*
X10629587Y-14526960D01*
X10629587Y-14526960D02*
X10620063Y-14517436D01*
X10620063Y-14517436D02*
X10610539Y-14498388D01*
X10610539Y-14498388D02*
X10601015Y-14460293D01*
X10601015Y-14460293D02*
X10601015Y-14412674D01*
X10601015Y-14412674D02*
X10610539Y-14374579D01*
X10610539Y-14374579D02*
X10620063Y-14355531D01*
X10620063Y-14355531D02*
X10629587Y-14346008D01*
X10629587Y-14346008D02*
X10648634Y-14336484D01*
X10801015Y-14517436D02*
X10810539Y-14526960D01*
X10810539Y-14526960D02*
X10801015Y-14536484D01*
X10801015Y-14536484D02*
X10791491Y-14526960D01*
X10791491Y-14526960D02*
X10801015Y-14517436D01*
X10801015Y-14517436D02*
X10801015Y-14536484D01*
X10934348Y-14336484D02*
X10953396Y-14336484D01*
X10953396Y-14336484D02*
X10972444Y-14346008D01*
X10972444Y-14346008D02*
X10981968Y-14355531D01*
X10981968Y-14355531D02*
X10991491Y-14374579D01*
X10991491Y-14374579D02*
X11001015Y-14412674D01*
X11001015Y-14412674D02*
X11001015Y-14460293D01*
X11001015Y-14460293D02*
X10991491Y-14498388D01*
X10991491Y-14498388D02*
X10981968Y-14517436D01*
X10981968Y-14517436D02*
X10972444Y-14526960D01*
X10972444Y-14526960D02*
X10953396Y-14536484D01*
X10953396Y-14536484D02*
X10934348Y-14536484D01*
X10934348Y-14536484D02*
X10915301Y-14526960D01*
X10915301Y-14526960D02*
X10905777Y-14517436D01*
X10905777Y-14517436D02*
X10896253Y-14498388D01*
X10896253Y-14498388D02*
X10886729Y-14460293D01*
X10886729Y-14460293D02*
X10886729Y-14412674D01*
X10886729Y-14412674D02*
X10896253Y-14374579D01*
X10896253Y-14374579D02*
X10905777Y-14355531D01*
X10905777Y-14355531D02*
X10915301Y-14346008D01*
X10915301Y-14346008D02*
X10934348Y-14336484D01*
X11191491Y-14536484D02*
X11077206Y-14536484D01*
X11134348Y-14536484D02*
X11134348Y-14336484D01*
X11134348Y-14336484D02*
X11115301Y-14365055D01*
X11115301Y-14365055D02*
X11096253Y-14384103D01*
X11096253Y-14384103D02*
X11077206Y-14393627D01*
X11381967Y-14536484D02*
X11267682Y-14536484D01*
X11324825Y-14536484D02*
X11324825Y-14336484D01*
X11324825Y-14336484D02*
X11305777Y-14365055D01*
X11305777Y-14365055D02*
X11286729Y-14384103D01*
X11286729Y-14384103D02*
X11267682Y-14393627D01*
X11496253Y-14422198D02*
X11477206Y-14412674D01*
X11477206Y-14412674D02*
X11467682Y-14403150D01*
X11467682Y-14403150D02*
X11458158Y-14384103D01*
X11458158Y-14384103D02*
X11458158Y-14374579D01*
X11458158Y-14374579D02*
X11467682Y-14355531D01*
X11467682Y-14355531D02*
X11477206Y-14346008D01*
X11477206Y-14346008D02*
X11496253Y-14336484D01*
X11496253Y-14336484D02*
X11534348Y-14336484D01*
X11534348Y-14336484D02*
X11553396Y-14346008D01*
X11553396Y-14346008D02*
X11562920Y-14355531D01*
X11562920Y-14355531D02*
X11572444Y-14374579D01*
X11572444Y-14374579D02*
X11572444Y-14384103D01*
X11572444Y-14384103D02*
X11562920Y-14403150D01*
X11562920Y-14403150D02*
X11553396Y-14412674D01*
X11553396Y-14412674D02*
X11534348Y-14422198D01*
X11534348Y-14422198D02*
X11496253Y-14422198D01*
X11496253Y-14422198D02*
X11477206Y-14431722D01*
X11477206Y-14431722D02*
X11467682Y-14441246D01*
X11467682Y-14441246D02*
X11458158Y-14460293D01*
X11458158Y-14460293D02*
X11458158Y-14498388D01*
X11458158Y-14498388D02*
X11467682Y-14517436D01*
X11467682Y-14517436D02*
X11477206Y-14526960D01*
X11477206Y-14526960D02*
X11496253Y-14536484D01*
X11496253Y-14536484D02*
X11534348Y-14536484D01*
X11534348Y-14536484D02*
X11553396Y-14526960D01*
X11553396Y-14526960D02*
X11562920Y-14517436D01*
X11562920Y-14517436D02*
X11572444Y-14498388D01*
X11572444Y-14498388D02*
X11572444Y-14460293D01*
X11572444Y-14460293D02*
X11562920Y-14441246D01*
X11562920Y-14441246D02*
X11553396Y-14431722D01*
X11553396Y-14431722D02*
X11534348Y-14422198D01*
X11648634Y-14336484D02*
X11648634Y-14374579D01*
X11724825Y-14336484D02*
X11724825Y-14374579D01*
X12020063Y-14612674D02*
X12010539Y-14603150D01*
X12010539Y-14603150D02*
X11991491Y-14574579D01*
X11991491Y-14574579D02*
X11981968Y-14555531D01*
X11981968Y-14555531D02*
X11972444Y-14526960D01*
X11972444Y-14526960D02*
X11962920Y-14479341D01*
X11962920Y-14479341D02*
X11962920Y-14441246D01*
X11962920Y-14441246D02*
X11972444Y-14393627D01*
X11972444Y-14393627D02*
X11981968Y-14365055D01*
X11981968Y-14365055D02*
X11991491Y-14346008D01*
X11991491Y-14346008D02*
X12010539Y-14317436D01*
X12010539Y-14317436D02*
X12020063Y-14307912D01*
X12201015Y-14536484D02*
X12086729Y-14536484D01*
X12143872Y-14536484D02*
X12143872Y-14336484D01*
X12143872Y-14336484D02*
X12124825Y-14365055D01*
X12124825Y-14365055D02*
X12105777Y-14384103D01*
X12105777Y-14384103D02*
X12086729Y-14393627D01*
X12296253Y-14536484D02*
X12334348Y-14536484D01*
X12334348Y-14536484D02*
X12353396Y-14526960D01*
X12353396Y-14526960D02*
X12362920Y-14517436D01*
X12362920Y-14517436D02*
X12381968Y-14488865D01*
X12381968Y-14488865D02*
X12391491Y-14450769D01*
X12391491Y-14450769D02*
X12391491Y-14374579D01*
X12391491Y-14374579D02*
X12381968Y-14355531D01*
X12381968Y-14355531D02*
X12372444Y-14346008D01*
X12372444Y-14346008D02*
X12353396Y-14336484D01*
X12353396Y-14336484D02*
X12315301Y-14336484D01*
X12315301Y-14336484D02*
X12296253Y-14346008D01*
X12296253Y-14346008D02*
X12286729Y-14355531D01*
X12286729Y-14355531D02*
X12277206Y-14374579D01*
X12277206Y-14374579D02*
X12277206Y-14422198D01*
X12277206Y-14422198D02*
X12286729Y-14441246D01*
X12286729Y-14441246D02*
X12296253Y-14450769D01*
X12296253Y-14450769D02*
X12315301Y-14460293D01*
X12315301Y-14460293D02*
X12353396Y-14460293D01*
X12353396Y-14460293D02*
X12372444Y-14450769D01*
X12372444Y-14450769D02*
X12381968Y-14441246D01*
X12381968Y-14441246D02*
X12391491Y-14422198D01*
X12562920Y-14403150D02*
X12562920Y-14536484D01*
X12515301Y-14326960D02*
X12467682Y-14469817D01*
X12467682Y-14469817D02*
X12591491Y-14469817D01*
X12820063Y-14536484D02*
X12820063Y-14336484D01*
X12905777Y-14536484D02*
X12905777Y-14431722D01*
X12905777Y-14431722D02*
X12896253Y-14412674D01*
X12896253Y-14412674D02*
X12877206Y-14403150D01*
X12877206Y-14403150D02*
X12848634Y-14403150D01*
X12848634Y-14403150D02*
X12829587Y-14412674D01*
X12829587Y-14412674D02*
X12820063Y-14422198D01*
X13029587Y-14536484D02*
X13010539Y-14526960D01*
X13010539Y-14526960D02*
X13001015Y-14517436D01*
X13001015Y-14517436D02*
X12991491Y-14498388D01*
X12991491Y-14498388D02*
X12991491Y-14441246D01*
X12991491Y-14441246D02*
X13001015Y-14422198D01*
X13001015Y-14422198D02*
X13010539Y-14412674D01*
X13010539Y-14412674D02*
X13029587Y-14403150D01*
X13029587Y-14403150D02*
X13058158Y-14403150D01*
X13058158Y-14403150D02*
X13077206Y-14412674D01*
X13077206Y-14412674D02*
X13086730Y-14422198D01*
X13086730Y-14422198D02*
X13096253Y-14441246D01*
X13096253Y-14441246D02*
X13096253Y-14498388D01*
X13096253Y-14498388D02*
X13086730Y-14517436D01*
X13086730Y-14517436D02*
X13077206Y-14526960D01*
X13077206Y-14526960D02*
X13058158Y-14536484D01*
X13058158Y-14536484D02*
X13029587Y-14536484D01*
X13210539Y-14536484D02*
X13191491Y-14526960D01*
X13191491Y-14526960D02*
X13181968Y-14507912D01*
X13181968Y-14507912D02*
X13181968Y-14336484D01*
X13362920Y-14526960D02*
X13343872Y-14536484D01*
X13343872Y-14536484D02*
X13305777Y-14536484D01*
X13305777Y-14536484D02*
X13286730Y-14526960D01*
X13286730Y-14526960D02*
X13277206Y-14507912D01*
X13277206Y-14507912D02*
X13277206Y-14431722D01*
X13277206Y-14431722D02*
X13286730Y-14412674D01*
X13286730Y-14412674D02*
X13305777Y-14403150D01*
X13305777Y-14403150D02*
X13343872Y-14403150D01*
X13343872Y-14403150D02*
X13362920Y-14412674D01*
X13362920Y-14412674D02*
X13372444Y-14431722D01*
X13372444Y-14431722D02*
X13372444Y-14450769D01*
X13372444Y-14450769D02*
X13277206Y-14469817D01*
X13448634Y-14526960D02*
X13467682Y-14536484D01*
X13467682Y-14536484D02*
X13505777Y-14536484D01*
X13505777Y-14536484D02*
X13524825Y-14526960D01*
X13524825Y-14526960D02*
X13534349Y-14507912D01*
X13534349Y-14507912D02*
X13534349Y-14498388D01*
X13534349Y-14498388D02*
X13524825Y-14479341D01*
X13524825Y-14479341D02*
X13505777Y-14469817D01*
X13505777Y-14469817D02*
X13477206Y-14469817D01*
X13477206Y-14469817D02*
X13458158Y-14460293D01*
X13458158Y-14460293D02*
X13448634Y-14441246D01*
X13448634Y-14441246D02*
X13448634Y-14431722D01*
X13448634Y-14431722D02*
X13458158Y-14412674D01*
X13458158Y-14412674D02*
X13477206Y-14403150D01*
X13477206Y-14403150D02*
X13505777Y-14403150D01*
X13505777Y-14403150D02*
X13524825Y-14412674D01*
X13601015Y-14612674D02*
X13610539Y-14603150D01*
X13610539Y-14603150D02*
X13629587Y-14574579D01*
X13629587Y-14574579D02*
X13639111Y-14555531D01*
X13639111Y-14555531D02*
X13648634Y-14526960D01*
X13648634Y-14526960D02*
X13658158Y-14479341D01*
X13658158Y-14479341D02*
X13658158Y-14441246D01*
X13658158Y-14441246D02*
X13648634Y-14393627D01*
X13648634Y-14393627D02*
X13639111Y-14365055D01*
X13639111Y-14365055D02*
X13629587Y-14346008D01*
X13629587Y-14346008D02*
X13610539Y-14317436D01*
X13610539Y-14317436D02*
X13601015Y-14307912D01*
D10*
X8445000Y-14709000D02*
G75*
G02*
X8405000Y-14709000I-20000J0D01*
G01*
X8405000Y-14709000D02*
G75*
G02*
X8445000Y-14709000I20000J0D01*
G01*
D11*
X8743872Y-14600484D02*
X8762920Y-14600484D01*
X8762920Y-14600484D02*
X8781967Y-14610008D01*
X8781967Y-14610008D02*
X8791491Y-14619531D01*
X8791491Y-14619531D02*
X8801015Y-14638579D01*
X8801015Y-14638579D02*
X8810539Y-14676674D01*
X8810539Y-14676674D02*
X8810539Y-14724293D01*
X8810539Y-14724293D02*
X8801015Y-14762388D01*
X8801015Y-14762388D02*
X8791491Y-14781436D01*
X8791491Y-14781436D02*
X8781967Y-14790960D01*
X8781967Y-14790960D02*
X8762920Y-14800484D01*
X8762920Y-14800484D02*
X8743872Y-14800484D01*
X8743872Y-14800484D02*
X8724824Y-14790960D01*
X8724824Y-14790960D02*
X8715301Y-14781436D01*
X8715301Y-14781436D02*
X8705777Y-14762388D01*
X8705777Y-14762388D02*
X8696253Y-14724293D01*
X8696253Y-14724293D02*
X8696253Y-14676674D01*
X8696253Y-14676674D02*
X8705777Y-14638579D01*
X8705777Y-14638579D02*
X8715301Y-14619531D01*
X8715301Y-14619531D02*
X8724824Y-14610008D01*
X8724824Y-14610008D02*
X8743872Y-14600484D01*
X8896253Y-14781436D02*
X8905777Y-14790960D01*
X8905777Y-14790960D02*
X8896253Y-14800484D01*
X8896253Y-14800484D02*
X8886729Y-14790960D01*
X8886729Y-14790960D02*
X8896253Y-14781436D01*
X8896253Y-14781436D02*
X8896253Y-14800484D01*
X9077205Y-14667150D02*
X9077205Y-14800484D01*
X9029586Y-14590960D02*
X8981967Y-14733817D01*
X8981967Y-14733817D02*
X9105777Y-14733817D01*
X9220063Y-14600484D02*
X9239110Y-14600484D01*
X9239110Y-14600484D02*
X9258158Y-14610008D01*
X9258158Y-14610008D02*
X9267682Y-14619531D01*
X9267682Y-14619531D02*
X9277205Y-14638579D01*
X9277205Y-14638579D02*
X9286729Y-14676674D01*
X9286729Y-14676674D02*
X9286729Y-14724293D01*
X9286729Y-14724293D02*
X9277205Y-14762388D01*
X9277205Y-14762388D02*
X9267682Y-14781436D01*
X9267682Y-14781436D02*
X9258158Y-14790960D01*
X9258158Y-14790960D02*
X9239110Y-14800484D01*
X9239110Y-14800484D02*
X9220063Y-14800484D01*
X9220063Y-14800484D02*
X9201015Y-14790960D01*
X9201015Y-14790960D02*
X9191491Y-14781436D01*
X9191491Y-14781436D02*
X9181967Y-14762388D01*
X9181967Y-14762388D02*
X9172444Y-14724293D01*
X9172444Y-14724293D02*
X9172444Y-14676674D01*
X9172444Y-14676674D02*
X9181967Y-14638579D01*
X9181967Y-14638579D02*
X9191491Y-14619531D01*
X9191491Y-14619531D02*
X9201015Y-14610008D01*
X9201015Y-14610008D02*
X9220063Y-14600484D01*
X9410539Y-14600484D02*
X9429586Y-14600484D01*
X9429586Y-14600484D02*
X9448634Y-14610008D01*
X9448634Y-14610008D02*
X9458158Y-14619531D01*
X9458158Y-14619531D02*
X9467682Y-14638579D01*
X9467682Y-14638579D02*
X9477205Y-14676674D01*
X9477205Y-14676674D02*
X9477205Y-14724293D01*
X9477205Y-14724293D02*
X9467682Y-14762388D01*
X9467682Y-14762388D02*
X9458158Y-14781436D01*
X9458158Y-14781436D02*
X9448634Y-14790960D01*
X9448634Y-14790960D02*
X9429586Y-14800484D01*
X9429586Y-14800484D02*
X9410539Y-14800484D01*
X9410539Y-14800484D02*
X9391491Y-14790960D01*
X9391491Y-14790960D02*
X9381967Y-14781436D01*
X9381967Y-14781436D02*
X9372444Y-14762388D01*
X9372444Y-14762388D02*
X9362920Y-14724293D01*
X9362920Y-14724293D02*
X9362920Y-14676674D01*
X9362920Y-14676674D02*
X9372444Y-14638579D01*
X9372444Y-14638579D02*
X9381967Y-14619531D01*
X9381967Y-14619531D02*
X9391491Y-14610008D01*
X9391491Y-14610008D02*
X9410539Y-14600484D01*
X9562920Y-14800484D02*
X9562920Y-14667150D01*
X9562920Y-14686198D02*
X9572444Y-14676674D01*
X9572444Y-14676674D02*
X9591491Y-14667150D01*
X9591491Y-14667150D02*
X9620063Y-14667150D01*
X9620063Y-14667150D02*
X9639110Y-14676674D01*
X9639110Y-14676674D02*
X9648634Y-14695722D01*
X9648634Y-14695722D02*
X9648634Y-14800484D01*
X9648634Y-14695722D02*
X9658158Y-14676674D01*
X9658158Y-14676674D02*
X9677205Y-14667150D01*
X9677205Y-14667150D02*
X9705777Y-14667150D01*
X9705777Y-14667150D02*
X9724825Y-14676674D01*
X9724825Y-14676674D02*
X9734348Y-14695722D01*
X9734348Y-14695722D02*
X9734348Y-14800484D01*
X9829586Y-14800484D02*
X9829586Y-14667150D01*
X9829586Y-14686198D02*
X9839110Y-14676674D01*
X9839110Y-14676674D02*
X9858158Y-14667150D01*
X9858158Y-14667150D02*
X9886729Y-14667150D01*
X9886729Y-14667150D02*
X9905777Y-14676674D01*
X9905777Y-14676674D02*
X9915301Y-14695722D01*
X9915301Y-14695722D02*
X9915301Y-14800484D01*
X9915301Y-14695722D02*
X9924825Y-14676674D01*
X9924825Y-14676674D02*
X9943872Y-14667150D01*
X9943872Y-14667150D02*
X9972444Y-14667150D01*
X9972444Y-14667150D02*
X9991491Y-14676674D01*
X9991491Y-14676674D02*
X10001015Y-14695722D01*
X10001015Y-14695722D02*
X10001015Y-14800484D01*
X10391491Y-14590960D02*
X10220063Y-14848103D01*
X10648634Y-14600484D02*
X10667682Y-14600484D01*
X10667682Y-14600484D02*
X10686729Y-14610008D01*
X10686729Y-14610008D02*
X10696253Y-14619531D01*
X10696253Y-14619531D02*
X10705777Y-14638579D01*
X10705777Y-14638579D02*
X10715301Y-14676674D01*
X10715301Y-14676674D02*
X10715301Y-14724293D01*
X10715301Y-14724293D02*
X10705777Y-14762388D01*
X10705777Y-14762388D02*
X10696253Y-14781436D01*
X10696253Y-14781436D02*
X10686729Y-14790960D01*
X10686729Y-14790960D02*
X10667682Y-14800484D01*
X10667682Y-14800484D02*
X10648634Y-14800484D01*
X10648634Y-14800484D02*
X10629587Y-14790960D01*
X10629587Y-14790960D02*
X10620063Y-14781436D01*
X10620063Y-14781436D02*
X10610539Y-14762388D01*
X10610539Y-14762388D02*
X10601015Y-14724293D01*
X10601015Y-14724293D02*
X10601015Y-14676674D01*
X10601015Y-14676674D02*
X10610539Y-14638579D01*
X10610539Y-14638579D02*
X10620063Y-14619531D01*
X10620063Y-14619531D02*
X10629587Y-14610008D01*
X10629587Y-14610008D02*
X10648634Y-14600484D01*
X10801015Y-14781436D02*
X10810539Y-14790960D01*
X10810539Y-14790960D02*
X10801015Y-14800484D01*
X10801015Y-14800484D02*
X10791491Y-14790960D01*
X10791491Y-14790960D02*
X10801015Y-14781436D01*
X10801015Y-14781436D02*
X10801015Y-14800484D01*
X10934348Y-14600484D02*
X10953396Y-14600484D01*
X10953396Y-14600484D02*
X10972444Y-14610008D01*
X10972444Y-14610008D02*
X10981968Y-14619531D01*
X10981968Y-14619531D02*
X10991491Y-14638579D01*
X10991491Y-14638579D02*
X11001015Y-14676674D01*
X11001015Y-14676674D02*
X11001015Y-14724293D01*
X11001015Y-14724293D02*
X10991491Y-14762388D01*
X10991491Y-14762388D02*
X10981968Y-14781436D01*
X10981968Y-14781436D02*
X10972444Y-14790960D01*
X10972444Y-14790960D02*
X10953396Y-14800484D01*
X10953396Y-14800484D02*
X10934348Y-14800484D01*
X10934348Y-14800484D02*
X10915301Y-14790960D01*
X10915301Y-14790960D02*
X10905777Y-14781436D01*
X10905777Y-14781436D02*
X10896253Y-14762388D01*
X10896253Y-14762388D02*
X10886729Y-14724293D01*
X10886729Y-14724293D02*
X10886729Y-14676674D01*
X10886729Y-14676674D02*
X10896253Y-14638579D01*
X10896253Y-14638579D02*
X10905777Y-14619531D01*
X10905777Y-14619531D02*
X10915301Y-14610008D01*
X10915301Y-14610008D02*
X10934348Y-14600484D01*
X11191491Y-14800484D02*
X11077206Y-14800484D01*
X11134348Y-14800484D02*
X11134348Y-14600484D01*
X11134348Y-14600484D02*
X11115301Y-14629055D01*
X11115301Y-14629055D02*
X11096253Y-14648103D01*
X11096253Y-14648103D02*
X11077206Y-14657627D01*
X11372444Y-14600484D02*
X11277206Y-14600484D01*
X11277206Y-14600484D02*
X11267682Y-14695722D01*
X11267682Y-14695722D02*
X11277206Y-14686198D01*
X11277206Y-14686198D02*
X11296253Y-14676674D01*
X11296253Y-14676674D02*
X11343872Y-14676674D01*
X11343872Y-14676674D02*
X11362920Y-14686198D01*
X11362920Y-14686198D02*
X11372444Y-14695722D01*
X11372444Y-14695722D02*
X11381967Y-14714769D01*
X11381967Y-14714769D02*
X11381967Y-14762388D01*
X11381967Y-14762388D02*
X11372444Y-14781436D01*
X11372444Y-14781436D02*
X11362920Y-14790960D01*
X11362920Y-14790960D02*
X11343872Y-14800484D01*
X11343872Y-14800484D02*
X11296253Y-14800484D01*
X11296253Y-14800484D02*
X11277206Y-14790960D01*
X11277206Y-14790960D02*
X11267682Y-14781436D01*
X11448634Y-14600484D02*
X11581967Y-14600484D01*
X11581967Y-14600484D02*
X11496253Y-14800484D01*
X11648634Y-14600484D02*
X11648634Y-14638579D01*
X11724825Y-14600484D02*
X11724825Y-14638579D01*
X12020063Y-14876674D02*
X12010539Y-14867150D01*
X12010539Y-14867150D02*
X11991491Y-14838579D01*
X11991491Y-14838579D02*
X11981968Y-14819531D01*
X11981968Y-14819531D02*
X11972444Y-14790960D01*
X11972444Y-14790960D02*
X11962920Y-14743341D01*
X11962920Y-14743341D02*
X11962920Y-14705246D01*
X11962920Y-14705246D02*
X11972444Y-14657627D01*
X11972444Y-14657627D02*
X11981968Y-14629055D01*
X11981968Y-14629055D02*
X11991491Y-14610008D01*
X11991491Y-14610008D02*
X12010539Y-14581436D01*
X12010539Y-14581436D02*
X12020063Y-14571912D01*
X12086729Y-14619531D02*
X12096253Y-14610008D01*
X12096253Y-14610008D02*
X12115301Y-14600484D01*
X12115301Y-14600484D02*
X12162920Y-14600484D01*
X12162920Y-14600484D02*
X12181968Y-14610008D01*
X12181968Y-14610008D02*
X12191491Y-14619531D01*
X12191491Y-14619531D02*
X12201015Y-14638579D01*
X12201015Y-14638579D02*
X12201015Y-14657627D01*
X12201015Y-14657627D02*
X12191491Y-14686198D01*
X12191491Y-14686198D02*
X12077206Y-14800484D01*
X12077206Y-14800484D02*
X12201015Y-14800484D01*
X12267682Y-14600484D02*
X12401015Y-14600484D01*
X12401015Y-14600484D02*
X12315301Y-14800484D01*
X12629587Y-14800484D02*
X12629587Y-14600484D01*
X12715301Y-14800484D02*
X12715301Y-14695722D01*
X12715301Y-14695722D02*
X12705777Y-14676674D01*
X12705777Y-14676674D02*
X12686730Y-14667150D01*
X12686730Y-14667150D02*
X12658158Y-14667150D01*
X12658158Y-14667150D02*
X12639110Y-14676674D01*
X12639110Y-14676674D02*
X12629587Y-14686198D01*
X12839110Y-14800484D02*
X12820063Y-14790960D01*
X12820063Y-14790960D02*
X12810539Y-14781436D01*
X12810539Y-14781436D02*
X12801015Y-14762388D01*
X12801015Y-14762388D02*
X12801015Y-14705246D01*
X12801015Y-14705246D02*
X12810539Y-14686198D01*
X12810539Y-14686198D02*
X12820063Y-14676674D01*
X12820063Y-14676674D02*
X12839110Y-14667150D01*
X12839110Y-14667150D02*
X12867682Y-14667150D01*
X12867682Y-14667150D02*
X12886730Y-14676674D01*
X12886730Y-14676674D02*
X12896253Y-14686198D01*
X12896253Y-14686198D02*
X12905777Y-14705246D01*
X12905777Y-14705246D02*
X12905777Y-14762388D01*
X12905777Y-14762388D02*
X12896253Y-14781436D01*
X12896253Y-14781436D02*
X12886730Y-14790960D01*
X12886730Y-14790960D02*
X12867682Y-14800484D01*
X12867682Y-14800484D02*
X12839110Y-14800484D01*
X13020063Y-14800484D02*
X13001015Y-14790960D01*
X13001015Y-14790960D02*
X12991491Y-14771912D01*
X12991491Y-14771912D02*
X12991491Y-14600484D01*
X13172444Y-14790960D02*
X13153396Y-14800484D01*
X13153396Y-14800484D02*
X13115301Y-14800484D01*
X13115301Y-14800484D02*
X13096253Y-14790960D01*
X13096253Y-14790960D02*
X13086730Y-14771912D01*
X13086730Y-14771912D02*
X13086730Y-14695722D01*
X13086730Y-14695722D02*
X13096253Y-14676674D01*
X13096253Y-14676674D02*
X13115301Y-14667150D01*
X13115301Y-14667150D02*
X13153396Y-14667150D01*
X13153396Y-14667150D02*
X13172444Y-14676674D01*
X13172444Y-14676674D02*
X13181968Y-14695722D01*
X13181968Y-14695722D02*
X13181968Y-14714769D01*
X13181968Y-14714769D02*
X13086730Y-14733817D01*
X13258158Y-14790960D02*
X13277206Y-14800484D01*
X13277206Y-14800484D02*
X13315301Y-14800484D01*
X13315301Y-14800484D02*
X13334349Y-14790960D01*
X13334349Y-14790960D02*
X13343872Y-14771912D01*
X13343872Y-14771912D02*
X13343872Y-14762388D01*
X13343872Y-14762388D02*
X13334349Y-14743341D01*
X13334349Y-14743341D02*
X13315301Y-14733817D01*
X13315301Y-14733817D02*
X13286730Y-14733817D01*
X13286730Y-14733817D02*
X13267682Y-14724293D01*
X13267682Y-14724293D02*
X13258158Y-14705246D01*
X13258158Y-14705246D02*
X13258158Y-14695722D01*
X13258158Y-14695722D02*
X13267682Y-14676674D01*
X13267682Y-14676674D02*
X13286730Y-14667150D01*
X13286730Y-14667150D02*
X13315301Y-14667150D01*
X13315301Y-14667150D02*
X13334349Y-14676674D01*
X13410539Y-14876674D02*
X13420063Y-14867150D01*
X13420063Y-14867150D02*
X13439111Y-14838579D01*
X13439111Y-14838579D02*
X13448634Y-14819531D01*
X13448634Y-14819531D02*
X13458158Y-14790960D01*
X13458158Y-14790960D02*
X13467682Y-14743341D01*
X13467682Y-14743341D02*
X13467682Y-14705246D01*
X13467682Y-14705246D02*
X13458158Y-14657627D01*
X13458158Y-14657627D02*
X13448634Y-14629055D01*
X13448634Y-14629055D02*
X13439111Y-14610008D01*
X13439111Y-14610008D02*
X13420063Y-14581436D01*
X13420063Y-14581436D02*
X13410539Y-14571912D01*
D10*
X8407500Y-14935500D02*
X8407500Y-15010500D01*
X8370000Y-14973000D02*
X8445000Y-14973000D01*
D11*
X8743872Y-14864484D02*
X8762920Y-14864484D01*
X8762920Y-14864484D02*
X8781967Y-14874008D01*
X8781967Y-14874008D02*
X8791491Y-14883531D01*
X8791491Y-14883531D02*
X8801015Y-14902579D01*
X8801015Y-14902579D02*
X8810539Y-14940674D01*
X8810539Y-14940674D02*
X8810539Y-14988293D01*
X8810539Y-14988293D02*
X8801015Y-15026388D01*
X8801015Y-15026388D02*
X8791491Y-15045436D01*
X8791491Y-15045436D02*
X8781967Y-15054960D01*
X8781967Y-15054960D02*
X8762920Y-15064484D01*
X8762920Y-15064484D02*
X8743872Y-15064484D01*
X8743872Y-15064484D02*
X8724824Y-15054960D01*
X8724824Y-15054960D02*
X8715301Y-15045436D01*
X8715301Y-15045436D02*
X8705777Y-15026388D01*
X8705777Y-15026388D02*
X8696253Y-14988293D01*
X8696253Y-14988293D02*
X8696253Y-14940674D01*
X8696253Y-14940674D02*
X8705777Y-14902579D01*
X8705777Y-14902579D02*
X8715301Y-14883531D01*
X8715301Y-14883531D02*
X8724824Y-14874008D01*
X8724824Y-14874008D02*
X8743872Y-14864484D01*
X8896253Y-15045436D02*
X8905777Y-15054960D01*
X8905777Y-15054960D02*
X8896253Y-15064484D01*
X8896253Y-15064484D02*
X8886729Y-15054960D01*
X8886729Y-15054960D02*
X8896253Y-15045436D01*
X8896253Y-15045436D02*
X8896253Y-15064484D01*
X8972444Y-14864484D02*
X9105777Y-14864484D01*
X9105777Y-14864484D02*
X9020063Y-15064484D01*
X9277205Y-14864484D02*
X9181967Y-14864484D01*
X9181967Y-14864484D02*
X9172444Y-14959722D01*
X9172444Y-14959722D02*
X9181967Y-14950198D01*
X9181967Y-14950198D02*
X9201015Y-14940674D01*
X9201015Y-14940674D02*
X9248634Y-14940674D01*
X9248634Y-14940674D02*
X9267682Y-14950198D01*
X9267682Y-14950198D02*
X9277205Y-14959722D01*
X9277205Y-14959722D02*
X9286729Y-14978769D01*
X9286729Y-14978769D02*
X9286729Y-15026388D01*
X9286729Y-15026388D02*
X9277205Y-15045436D01*
X9277205Y-15045436D02*
X9267682Y-15054960D01*
X9267682Y-15054960D02*
X9248634Y-15064484D01*
X9248634Y-15064484D02*
X9201015Y-15064484D01*
X9201015Y-15064484D02*
X9181967Y-15054960D01*
X9181967Y-15054960D02*
X9172444Y-15045436D01*
X9410539Y-14864484D02*
X9429586Y-14864484D01*
X9429586Y-14864484D02*
X9448634Y-14874008D01*
X9448634Y-14874008D02*
X9458158Y-14883531D01*
X9458158Y-14883531D02*
X9467682Y-14902579D01*
X9467682Y-14902579D02*
X9477205Y-14940674D01*
X9477205Y-14940674D02*
X9477205Y-14988293D01*
X9477205Y-14988293D02*
X9467682Y-15026388D01*
X9467682Y-15026388D02*
X9458158Y-15045436D01*
X9458158Y-15045436D02*
X9448634Y-15054960D01*
X9448634Y-15054960D02*
X9429586Y-15064484D01*
X9429586Y-15064484D02*
X9410539Y-15064484D01*
X9410539Y-15064484D02*
X9391491Y-15054960D01*
X9391491Y-15054960D02*
X9381967Y-15045436D01*
X9381967Y-15045436D02*
X9372444Y-15026388D01*
X9372444Y-15026388D02*
X9362920Y-14988293D01*
X9362920Y-14988293D02*
X9362920Y-14940674D01*
X9362920Y-14940674D02*
X9372444Y-14902579D01*
X9372444Y-14902579D02*
X9381967Y-14883531D01*
X9381967Y-14883531D02*
X9391491Y-14874008D01*
X9391491Y-14874008D02*
X9410539Y-14864484D01*
X9562920Y-15064484D02*
X9562920Y-14931150D01*
X9562920Y-14950198D02*
X9572444Y-14940674D01*
X9572444Y-14940674D02*
X9591491Y-14931150D01*
X9591491Y-14931150D02*
X9620063Y-14931150D01*
X9620063Y-14931150D02*
X9639110Y-14940674D01*
X9639110Y-14940674D02*
X9648634Y-14959722D01*
X9648634Y-14959722D02*
X9648634Y-15064484D01*
X9648634Y-14959722D02*
X9658158Y-14940674D01*
X9658158Y-14940674D02*
X9677205Y-14931150D01*
X9677205Y-14931150D02*
X9705777Y-14931150D01*
X9705777Y-14931150D02*
X9724825Y-14940674D01*
X9724825Y-14940674D02*
X9734348Y-14959722D01*
X9734348Y-14959722D02*
X9734348Y-15064484D01*
X9829586Y-15064484D02*
X9829586Y-14931150D01*
X9829586Y-14950198D02*
X9839110Y-14940674D01*
X9839110Y-14940674D02*
X9858158Y-14931150D01*
X9858158Y-14931150D02*
X9886729Y-14931150D01*
X9886729Y-14931150D02*
X9905777Y-14940674D01*
X9905777Y-14940674D02*
X9915301Y-14959722D01*
X9915301Y-14959722D02*
X9915301Y-15064484D01*
X9915301Y-14959722D02*
X9924825Y-14940674D01*
X9924825Y-14940674D02*
X9943872Y-14931150D01*
X9943872Y-14931150D02*
X9972444Y-14931150D01*
X9972444Y-14931150D02*
X9991491Y-14940674D01*
X9991491Y-14940674D02*
X10001015Y-14959722D01*
X10001015Y-14959722D02*
X10001015Y-15064484D01*
X10391491Y-14854960D02*
X10220063Y-15112103D01*
X10648634Y-14864484D02*
X10667682Y-14864484D01*
X10667682Y-14864484D02*
X10686729Y-14874008D01*
X10686729Y-14874008D02*
X10696253Y-14883531D01*
X10696253Y-14883531D02*
X10705777Y-14902579D01*
X10705777Y-14902579D02*
X10715301Y-14940674D01*
X10715301Y-14940674D02*
X10715301Y-14988293D01*
X10715301Y-14988293D02*
X10705777Y-15026388D01*
X10705777Y-15026388D02*
X10696253Y-15045436D01*
X10696253Y-15045436D02*
X10686729Y-15054960D01*
X10686729Y-15054960D02*
X10667682Y-15064484D01*
X10667682Y-15064484D02*
X10648634Y-15064484D01*
X10648634Y-15064484D02*
X10629587Y-15054960D01*
X10629587Y-15054960D02*
X10620063Y-15045436D01*
X10620063Y-15045436D02*
X10610539Y-15026388D01*
X10610539Y-15026388D02*
X10601015Y-14988293D01*
X10601015Y-14988293D02*
X10601015Y-14940674D01*
X10601015Y-14940674D02*
X10610539Y-14902579D01*
X10610539Y-14902579D02*
X10620063Y-14883531D01*
X10620063Y-14883531D02*
X10629587Y-14874008D01*
X10629587Y-14874008D02*
X10648634Y-14864484D01*
X10801015Y-15045436D02*
X10810539Y-15054960D01*
X10810539Y-15054960D02*
X10801015Y-15064484D01*
X10801015Y-15064484D02*
X10791491Y-15054960D01*
X10791491Y-15054960D02*
X10801015Y-15045436D01*
X10801015Y-15045436D02*
X10801015Y-15064484D01*
X10934348Y-14864484D02*
X10953396Y-14864484D01*
X10953396Y-14864484D02*
X10972444Y-14874008D01*
X10972444Y-14874008D02*
X10981968Y-14883531D01*
X10981968Y-14883531D02*
X10991491Y-14902579D01*
X10991491Y-14902579D02*
X11001015Y-14940674D01*
X11001015Y-14940674D02*
X11001015Y-14988293D01*
X11001015Y-14988293D02*
X10991491Y-15026388D01*
X10991491Y-15026388D02*
X10981968Y-15045436D01*
X10981968Y-15045436D02*
X10972444Y-15054960D01*
X10972444Y-15054960D02*
X10953396Y-15064484D01*
X10953396Y-15064484D02*
X10934348Y-15064484D01*
X10934348Y-15064484D02*
X10915301Y-15054960D01*
X10915301Y-15054960D02*
X10905777Y-15045436D01*
X10905777Y-15045436D02*
X10896253Y-15026388D01*
X10896253Y-15026388D02*
X10886729Y-14988293D01*
X10886729Y-14988293D02*
X10886729Y-14940674D01*
X10886729Y-14940674D02*
X10896253Y-14902579D01*
X10896253Y-14902579D02*
X10905777Y-14883531D01*
X10905777Y-14883531D02*
X10915301Y-14874008D01*
X10915301Y-14874008D02*
X10934348Y-14864484D01*
X11077206Y-14883531D02*
X11086729Y-14874008D01*
X11086729Y-14874008D02*
X11105777Y-14864484D01*
X11105777Y-14864484D02*
X11153396Y-14864484D01*
X11153396Y-14864484D02*
X11172444Y-14874008D01*
X11172444Y-14874008D02*
X11181968Y-14883531D01*
X11181968Y-14883531D02*
X11191491Y-14902579D01*
X11191491Y-14902579D02*
X11191491Y-14921627D01*
X11191491Y-14921627D02*
X11181968Y-14950198D01*
X11181968Y-14950198D02*
X11067682Y-15064484D01*
X11067682Y-15064484D02*
X11191491Y-15064484D01*
X11286729Y-15064484D02*
X11324825Y-15064484D01*
X11324825Y-15064484D02*
X11343872Y-15054960D01*
X11343872Y-15054960D02*
X11353396Y-15045436D01*
X11353396Y-15045436D02*
X11372444Y-15016865D01*
X11372444Y-15016865D02*
X11381967Y-14978769D01*
X11381967Y-14978769D02*
X11381967Y-14902579D01*
X11381967Y-14902579D02*
X11372444Y-14883531D01*
X11372444Y-14883531D02*
X11362920Y-14874008D01*
X11362920Y-14874008D02*
X11343872Y-14864484D01*
X11343872Y-14864484D02*
X11305777Y-14864484D01*
X11305777Y-14864484D02*
X11286729Y-14874008D01*
X11286729Y-14874008D02*
X11277206Y-14883531D01*
X11277206Y-14883531D02*
X11267682Y-14902579D01*
X11267682Y-14902579D02*
X11267682Y-14950198D01*
X11267682Y-14950198D02*
X11277206Y-14969246D01*
X11277206Y-14969246D02*
X11286729Y-14978769D01*
X11286729Y-14978769D02*
X11305777Y-14988293D01*
X11305777Y-14988293D02*
X11343872Y-14988293D01*
X11343872Y-14988293D02*
X11362920Y-14978769D01*
X11362920Y-14978769D02*
X11372444Y-14969246D01*
X11372444Y-14969246D02*
X11381967Y-14950198D01*
X11562920Y-14864484D02*
X11467682Y-14864484D01*
X11467682Y-14864484D02*
X11458158Y-14959722D01*
X11458158Y-14959722D02*
X11467682Y-14950198D01*
X11467682Y-14950198D02*
X11486729Y-14940674D01*
X11486729Y-14940674D02*
X11534348Y-14940674D01*
X11534348Y-14940674D02*
X11553396Y-14950198D01*
X11553396Y-14950198D02*
X11562920Y-14959722D01*
X11562920Y-14959722D02*
X11572444Y-14978769D01*
X11572444Y-14978769D02*
X11572444Y-15026388D01*
X11572444Y-15026388D02*
X11562920Y-15045436D01*
X11562920Y-15045436D02*
X11553396Y-15054960D01*
X11553396Y-15054960D02*
X11534348Y-15064484D01*
X11534348Y-15064484D02*
X11486729Y-15064484D01*
X11486729Y-15064484D02*
X11467682Y-15054960D01*
X11467682Y-15054960D02*
X11458158Y-15045436D01*
X11648634Y-14864484D02*
X11648634Y-14902579D01*
X11724825Y-14864484D02*
X11724825Y-14902579D01*
X12020063Y-15140674D02*
X12010539Y-15131150D01*
X12010539Y-15131150D02*
X11991491Y-15102579D01*
X11991491Y-15102579D02*
X11981968Y-15083531D01*
X11981968Y-15083531D02*
X11972444Y-15054960D01*
X11972444Y-15054960D02*
X11962920Y-15007341D01*
X11962920Y-15007341D02*
X11962920Y-14969246D01*
X11962920Y-14969246D02*
X11972444Y-14921627D01*
X11972444Y-14921627D02*
X11981968Y-14893055D01*
X11981968Y-14893055D02*
X11991491Y-14874008D01*
X11991491Y-14874008D02*
X12010539Y-14845436D01*
X12010539Y-14845436D02*
X12020063Y-14835912D01*
X12086729Y-14883531D02*
X12096253Y-14874008D01*
X12096253Y-14874008D02*
X12115301Y-14864484D01*
X12115301Y-14864484D02*
X12162920Y-14864484D01*
X12162920Y-14864484D02*
X12181968Y-14874008D01*
X12181968Y-14874008D02*
X12191491Y-14883531D01*
X12191491Y-14883531D02*
X12201015Y-14902579D01*
X12201015Y-14902579D02*
X12201015Y-14921627D01*
X12201015Y-14921627D02*
X12191491Y-14950198D01*
X12191491Y-14950198D02*
X12077206Y-15064484D01*
X12077206Y-15064484D02*
X12201015Y-15064484D01*
X12439110Y-15064484D02*
X12439110Y-14864484D01*
X12524825Y-15064484D02*
X12524825Y-14959722D01*
X12524825Y-14959722D02*
X12515301Y-14940674D01*
X12515301Y-14940674D02*
X12496253Y-14931150D01*
X12496253Y-14931150D02*
X12467682Y-14931150D01*
X12467682Y-14931150D02*
X12448634Y-14940674D01*
X12448634Y-14940674D02*
X12439110Y-14950198D01*
X12648634Y-15064484D02*
X12629587Y-15054960D01*
X12629587Y-15054960D02*
X12620063Y-15045436D01*
X12620063Y-15045436D02*
X12610539Y-15026388D01*
X12610539Y-15026388D02*
X12610539Y-14969246D01*
X12610539Y-14969246D02*
X12620063Y-14950198D01*
X12620063Y-14950198D02*
X12629587Y-14940674D01*
X12629587Y-14940674D02*
X12648634Y-14931150D01*
X12648634Y-14931150D02*
X12677206Y-14931150D01*
X12677206Y-14931150D02*
X12696253Y-14940674D01*
X12696253Y-14940674D02*
X12705777Y-14950198D01*
X12705777Y-14950198D02*
X12715301Y-14969246D01*
X12715301Y-14969246D02*
X12715301Y-15026388D01*
X12715301Y-15026388D02*
X12705777Y-15045436D01*
X12705777Y-15045436D02*
X12696253Y-15054960D01*
X12696253Y-15054960D02*
X12677206Y-15064484D01*
X12677206Y-15064484D02*
X12648634Y-15064484D01*
X12829587Y-15064484D02*
X12810539Y-15054960D01*
X12810539Y-15054960D02*
X12801015Y-15035912D01*
X12801015Y-15035912D02*
X12801015Y-14864484D01*
X12981968Y-15054960D02*
X12962920Y-15064484D01*
X12962920Y-15064484D02*
X12924825Y-15064484D01*
X12924825Y-15064484D02*
X12905777Y-15054960D01*
X12905777Y-15054960D02*
X12896253Y-15035912D01*
X12896253Y-15035912D02*
X12896253Y-14959722D01*
X12896253Y-14959722D02*
X12905777Y-14940674D01*
X12905777Y-14940674D02*
X12924825Y-14931150D01*
X12924825Y-14931150D02*
X12962920Y-14931150D01*
X12962920Y-14931150D02*
X12981968Y-14940674D01*
X12981968Y-14940674D02*
X12991491Y-14959722D01*
X12991491Y-14959722D02*
X12991491Y-14978769D01*
X12991491Y-14978769D02*
X12896253Y-14997817D01*
X13067682Y-15054960D02*
X13086730Y-15064484D01*
X13086730Y-15064484D02*
X13124825Y-15064484D01*
X13124825Y-15064484D02*
X13143872Y-15054960D01*
X13143872Y-15054960D02*
X13153396Y-15035912D01*
X13153396Y-15035912D02*
X13153396Y-15026388D01*
X13153396Y-15026388D02*
X13143872Y-15007341D01*
X13143872Y-15007341D02*
X13124825Y-14997817D01*
X13124825Y-14997817D02*
X13096253Y-14997817D01*
X13096253Y-14997817D02*
X13077206Y-14988293D01*
X13077206Y-14988293D02*
X13067682Y-14969246D01*
X13067682Y-14969246D02*
X13067682Y-14959722D01*
X13067682Y-14959722D02*
X13077206Y-14940674D01*
X13077206Y-14940674D02*
X13096253Y-14931150D01*
X13096253Y-14931150D02*
X13124825Y-14931150D01*
X13124825Y-14931150D02*
X13143872Y-14940674D01*
X13220063Y-15140674D02*
X13229587Y-15131150D01*
X13229587Y-15131150D02*
X13248634Y-15102579D01*
X13248634Y-15102579D02*
X13258158Y-15083531D01*
X13258158Y-15083531D02*
X13267682Y-15054960D01*
X13267682Y-15054960D02*
X13277206Y-15007341D01*
X13277206Y-15007341D02*
X13277206Y-14969246D01*
X13277206Y-14969246D02*
X13267682Y-14921627D01*
X13267682Y-14921627D02*
X13258158Y-14893055D01*
X13258158Y-14893055D02*
X13248634Y-14874008D01*
X13248634Y-14874008D02*
X13229587Y-14845436D01*
X13229587Y-14845436D02*
X13220063Y-14835912D01*
D10*
X8430356Y-15272356D02*
X8430356Y-15201644D01*
X8359644Y-15201644D01*
X8359644Y-15272356D01*
X8430356Y-15272356D01*
D11*
X8810539Y-15328484D02*
X8696253Y-15328484D01*
X8753396Y-15328484D02*
X8753396Y-15128484D01*
X8753396Y-15128484D02*
X8734348Y-15157055D01*
X8734348Y-15157055D02*
X8715301Y-15176103D01*
X8715301Y-15176103D02*
X8696253Y-15185627D01*
X8896253Y-15309436D02*
X8905777Y-15318960D01*
X8905777Y-15318960D02*
X8896253Y-15328484D01*
X8896253Y-15328484D02*
X8886729Y-15318960D01*
X8886729Y-15318960D02*
X8896253Y-15309436D01*
X8896253Y-15309436D02*
X8896253Y-15328484D01*
X9029586Y-15128484D02*
X9048634Y-15128484D01*
X9048634Y-15128484D02*
X9067682Y-15138008D01*
X9067682Y-15138008D02*
X9077205Y-15147531D01*
X9077205Y-15147531D02*
X9086729Y-15166579D01*
X9086729Y-15166579D02*
X9096253Y-15204674D01*
X9096253Y-15204674D02*
X9096253Y-15252293D01*
X9096253Y-15252293D02*
X9086729Y-15290388D01*
X9086729Y-15290388D02*
X9077205Y-15309436D01*
X9077205Y-15309436D02*
X9067682Y-15318960D01*
X9067682Y-15318960D02*
X9048634Y-15328484D01*
X9048634Y-15328484D02*
X9029586Y-15328484D01*
X9029586Y-15328484D02*
X9010539Y-15318960D01*
X9010539Y-15318960D02*
X9001015Y-15309436D01*
X9001015Y-15309436D02*
X8991491Y-15290388D01*
X8991491Y-15290388D02*
X8981967Y-15252293D01*
X8981967Y-15252293D02*
X8981967Y-15204674D01*
X8981967Y-15204674D02*
X8991491Y-15166579D01*
X8991491Y-15166579D02*
X9001015Y-15147531D01*
X9001015Y-15147531D02*
X9010539Y-15138008D01*
X9010539Y-15138008D02*
X9029586Y-15128484D01*
X9220063Y-15128484D02*
X9239110Y-15128484D01*
X9239110Y-15128484D02*
X9258158Y-15138008D01*
X9258158Y-15138008D02*
X9267682Y-15147531D01*
X9267682Y-15147531D02*
X9277205Y-15166579D01*
X9277205Y-15166579D02*
X9286729Y-15204674D01*
X9286729Y-15204674D02*
X9286729Y-15252293D01*
X9286729Y-15252293D02*
X9277205Y-15290388D01*
X9277205Y-15290388D02*
X9267682Y-15309436D01*
X9267682Y-15309436D02*
X9258158Y-15318960D01*
X9258158Y-15318960D02*
X9239110Y-15328484D01*
X9239110Y-15328484D02*
X9220063Y-15328484D01*
X9220063Y-15328484D02*
X9201015Y-15318960D01*
X9201015Y-15318960D02*
X9191491Y-15309436D01*
X9191491Y-15309436D02*
X9181967Y-15290388D01*
X9181967Y-15290388D02*
X9172444Y-15252293D01*
X9172444Y-15252293D02*
X9172444Y-15204674D01*
X9172444Y-15204674D02*
X9181967Y-15166579D01*
X9181967Y-15166579D02*
X9191491Y-15147531D01*
X9191491Y-15147531D02*
X9201015Y-15138008D01*
X9201015Y-15138008D02*
X9220063Y-15128484D01*
X9410539Y-15128484D02*
X9429586Y-15128484D01*
X9429586Y-15128484D02*
X9448634Y-15138008D01*
X9448634Y-15138008D02*
X9458158Y-15147531D01*
X9458158Y-15147531D02*
X9467682Y-15166579D01*
X9467682Y-15166579D02*
X9477205Y-15204674D01*
X9477205Y-15204674D02*
X9477205Y-15252293D01*
X9477205Y-15252293D02*
X9467682Y-15290388D01*
X9467682Y-15290388D02*
X9458158Y-15309436D01*
X9458158Y-15309436D02*
X9448634Y-15318960D01*
X9448634Y-15318960D02*
X9429586Y-15328484D01*
X9429586Y-15328484D02*
X9410539Y-15328484D01*
X9410539Y-15328484D02*
X9391491Y-15318960D01*
X9391491Y-15318960D02*
X9381967Y-15309436D01*
X9381967Y-15309436D02*
X9372444Y-15290388D01*
X9372444Y-15290388D02*
X9362920Y-15252293D01*
X9362920Y-15252293D02*
X9362920Y-15204674D01*
X9362920Y-15204674D02*
X9372444Y-15166579D01*
X9372444Y-15166579D02*
X9381967Y-15147531D01*
X9381967Y-15147531D02*
X9391491Y-15138008D01*
X9391491Y-15138008D02*
X9410539Y-15128484D01*
X9562920Y-15328484D02*
X9562920Y-15195150D01*
X9562920Y-15214198D02*
X9572444Y-15204674D01*
X9572444Y-15204674D02*
X9591491Y-15195150D01*
X9591491Y-15195150D02*
X9620063Y-15195150D01*
X9620063Y-15195150D02*
X9639110Y-15204674D01*
X9639110Y-15204674D02*
X9648634Y-15223722D01*
X9648634Y-15223722D02*
X9648634Y-15328484D01*
X9648634Y-15223722D02*
X9658158Y-15204674D01*
X9658158Y-15204674D02*
X9677205Y-15195150D01*
X9677205Y-15195150D02*
X9705777Y-15195150D01*
X9705777Y-15195150D02*
X9724825Y-15204674D01*
X9724825Y-15204674D02*
X9734348Y-15223722D01*
X9734348Y-15223722D02*
X9734348Y-15328484D01*
X9829586Y-15328484D02*
X9829586Y-15195150D01*
X9829586Y-15214198D02*
X9839110Y-15204674D01*
X9839110Y-15204674D02*
X9858158Y-15195150D01*
X9858158Y-15195150D02*
X9886729Y-15195150D01*
X9886729Y-15195150D02*
X9905777Y-15204674D01*
X9905777Y-15204674D02*
X9915301Y-15223722D01*
X9915301Y-15223722D02*
X9915301Y-15328484D01*
X9915301Y-15223722D02*
X9924825Y-15204674D01*
X9924825Y-15204674D02*
X9943872Y-15195150D01*
X9943872Y-15195150D02*
X9972444Y-15195150D01*
X9972444Y-15195150D02*
X9991491Y-15204674D01*
X9991491Y-15204674D02*
X10001015Y-15223722D01*
X10001015Y-15223722D02*
X10001015Y-15328484D01*
X10391491Y-15118960D02*
X10220063Y-15376103D01*
X10648634Y-15128484D02*
X10667682Y-15128484D01*
X10667682Y-15128484D02*
X10686729Y-15138008D01*
X10686729Y-15138008D02*
X10696253Y-15147531D01*
X10696253Y-15147531D02*
X10705777Y-15166579D01*
X10705777Y-15166579D02*
X10715301Y-15204674D01*
X10715301Y-15204674D02*
X10715301Y-15252293D01*
X10715301Y-15252293D02*
X10705777Y-15290388D01*
X10705777Y-15290388D02*
X10696253Y-15309436D01*
X10696253Y-15309436D02*
X10686729Y-15318960D01*
X10686729Y-15318960D02*
X10667682Y-15328484D01*
X10667682Y-15328484D02*
X10648634Y-15328484D01*
X10648634Y-15328484D02*
X10629587Y-15318960D01*
X10629587Y-15318960D02*
X10620063Y-15309436D01*
X10620063Y-15309436D02*
X10610539Y-15290388D01*
X10610539Y-15290388D02*
X10601015Y-15252293D01*
X10601015Y-15252293D02*
X10601015Y-15204674D01*
X10601015Y-15204674D02*
X10610539Y-15166579D01*
X10610539Y-15166579D02*
X10620063Y-15147531D01*
X10620063Y-15147531D02*
X10629587Y-15138008D01*
X10629587Y-15138008D02*
X10648634Y-15128484D01*
X10801015Y-15309436D02*
X10810539Y-15318960D01*
X10810539Y-15318960D02*
X10801015Y-15328484D01*
X10801015Y-15328484D02*
X10791491Y-15318960D01*
X10791491Y-15318960D02*
X10801015Y-15309436D01*
X10801015Y-15309436D02*
X10801015Y-15328484D01*
X10934348Y-15128484D02*
X10953396Y-15128484D01*
X10953396Y-15128484D02*
X10972444Y-15138008D01*
X10972444Y-15138008D02*
X10981968Y-15147531D01*
X10981968Y-15147531D02*
X10991491Y-15166579D01*
X10991491Y-15166579D02*
X11001015Y-15204674D01*
X11001015Y-15204674D02*
X11001015Y-15252293D01*
X11001015Y-15252293D02*
X10991491Y-15290388D01*
X10991491Y-15290388D02*
X10981968Y-15309436D01*
X10981968Y-15309436D02*
X10972444Y-15318960D01*
X10972444Y-15318960D02*
X10953396Y-15328484D01*
X10953396Y-15328484D02*
X10934348Y-15328484D01*
X10934348Y-15328484D02*
X10915301Y-15318960D01*
X10915301Y-15318960D02*
X10905777Y-15309436D01*
X10905777Y-15309436D02*
X10896253Y-15290388D01*
X10896253Y-15290388D02*
X10886729Y-15252293D01*
X10886729Y-15252293D02*
X10886729Y-15204674D01*
X10886729Y-15204674D02*
X10896253Y-15166579D01*
X10896253Y-15166579D02*
X10905777Y-15147531D01*
X10905777Y-15147531D02*
X10915301Y-15138008D01*
X10915301Y-15138008D02*
X10934348Y-15128484D01*
X11067682Y-15128484D02*
X11191491Y-15128484D01*
X11191491Y-15128484D02*
X11124825Y-15204674D01*
X11124825Y-15204674D02*
X11153396Y-15204674D01*
X11153396Y-15204674D02*
X11172444Y-15214198D01*
X11172444Y-15214198D02*
X11181968Y-15223722D01*
X11181968Y-15223722D02*
X11191491Y-15242769D01*
X11191491Y-15242769D02*
X11191491Y-15290388D01*
X11191491Y-15290388D02*
X11181968Y-15309436D01*
X11181968Y-15309436D02*
X11172444Y-15318960D01*
X11172444Y-15318960D02*
X11153396Y-15328484D01*
X11153396Y-15328484D02*
X11096253Y-15328484D01*
X11096253Y-15328484D02*
X11077206Y-15318960D01*
X11077206Y-15318960D02*
X11067682Y-15309436D01*
X11286729Y-15328484D02*
X11324825Y-15328484D01*
X11324825Y-15328484D02*
X11343872Y-15318960D01*
X11343872Y-15318960D02*
X11353396Y-15309436D01*
X11353396Y-15309436D02*
X11372444Y-15280865D01*
X11372444Y-15280865D02*
X11381967Y-15242769D01*
X11381967Y-15242769D02*
X11381967Y-15166579D01*
X11381967Y-15166579D02*
X11372444Y-15147531D01*
X11372444Y-15147531D02*
X11362920Y-15138008D01*
X11362920Y-15138008D02*
X11343872Y-15128484D01*
X11343872Y-15128484D02*
X11305777Y-15128484D01*
X11305777Y-15128484D02*
X11286729Y-15138008D01*
X11286729Y-15138008D02*
X11277206Y-15147531D01*
X11277206Y-15147531D02*
X11267682Y-15166579D01*
X11267682Y-15166579D02*
X11267682Y-15214198D01*
X11267682Y-15214198D02*
X11277206Y-15233246D01*
X11277206Y-15233246D02*
X11286729Y-15242769D01*
X11286729Y-15242769D02*
X11305777Y-15252293D01*
X11305777Y-15252293D02*
X11343872Y-15252293D01*
X11343872Y-15252293D02*
X11362920Y-15242769D01*
X11362920Y-15242769D02*
X11372444Y-15233246D01*
X11372444Y-15233246D02*
X11381967Y-15214198D01*
X11553396Y-15195150D02*
X11553396Y-15328484D01*
X11505777Y-15118960D02*
X11458158Y-15261817D01*
X11458158Y-15261817D02*
X11581967Y-15261817D01*
X11648634Y-15128484D02*
X11648634Y-15166579D01*
X11724825Y-15128484D02*
X11724825Y-15166579D01*
X12020063Y-15404674D02*
X12010539Y-15395150D01*
X12010539Y-15395150D02*
X11991491Y-15366579D01*
X11991491Y-15366579D02*
X11981968Y-15347531D01*
X11981968Y-15347531D02*
X11972444Y-15318960D01*
X11972444Y-15318960D02*
X11962920Y-15271341D01*
X11962920Y-15271341D02*
X11962920Y-15233246D01*
X11962920Y-15233246D02*
X11972444Y-15185627D01*
X11972444Y-15185627D02*
X11981968Y-15157055D01*
X11981968Y-15157055D02*
X11991491Y-15138008D01*
X11991491Y-15138008D02*
X12010539Y-15109436D01*
X12010539Y-15109436D02*
X12020063Y-15099912D01*
X12181968Y-15195150D02*
X12181968Y-15328484D01*
X12134348Y-15118960D02*
X12086729Y-15261817D01*
X12086729Y-15261817D02*
X12210539Y-15261817D01*
X12381968Y-15128484D02*
X12286729Y-15128484D01*
X12286729Y-15128484D02*
X12277206Y-15223722D01*
X12277206Y-15223722D02*
X12286729Y-15214198D01*
X12286729Y-15214198D02*
X12305777Y-15204674D01*
X12305777Y-15204674D02*
X12353396Y-15204674D01*
X12353396Y-15204674D02*
X12372444Y-15214198D01*
X12372444Y-15214198D02*
X12381968Y-15223722D01*
X12381968Y-15223722D02*
X12391491Y-15242769D01*
X12391491Y-15242769D02*
X12391491Y-15290388D01*
X12391491Y-15290388D02*
X12381968Y-15309436D01*
X12381968Y-15309436D02*
X12372444Y-15318960D01*
X12372444Y-15318960D02*
X12353396Y-15328484D01*
X12353396Y-15328484D02*
X12305777Y-15328484D01*
X12305777Y-15328484D02*
X12286729Y-15318960D01*
X12286729Y-15318960D02*
X12277206Y-15309436D01*
X12629587Y-15328484D02*
X12629587Y-15128484D01*
X12715301Y-15328484D02*
X12715301Y-15223722D01*
X12715301Y-15223722D02*
X12705777Y-15204674D01*
X12705777Y-15204674D02*
X12686730Y-15195150D01*
X12686730Y-15195150D02*
X12658158Y-15195150D01*
X12658158Y-15195150D02*
X12639110Y-15204674D01*
X12639110Y-15204674D02*
X12629587Y-15214198D01*
X12839110Y-15328484D02*
X12820063Y-15318960D01*
X12820063Y-15318960D02*
X12810539Y-15309436D01*
X12810539Y-15309436D02*
X12801015Y-15290388D01*
X12801015Y-15290388D02*
X12801015Y-15233246D01*
X12801015Y-15233246D02*
X12810539Y-15214198D01*
X12810539Y-15214198D02*
X12820063Y-15204674D01*
X12820063Y-15204674D02*
X12839110Y-15195150D01*
X12839110Y-15195150D02*
X12867682Y-15195150D01*
X12867682Y-15195150D02*
X12886730Y-15204674D01*
X12886730Y-15204674D02*
X12896253Y-15214198D01*
X12896253Y-15214198D02*
X12905777Y-15233246D01*
X12905777Y-15233246D02*
X12905777Y-15290388D01*
X12905777Y-15290388D02*
X12896253Y-15309436D01*
X12896253Y-15309436D02*
X12886730Y-15318960D01*
X12886730Y-15318960D02*
X12867682Y-15328484D01*
X12867682Y-15328484D02*
X12839110Y-15328484D01*
X13020063Y-15328484D02*
X13001015Y-15318960D01*
X13001015Y-15318960D02*
X12991491Y-15299912D01*
X12991491Y-15299912D02*
X12991491Y-15128484D01*
X13172444Y-15318960D02*
X13153396Y-15328484D01*
X13153396Y-15328484D02*
X13115301Y-15328484D01*
X13115301Y-15328484D02*
X13096253Y-15318960D01*
X13096253Y-15318960D02*
X13086730Y-15299912D01*
X13086730Y-15299912D02*
X13086730Y-15223722D01*
X13086730Y-15223722D02*
X13096253Y-15204674D01*
X13096253Y-15204674D02*
X13115301Y-15195150D01*
X13115301Y-15195150D02*
X13153396Y-15195150D01*
X13153396Y-15195150D02*
X13172444Y-15204674D01*
X13172444Y-15204674D02*
X13181968Y-15223722D01*
X13181968Y-15223722D02*
X13181968Y-15242769D01*
X13181968Y-15242769D02*
X13086730Y-15261817D01*
X13258158Y-15318960D02*
X13277206Y-15328484D01*
X13277206Y-15328484D02*
X13315301Y-15328484D01*
X13315301Y-15328484D02*
X13334349Y-15318960D01*
X13334349Y-15318960D02*
X13343872Y-15299912D01*
X13343872Y-15299912D02*
X13343872Y-15290388D01*
X13343872Y-15290388D02*
X13334349Y-15271341D01*
X13334349Y-15271341D02*
X13315301Y-15261817D01*
X13315301Y-15261817D02*
X13286730Y-15261817D01*
X13286730Y-15261817D02*
X13267682Y-15252293D01*
X13267682Y-15252293D02*
X13258158Y-15233246D01*
X13258158Y-15233246D02*
X13258158Y-15223722D01*
X13258158Y-15223722D02*
X13267682Y-15204674D01*
X13267682Y-15204674D02*
X13286730Y-15195150D01*
X13286730Y-15195150D02*
X13315301Y-15195150D01*
X13315301Y-15195150D02*
X13334349Y-15204674D01*
X13410539Y-15404674D02*
X13420063Y-15395150D01*
X13420063Y-15395150D02*
X13439111Y-15366579D01*
X13439111Y-15366579D02*
X13448634Y-15347531D01*
X13448634Y-15347531D02*
X13458158Y-15318960D01*
X13458158Y-15318960D02*
X13467682Y-15271341D01*
X13467682Y-15271341D02*
X13467682Y-15233246D01*
X13467682Y-15233246D02*
X13458158Y-15185627D01*
X13458158Y-15185627D02*
X13448634Y-15157055D01*
X13448634Y-15157055D02*
X13439111Y-15138008D01*
X13439111Y-15138008D02*
X13420063Y-15109436D01*
X13420063Y-15109436D02*
X13410539Y-15099912D01*
D12*
X8350000Y-15596000D02*
X8445000Y-15501000D01*
X8350000Y-15406000D01*
X8255000Y-15501000D01*
X8350000Y-15596000D01*
D11*
X8810539Y-15592484D02*
X8696253Y-15592484D01*
X8753396Y-15592484D02*
X8753396Y-15392484D01*
X8753396Y-15392484D02*
X8734348Y-15421055D01*
X8734348Y-15421055D02*
X8715301Y-15440103D01*
X8715301Y-15440103D02*
X8696253Y-15449627D01*
X8896253Y-15573436D02*
X8905777Y-15582960D01*
X8905777Y-15582960D02*
X8896253Y-15592484D01*
X8896253Y-15592484D02*
X8886729Y-15582960D01*
X8886729Y-15582960D02*
X8896253Y-15573436D01*
X8896253Y-15573436D02*
X8896253Y-15592484D01*
X9001015Y-15592484D02*
X9039110Y-15592484D01*
X9039110Y-15592484D02*
X9058158Y-15582960D01*
X9058158Y-15582960D02*
X9067682Y-15573436D01*
X9067682Y-15573436D02*
X9086729Y-15544865D01*
X9086729Y-15544865D02*
X9096253Y-15506769D01*
X9096253Y-15506769D02*
X9096253Y-15430579D01*
X9096253Y-15430579D02*
X9086729Y-15411531D01*
X9086729Y-15411531D02*
X9077205Y-15402008D01*
X9077205Y-15402008D02*
X9058158Y-15392484D01*
X9058158Y-15392484D02*
X9020063Y-15392484D01*
X9020063Y-15392484D02*
X9001015Y-15402008D01*
X9001015Y-15402008D02*
X8991491Y-15411531D01*
X8991491Y-15411531D02*
X8981967Y-15430579D01*
X8981967Y-15430579D02*
X8981967Y-15478198D01*
X8981967Y-15478198D02*
X8991491Y-15497246D01*
X8991491Y-15497246D02*
X9001015Y-15506769D01*
X9001015Y-15506769D02*
X9020063Y-15516293D01*
X9020063Y-15516293D02*
X9058158Y-15516293D01*
X9058158Y-15516293D02*
X9077205Y-15506769D01*
X9077205Y-15506769D02*
X9086729Y-15497246D01*
X9086729Y-15497246D02*
X9096253Y-15478198D01*
X9220063Y-15392484D02*
X9239110Y-15392484D01*
X9239110Y-15392484D02*
X9258158Y-15402008D01*
X9258158Y-15402008D02*
X9267682Y-15411531D01*
X9267682Y-15411531D02*
X9277205Y-15430579D01*
X9277205Y-15430579D02*
X9286729Y-15468674D01*
X9286729Y-15468674D02*
X9286729Y-15516293D01*
X9286729Y-15516293D02*
X9277205Y-15554388D01*
X9277205Y-15554388D02*
X9267682Y-15573436D01*
X9267682Y-15573436D02*
X9258158Y-15582960D01*
X9258158Y-15582960D02*
X9239110Y-15592484D01*
X9239110Y-15592484D02*
X9220063Y-15592484D01*
X9220063Y-15592484D02*
X9201015Y-15582960D01*
X9201015Y-15582960D02*
X9191491Y-15573436D01*
X9191491Y-15573436D02*
X9181967Y-15554388D01*
X9181967Y-15554388D02*
X9172444Y-15516293D01*
X9172444Y-15516293D02*
X9172444Y-15468674D01*
X9172444Y-15468674D02*
X9181967Y-15430579D01*
X9181967Y-15430579D02*
X9191491Y-15411531D01*
X9191491Y-15411531D02*
X9201015Y-15402008D01*
X9201015Y-15402008D02*
X9220063Y-15392484D01*
X9410539Y-15392484D02*
X9429586Y-15392484D01*
X9429586Y-15392484D02*
X9448634Y-15402008D01*
X9448634Y-15402008D02*
X9458158Y-15411531D01*
X9458158Y-15411531D02*
X9467682Y-15430579D01*
X9467682Y-15430579D02*
X9477205Y-15468674D01*
X9477205Y-15468674D02*
X9477205Y-15516293D01*
X9477205Y-15516293D02*
X9467682Y-15554388D01*
X9467682Y-15554388D02*
X9458158Y-15573436D01*
X9458158Y-15573436D02*
X9448634Y-15582960D01*
X9448634Y-15582960D02*
X9429586Y-15592484D01*
X9429586Y-15592484D02*
X9410539Y-15592484D01*
X9410539Y-15592484D02*
X9391491Y-15582960D01*
X9391491Y-15582960D02*
X9381967Y-15573436D01*
X9381967Y-15573436D02*
X9372444Y-15554388D01*
X9372444Y-15554388D02*
X9362920Y-15516293D01*
X9362920Y-15516293D02*
X9362920Y-15468674D01*
X9362920Y-15468674D02*
X9372444Y-15430579D01*
X9372444Y-15430579D02*
X9381967Y-15411531D01*
X9381967Y-15411531D02*
X9391491Y-15402008D01*
X9391491Y-15402008D02*
X9410539Y-15392484D01*
X9562920Y-15592484D02*
X9562920Y-15459150D01*
X9562920Y-15478198D02*
X9572444Y-15468674D01*
X9572444Y-15468674D02*
X9591491Y-15459150D01*
X9591491Y-15459150D02*
X9620063Y-15459150D01*
X9620063Y-15459150D02*
X9639110Y-15468674D01*
X9639110Y-15468674D02*
X9648634Y-15487722D01*
X9648634Y-15487722D02*
X9648634Y-15592484D01*
X9648634Y-15487722D02*
X9658158Y-15468674D01*
X9658158Y-15468674D02*
X9677205Y-15459150D01*
X9677205Y-15459150D02*
X9705777Y-15459150D01*
X9705777Y-15459150D02*
X9724825Y-15468674D01*
X9724825Y-15468674D02*
X9734348Y-15487722D01*
X9734348Y-15487722D02*
X9734348Y-15592484D01*
X9829586Y-15592484D02*
X9829586Y-15459150D01*
X9829586Y-15478198D02*
X9839110Y-15468674D01*
X9839110Y-15468674D02*
X9858158Y-15459150D01*
X9858158Y-15459150D02*
X9886729Y-15459150D01*
X9886729Y-15459150D02*
X9905777Y-15468674D01*
X9905777Y-15468674D02*
X9915301Y-15487722D01*
X9915301Y-15487722D02*
X9915301Y-15592484D01*
X9915301Y-15487722D02*
X9924825Y-15468674D01*
X9924825Y-15468674D02*
X9943872Y-15459150D01*
X9943872Y-15459150D02*
X9972444Y-15459150D01*
X9972444Y-15459150D02*
X9991491Y-15468674D01*
X9991491Y-15468674D02*
X10001015Y-15487722D01*
X10001015Y-15487722D02*
X10001015Y-15592484D01*
X10391491Y-15382960D02*
X10220063Y-15640103D01*
X10648634Y-15392484D02*
X10667682Y-15392484D01*
X10667682Y-15392484D02*
X10686729Y-15402008D01*
X10686729Y-15402008D02*
X10696253Y-15411531D01*
X10696253Y-15411531D02*
X10705777Y-15430579D01*
X10705777Y-15430579D02*
X10715301Y-15468674D01*
X10715301Y-15468674D02*
X10715301Y-15516293D01*
X10715301Y-15516293D02*
X10705777Y-15554388D01*
X10705777Y-15554388D02*
X10696253Y-15573436D01*
X10696253Y-15573436D02*
X10686729Y-15582960D01*
X10686729Y-15582960D02*
X10667682Y-15592484D01*
X10667682Y-15592484D02*
X10648634Y-15592484D01*
X10648634Y-15592484D02*
X10629587Y-15582960D01*
X10629587Y-15582960D02*
X10620063Y-15573436D01*
X10620063Y-15573436D02*
X10610539Y-15554388D01*
X10610539Y-15554388D02*
X10601015Y-15516293D01*
X10601015Y-15516293D02*
X10601015Y-15468674D01*
X10601015Y-15468674D02*
X10610539Y-15430579D01*
X10610539Y-15430579D02*
X10620063Y-15411531D01*
X10620063Y-15411531D02*
X10629587Y-15402008D01*
X10629587Y-15402008D02*
X10648634Y-15392484D01*
X10801015Y-15573436D02*
X10810539Y-15582960D01*
X10810539Y-15582960D02*
X10801015Y-15592484D01*
X10801015Y-15592484D02*
X10791491Y-15582960D01*
X10791491Y-15582960D02*
X10801015Y-15573436D01*
X10801015Y-15573436D02*
X10801015Y-15592484D01*
X10934348Y-15392484D02*
X10953396Y-15392484D01*
X10953396Y-15392484D02*
X10972444Y-15402008D01*
X10972444Y-15402008D02*
X10981968Y-15411531D01*
X10981968Y-15411531D02*
X10991491Y-15430579D01*
X10991491Y-15430579D02*
X11001015Y-15468674D01*
X11001015Y-15468674D02*
X11001015Y-15516293D01*
X11001015Y-15516293D02*
X10991491Y-15554388D01*
X10991491Y-15554388D02*
X10981968Y-15573436D01*
X10981968Y-15573436D02*
X10972444Y-15582960D01*
X10972444Y-15582960D02*
X10953396Y-15592484D01*
X10953396Y-15592484D02*
X10934348Y-15592484D01*
X10934348Y-15592484D02*
X10915301Y-15582960D01*
X10915301Y-15582960D02*
X10905777Y-15573436D01*
X10905777Y-15573436D02*
X10896253Y-15554388D01*
X10896253Y-15554388D02*
X10886729Y-15516293D01*
X10886729Y-15516293D02*
X10886729Y-15468674D01*
X10886729Y-15468674D02*
X10896253Y-15430579D01*
X10896253Y-15430579D02*
X10905777Y-15411531D01*
X10905777Y-15411531D02*
X10915301Y-15402008D01*
X10915301Y-15402008D02*
X10934348Y-15392484D01*
X11067682Y-15392484D02*
X11201015Y-15392484D01*
X11201015Y-15392484D02*
X11115301Y-15592484D01*
X11362920Y-15459150D02*
X11362920Y-15592484D01*
X11315301Y-15382960D02*
X11267682Y-15525817D01*
X11267682Y-15525817D02*
X11391491Y-15525817D01*
X11496253Y-15478198D02*
X11477206Y-15468674D01*
X11477206Y-15468674D02*
X11467682Y-15459150D01*
X11467682Y-15459150D02*
X11458158Y-15440103D01*
X11458158Y-15440103D02*
X11458158Y-15430579D01*
X11458158Y-15430579D02*
X11467682Y-15411531D01*
X11467682Y-15411531D02*
X11477206Y-15402008D01*
X11477206Y-15402008D02*
X11496253Y-15392484D01*
X11496253Y-15392484D02*
X11534348Y-15392484D01*
X11534348Y-15392484D02*
X11553396Y-15402008D01*
X11553396Y-15402008D02*
X11562920Y-15411531D01*
X11562920Y-15411531D02*
X11572444Y-15430579D01*
X11572444Y-15430579D02*
X11572444Y-15440103D01*
X11572444Y-15440103D02*
X11562920Y-15459150D01*
X11562920Y-15459150D02*
X11553396Y-15468674D01*
X11553396Y-15468674D02*
X11534348Y-15478198D01*
X11534348Y-15478198D02*
X11496253Y-15478198D01*
X11496253Y-15478198D02*
X11477206Y-15487722D01*
X11477206Y-15487722D02*
X11467682Y-15497246D01*
X11467682Y-15497246D02*
X11458158Y-15516293D01*
X11458158Y-15516293D02*
X11458158Y-15554388D01*
X11458158Y-15554388D02*
X11467682Y-15573436D01*
X11467682Y-15573436D02*
X11477206Y-15582960D01*
X11477206Y-15582960D02*
X11496253Y-15592484D01*
X11496253Y-15592484D02*
X11534348Y-15592484D01*
X11534348Y-15592484D02*
X11553396Y-15582960D01*
X11553396Y-15582960D02*
X11562920Y-15573436D01*
X11562920Y-15573436D02*
X11572444Y-15554388D01*
X11572444Y-15554388D02*
X11572444Y-15516293D01*
X11572444Y-15516293D02*
X11562920Y-15497246D01*
X11562920Y-15497246D02*
X11553396Y-15487722D01*
X11553396Y-15487722D02*
X11534348Y-15478198D01*
X11648634Y-15392484D02*
X11648634Y-15430579D01*
X11724825Y-15392484D02*
X11724825Y-15430579D01*
X12020063Y-15668674D02*
X12010539Y-15659150D01*
X12010539Y-15659150D02*
X11991491Y-15630579D01*
X11991491Y-15630579D02*
X11981968Y-15611531D01*
X11981968Y-15611531D02*
X11972444Y-15582960D01*
X11972444Y-15582960D02*
X11962920Y-15535341D01*
X11962920Y-15535341D02*
X11962920Y-15497246D01*
X11962920Y-15497246D02*
X11972444Y-15449627D01*
X11972444Y-15449627D02*
X11981968Y-15421055D01*
X11981968Y-15421055D02*
X11991491Y-15402008D01*
X11991491Y-15402008D02*
X12010539Y-15373436D01*
X12010539Y-15373436D02*
X12020063Y-15363912D01*
X12086729Y-15411531D02*
X12096253Y-15402008D01*
X12096253Y-15402008D02*
X12115301Y-15392484D01*
X12115301Y-15392484D02*
X12162920Y-15392484D01*
X12162920Y-15392484D02*
X12181968Y-15402008D01*
X12181968Y-15402008D02*
X12191491Y-15411531D01*
X12191491Y-15411531D02*
X12201015Y-15430579D01*
X12201015Y-15430579D02*
X12201015Y-15449627D01*
X12201015Y-15449627D02*
X12191491Y-15478198D01*
X12191491Y-15478198D02*
X12077206Y-15592484D01*
X12077206Y-15592484D02*
X12201015Y-15592484D01*
X12439110Y-15592484D02*
X12439110Y-15392484D01*
X12524825Y-15592484D02*
X12524825Y-15487722D01*
X12524825Y-15487722D02*
X12515301Y-15468674D01*
X12515301Y-15468674D02*
X12496253Y-15459150D01*
X12496253Y-15459150D02*
X12467682Y-15459150D01*
X12467682Y-15459150D02*
X12448634Y-15468674D01*
X12448634Y-15468674D02*
X12439110Y-15478198D01*
X12648634Y-15592484D02*
X12629587Y-15582960D01*
X12629587Y-15582960D02*
X12620063Y-15573436D01*
X12620063Y-15573436D02*
X12610539Y-15554388D01*
X12610539Y-15554388D02*
X12610539Y-15497246D01*
X12610539Y-15497246D02*
X12620063Y-15478198D01*
X12620063Y-15478198D02*
X12629587Y-15468674D01*
X12629587Y-15468674D02*
X12648634Y-15459150D01*
X12648634Y-15459150D02*
X12677206Y-15459150D01*
X12677206Y-15459150D02*
X12696253Y-15468674D01*
X12696253Y-15468674D02*
X12705777Y-15478198D01*
X12705777Y-15478198D02*
X12715301Y-15497246D01*
X12715301Y-15497246D02*
X12715301Y-15554388D01*
X12715301Y-15554388D02*
X12705777Y-15573436D01*
X12705777Y-15573436D02*
X12696253Y-15582960D01*
X12696253Y-15582960D02*
X12677206Y-15592484D01*
X12677206Y-15592484D02*
X12648634Y-15592484D01*
X12829587Y-15592484D02*
X12810539Y-15582960D01*
X12810539Y-15582960D02*
X12801015Y-15563912D01*
X12801015Y-15563912D02*
X12801015Y-15392484D01*
X12981968Y-15582960D02*
X12962920Y-15592484D01*
X12962920Y-15592484D02*
X12924825Y-15592484D01*
X12924825Y-15592484D02*
X12905777Y-15582960D01*
X12905777Y-15582960D02*
X12896253Y-15563912D01*
X12896253Y-15563912D02*
X12896253Y-15487722D01*
X12896253Y-15487722D02*
X12905777Y-15468674D01*
X12905777Y-15468674D02*
X12924825Y-15459150D01*
X12924825Y-15459150D02*
X12962920Y-15459150D01*
X12962920Y-15459150D02*
X12981968Y-15468674D01*
X12981968Y-15468674D02*
X12991491Y-15487722D01*
X12991491Y-15487722D02*
X12991491Y-15506769D01*
X12991491Y-15506769D02*
X12896253Y-15525817D01*
X13067682Y-15582960D02*
X13086730Y-15592484D01*
X13086730Y-15592484D02*
X13124825Y-15592484D01*
X13124825Y-15592484D02*
X13143872Y-15582960D01*
X13143872Y-15582960D02*
X13153396Y-15563912D01*
X13153396Y-15563912D02*
X13153396Y-15554388D01*
X13153396Y-15554388D02*
X13143872Y-15535341D01*
X13143872Y-15535341D02*
X13124825Y-15525817D01*
X13124825Y-15525817D02*
X13096253Y-15525817D01*
X13096253Y-15525817D02*
X13077206Y-15516293D01*
X13077206Y-15516293D02*
X13067682Y-15497246D01*
X13067682Y-15497246D02*
X13067682Y-15487722D01*
X13067682Y-15487722D02*
X13077206Y-15468674D01*
X13077206Y-15468674D02*
X13096253Y-15459150D01*
X13096253Y-15459150D02*
X13124825Y-15459150D01*
X13124825Y-15459150D02*
X13143872Y-15468674D01*
X13220063Y-15668674D02*
X13229587Y-15659150D01*
X13229587Y-15659150D02*
X13248634Y-15630579D01*
X13248634Y-15630579D02*
X13258158Y-15611531D01*
X13258158Y-15611531D02*
X13267682Y-15582960D01*
X13267682Y-15582960D02*
X13277206Y-15535341D01*
X13277206Y-15535341D02*
X13277206Y-15497246D01*
X13277206Y-15497246D02*
X13267682Y-15449627D01*
X13267682Y-15449627D02*
X13258158Y-15421055D01*
X13258158Y-15421055D02*
X13248634Y-15402008D01*
X13248634Y-15402008D02*
X13229587Y-15373436D01*
X13229587Y-15373436D02*
X13220063Y-15363912D01*
M02*
