M48
; DRILL file KiCad 10.0.5 date 2026-09-27T19:12:04
; FORMAT={-:-/ absolute / metric / decimal}
; #@! TF.CreationDate,2026-09-27T19:12:04+02:00
; #@! TF.GenerationSoftware,Kicad,Pcbnew,10.0.5
; #@! TF.FileFunction,Plated,1,4,PTH
FMAT,2
METRIC
; #@! TA.AperFunction,Plated,PTH,ViaDrill
T1C0.300
; #@! TA.AperFunction,Plated,PTH,ViaDrill
T2C0.400
; #@! TA.AperFunction,Plated,PTH,ComponentDrill
T3C0.750
; #@! TA.AperFunction,Plated,PTH,ComponentDrill
T4C1.000
; #@! TA.AperFunction,Plated,PTH,ComponentDrill
T5C1.900
%
G90
G05
T1
X85.725Y-116.3
X85.85Y-131.25
X86.0Y-125.5
X86.0Y-133.5
X86.15Y-108.05
X86.237Y-131.925
X86.55Y-124.905
X86.65Y-126.705
X86.95Y-123.95
X87.25Y-107.45
X87.35Y-119.525
X87.75Y-110.175
X87.95Y-128.505
X88.8Y-105.45
X89.05Y-123.35
X89.15Y-126.555
X89.25Y-124.15
X89.65Y-110.65
X89.75Y-104.6
X89.75Y-105.55
X90.0Y-101.5
X90.0Y-125.5
X90.35Y-94.2
X90.45Y-98.05
X90.45Y-106.557
X90.913Y-96.288
X90.95Y-133.25
X91.601Y-133.349
X91.675Y-110.7
X91.85Y-98.0
X91.9Y-126.555
X92.15Y-133.775
X92.15Y-134.375
X92.265Y-97.015
X92.35Y-125.755
X92.55Y-124.605
X92.65Y-128.705
X92.75Y-133.675
X93.195Y-96.698
X93.26Y-107.41
X93.55Y-99.75
X93.75Y-107.76
X93.95Y-65.45
X94.0Y-93.5
X94.0Y-121.5
X94.0Y-129.5
X94.0Y-133.5
X94.45Y-90.75
X94.45Y-116.667
X94.45Y-117.267
X94.8Y-104.6
X95.05Y-111.867
X95.175Y-129.125
X95.375Y-113.125
X95.375Y-113.725
X95.75Y-105.05
X95.75Y-109.65
X96.05Y-110.45
X96.05Y-133.5
X96.15Y-126.925
X96.45Y-106.55
X96.725Y-125.525
X96.725Y-126.225
X96.95Y-103.15
X97.025Y-107.15
X97.25Y-86.15
X97.325Y-125.325
X97.35Y-93.65
X97.725Y-123.425
X97.9Y-131.92
X98.0Y-49.5
X98.0Y-53.5
X98.0Y-81.5
X98.0Y-113.5
X98.05Y-127.755
X99.145Y-80.242
X99.15Y-95.45
X99.25Y-120.66
X99.45Y-123.425
X99.45Y-125.21
X99.75Y-126.925
X99.85Y-81.35
X100.035Y-131.744
X100.05Y-134.65
X100.225Y-109.15
X100.35Y-111.175
X100.95Y-111.275
X101.0Y-134.63
X101.15Y-129.325
X101.15Y-122.225
X101.45Y-126.41
X101.45Y-127.525
X101.65Y-80.75
X101.85Y-122.96
X102.0Y-49.5
X102.0Y-81.5
X102.0Y-85.5
X102.0Y-89.5
X102.0Y-105.5
X102.0Y-109.5
X102.15Y-127.005
X102.305Y-116.587
X102.38Y-119.05
X102.725Y-129.625
X103.05Y-127.525
X103.125Y-129.125
X103.45Y-80.65
X103.75Y-122.95
X104.3Y-55.42
X104.399Y-82.803
X104.75Y-130.15
X105.0Y-117.1
X105.0Y-117.9
X105.05Y-81.55
X105.764Y-80.764
X106.0Y-61.5
X106.0Y-65.5
X106.0Y-69.5
X106.0Y-73.5
X106.0Y-85.5
X106.0Y-93.5
X106.0Y-105.5
X106.0Y-117.5
X106.0Y-129.5
X106.65Y-109.425
X106.85Y-122.225
X106.85Y-124.325
X107.45Y-108.225
X107.85Y-110.325
X108.05Y-128.35
X108.275Y-111.41
X108.35Y-80.15
X108.617Y-132.201
X108.85Y-108.225
X109.15Y-105.55
X109.225Y-113.55
X109.45Y-130.4
X109.5Y-50.28
X109.75Y-122.95
X109.75Y-124.325
X110.0Y-93.5
X110.0Y-105.5
X110.0Y-133.5
X110.811Y-83.857
X111.85Y-108.25
X111.85Y-111.25
X113.025Y-124.925
X113.05Y-136.307
X114.0Y-49.5
X114.0Y-57.5
X114.0Y-61.5
X114.0Y-65.5
X114.0Y-77.5
X114.0Y-85.5
X114.0Y-113.5
X114.0Y-117.5
X114.0Y-121.5
X114.0Y-125.5
X114.0Y-133.5
X114.706Y-131.707
X115.35Y-136.307
X115.45Y-99.45
X115.65Y-110.95
X115.65Y-111.925
X115.843Y-134.575
X115.95Y-102.925
X116.25Y-101.925
X116.25Y-136.35
X116.275Y-121.9
X116.323Y-80.855
X116.399Y-131.971
X116.65Y-121.05
X116.675Y-127.825
X117.45Y-62.35
X117.638Y-96.679
X117.95Y-134.65
X118.0Y-49.5
X118.0Y-53.5
X118.0Y-61.5
X118.0Y-65.5
X118.0Y-69.5
X118.0Y-73.5
X118.3Y-132.32
X118.55Y-63.45
X119.158Y-124.188
X119.35Y-113.1
X119.5Y-134.63
X119.658Y-130.66
X119.75Y-124.75
X119.759Y-110.673
X120.05Y-64.95
X120.55Y-125.774
X120.95Y-129.35
X121.05Y-64.95
X121.15Y-121.925
X121.2Y-99.45
X121.725Y-112.675
X121.8Y-96.168
X121.847Y-128.688
X121.961Y-124.78
X122.0Y-49.5
X122.0Y-53.5
X122.0Y-61.5
X122.0Y-65.5
X122.0Y-69.5
X122.0Y-73.5
X122.0Y-81.5
X122.0Y-85.5
X122.0Y-93.5
X122.0Y-121.5
X122.417Y-100.518
X122.601Y-103.706
X123.033Y-89.335
X123.075Y-109.925
X123.25Y-118.725
X123.334Y-105.779
X123.95Y-113.45
X124.275Y-106.95
X124.444Y-80.63
X125.85Y-83.95
X126.0Y-49.5
X126.0Y-57.5
X126.0Y-61.5
X126.0Y-65.5
X126.0Y-69.5
X126.0Y-93.5
X126.0Y-101.5
X126.15Y-63.25
X126.175Y-120.925
X126.175Y-124.175
X126.5Y-131.5
X126.775Y-123.575
X126.975Y-124.55
X127.15Y-64.25
X127.15Y-112.45
X127.375Y-107.85
X127.725Y-83.025
X128.05Y-118.45
X128.25Y-112.35
X128.25Y-119.25
X128.488Y-98.396
X128.85Y-96.75
X128.9Y-94.0
X128.95Y-102.925
X129.41Y-108.047
X129.65Y-122.75
X130.0Y-49.5
X130.0Y-69.5
X130.0Y-73.5
X130.0Y-85.5
X130.0Y-121.5
X130.0Y-125.5
X130.0Y-129.5
X130.598Y-109.352
X130.848Y-108.8
X131.0Y-112.4
X131.05Y-104.95
X131.088Y-135.9
X131.54Y-90.188
X131.75Y-111.125
X132.209Y-83.266
X132.44Y-76.68
X132.6Y-91.6
X133.75Y-83.85
X134.0Y-49.5
X134.0Y-61.5
X134.0Y-69.5
X134.0Y-73.5
X134.0Y-101.5
X134.0Y-109.5
X134.0Y-117.5
X134.0Y-133.5
X134.05Y-104.125
X134.35Y-80.25
X134.562Y-112.85
X134.75Y-99.35
X135.05Y-104.15
X135.213Y-111.285
X135.325Y-82.724
X135.5Y-94.0
X135.812Y-110.985
X135.85Y-102.225
X136.006Y-110.335
X136.043Y-99.278
X136.6Y-82.05
X136.65Y-107.85
X136.65Y-109.75
X136.75Y-73.85
X136.85Y-102.25
X137.007Y-112.284
X137.05Y-82.45
X137.53Y-82.95
X137.9Y-80.75
X138.0Y-49.5
X138.0Y-57.5
X138.0Y-61.5
X138.0Y-117.5
X138.0Y-121.5
X138.0Y-125.5
X138.0Y-133.5
X138.05Y-88.15
X140.15Y-96.35
X140.651Y-124.656
X142.0Y-49.5
X142.0Y-61.5
X142.0Y-69.5
X142.0Y-73.5
X142.0Y-85.5
X142.0Y-89.5
X142.0Y-93.5
X142.0Y-97.5
X142.0Y-109.5
X142.0Y-117.5
X142.0Y-121.5
X142.0Y-125.5
X142.625Y-112.875
T2
X87.819Y-112.75
X88.556Y-116.156
X108.0Y-134.96
X109.5Y-52.8
X116.551Y-114.151
X123.88Y-112.437
X126.153Y-134.673
X128.537Y-85.442
X129.401Y-81.326
X131.453Y-87.227
X138.007Y-95.296
T3
X98.5Y-52.5
X100.5Y-52.5
T4
X95.14Y-59.8
X95.14Y-77.58
X97.68Y-59.8
X97.68Y-77.58
X100.22Y-59.8
X100.22Y-77.58
X102.76Y-59.8
X102.76Y-77.58
X105.3Y-59.8
X105.3Y-77.58
X107.84Y-59.8
X107.84Y-77.58
X110.38Y-59.8
X110.38Y-77.58
X112.92Y-59.8
X112.92Y-77.58
X115.46Y-59.8
X115.46Y-77.58
X116.2Y-87.5
X118.0Y-59.8
X118.0Y-77.58
X120.54Y-59.8
X120.54Y-77.58
X121.2Y-87.5
X123.08Y-59.8
X123.08Y-77.58
X125.46Y-52.0
X125.62Y-59.8
X125.62Y-77.58
X128.0Y-52.0
X128.16Y-59.8
X128.16Y-77.58
X130.54Y-52.0
X130.7Y-59.8
X130.7Y-77.58
X133.24Y-59.8
X133.24Y-77.58
X135.78Y-59.8
X135.78Y-77.58
X138.32Y-59.8
X138.32Y-77.58
X140.86Y-59.8
X140.86Y-77.58
X143.4Y-59.8
X143.4Y-77.58
T5
X100.8Y-98.0
X114.0Y-98.0
M30
