%TF.GenerationSoftware,KiCad,Pcbnew,10.0.5*%
%TF.CreationDate,2026-10-03T16:37:10+02:00*%
%TF.ProjectId,sst_v2,7373745f-7632-42e6-9b69-6361645f7063,3*%
%TF.SameCoordinates,Original*%
%TF.FileFunction,Soldermask,Bot*%
%TF.FilePolarity,Negative*%
%FSLAX46Y46*%
G04 Gerber Fmt 4.6, Leading zero omitted, Abs format (unit mm)*
G04 Created by KiCad (PCBNEW 10.0.5) date 2026-10-03 16:37:10*
%MOMM*%
%LPD*%
G01*
G04 APERTURE LIST*
G04 APERTURE END LIST*
G36*
X88618894Y-132355086D02*
G01*
X88629458Y-132355086D01*
X88681477Y-132363325D01*
X88821877Y-132381809D01*
X88856138Y-132390989D01*
X88885185Y-132395590D01*
X88941045Y-132413740D01*
X89030338Y-132437666D01*
X89087309Y-132461264D01*
X89131428Y-132475599D01*
X89172755Y-132496656D01*
X89229733Y-132520257D01*
X89309803Y-132566485D01*
X89362123Y-132593144D01*
X89385909Y-132610425D01*
X89416624Y-132628159D01*
X89528975Y-132714369D01*
X89571589Y-132745330D01*
X89579058Y-132752799D01*
X89587848Y-132759544D01*
X89740455Y-132912151D01*
X89747199Y-132920940D01*
X89754670Y-132928411D01*
X89785634Y-132971030D01*
X89871840Y-133083375D01*
X89889572Y-133114087D01*
X89906856Y-133137877D01*
X89933517Y-133190203D01*
X89979742Y-133270266D01*
X90003340Y-133327237D01*
X90024401Y-133368572D01*
X90038738Y-133412696D01*
X90062333Y-133469661D01*
X90086255Y-133558941D01*
X90104410Y-133614815D01*
X90109011Y-133643867D01*
X90118190Y-133678122D01*
X90136673Y-133818514D01*
X90144914Y-133870542D01*
X90144914Y-133881105D01*
X90146360Y-133892089D01*
X90146360Y-134107910D01*
X90144914Y-134118893D01*
X90144914Y-134129458D01*
X90136672Y-134181490D01*
X90118190Y-134321877D01*
X90109011Y-134356129D01*
X90104410Y-134385185D01*
X90086254Y-134441063D01*
X90062333Y-134530338D01*
X90038739Y-134587298D01*
X90024401Y-134631428D01*
X90003337Y-134672766D01*
X89979742Y-134729733D01*
X89933521Y-134809788D01*
X89906856Y-134862123D01*
X89889569Y-134885916D01*
X89871840Y-134916624D01*
X89785648Y-135028950D01*
X89754670Y-135071589D01*
X89747195Y-135079063D01*
X89740455Y-135087848D01*
X89587848Y-135240455D01*
X89579063Y-135247195D01*
X89571589Y-135254670D01*
X89528950Y-135285648D01*
X89416624Y-135371840D01*
X89385916Y-135389569D01*
X89362123Y-135406856D01*
X89309788Y-135433521D01*
X89229733Y-135479742D01*
X89172766Y-135503337D01*
X89131428Y-135524401D01*
X89087298Y-135538739D01*
X89030338Y-135562333D01*
X88941063Y-135586254D01*
X88885185Y-135604410D01*
X88856129Y-135609011D01*
X88821877Y-135618190D01*
X88681490Y-135636672D01*
X88629458Y-135644914D01*
X88618893Y-135644914D01*
X88607910Y-135646360D01*
X88392090Y-135646360D01*
X88381107Y-135644914D01*
X88370542Y-135644914D01*
X88318511Y-135636672D01*
X88178122Y-135618190D01*
X88143867Y-135609011D01*
X88114815Y-135604410D01*
X88058941Y-135586255D01*
X87969661Y-135562333D01*
X87912696Y-135538738D01*
X87868572Y-135524401D01*
X87827237Y-135503340D01*
X87770266Y-135479742D01*
X87690203Y-135433517D01*
X87637877Y-135406856D01*
X87614087Y-135389572D01*
X87583375Y-135371840D01*
X87471030Y-135285634D01*
X87428411Y-135254670D01*
X87420940Y-135247199D01*
X87412151Y-135240455D01*
X87259544Y-135087848D01*
X87252799Y-135079058D01*
X87245330Y-135071589D01*
X87214369Y-135028975D01*
X87128159Y-134916624D01*
X87110425Y-134885909D01*
X87093144Y-134862123D01*
X87066485Y-134809803D01*
X87020257Y-134729733D01*
X86996656Y-134672755D01*
X86975599Y-134631428D01*
X86961264Y-134587309D01*
X86937666Y-134530338D01*
X86913740Y-134441045D01*
X86895590Y-134385185D01*
X86890989Y-134356138D01*
X86881809Y-134321877D01*
X86863325Y-134181477D01*
X86855086Y-134129458D01*
X86855086Y-134118893D01*
X86853640Y-134107910D01*
X86853640Y-133892089D01*
X86855086Y-133881105D01*
X86855086Y-133870542D01*
X86863324Y-133818527D01*
X86881809Y-133678122D01*
X86890989Y-133643858D01*
X86895590Y-133614815D01*
X86913738Y-133558959D01*
X86937666Y-133469661D01*
X86961265Y-133412685D01*
X86975599Y-133368572D01*
X86996654Y-133327248D01*
X87020257Y-133270266D01*
X87066489Y-133190188D01*
X87093144Y-133137877D01*
X87110423Y-133114094D01*
X87128159Y-133083375D01*
X87214383Y-132971005D01*
X87245330Y-132928411D01*
X87252796Y-132920944D01*
X87259544Y-132912151D01*
X87412151Y-132759544D01*
X87420944Y-132752796D01*
X87428411Y-132745330D01*
X87471005Y-132714383D01*
X87583375Y-132628159D01*
X87614094Y-132610423D01*
X87637877Y-132593144D01*
X87690188Y-132566489D01*
X87770266Y-132520257D01*
X87827248Y-132496654D01*
X87868572Y-132475599D01*
X87912685Y-132461265D01*
X87969661Y-132437666D01*
X88058959Y-132413738D01*
X88114815Y-132395590D01*
X88143858Y-132390989D01*
X88178122Y-132381809D01*
X88318524Y-132363324D01*
X88370542Y-132355086D01*
X88381106Y-132355086D01*
X88392090Y-132353640D01*
X88607910Y-132353640D01*
X88618894Y-132355086D01*
G37*
G36*
X140618894Y-132355086D02*
G01*
X140629458Y-132355086D01*
X140681477Y-132363325D01*
X140821877Y-132381809D01*
X140856138Y-132390989D01*
X140885185Y-132395590D01*
X140941045Y-132413740D01*
X141030338Y-132437666D01*
X141087309Y-132461264D01*
X141131428Y-132475599D01*
X141172755Y-132496656D01*
X141229733Y-132520257D01*
X141309803Y-132566485D01*
X141362123Y-132593144D01*
X141385909Y-132610425D01*
X141416624Y-132628159D01*
X141528975Y-132714369D01*
X141571589Y-132745330D01*
X141579058Y-132752799D01*
X141587848Y-132759544D01*
X141740455Y-132912151D01*
X141747199Y-132920940D01*
X141754670Y-132928411D01*
X141785634Y-132971030D01*
X141871840Y-133083375D01*
X141889572Y-133114087D01*
X141906856Y-133137877D01*
X141933517Y-133190203D01*
X141979742Y-133270266D01*
X142003340Y-133327237D01*
X142024401Y-133368572D01*
X142038738Y-133412696D01*
X142062333Y-133469661D01*
X142086255Y-133558941D01*
X142104410Y-133614815D01*
X142109011Y-133643867D01*
X142118190Y-133678122D01*
X142136673Y-133818514D01*
X142144914Y-133870542D01*
X142144914Y-133881105D01*
X142146360Y-133892089D01*
X142146360Y-134107910D01*
X142144914Y-134118893D01*
X142144914Y-134129458D01*
X142136672Y-134181490D01*
X142118190Y-134321877D01*
X142109011Y-134356129D01*
X142104410Y-134385185D01*
X142086254Y-134441063D01*
X142062333Y-134530338D01*
X142038739Y-134587298D01*
X142024401Y-134631428D01*
X142003337Y-134672766D01*
X141979742Y-134729733D01*
X141933521Y-134809788D01*
X141906856Y-134862123D01*
X141889569Y-134885916D01*
X141871840Y-134916624D01*
X141785648Y-135028950D01*
X141754670Y-135071589D01*
X141747195Y-135079063D01*
X141740455Y-135087848D01*
X141587848Y-135240455D01*
X141579063Y-135247195D01*
X141571589Y-135254670D01*
X141528950Y-135285648D01*
X141416624Y-135371840D01*
X141385916Y-135389569D01*
X141362123Y-135406856D01*
X141309788Y-135433521D01*
X141229733Y-135479742D01*
X141172766Y-135503337D01*
X141131428Y-135524401D01*
X141087298Y-135538739D01*
X141030338Y-135562333D01*
X140941063Y-135586254D01*
X140885185Y-135604410D01*
X140856129Y-135609011D01*
X140821877Y-135618190D01*
X140681490Y-135636672D01*
X140629458Y-135644914D01*
X140618893Y-135644914D01*
X140607910Y-135646360D01*
X140392090Y-135646360D01*
X140381107Y-135644914D01*
X140370542Y-135644914D01*
X140318511Y-135636672D01*
X140178122Y-135618190D01*
X140143867Y-135609011D01*
X140114815Y-135604410D01*
X140058941Y-135586255D01*
X139969661Y-135562333D01*
X139912696Y-135538738D01*
X139868572Y-135524401D01*
X139827237Y-135503340D01*
X139770266Y-135479742D01*
X139690203Y-135433517D01*
X139637877Y-135406856D01*
X139614087Y-135389572D01*
X139583375Y-135371840D01*
X139471030Y-135285634D01*
X139428411Y-135254670D01*
X139420940Y-135247199D01*
X139412151Y-135240455D01*
X139259544Y-135087848D01*
X139252799Y-135079058D01*
X139245330Y-135071589D01*
X139214369Y-135028975D01*
X139128159Y-134916624D01*
X139110425Y-134885909D01*
X139093144Y-134862123D01*
X139066485Y-134809803D01*
X139020257Y-134729733D01*
X138996656Y-134672755D01*
X138975599Y-134631428D01*
X138961264Y-134587309D01*
X138937666Y-134530338D01*
X138913740Y-134441045D01*
X138895590Y-134385185D01*
X138890989Y-134356138D01*
X138881809Y-134321877D01*
X138863325Y-134181477D01*
X138855086Y-134129458D01*
X138855086Y-134118893D01*
X138853640Y-134107910D01*
X138853640Y-133892089D01*
X138855086Y-133881105D01*
X138855086Y-133870542D01*
X138863324Y-133818527D01*
X138881809Y-133678122D01*
X138890989Y-133643858D01*
X138895590Y-133614815D01*
X138913738Y-133558959D01*
X138937666Y-133469661D01*
X138961265Y-133412685D01*
X138975599Y-133368572D01*
X138996654Y-133327248D01*
X139020257Y-133270266D01*
X139066489Y-133190188D01*
X139093144Y-133137877D01*
X139110423Y-133114094D01*
X139128159Y-133083375D01*
X139214383Y-132971005D01*
X139245330Y-132928411D01*
X139252796Y-132920944D01*
X139259544Y-132912151D01*
X139412151Y-132759544D01*
X139420944Y-132752796D01*
X139428411Y-132745330D01*
X139471005Y-132714383D01*
X139583375Y-132628159D01*
X139614094Y-132610423D01*
X139637877Y-132593144D01*
X139690188Y-132566489D01*
X139770266Y-132520257D01*
X139827248Y-132496654D01*
X139868572Y-132475599D01*
X139912685Y-132461265D01*
X139969661Y-132437666D01*
X140058959Y-132413738D01*
X140114815Y-132395590D01*
X140143858Y-132390989D01*
X140178122Y-132381809D01*
X140318524Y-132363324D01*
X140370542Y-132355086D01*
X140381106Y-132355086D01*
X140392090Y-132353640D01*
X140607910Y-132353640D01*
X140618894Y-132355086D01*
G37*
G36*
X126710476Y-134305166D02*
G01*
X126834819Y-134376956D01*
X126936344Y-134478481D01*
X127008134Y-134602824D01*
X127045295Y-134741511D01*
X127045295Y-134885089D01*
X127008134Y-135023776D01*
X126936344Y-135148119D01*
X126834819Y-135249644D01*
X126710476Y-135321434D01*
X126571789Y-135358595D01*
X126428211Y-135358595D01*
X126289524Y-135321434D01*
X126165181Y-135249644D01*
X126063656Y-135148119D01*
X125991866Y-135023776D01*
X125954705Y-134885089D01*
X125954705Y-134741511D01*
X125991866Y-134602824D01*
X126063656Y-134478481D01*
X126165181Y-134376956D01*
X126289524Y-134305166D01*
X126428211Y-134268005D01*
X126571789Y-134268005D01*
X126710476Y-134305166D01*
G37*
G36*
X87010476Y-128171866D02*
G01*
X87134819Y-128243656D01*
X87236344Y-128345181D01*
X87308134Y-128469524D01*
X87345295Y-128608211D01*
X87345295Y-128751789D01*
X87308134Y-128890476D01*
X87236344Y-129014819D01*
X87134819Y-129116344D01*
X87010476Y-129188134D01*
X86871789Y-129225295D01*
X86728211Y-129225295D01*
X86589524Y-129188134D01*
X86465181Y-129116344D01*
X86363656Y-129014819D01*
X86291866Y-128890476D01*
X86254705Y-128751789D01*
X86254705Y-128608211D01*
X86291866Y-128469524D01*
X86363656Y-128345181D01*
X86465181Y-128243656D01*
X86589524Y-128171866D01*
X86728211Y-128134705D01*
X86871789Y-128134705D01*
X87010476Y-128171866D01*
G37*
G36*
X114510476Y-126741866D02*
G01*
X114634819Y-126813656D01*
X114736344Y-126915181D01*
X114808134Y-127039524D01*
X114845295Y-127178211D01*
X114845295Y-127321789D01*
X114808134Y-127460476D01*
X114736344Y-127584819D01*
X114634819Y-127686344D01*
X114510476Y-127758134D01*
X114371789Y-127795295D01*
X114228211Y-127795295D01*
X114089524Y-127758134D01*
X113965181Y-127686344D01*
X113863656Y-127584819D01*
X113791866Y-127460476D01*
X113754705Y-127321789D01*
X113754705Y-127178211D01*
X113791866Y-127039524D01*
X113863656Y-126915181D01*
X113965181Y-126813656D01*
X114089524Y-126741866D01*
X114228211Y-126704705D01*
X114371789Y-126704705D01*
X114510476Y-126741866D01*
G37*
G36*
X92510476Y-126101866D02*
G01*
X92634819Y-126173656D01*
X92736344Y-126275181D01*
X92808134Y-126399524D01*
X92845295Y-126538211D01*
X92845295Y-126681789D01*
X92808134Y-126820476D01*
X92736344Y-126944819D01*
X92634819Y-127046344D01*
X92510476Y-127118134D01*
X92371789Y-127155295D01*
X92228211Y-127155295D01*
X92089524Y-127118134D01*
X91965181Y-127046344D01*
X91863656Y-126944819D01*
X91791866Y-126820476D01*
X91754705Y-126681789D01*
X91754705Y-126538211D01*
X91791866Y-126399524D01*
X91863656Y-126275181D01*
X91965181Y-126173656D01*
X92089524Y-126101866D01*
X92228211Y-126064705D01*
X92371789Y-126064705D01*
X92510476Y-126101866D01*
G37*
G36*
X101036596Y-126034182D02*
G01*
X101160939Y-126105972D01*
X101262464Y-126207497D01*
X101334254Y-126331840D01*
X101371415Y-126470527D01*
X101371415Y-126614105D01*
X101334254Y-126752792D01*
X101262464Y-126877135D01*
X101160939Y-126978660D01*
X101036596Y-127050450D01*
X100897909Y-127087611D01*
X100754331Y-127087611D01*
X100615644Y-127050450D01*
X100491301Y-126978660D01*
X100389776Y-126877135D01*
X100317986Y-126752792D01*
X100280825Y-126614105D01*
X100280825Y-126470527D01*
X100317986Y-126331840D01*
X100389776Y-126207497D01*
X100491301Y-126105972D01*
X100615644Y-126034182D01*
X100754331Y-125997021D01*
X100897909Y-125997021D01*
X101036596Y-126034182D01*
G37*
G36*
X90010476Y-125601866D02*
G01*
X90134819Y-125673656D01*
X90236344Y-125775181D01*
X90308134Y-125899524D01*
X90345295Y-126038211D01*
X90345295Y-126181789D01*
X90308134Y-126320476D01*
X90236344Y-126444819D01*
X90134819Y-126546344D01*
X90010476Y-126618134D01*
X89871789Y-126655295D01*
X89728211Y-126655295D01*
X89589524Y-126618134D01*
X89465181Y-126546344D01*
X89363656Y-126444819D01*
X89291866Y-126320476D01*
X89254705Y-126181789D01*
X89254705Y-126038211D01*
X89291866Y-125899524D01*
X89363656Y-125775181D01*
X89465181Y-125673656D01*
X89589524Y-125601866D01*
X89728211Y-125564705D01*
X89871789Y-125564705D01*
X90010476Y-125601866D01*
G37*
G36*
X101133369Y-122884759D02*
G01*
X101257712Y-122956549D01*
X101359237Y-123058074D01*
X101431027Y-123182417D01*
X101468188Y-123321104D01*
X101468188Y-123464682D01*
X101431027Y-123603369D01*
X101359237Y-123727712D01*
X101257712Y-123829237D01*
X101133369Y-123901027D01*
X100994682Y-123938188D01*
X100851104Y-123938188D01*
X100712417Y-123901027D01*
X100588074Y-123829237D01*
X100486549Y-123727712D01*
X100414759Y-123603369D01*
X100377598Y-123464682D01*
X100377598Y-123321104D01*
X100414759Y-123182417D01*
X100486549Y-123058074D01*
X100588074Y-122956549D01*
X100712417Y-122884759D01*
X100851104Y-122847598D01*
X100994682Y-122847598D01*
X101133369Y-122884759D01*
G37*
G36*
X117960476Y-121141866D02*
G01*
X118084819Y-121213656D01*
X118186344Y-121315181D01*
X118258134Y-121439524D01*
X118295295Y-121578211D01*
X118295295Y-121721789D01*
X118258134Y-121860476D01*
X118186344Y-121984819D01*
X118084819Y-122086344D01*
X117960476Y-122158134D01*
X117821789Y-122195295D01*
X117678211Y-122195295D01*
X117539524Y-122158134D01*
X117415181Y-122086344D01*
X117313656Y-121984819D01*
X117241866Y-121860476D01*
X117204705Y-121721789D01*
X117204705Y-121578211D01*
X117241866Y-121439524D01*
X117313656Y-121315181D01*
X117415181Y-121213656D01*
X117539524Y-121141866D01*
X117678211Y-121104705D01*
X117821789Y-121104705D01*
X117960476Y-121141866D01*
G37*
G36*
X93210476Y-120491866D02*
G01*
X93334819Y-120563656D01*
X93436344Y-120665181D01*
X93508134Y-120789524D01*
X93545295Y-120928211D01*
X93545295Y-121071789D01*
X93508134Y-121210476D01*
X93436344Y-121334819D01*
X93334819Y-121436344D01*
X93210476Y-121508134D01*
X93071789Y-121545295D01*
X92928211Y-121545295D01*
X92789524Y-121508134D01*
X92665181Y-121436344D01*
X92563656Y-121334819D01*
X92491866Y-121210476D01*
X92454705Y-121071789D01*
X92454705Y-120928211D01*
X92491866Y-120789524D01*
X92563656Y-120665181D01*
X92665181Y-120563656D01*
X92789524Y-120491866D01*
X92928211Y-120454705D01*
X93071789Y-120454705D01*
X93210476Y-120491866D01*
G37*
G36*
X96672976Y-113541866D02*
G01*
X96797319Y-113613656D01*
X96898844Y-113715181D01*
X96970634Y-113839524D01*
X97007795Y-113978211D01*
X97007795Y-114121789D01*
X96970634Y-114260476D01*
X96898844Y-114384819D01*
X96797319Y-114486344D01*
X96672976Y-114558134D01*
X96534289Y-114595295D01*
X96390711Y-114595295D01*
X96252024Y-114558134D01*
X96127681Y-114486344D01*
X96026156Y-114384819D01*
X95954366Y-114260476D01*
X95917205Y-114121789D01*
X95917205Y-113978211D01*
X95954366Y-113839524D01*
X96026156Y-113715181D01*
X96127681Y-113613656D01*
X96252024Y-113541866D01*
X96390711Y-113504705D01*
X96534289Y-113504705D01*
X96672976Y-113541866D01*
G37*
G36*
X105140476Y-109741866D02*
G01*
X105264819Y-109813656D01*
X105366344Y-109915181D01*
X105438134Y-110039524D01*
X105475295Y-110178211D01*
X105475295Y-110321789D01*
X105438134Y-110460476D01*
X105366344Y-110584819D01*
X105264819Y-110686344D01*
X105140476Y-110758134D01*
X105001789Y-110795295D01*
X104858211Y-110795295D01*
X104719524Y-110758134D01*
X104595181Y-110686344D01*
X104493656Y-110584819D01*
X104421866Y-110460476D01*
X104384705Y-110321789D01*
X104384705Y-110178211D01*
X104421866Y-110039524D01*
X104493656Y-109915181D01*
X104595181Y-109813656D01*
X104719524Y-109741866D01*
X104858211Y-109704705D01*
X105001789Y-109704705D01*
X105140476Y-109741866D01*
G37*
G36*
X123590476Y-106341866D02*
G01*
X123714819Y-106413656D01*
X123816344Y-106515181D01*
X123888134Y-106639524D01*
X123925295Y-106778211D01*
X123925295Y-106921789D01*
X123888134Y-107060476D01*
X123816344Y-107184819D01*
X123714819Y-107286344D01*
X123590476Y-107358134D01*
X123451789Y-107395295D01*
X123308211Y-107395295D01*
X123169524Y-107358134D01*
X123045181Y-107286344D01*
X122943656Y-107184819D01*
X122871866Y-107060476D01*
X122834705Y-106921789D01*
X122834705Y-106778211D01*
X122871866Y-106639524D01*
X122943656Y-106515181D01*
X123045181Y-106413656D01*
X123169524Y-106341866D01*
X123308211Y-106304705D01*
X123451789Y-106304705D01*
X123590476Y-106341866D01*
G37*
G36*
X106461840Y-96792827D02*
G01*
X106693159Y-96867987D01*
X106909873Y-96978408D01*
X107106644Y-97121371D01*
X107278629Y-97293356D01*
X107421592Y-97490127D01*
X107532013Y-97706841D01*
X107607173Y-97938160D01*
X107645222Y-98178388D01*
X107645222Y-98421612D01*
X107607173Y-98661840D01*
X107532013Y-98893159D01*
X107421592Y-99109873D01*
X107278629Y-99306644D01*
X107106644Y-99478629D01*
X106909873Y-99621592D01*
X106693159Y-99732013D01*
X106461840Y-99807173D01*
X106221612Y-99845222D01*
X105978388Y-99845222D01*
X105738160Y-99807173D01*
X105506841Y-99732013D01*
X105290127Y-99621592D01*
X105093356Y-99478629D01*
X104921371Y-99306644D01*
X104778408Y-99109873D01*
X104667987Y-98893159D01*
X104592827Y-98661840D01*
X104554778Y-98421612D01*
X104554778Y-98178388D01*
X104592827Y-97938160D01*
X104667987Y-97706841D01*
X104778408Y-97490127D01*
X104921371Y-97293356D01*
X105093356Y-97121371D01*
X105290127Y-96978408D01*
X105506841Y-96867987D01*
X105738160Y-96792827D01*
X105978388Y-96754778D01*
X106221612Y-96754778D01*
X106461840Y-96792827D01*
G37*
G36*
X119661840Y-96792827D02*
G01*
X119893159Y-96867987D01*
X120109873Y-96978408D01*
X120306644Y-97121371D01*
X120478629Y-97293356D01*
X120621592Y-97490127D01*
X120732013Y-97706841D01*
X120807173Y-97938160D01*
X120845222Y-98178388D01*
X120845222Y-98421612D01*
X120807173Y-98661840D01*
X120732013Y-98893159D01*
X120621592Y-99109873D01*
X120478629Y-99306644D01*
X120306644Y-99478629D01*
X120109873Y-99621592D01*
X119893159Y-99732013D01*
X119661840Y-99807173D01*
X119421612Y-99845222D01*
X119178388Y-99845222D01*
X118938160Y-99807173D01*
X118706841Y-99732013D01*
X118490127Y-99621592D01*
X118293356Y-99478629D01*
X118121371Y-99306644D01*
X117978408Y-99109873D01*
X117867987Y-98893159D01*
X117792827Y-98661840D01*
X117754778Y-98421612D01*
X117754778Y-98178388D01*
X117792827Y-97938160D01*
X117867987Y-97706841D01*
X117978408Y-97490127D01*
X118121371Y-97293356D01*
X118293356Y-97121371D01*
X118490127Y-96978408D01*
X118706841Y-96867987D01*
X118938160Y-96792827D01*
X119178388Y-96754778D01*
X119421612Y-96754778D01*
X119661840Y-96792827D01*
G37*
G36*
X127119134Y-96353806D02*
G01*
X127135355Y-96364645D01*
X127146194Y-96380866D01*
X127150000Y-96400000D01*
X127150000Y-98400000D01*
X127146194Y-98419134D01*
X127135355Y-98435355D01*
X127119134Y-98446194D01*
X127100000Y-98450000D01*
X125100000Y-98450000D01*
X125080866Y-98446194D01*
X125064645Y-98435355D01*
X125053806Y-98419134D01*
X125050000Y-98400000D01*
X125050000Y-96400000D01*
X125053806Y-96380866D01*
X125064645Y-96364645D01*
X125080866Y-96353806D01*
X125100000Y-96350000D01*
X127100000Y-96350000D01*
X127119134Y-96353806D01*
G37*
G36*
X131192885Y-96355056D02*
G01*
X131202918Y-96355056D01*
X131242117Y-96362853D01*
X131345078Y-96379160D01*
X131378200Y-96389922D01*
X131404799Y-96395213D01*
X131442335Y-96410760D01*
X131501762Y-96430070D01*
X131557433Y-96458435D01*
X131594967Y-96473983D01*
X131617517Y-96489050D01*
X131648539Y-96504857D01*
X131732866Y-96566124D01*
X131766113Y-96588339D01*
X131773208Y-96595434D01*
X131781817Y-96601689D01*
X131898310Y-96718182D01*
X131904564Y-96726790D01*
X131911661Y-96733887D01*
X131933878Y-96767138D01*
X131995142Y-96851460D01*
X132010947Y-96882479D01*
X132026017Y-96905033D01*
X132041566Y-96942572D01*
X132069929Y-96998237D01*
X132089235Y-97057657D01*
X132104787Y-97095201D01*
X132110078Y-97121805D01*
X132120839Y-97154921D01*
X132137145Y-97257876D01*
X132144944Y-97297082D01*
X132144944Y-97307114D01*
X132146609Y-97317627D01*
X132146609Y-97482372D01*
X132144944Y-97492884D01*
X132144944Y-97502918D01*
X132137144Y-97542126D01*
X132120839Y-97645078D01*
X132110079Y-97678192D01*
X132104787Y-97704799D01*
X132089234Y-97742346D01*
X132069929Y-97801762D01*
X132041568Y-97857422D01*
X132026017Y-97894967D01*
X132010945Y-97917523D01*
X131995142Y-97948539D01*
X131933887Y-98032849D01*
X131911661Y-98066113D01*
X131904561Y-98073212D01*
X131898310Y-98081817D01*
X131781817Y-98198310D01*
X131773212Y-98204561D01*
X131766113Y-98211661D01*
X131732849Y-98233887D01*
X131648539Y-98295142D01*
X131617523Y-98310945D01*
X131594967Y-98326017D01*
X131557422Y-98341568D01*
X131501762Y-98369929D01*
X131442346Y-98389234D01*
X131404799Y-98404787D01*
X131378192Y-98410079D01*
X131345078Y-98420839D01*
X131242126Y-98437144D01*
X131202918Y-98444944D01*
X131192884Y-98444944D01*
X131182372Y-98446609D01*
X131017628Y-98446609D01*
X131007115Y-98444944D01*
X130997082Y-98444944D01*
X130957874Y-98437145D01*
X130854921Y-98420839D01*
X130821805Y-98410078D01*
X130795201Y-98404787D01*
X130757657Y-98389235D01*
X130698237Y-98369929D01*
X130642572Y-98341566D01*
X130605033Y-98326017D01*
X130582479Y-98310947D01*
X130551460Y-98295142D01*
X130467138Y-98233878D01*
X130433887Y-98211661D01*
X130426790Y-98204564D01*
X130418182Y-98198310D01*
X130301689Y-98081817D01*
X130295434Y-98073208D01*
X130288339Y-98066113D01*
X130266124Y-98032866D01*
X130204857Y-97948539D01*
X130189050Y-97917517D01*
X130173983Y-97894967D01*
X130158435Y-97857433D01*
X130130070Y-97801762D01*
X130110760Y-97742335D01*
X130095213Y-97704799D01*
X130089922Y-97678200D01*
X130079160Y-97645078D01*
X130062853Y-97542117D01*
X130055056Y-97502918D01*
X130055056Y-97492884D01*
X130053391Y-97482372D01*
X130053391Y-97317627D01*
X130055056Y-97307114D01*
X130055056Y-97297082D01*
X130062852Y-97257886D01*
X130079160Y-97154921D01*
X130089922Y-97121797D01*
X130095213Y-97095201D01*
X130110759Y-97057668D01*
X130130070Y-96998237D01*
X130158438Y-96942561D01*
X130173983Y-96905033D01*
X130189048Y-96882486D01*
X130204857Y-96851460D01*
X130266132Y-96767121D01*
X130288339Y-96733887D01*
X130295432Y-96726793D01*
X130301689Y-96718182D01*
X130418182Y-96601689D01*
X130426793Y-96595432D01*
X130433887Y-96588339D01*
X130467121Y-96566132D01*
X130551460Y-96504857D01*
X130582486Y-96489048D01*
X130605033Y-96473983D01*
X130642561Y-96458438D01*
X130698237Y-96430070D01*
X130757668Y-96410759D01*
X130795201Y-96395213D01*
X130821797Y-96389922D01*
X130854921Y-96379160D01*
X130957883Y-96362853D01*
X130997082Y-96355056D01*
X131007115Y-96355056D01*
X131017628Y-96353391D01*
X131182372Y-96353391D01*
X131192885Y-96355056D01*
G37*
G36*
X91160476Y-87329866D02*
G01*
X91284819Y-87401656D01*
X91386344Y-87503181D01*
X91458134Y-87627524D01*
X91495295Y-87766211D01*
X91495295Y-87909789D01*
X91458134Y-88048476D01*
X91386344Y-88172819D01*
X91284819Y-88274344D01*
X91160476Y-88346134D01*
X91021789Y-88383295D01*
X90878211Y-88383295D01*
X90739524Y-88346134D01*
X90615181Y-88274344D01*
X90513656Y-88172819D01*
X90441866Y-88048476D01*
X90404705Y-87909789D01*
X90404705Y-87766211D01*
X90441866Y-87627524D01*
X90513656Y-87503181D01*
X90615181Y-87401656D01*
X90739524Y-87329866D01*
X90878211Y-87292705D01*
X91021789Y-87292705D01*
X91160476Y-87329866D01*
G37*
G36*
X91829278Y-76728843D02*
G01*
X91854094Y-76728843D01*
X91859018Y-76728843D01*
X91880066Y-76733030D01*
X91952162Y-76762893D01*
X91970005Y-76774815D01*
X92025185Y-76829995D01*
X92037107Y-76847838D01*
X92066970Y-76919934D01*
X92071157Y-76940982D01*
X92071157Y-76945906D01*
X92071157Y-76964487D01*
X92073920Y-76975995D01*
X92074641Y-76977410D01*
X92074808Y-76979538D01*
X92075000Y-76980000D01*
X92075000Y-77580000D01*
X92071148Y-77589299D01*
X92071148Y-77658414D01*
X92070091Y-77669144D01*
X92039495Y-77822958D01*
X92036365Y-77833276D01*
X91976350Y-77978165D01*
X91971268Y-77987673D01*
X91884139Y-78118071D01*
X91877299Y-78126406D01*
X91766406Y-78237299D01*
X91758071Y-78244139D01*
X91627673Y-78331268D01*
X91618165Y-78336350D01*
X91473276Y-78396365D01*
X91462958Y-78399495D01*
X91309144Y-78430091D01*
X91298414Y-78431148D01*
X91295958Y-78431148D01*
X91144042Y-78431148D01*
X91141586Y-78431148D01*
X91130856Y-78430091D01*
X90977042Y-78399495D01*
X90966724Y-78396365D01*
X90821835Y-78336350D01*
X90812327Y-78331268D01*
X90810288Y-78329905D01*
X90810285Y-78329904D01*
X90683970Y-78245503D01*
X90683968Y-78245501D01*
X90681929Y-78244139D01*
X90673594Y-78237299D01*
X90562701Y-78126406D01*
X90555861Y-78118071D01*
X90554499Y-78116032D01*
X90554496Y-78116029D01*
X90470095Y-77989714D01*
X90470092Y-77989708D01*
X90468732Y-77987673D01*
X90463650Y-77978165D01*
X90403635Y-77833276D01*
X90400505Y-77822958D01*
X90400025Y-77820548D01*
X90400024Y-77820543D01*
X90370388Y-77671555D01*
X90370387Y-77671549D01*
X90369909Y-77669144D01*
X90368852Y-77658414D01*
X90368852Y-77602355D01*
X90368544Y-77598439D01*
X90366009Y-77582435D01*
X90365000Y-77580000D01*
X90365000Y-76980000D01*
X90368843Y-76970722D01*
X90368843Y-76940982D01*
X90373030Y-76919934D01*
X90402893Y-76847838D01*
X90414815Y-76829995D01*
X90418291Y-76826518D01*
X90418294Y-76826515D01*
X90466515Y-76778294D01*
X90466518Y-76778291D01*
X90469995Y-76774815D01*
X90487838Y-76762893D01*
X90559934Y-76733030D01*
X90580982Y-76728843D01*
X90604487Y-76728843D01*
X90615995Y-76726080D01*
X90617410Y-76725358D01*
X90619539Y-76725190D01*
X90620000Y-76725000D01*
X91820000Y-76725000D01*
X91829278Y-76728843D01*
G37*
G36*
X104529278Y-76728843D02*
G01*
X104554094Y-76728843D01*
X104559018Y-76728843D01*
X104580066Y-76733030D01*
X104652162Y-76762893D01*
X104670005Y-76774815D01*
X104725185Y-76829995D01*
X104737107Y-76847838D01*
X104766970Y-76919934D01*
X104771157Y-76940982D01*
X104771157Y-76945906D01*
X104771157Y-76964487D01*
X104773920Y-76975995D01*
X104774641Y-76977410D01*
X104774808Y-76979538D01*
X104775000Y-76980000D01*
X104775000Y-77580000D01*
X104771148Y-77589299D01*
X104771148Y-77658414D01*
X104770091Y-77669144D01*
X104739495Y-77822958D01*
X104736365Y-77833276D01*
X104676350Y-77978165D01*
X104671268Y-77987673D01*
X104584139Y-78118071D01*
X104577299Y-78126406D01*
X104466406Y-78237299D01*
X104458071Y-78244139D01*
X104327673Y-78331268D01*
X104318165Y-78336350D01*
X104173276Y-78396365D01*
X104162958Y-78399495D01*
X104009144Y-78430091D01*
X103998414Y-78431148D01*
X103995958Y-78431148D01*
X103844042Y-78431148D01*
X103841586Y-78431148D01*
X103830856Y-78430091D01*
X103677042Y-78399495D01*
X103666724Y-78396365D01*
X103521835Y-78336350D01*
X103512327Y-78331268D01*
X103510288Y-78329905D01*
X103510285Y-78329904D01*
X103383970Y-78245503D01*
X103383968Y-78245501D01*
X103381929Y-78244139D01*
X103373594Y-78237299D01*
X103262701Y-78126406D01*
X103255861Y-78118071D01*
X103254499Y-78116032D01*
X103254496Y-78116029D01*
X103170095Y-77989714D01*
X103170092Y-77989708D01*
X103168732Y-77987673D01*
X103163650Y-77978165D01*
X103103635Y-77833276D01*
X103100505Y-77822958D01*
X103100025Y-77820548D01*
X103100024Y-77820543D01*
X103070388Y-77671555D01*
X103070387Y-77671549D01*
X103069909Y-77669144D01*
X103068852Y-77658414D01*
X103068852Y-77602355D01*
X103068544Y-77598439D01*
X103066009Y-77582435D01*
X103065000Y-77580000D01*
X103065000Y-76980000D01*
X103068843Y-76970722D01*
X103068843Y-76940982D01*
X103073030Y-76919934D01*
X103102893Y-76847838D01*
X103114815Y-76829995D01*
X103118291Y-76826518D01*
X103118294Y-76826515D01*
X103166515Y-76778294D01*
X103166518Y-76778291D01*
X103169995Y-76774815D01*
X103187838Y-76762893D01*
X103259934Y-76733030D01*
X103280982Y-76728843D01*
X103304487Y-76728843D01*
X103315995Y-76726080D01*
X103317410Y-76725358D01*
X103319539Y-76725190D01*
X103320000Y-76725000D01*
X104520000Y-76725000D01*
X104529278Y-76728843D01*
G37*
G36*
X117229278Y-76728843D02*
G01*
X117254094Y-76728843D01*
X117259018Y-76728843D01*
X117280066Y-76733030D01*
X117352162Y-76762893D01*
X117370005Y-76774815D01*
X117425185Y-76829995D01*
X117437107Y-76847838D01*
X117466970Y-76919934D01*
X117471157Y-76940982D01*
X117471157Y-76945906D01*
X117471157Y-76964487D01*
X117473920Y-76975995D01*
X117474641Y-76977410D01*
X117474808Y-76979538D01*
X117475000Y-76980000D01*
X117475000Y-77580000D01*
X117471148Y-77589299D01*
X117471148Y-77658414D01*
X117470091Y-77669144D01*
X117439495Y-77822958D01*
X117436365Y-77833276D01*
X117376350Y-77978165D01*
X117371268Y-77987673D01*
X117284139Y-78118071D01*
X117277299Y-78126406D01*
X117166406Y-78237299D01*
X117158071Y-78244139D01*
X117027673Y-78331268D01*
X117018165Y-78336350D01*
X116873276Y-78396365D01*
X116862958Y-78399495D01*
X116709144Y-78430091D01*
X116698414Y-78431148D01*
X116695958Y-78431148D01*
X116544042Y-78431148D01*
X116541586Y-78431148D01*
X116530856Y-78430091D01*
X116377042Y-78399495D01*
X116366724Y-78396365D01*
X116221835Y-78336350D01*
X116212327Y-78331268D01*
X116210288Y-78329905D01*
X116210285Y-78329904D01*
X116083970Y-78245503D01*
X116083968Y-78245501D01*
X116081929Y-78244139D01*
X116073594Y-78237299D01*
X115962701Y-78126406D01*
X115955861Y-78118071D01*
X115954499Y-78116032D01*
X115954496Y-78116029D01*
X115870095Y-77989714D01*
X115870092Y-77989708D01*
X115868732Y-77987673D01*
X115863650Y-77978165D01*
X115803635Y-77833276D01*
X115800505Y-77822958D01*
X115800025Y-77820548D01*
X115800024Y-77820543D01*
X115770388Y-77671555D01*
X115770387Y-77671549D01*
X115769909Y-77669144D01*
X115768852Y-77658414D01*
X115768852Y-77602355D01*
X115768544Y-77598439D01*
X115766009Y-77582435D01*
X115765000Y-77580000D01*
X115765000Y-76980000D01*
X115768843Y-76970722D01*
X115768843Y-76940982D01*
X115773030Y-76919934D01*
X115802893Y-76847838D01*
X115814815Y-76829995D01*
X115818291Y-76826518D01*
X115818294Y-76826515D01*
X115866515Y-76778294D01*
X115866518Y-76778291D01*
X115869995Y-76774815D01*
X115887838Y-76762893D01*
X115959934Y-76733030D01*
X115980982Y-76728843D01*
X116004487Y-76728843D01*
X116015995Y-76726080D01*
X116017410Y-76725358D01*
X116019539Y-76725190D01*
X116020000Y-76725000D01*
X117220000Y-76725000D01*
X117229278Y-76728843D01*
G37*
G36*
X129929278Y-76728843D02*
G01*
X129954094Y-76728843D01*
X129959018Y-76728843D01*
X129980066Y-76733030D01*
X130052162Y-76762893D01*
X130070005Y-76774815D01*
X130125185Y-76829995D01*
X130137107Y-76847838D01*
X130166970Y-76919934D01*
X130171157Y-76940982D01*
X130171157Y-76945906D01*
X130171157Y-76964487D01*
X130173920Y-76975995D01*
X130174641Y-76977410D01*
X130174808Y-76979538D01*
X130175000Y-76980000D01*
X130175000Y-77580000D01*
X130171148Y-77589299D01*
X130171148Y-77658414D01*
X130170091Y-77669144D01*
X130139495Y-77822958D01*
X130136365Y-77833276D01*
X130076350Y-77978165D01*
X130071268Y-77987673D01*
X129984139Y-78118071D01*
X129977299Y-78126406D01*
X129866406Y-78237299D01*
X129858071Y-78244139D01*
X129727673Y-78331268D01*
X129718165Y-78336350D01*
X129573276Y-78396365D01*
X129562958Y-78399495D01*
X129409144Y-78430091D01*
X129398414Y-78431148D01*
X129395958Y-78431148D01*
X129244042Y-78431148D01*
X129241586Y-78431148D01*
X129230856Y-78430091D01*
X129077042Y-78399495D01*
X129066724Y-78396365D01*
X128921835Y-78336350D01*
X128912327Y-78331268D01*
X128910288Y-78329905D01*
X128910285Y-78329904D01*
X128783970Y-78245503D01*
X128783968Y-78245501D01*
X128781929Y-78244139D01*
X128773594Y-78237299D01*
X128662701Y-78126406D01*
X128655861Y-78118071D01*
X128654499Y-78116032D01*
X128654496Y-78116029D01*
X128570095Y-77989714D01*
X128570092Y-77989708D01*
X128568732Y-77987673D01*
X128563650Y-77978165D01*
X128503635Y-77833276D01*
X128500505Y-77822958D01*
X128500025Y-77820548D01*
X128500024Y-77820543D01*
X128470388Y-77671555D01*
X128470387Y-77671549D01*
X128469909Y-77669144D01*
X128468852Y-77658414D01*
X128468852Y-77602355D01*
X128468544Y-77598439D01*
X128466009Y-77582435D01*
X128465000Y-77580000D01*
X128465000Y-76980000D01*
X128468843Y-76970722D01*
X128468843Y-76940982D01*
X128473030Y-76919934D01*
X128502893Y-76847838D01*
X128514815Y-76829995D01*
X128518291Y-76826518D01*
X128518294Y-76826515D01*
X128566515Y-76778294D01*
X128566518Y-76778291D01*
X128569995Y-76774815D01*
X128587838Y-76762893D01*
X128659934Y-76733030D01*
X128680982Y-76728843D01*
X128704487Y-76728843D01*
X128715995Y-76726080D01*
X128717410Y-76725358D01*
X128719539Y-76725190D01*
X128720000Y-76725000D01*
X129920000Y-76725000D01*
X129929278Y-76728843D01*
G37*
G36*
X86386742Y-76766601D02*
G01*
X86540687Y-76830367D01*
X86679234Y-76922941D01*
X86797059Y-77040766D01*
X86889633Y-77179313D01*
X86953399Y-77333258D01*
X86985907Y-77496685D01*
X86985907Y-77663315D01*
X86953399Y-77826742D01*
X86889633Y-77980687D01*
X86797059Y-78119234D01*
X86679234Y-78237059D01*
X86540687Y-78329633D01*
X86386742Y-78393399D01*
X86223315Y-78425907D01*
X86056685Y-78425907D01*
X85893258Y-78393399D01*
X85739313Y-78329633D01*
X85600766Y-78237059D01*
X85482941Y-78119234D01*
X85390367Y-77980687D01*
X85326601Y-77826742D01*
X85294093Y-77663315D01*
X85294093Y-77496685D01*
X85326601Y-77333258D01*
X85390367Y-77179313D01*
X85482941Y-77040766D01*
X85600766Y-76922941D01*
X85739313Y-76830367D01*
X85893258Y-76766601D01*
X86056685Y-76734093D01*
X86223315Y-76734093D01*
X86386742Y-76766601D01*
G37*
G36*
X88926742Y-76766601D02*
G01*
X89080687Y-76830367D01*
X89219234Y-76922941D01*
X89337059Y-77040766D01*
X89429633Y-77179313D01*
X89493399Y-77333258D01*
X89525907Y-77496685D01*
X89525907Y-77663315D01*
X89493399Y-77826742D01*
X89429633Y-77980687D01*
X89337059Y-78119234D01*
X89219234Y-78237059D01*
X89080687Y-78329633D01*
X88926742Y-78393399D01*
X88763315Y-78425907D01*
X88596685Y-78425907D01*
X88433258Y-78393399D01*
X88279313Y-78329633D01*
X88140766Y-78237059D01*
X88022941Y-78119234D01*
X87930367Y-77980687D01*
X87866601Y-77826742D01*
X87834093Y-77663315D01*
X87834093Y-77496685D01*
X87866601Y-77333258D01*
X87930367Y-77179313D01*
X88022941Y-77040766D01*
X88140766Y-76922941D01*
X88279313Y-76830367D01*
X88433258Y-76766601D01*
X88596685Y-76734093D01*
X88763315Y-76734093D01*
X88926742Y-76766601D01*
G37*
G36*
X94006742Y-76766601D02*
G01*
X94160687Y-76830367D01*
X94299234Y-76922941D01*
X94417059Y-77040766D01*
X94509633Y-77179313D01*
X94573399Y-77333258D01*
X94605907Y-77496685D01*
X94605907Y-77663315D01*
X94573399Y-77826742D01*
X94509633Y-77980687D01*
X94417059Y-78119234D01*
X94299234Y-78237059D01*
X94160687Y-78329633D01*
X94006742Y-78393399D01*
X93843315Y-78425907D01*
X93676685Y-78425907D01*
X93513258Y-78393399D01*
X93359313Y-78329633D01*
X93220766Y-78237059D01*
X93102941Y-78119234D01*
X93010367Y-77980687D01*
X92946601Y-77826742D01*
X92914093Y-77663315D01*
X92914093Y-77496685D01*
X92946601Y-77333258D01*
X93010367Y-77179313D01*
X93102941Y-77040766D01*
X93220766Y-76922941D01*
X93359313Y-76830367D01*
X93513258Y-76766601D01*
X93676685Y-76734093D01*
X93843315Y-76734093D01*
X94006742Y-76766601D01*
G37*
G36*
X96546742Y-76766601D02*
G01*
X96700687Y-76830367D01*
X96839234Y-76922941D01*
X96957059Y-77040766D01*
X97049633Y-77179313D01*
X97113399Y-77333258D01*
X97145907Y-77496685D01*
X97145907Y-77663315D01*
X97113399Y-77826742D01*
X97049633Y-77980687D01*
X96957059Y-78119234D01*
X96839234Y-78237059D01*
X96700687Y-78329633D01*
X96546742Y-78393399D01*
X96383315Y-78425907D01*
X96216685Y-78425907D01*
X96053258Y-78393399D01*
X95899313Y-78329633D01*
X95760766Y-78237059D01*
X95642941Y-78119234D01*
X95550367Y-77980687D01*
X95486601Y-77826742D01*
X95454093Y-77663315D01*
X95454093Y-77496685D01*
X95486601Y-77333258D01*
X95550367Y-77179313D01*
X95642941Y-77040766D01*
X95760766Y-76922941D01*
X95899313Y-76830367D01*
X96053258Y-76766601D01*
X96216685Y-76734093D01*
X96383315Y-76734093D01*
X96546742Y-76766601D01*
G37*
G36*
X99086742Y-76766601D02*
G01*
X99240687Y-76830367D01*
X99379234Y-76922941D01*
X99497059Y-77040766D01*
X99589633Y-77179313D01*
X99653399Y-77333258D01*
X99685907Y-77496685D01*
X99685907Y-77663315D01*
X99653399Y-77826742D01*
X99589633Y-77980687D01*
X99497059Y-78119234D01*
X99379234Y-78237059D01*
X99240687Y-78329633D01*
X99086742Y-78393399D01*
X98923315Y-78425907D01*
X98756685Y-78425907D01*
X98593258Y-78393399D01*
X98439313Y-78329633D01*
X98300766Y-78237059D01*
X98182941Y-78119234D01*
X98090367Y-77980687D01*
X98026601Y-77826742D01*
X97994093Y-77663315D01*
X97994093Y-77496685D01*
X98026601Y-77333258D01*
X98090367Y-77179313D01*
X98182941Y-77040766D01*
X98300766Y-76922941D01*
X98439313Y-76830367D01*
X98593258Y-76766601D01*
X98756685Y-76734093D01*
X98923315Y-76734093D01*
X99086742Y-76766601D01*
G37*
G36*
X101626742Y-76766601D02*
G01*
X101780687Y-76830367D01*
X101919234Y-76922941D01*
X102037059Y-77040766D01*
X102129633Y-77179313D01*
X102193399Y-77333258D01*
X102225907Y-77496685D01*
X102225907Y-77663315D01*
X102193399Y-77826742D01*
X102129633Y-77980687D01*
X102037059Y-78119234D01*
X101919234Y-78237059D01*
X101780687Y-78329633D01*
X101626742Y-78393399D01*
X101463315Y-78425907D01*
X101296685Y-78425907D01*
X101133258Y-78393399D01*
X100979313Y-78329633D01*
X100840766Y-78237059D01*
X100722941Y-78119234D01*
X100630367Y-77980687D01*
X100566601Y-77826742D01*
X100534093Y-77663315D01*
X100534093Y-77496685D01*
X100566601Y-77333258D01*
X100630367Y-77179313D01*
X100722941Y-77040766D01*
X100840766Y-76922941D01*
X100979313Y-76830367D01*
X101133258Y-76766601D01*
X101296685Y-76734093D01*
X101463315Y-76734093D01*
X101626742Y-76766601D01*
G37*
G36*
X106706742Y-76766601D02*
G01*
X106860687Y-76830367D01*
X106999234Y-76922941D01*
X107117059Y-77040766D01*
X107209633Y-77179313D01*
X107273399Y-77333258D01*
X107305907Y-77496685D01*
X107305907Y-77663315D01*
X107273399Y-77826742D01*
X107209633Y-77980687D01*
X107117059Y-78119234D01*
X106999234Y-78237059D01*
X106860687Y-78329633D01*
X106706742Y-78393399D01*
X106543315Y-78425907D01*
X106376685Y-78425907D01*
X106213258Y-78393399D01*
X106059313Y-78329633D01*
X105920766Y-78237059D01*
X105802941Y-78119234D01*
X105710367Y-77980687D01*
X105646601Y-77826742D01*
X105614093Y-77663315D01*
X105614093Y-77496685D01*
X105646601Y-77333258D01*
X105710367Y-77179313D01*
X105802941Y-77040766D01*
X105920766Y-76922941D01*
X106059313Y-76830367D01*
X106213258Y-76766601D01*
X106376685Y-76734093D01*
X106543315Y-76734093D01*
X106706742Y-76766601D01*
G37*
G36*
X109246742Y-76766601D02*
G01*
X109400687Y-76830367D01*
X109539234Y-76922941D01*
X109657059Y-77040766D01*
X109749633Y-77179313D01*
X109813399Y-77333258D01*
X109845907Y-77496685D01*
X109845907Y-77663315D01*
X109813399Y-77826742D01*
X109749633Y-77980687D01*
X109657059Y-78119234D01*
X109539234Y-78237059D01*
X109400687Y-78329633D01*
X109246742Y-78393399D01*
X109083315Y-78425907D01*
X108916685Y-78425907D01*
X108753258Y-78393399D01*
X108599313Y-78329633D01*
X108460766Y-78237059D01*
X108342941Y-78119234D01*
X108250367Y-77980687D01*
X108186601Y-77826742D01*
X108154093Y-77663315D01*
X108154093Y-77496685D01*
X108186601Y-77333258D01*
X108250367Y-77179313D01*
X108342941Y-77040766D01*
X108460766Y-76922941D01*
X108599313Y-76830367D01*
X108753258Y-76766601D01*
X108916685Y-76734093D01*
X109083315Y-76734093D01*
X109246742Y-76766601D01*
G37*
G36*
X111786742Y-76766601D02*
G01*
X111940687Y-76830367D01*
X112079234Y-76922941D01*
X112197059Y-77040766D01*
X112289633Y-77179313D01*
X112353399Y-77333258D01*
X112385907Y-77496685D01*
X112385907Y-77663315D01*
X112353399Y-77826742D01*
X112289633Y-77980687D01*
X112197059Y-78119234D01*
X112079234Y-78237059D01*
X111940687Y-78329633D01*
X111786742Y-78393399D01*
X111623315Y-78425907D01*
X111456685Y-78425907D01*
X111293258Y-78393399D01*
X111139313Y-78329633D01*
X111000766Y-78237059D01*
X110882941Y-78119234D01*
X110790367Y-77980687D01*
X110726601Y-77826742D01*
X110694093Y-77663315D01*
X110694093Y-77496685D01*
X110726601Y-77333258D01*
X110790367Y-77179313D01*
X110882941Y-77040766D01*
X111000766Y-76922941D01*
X111139313Y-76830367D01*
X111293258Y-76766601D01*
X111456685Y-76734093D01*
X111623315Y-76734093D01*
X111786742Y-76766601D01*
G37*
G36*
X114326742Y-76766601D02*
G01*
X114480687Y-76830367D01*
X114619234Y-76922941D01*
X114737059Y-77040766D01*
X114829633Y-77179313D01*
X114893399Y-77333258D01*
X114925907Y-77496685D01*
X114925907Y-77663315D01*
X114893399Y-77826742D01*
X114829633Y-77980687D01*
X114737059Y-78119234D01*
X114619234Y-78237059D01*
X114480687Y-78329633D01*
X114326742Y-78393399D01*
X114163315Y-78425907D01*
X113996685Y-78425907D01*
X113833258Y-78393399D01*
X113679313Y-78329633D01*
X113540766Y-78237059D01*
X113422941Y-78119234D01*
X113330367Y-77980687D01*
X113266601Y-77826742D01*
X113234093Y-77663315D01*
X113234093Y-77496685D01*
X113266601Y-77333258D01*
X113330367Y-77179313D01*
X113422941Y-77040766D01*
X113540766Y-76922941D01*
X113679313Y-76830367D01*
X113833258Y-76766601D01*
X113996685Y-76734093D01*
X114163315Y-76734093D01*
X114326742Y-76766601D01*
G37*
G36*
X119406742Y-76766601D02*
G01*
X119560687Y-76830367D01*
X119699234Y-76922941D01*
X119817059Y-77040766D01*
X119909633Y-77179313D01*
X119973399Y-77333258D01*
X120005907Y-77496685D01*
X120005907Y-77663315D01*
X119973399Y-77826742D01*
X119909633Y-77980687D01*
X119817059Y-78119234D01*
X119699234Y-78237059D01*
X119560687Y-78329633D01*
X119406742Y-78393399D01*
X119243315Y-78425907D01*
X119076685Y-78425907D01*
X118913258Y-78393399D01*
X118759313Y-78329633D01*
X118620766Y-78237059D01*
X118502941Y-78119234D01*
X118410367Y-77980687D01*
X118346601Y-77826742D01*
X118314093Y-77663315D01*
X118314093Y-77496685D01*
X118346601Y-77333258D01*
X118410367Y-77179313D01*
X118502941Y-77040766D01*
X118620766Y-76922941D01*
X118759313Y-76830367D01*
X118913258Y-76766601D01*
X119076685Y-76734093D01*
X119243315Y-76734093D01*
X119406742Y-76766601D01*
G37*
G36*
X121946742Y-76766601D02*
G01*
X122100687Y-76830367D01*
X122239234Y-76922941D01*
X122357059Y-77040766D01*
X122449633Y-77179313D01*
X122513399Y-77333258D01*
X122545907Y-77496685D01*
X122545907Y-77663315D01*
X122513399Y-77826742D01*
X122449633Y-77980687D01*
X122357059Y-78119234D01*
X122239234Y-78237059D01*
X122100687Y-78329633D01*
X121946742Y-78393399D01*
X121783315Y-78425907D01*
X121616685Y-78425907D01*
X121453258Y-78393399D01*
X121299313Y-78329633D01*
X121160766Y-78237059D01*
X121042941Y-78119234D01*
X120950367Y-77980687D01*
X120886601Y-77826742D01*
X120854093Y-77663315D01*
X120854093Y-77496685D01*
X120886601Y-77333258D01*
X120950367Y-77179313D01*
X121042941Y-77040766D01*
X121160766Y-76922941D01*
X121299313Y-76830367D01*
X121453258Y-76766601D01*
X121616685Y-76734093D01*
X121783315Y-76734093D01*
X121946742Y-76766601D01*
G37*
G36*
X124486742Y-76766601D02*
G01*
X124640687Y-76830367D01*
X124779234Y-76922941D01*
X124897059Y-77040766D01*
X124989633Y-77179313D01*
X125053399Y-77333258D01*
X125085907Y-77496685D01*
X125085907Y-77663315D01*
X125053399Y-77826742D01*
X124989633Y-77980687D01*
X124897059Y-78119234D01*
X124779234Y-78237059D01*
X124640687Y-78329633D01*
X124486742Y-78393399D01*
X124323315Y-78425907D01*
X124156685Y-78425907D01*
X123993258Y-78393399D01*
X123839313Y-78329633D01*
X123700766Y-78237059D01*
X123582941Y-78119234D01*
X123490367Y-77980687D01*
X123426601Y-77826742D01*
X123394093Y-77663315D01*
X123394093Y-77496685D01*
X123426601Y-77333258D01*
X123490367Y-77179313D01*
X123582941Y-77040766D01*
X123700766Y-76922941D01*
X123839313Y-76830367D01*
X123993258Y-76766601D01*
X124156685Y-76734093D01*
X124323315Y-76734093D01*
X124486742Y-76766601D01*
G37*
G36*
X127026742Y-76766601D02*
G01*
X127180687Y-76830367D01*
X127319234Y-76922941D01*
X127437059Y-77040766D01*
X127529633Y-77179313D01*
X127593399Y-77333258D01*
X127625907Y-77496685D01*
X127625907Y-77663315D01*
X127593399Y-77826742D01*
X127529633Y-77980687D01*
X127437059Y-78119234D01*
X127319234Y-78237059D01*
X127180687Y-78329633D01*
X127026742Y-78393399D01*
X126863315Y-78425907D01*
X126696685Y-78425907D01*
X126533258Y-78393399D01*
X126379313Y-78329633D01*
X126240766Y-78237059D01*
X126122941Y-78119234D01*
X126030367Y-77980687D01*
X125966601Y-77826742D01*
X125934093Y-77663315D01*
X125934093Y-77496685D01*
X125966601Y-77333258D01*
X126030367Y-77179313D01*
X126122941Y-77040766D01*
X126240766Y-76922941D01*
X126379313Y-76830367D01*
X126533258Y-76766601D01*
X126696685Y-76734093D01*
X126863315Y-76734093D01*
X127026742Y-76766601D01*
G37*
G36*
X132106742Y-76766601D02*
G01*
X132260687Y-76830367D01*
X132399234Y-76922941D01*
X132517059Y-77040766D01*
X132609633Y-77179313D01*
X132673399Y-77333258D01*
X132705907Y-77496685D01*
X132705907Y-77663315D01*
X132673399Y-77826742D01*
X132609633Y-77980687D01*
X132517059Y-78119234D01*
X132399234Y-78237059D01*
X132260687Y-78329633D01*
X132106742Y-78393399D01*
X131943315Y-78425907D01*
X131776685Y-78425907D01*
X131613258Y-78393399D01*
X131459313Y-78329633D01*
X131320766Y-78237059D01*
X131202941Y-78119234D01*
X131110367Y-77980687D01*
X131046601Y-77826742D01*
X131014093Y-77663315D01*
X131014093Y-77496685D01*
X131046601Y-77333258D01*
X131110367Y-77179313D01*
X131202941Y-77040766D01*
X131320766Y-76922941D01*
X131459313Y-76830367D01*
X131613258Y-76766601D01*
X131776685Y-76734093D01*
X131943315Y-76734093D01*
X132106742Y-76766601D01*
G37*
G36*
X134646742Y-76766601D02*
G01*
X134800687Y-76830367D01*
X134939234Y-76922941D01*
X135057059Y-77040766D01*
X135149633Y-77179313D01*
X135213399Y-77333258D01*
X135245907Y-77496685D01*
X135245907Y-77663315D01*
X135213399Y-77826742D01*
X135149633Y-77980687D01*
X135057059Y-78119234D01*
X134939234Y-78237059D01*
X134800687Y-78329633D01*
X134646742Y-78393399D01*
X134483315Y-78425907D01*
X134316685Y-78425907D01*
X134153258Y-78393399D01*
X133999313Y-78329633D01*
X133860766Y-78237059D01*
X133742941Y-78119234D01*
X133650367Y-77980687D01*
X133586601Y-77826742D01*
X133554093Y-77663315D01*
X133554093Y-77496685D01*
X133586601Y-77333258D01*
X133650367Y-77179313D01*
X133742941Y-77040766D01*
X133860766Y-76922941D01*
X133999313Y-76830367D01*
X134153258Y-76766601D01*
X134316685Y-76734093D01*
X134483315Y-76734093D01*
X134646742Y-76766601D01*
G37*
G36*
X91309144Y-58949909D02*
G01*
X91311549Y-58950387D01*
X91311555Y-58950388D01*
X91460543Y-58980024D01*
X91460548Y-58980025D01*
X91462958Y-58980505D01*
X91473276Y-58983635D01*
X91475543Y-58984574D01*
X91475546Y-58984575D01*
X91480437Y-58986601D01*
X91618165Y-59043650D01*
X91627673Y-59048732D01*
X91629708Y-59050092D01*
X91629714Y-59050095D01*
X91756029Y-59134496D01*
X91756032Y-59134499D01*
X91758071Y-59135861D01*
X91766406Y-59142701D01*
X91877299Y-59253594D01*
X91884139Y-59261929D01*
X91971268Y-59392327D01*
X91976350Y-59401835D01*
X92036365Y-59546724D01*
X92039495Y-59557042D01*
X92070091Y-59710856D01*
X92071148Y-59721586D01*
X92071148Y-59724041D01*
X92071148Y-59777643D01*
X92071456Y-59781560D01*
X92073991Y-59797564D01*
X92075000Y-59800000D01*
X92075000Y-60400000D01*
X92071157Y-60409277D01*
X92071157Y-60439018D01*
X92066970Y-60460066D01*
X92037107Y-60532162D01*
X92025185Y-60550005D01*
X91970005Y-60605185D01*
X91952162Y-60617107D01*
X91880066Y-60646970D01*
X91859018Y-60651157D01*
X91854094Y-60651157D01*
X91835513Y-60651157D01*
X91824005Y-60653920D01*
X91822589Y-60654641D01*
X91820462Y-60654808D01*
X91820000Y-60655000D01*
X91818032Y-60655000D01*
X90627919Y-60655000D01*
X90620000Y-60655000D01*
X90610722Y-60651157D01*
X90585906Y-60651157D01*
X90580982Y-60651157D01*
X90559934Y-60646970D01*
X90487838Y-60617107D01*
X90469995Y-60605185D01*
X90414815Y-60550005D01*
X90402893Y-60532162D01*
X90373030Y-60460066D01*
X90368843Y-60439018D01*
X90368843Y-60415511D01*
X90366079Y-60404001D01*
X90365358Y-60402587D01*
X90365190Y-60400460D01*
X90365000Y-60400000D01*
X90365000Y-59800000D01*
X90368852Y-59790700D01*
X90368852Y-59721586D01*
X90369909Y-59710856D01*
X90370387Y-59708451D01*
X90370388Y-59708444D01*
X90400024Y-59559456D01*
X90400026Y-59559448D01*
X90400505Y-59557042D01*
X90403635Y-59546724D01*
X90404573Y-59544459D01*
X90404575Y-59544453D01*
X90462710Y-59404104D01*
X90462710Y-59404102D01*
X90463650Y-59401835D01*
X90468732Y-59392327D01*
X90470089Y-59390295D01*
X90470095Y-59390285D01*
X90554496Y-59263970D01*
X90554502Y-59263961D01*
X90555861Y-59261929D01*
X90562701Y-59253594D01*
X90564431Y-59251863D01*
X90564436Y-59251858D01*
X90671858Y-59144436D01*
X90671863Y-59144431D01*
X90673594Y-59142701D01*
X90681929Y-59135861D01*
X90683961Y-59134502D01*
X90683970Y-59134496D01*
X90810285Y-59050095D01*
X90810295Y-59050089D01*
X90812327Y-59048732D01*
X90821835Y-59043650D01*
X90824104Y-59042710D01*
X90964453Y-58984575D01*
X90964459Y-58984573D01*
X90966724Y-58983635D01*
X90977042Y-58980505D01*
X90979448Y-58980026D01*
X90979456Y-58980024D01*
X91128444Y-58950388D01*
X91128451Y-58950387D01*
X91130856Y-58949909D01*
X91141586Y-58948852D01*
X91298414Y-58948852D01*
X91309144Y-58949909D01*
G37*
G36*
X104009144Y-58949909D02*
G01*
X104011549Y-58950387D01*
X104011555Y-58950388D01*
X104160543Y-58980024D01*
X104160548Y-58980025D01*
X104162958Y-58980505D01*
X104173276Y-58983635D01*
X104175543Y-58984574D01*
X104175546Y-58984575D01*
X104180437Y-58986601D01*
X104318165Y-59043650D01*
X104327673Y-59048732D01*
X104329708Y-59050092D01*
X104329714Y-59050095D01*
X104456029Y-59134496D01*
X104456032Y-59134499D01*
X104458071Y-59135861D01*
X104466406Y-59142701D01*
X104577299Y-59253594D01*
X104584139Y-59261929D01*
X104671268Y-59392327D01*
X104676350Y-59401835D01*
X104736365Y-59546724D01*
X104739495Y-59557042D01*
X104770091Y-59710856D01*
X104771148Y-59721586D01*
X104771148Y-59724041D01*
X104771148Y-59777643D01*
X104771456Y-59781560D01*
X104773991Y-59797564D01*
X104775000Y-59800000D01*
X104775000Y-60400000D01*
X104771157Y-60409277D01*
X104771157Y-60439018D01*
X104766970Y-60460066D01*
X104737107Y-60532162D01*
X104725185Y-60550005D01*
X104670005Y-60605185D01*
X104652162Y-60617107D01*
X104580066Y-60646970D01*
X104559018Y-60651157D01*
X104554094Y-60651157D01*
X104535513Y-60651157D01*
X104524005Y-60653920D01*
X104522589Y-60654641D01*
X104520462Y-60654808D01*
X104520000Y-60655000D01*
X104518032Y-60655000D01*
X103327919Y-60655000D01*
X103320000Y-60655000D01*
X103310722Y-60651157D01*
X103285906Y-60651157D01*
X103280982Y-60651157D01*
X103259934Y-60646970D01*
X103187838Y-60617107D01*
X103169995Y-60605185D01*
X103114815Y-60550005D01*
X103102893Y-60532162D01*
X103073030Y-60460066D01*
X103068843Y-60439018D01*
X103068843Y-60415511D01*
X103066079Y-60404001D01*
X103065358Y-60402587D01*
X103065190Y-60400460D01*
X103065000Y-60400000D01*
X103065000Y-59800000D01*
X103068852Y-59790700D01*
X103068852Y-59721586D01*
X103069909Y-59710856D01*
X103070387Y-59708451D01*
X103070388Y-59708444D01*
X103100024Y-59559456D01*
X103100026Y-59559448D01*
X103100505Y-59557042D01*
X103103635Y-59546724D01*
X103104573Y-59544459D01*
X103104575Y-59544453D01*
X103162710Y-59404104D01*
X103162710Y-59404102D01*
X103163650Y-59401835D01*
X103168732Y-59392327D01*
X103170089Y-59390295D01*
X103170095Y-59390285D01*
X103254496Y-59263970D01*
X103254502Y-59263961D01*
X103255861Y-59261929D01*
X103262701Y-59253594D01*
X103264431Y-59251863D01*
X103264436Y-59251858D01*
X103371858Y-59144436D01*
X103371863Y-59144431D01*
X103373594Y-59142701D01*
X103381929Y-59135861D01*
X103383961Y-59134502D01*
X103383970Y-59134496D01*
X103510285Y-59050095D01*
X103510295Y-59050089D01*
X103512327Y-59048732D01*
X103521835Y-59043650D01*
X103524104Y-59042710D01*
X103664453Y-58984575D01*
X103664459Y-58984573D01*
X103666724Y-58983635D01*
X103677042Y-58980505D01*
X103679448Y-58980026D01*
X103679456Y-58980024D01*
X103828444Y-58950388D01*
X103828451Y-58950387D01*
X103830856Y-58949909D01*
X103841586Y-58948852D01*
X103998414Y-58948852D01*
X104009144Y-58949909D01*
G37*
G36*
X116709144Y-58949909D02*
G01*
X116711549Y-58950387D01*
X116711555Y-58950388D01*
X116860543Y-58980024D01*
X116860548Y-58980025D01*
X116862958Y-58980505D01*
X116873276Y-58983635D01*
X116875543Y-58984574D01*
X116875546Y-58984575D01*
X116880437Y-58986601D01*
X117018165Y-59043650D01*
X117027673Y-59048732D01*
X117029708Y-59050092D01*
X117029714Y-59050095D01*
X117156029Y-59134496D01*
X117156032Y-59134499D01*
X117158071Y-59135861D01*
X117166406Y-59142701D01*
X117277299Y-59253594D01*
X117284139Y-59261929D01*
X117371268Y-59392327D01*
X117376350Y-59401835D01*
X117436365Y-59546724D01*
X117439495Y-59557042D01*
X117470091Y-59710856D01*
X117471148Y-59721586D01*
X117471148Y-59724041D01*
X117471148Y-59777643D01*
X117471456Y-59781560D01*
X117473991Y-59797564D01*
X117475000Y-59800000D01*
X117475000Y-60400000D01*
X117471157Y-60409277D01*
X117471157Y-60439018D01*
X117466970Y-60460066D01*
X117437107Y-60532162D01*
X117425185Y-60550005D01*
X117370005Y-60605185D01*
X117352162Y-60617107D01*
X117280066Y-60646970D01*
X117259018Y-60651157D01*
X117254094Y-60651157D01*
X117235513Y-60651157D01*
X117224005Y-60653920D01*
X117222589Y-60654641D01*
X117220462Y-60654808D01*
X117220000Y-60655000D01*
X117218032Y-60655000D01*
X116027919Y-60655000D01*
X116020000Y-60655000D01*
X116010722Y-60651157D01*
X115985906Y-60651157D01*
X115980982Y-60651157D01*
X115959934Y-60646970D01*
X115887838Y-60617107D01*
X115869995Y-60605185D01*
X115814815Y-60550005D01*
X115802893Y-60532162D01*
X115773030Y-60460066D01*
X115768843Y-60439018D01*
X115768843Y-60415511D01*
X115766079Y-60404001D01*
X115765358Y-60402587D01*
X115765190Y-60400460D01*
X115765000Y-60400000D01*
X115765000Y-59800000D01*
X115768852Y-59790700D01*
X115768852Y-59721586D01*
X115769909Y-59710856D01*
X115770387Y-59708451D01*
X115770388Y-59708444D01*
X115800024Y-59559456D01*
X115800026Y-59559448D01*
X115800505Y-59557042D01*
X115803635Y-59546724D01*
X115804573Y-59544459D01*
X115804575Y-59544453D01*
X115862710Y-59404104D01*
X115862710Y-59404102D01*
X115863650Y-59401835D01*
X115868732Y-59392327D01*
X115870089Y-59390295D01*
X115870095Y-59390285D01*
X115954496Y-59263970D01*
X115954502Y-59263961D01*
X115955861Y-59261929D01*
X115962701Y-59253594D01*
X115964431Y-59251863D01*
X115964436Y-59251858D01*
X116071858Y-59144436D01*
X116071863Y-59144431D01*
X116073594Y-59142701D01*
X116081929Y-59135861D01*
X116083961Y-59134502D01*
X116083970Y-59134496D01*
X116210285Y-59050095D01*
X116210295Y-59050089D01*
X116212327Y-59048732D01*
X116221835Y-59043650D01*
X116224104Y-59042710D01*
X116364453Y-58984575D01*
X116364459Y-58984573D01*
X116366724Y-58983635D01*
X116377042Y-58980505D01*
X116379448Y-58980026D01*
X116379456Y-58980024D01*
X116528444Y-58950388D01*
X116528451Y-58950387D01*
X116530856Y-58949909D01*
X116541586Y-58948852D01*
X116698414Y-58948852D01*
X116709144Y-58949909D01*
G37*
G36*
X129409144Y-58949909D02*
G01*
X129411549Y-58950387D01*
X129411555Y-58950388D01*
X129560543Y-58980024D01*
X129560548Y-58980025D01*
X129562958Y-58980505D01*
X129573276Y-58983635D01*
X129575543Y-58984574D01*
X129575546Y-58984575D01*
X129580437Y-58986601D01*
X129718165Y-59043650D01*
X129727673Y-59048732D01*
X129729708Y-59050092D01*
X129729714Y-59050095D01*
X129856029Y-59134496D01*
X129856032Y-59134499D01*
X129858071Y-59135861D01*
X129866406Y-59142701D01*
X129977299Y-59253594D01*
X129984139Y-59261929D01*
X130071268Y-59392327D01*
X130076350Y-59401835D01*
X130136365Y-59546724D01*
X130139495Y-59557042D01*
X130170091Y-59710856D01*
X130171148Y-59721586D01*
X130171148Y-59724041D01*
X130171148Y-59777643D01*
X130171456Y-59781560D01*
X130173991Y-59797564D01*
X130175000Y-59800000D01*
X130175000Y-60400000D01*
X130171157Y-60409277D01*
X130171157Y-60439018D01*
X130166970Y-60460066D01*
X130137107Y-60532162D01*
X130125185Y-60550005D01*
X130070005Y-60605185D01*
X130052162Y-60617107D01*
X129980066Y-60646970D01*
X129959018Y-60651157D01*
X129954094Y-60651157D01*
X129935513Y-60651157D01*
X129924005Y-60653920D01*
X129922589Y-60654641D01*
X129920462Y-60654808D01*
X129920000Y-60655000D01*
X129918032Y-60655000D01*
X128727919Y-60655000D01*
X128720000Y-60655000D01*
X128710722Y-60651157D01*
X128685906Y-60651157D01*
X128680982Y-60651157D01*
X128659934Y-60646970D01*
X128587838Y-60617107D01*
X128569995Y-60605185D01*
X128514815Y-60550005D01*
X128502893Y-60532162D01*
X128473030Y-60460066D01*
X128468843Y-60439018D01*
X128468843Y-60415511D01*
X128466079Y-60404001D01*
X128465358Y-60402587D01*
X128465190Y-60400460D01*
X128465000Y-60400000D01*
X128465000Y-59800000D01*
X128468852Y-59790700D01*
X128468852Y-59721586D01*
X128469909Y-59710856D01*
X128470387Y-59708451D01*
X128470388Y-59708444D01*
X128500024Y-59559456D01*
X128500026Y-59559448D01*
X128500505Y-59557042D01*
X128503635Y-59546724D01*
X128504573Y-59544459D01*
X128504575Y-59544453D01*
X128562710Y-59404104D01*
X128562710Y-59404102D01*
X128563650Y-59401835D01*
X128568732Y-59392327D01*
X128570089Y-59390295D01*
X128570095Y-59390285D01*
X128654496Y-59263970D01*
X128654502Y-59263961D01*
X128655861Y-59261929D01*
X128662701Y-59253594D01*
X128664431Y-59251863D01*
X128664436Y-59251858D01*
X128771858Y-59144436D01*
X128771863Y-59144431D01*
X128773594Y-59142701D01*
X128781929Y-59135861D01*
X128783961Y-59134502D01*
X128783970Y-59134496D01*
X128910285Y-59050095D01*
X128910295Y-59050089D01*
X128912327Y-59048732D01*
X128921835Y-59043650D01*
X128924104Y-59042710D01*
X129064453Y-58984575D01*
X129064459Y-58984573D01*
X129066724Y-58983635D01*
X129077042Y-58980505D01*
X129079448Y-58980026D01*
X129079456Y-58980024D01*
X129228444Y-58950388D01*
X129228451Y-58950387D01*
X129230856Y-58949909D01*
X129241586Y-58948852D01*
X129398414Y-58948852D01*
X129409144Y-58949909D01*
G37*
G36*
X135004047Y-58950805D02*
G01*
X135055408Y-58956764D01*
X135072954Y-58964511D01*
X135095671Y-58969030D01*
X135119991Y-58985280D01*
X135140793Y-58994465D01*
X135155000Y-59008672D01*
X135176777Y-59023223D01*
X135191327Y-59044999D01*
X135205534Y-59059206D01*
X135214718Y-59080006D01*
X135230970Y-59104329D01*
X135235489Y-59127048D01*
X135243235Y-59144591D01*
X135249192Y-59195940D01*
X135250000Y-59200000D01*
X135250000Y-60400000D01*
X135249192Y-60404059D01*
X135243235Y-60455408D01*
X135235489Y-60472950D01*
X135230970Y-60495671D01*
X135214716Y-60519995D01*
X135205534Y-60540793D01*
X135191329Y-60554997D01*
X135176777Y-60576777D01*
X135154997Y-60591329D01*
X135140793Y-60605534D01*
X135119995Y-60614716D01*
X135095671Y-60630970D01*
X135072950Y-60635489D01*
X135055408Y-60643235D01*
X135004061Y-60649192D01*
X135000000Y-60650000D01*
X133800000Y-60650000D01*
X133795941Y-60649192D01*
X133744591Y-60643235D01*
X133727048Y-60635489D01*
X133704329Y-60630970D01*
X133680006Y-60614718D01*
X133659206Y-60605534D01*
X133644999Y-60591327D01*
X133623223Y-60576777D01*
X133608672Y-60555000D01*
X133594465Y-60540793D01*
X133585280Y-60519991D01*
X133569030Y-60495671D01*
X133564511Y-60472954D01*
X133556764Y-60455408D01*
X133550805Y-60404049D01*
X133550000Y-60400000D01*
X133550000Y-59200000D01*
X133550804Y-59195953D01*
X133556764Y-59144591D01*
X133564511Y-59127043D01*
X133569030Y-59104329D01*
X133585278Y-59080010D01*
X133594465Y-59059206D01*
X133608674Y-59044996D01*
X133623223Y-59023223D01*
X133644996Y-59008674D01*
X133659206Y-58994465D01*
X133680010Y-58985278D01*
X133704329Y-58969030D01*
X133727043Y-58964511D01*
X133744591Y-58956764D01*
X133795952Y-58950805D01*
X133800000Y-58950000D01*
X135000000Y-58950000D01*
X135004047Y-58950805D01*
G37*
G36*
X86386742Y-58986601D02*
G01*
X86540687Y-59050367D01*
X86679234Y-59142941D01*
X86797059Y-59260766D01*
X86889633Y-59399313D01*
X86953399Y-59553258D01*
X86985907Y-59716685D01*
X86985907Y-59883315D01*
X86953399Y-60046742D01*
X86889633Y-60200687D01*
X86797059Y-60339234D01*
X86679234Y-60457059D01*
X86540687Y-60549633D01*
X86386742Y-60613399D01*
X86223315Y-60645907D01*
X86056685Y-60645907D01*
X85893258Y-60613399D01*
X85739313Y-60549633D01*
X85600766Y-60457059D01*
X85482941Y-60339234D01*
X85390367Y-60200687D01*
X85326601Y-60046742D01*
X85294093Y-59883315D01*
X85294093Y-59716685D01*
X85326601Y-59553258D01*
X85390367Y-59399313D01*
X85482941Y-59260766D01*
X85600766Y-59142941D01*
X85739313Y-59050367D01*
X85893258Y-58986601D01*
X86056685Y-58954093D01*
X86223315Y-58954093D01*
X86386742Y-58986601D01*
G37*
G36*
X88926742Y-58986601D02*
G01*
X89080687Y-59050367D01*
X89219234Y-59142941D01*
X89337059Y-59260766D01*
X89429633Y-59399313D01*
X89493399Y-59553258D01*
X89525907Y-59716685D01*
X89525907Y-59883315D01*
X89493399Y-60046742D01*
X89429633Y-60200687D01*
X89337059Y-60339234D01*
X89219234Y-60457059D01*
X89080687Y-60549633D01*
X88926742Y-60613399D01*
X88763315Y-60645907D01*
X88596685Y-60645907D01*
X88433258Y-60613399D01*
X88279313Y-60549633D01*
X88140766Y-60457059D01*
X88022941Y-60339234D01*
X87930367Y-60200687D01*
X87866601Y-60046742D01*
X87834093Y-59883315D01*
X87834093Y-59716685D01*
X87866601Y-59553258D01*
X87930367Y-59399313D01*
X88022941Y-59260766D01*
X88140766Y-59142941D01*
X88279313Y-59050367D01*
X88433258Y-58986601D01*
X88596685Y-58954093D01*
X88763315Y-58954093D01*
X88926742Y-58986601D01*
G37*
G36*
X94006742Y-58986601D02*
G01*
X94160687Y-59050367D01*
X94299234Y-59142941D01*
X94417059Y-59260766D01*
X94509633Y-59399313D01*
X94573399Y-59553258D01*
X94605907Y-59716685D01*
X94605907Y-59883315D01*
X94573399Y-60046742D01*
X94509633Y-60200687D01*
X94417059Y-60339234D01*
X94299234Y-60457059D01*
X94160687Y-60549633D01*
X94006742Y-60613399D01*
X93843315Y-60645907D01*
X93676685Y-60645907D01*
X93513258Y-60613399D01*
X93359313Y-60549633D01*
X93220766Y-60457059D01*
X93102941Y-60339234D01*
X93010367Y-60200687D01*
X92946601Y-60046742D01*
X92914093Y-59883315D01*
X92914093Y-59716685D01*
X92946601Y-59553258D01*
X93010367Y-59399313D01*
X93102941Y-59260766D01*
X93220766Y-59142941D01*
X93359313Y-59050367D01*
X93513258Y-58986601D01*
X93676685Y-58954093D01*
X93843315Y-58954093D01*
X94006742Y-58986601D01*
G37*
G36*
X96546742Y-58986601D02*
G01*
X96700687Y-59050367D01*
X96839234Y-59142941D01*
X96957059Y-59260766D01*
X97049633Y-59399313D01*
X97113399Y-59553258D01*
X97145907Y-59716685D01*
X97145907Y-59883315D01*
X97113399Y-60046742D01*
X97049633Y-60200687D01*
X96957059Y-60339234D01*
X96839234Y-60457059D01*
X96700687Y-60549633D01*
X96546742Y-60613399D01*
X96383315Y-60645907D01*
X96216685Y-60645907D01*
X96053258Y-60613399D01*
X95899313Y-60549633D01*
X95760766Y-60457059D01*
X95642941Y-60339234D01*
X95550367Y-60200687D01*
X95486601Y-60046742D01*
X95454093Y-59883315D01*
X95454093Y-59716685D01*
X95486601Y-59553258D01*
X95550367Y-59399313D01*
X95642941Y-59260766D01*
X95760766Y-59142941D01*
X95899313Y-59050367D01*
X96053258Y-58986601D01*
X96216685Y-58954093D01*
X96383315Y-58954093D01*
X96546742Y-58986601D01*
G37*
G36*
X99086742Y-58986601D02*
G01*
X99240687Y-59050367D01*
X99379234Y-59142941D01*
X99497059Y-59260766D01*
X99589633Y-59399313D01*
X99653399Y-59553258D01*
X99685907Y-59716685D01*
X99685907Y-59883315D01*
X99653399Y-60046742D01*
X99589633Y-60200687D01*
X99497059Y-60339234D01*
X99379234Y-60457059D01*
X99240687Y-60549633D01*
X99086742Y-60613399D01*
X98923315Y-60645907D01*
X98756685Y-60645907D01*
X98593258Y-60613399D01*
X98439313Y-60549633D01*
X98300766Y-60457059D01*
X98182941Y-60339234D01*
X98090367Y-60200687D01*
X98026601Y-60046742D01*
X97994093Y-59883315D01*
X97994093Y-59716685D01*
X98026601Y-59553258D01*
X98090367Y-59399313D01*
X98182941Y-59260766D01*
X98300766Y-59142941D01*
X98439313Y-59050367D01*
X98593258Y-58986601D01*
X98756685Y-58954093D01*
X98923315Y-58954093D01*
X99086742Y-58986601D01*
G37*
G36*
X101626742Y-58986601D02*
G01*
X101780687Y-59050367D01*
X101919234Y-59142941D01*
X102037059Y-59260766D01*
X102129633Y-59399313D01*
X102193399Y-59553258D01*
X102225907Y-59716685D01*
X102225907Y-59883315D01*
X102193399Y-60046742D01*
X102129633Y-60200687D01*
X102037059Y-60339234D01*
X101919234Y-60457059D01*
X101780687Y-60549633D01*
X101626742Y-60613399D01*
X101463315Y-60645907D01*
X101296685Y-60645907D01*
X101133258Y-60613399D01*
X100979313Y-60549633D01*
X100840766Y-60457059D01*
X100722941Y-60339234D01*
X100630367Y-60200687D01*
X100566601Y-60046742D01*
X100534093Y-59883315D01*
X100534093Y-59716685D01*
X100566601Y-59553258D01*
X100630367Y-59399313D01*
X100722941Y-59260766D01*
X100840766Y-59142941D01*
X100979313Y-59050367D01*
X101133258Y-58986601D01*
X101296685Y-58954093D01*
X101463315Y-58954093D01*
X101626742Y-58986601D01*
G37*
G36*
X106706742Y-58986601D02*
G01*
X106860687Y-59050367D01*
X106999234Y-59142941D01*
X107117059Y-59260766D01*
X107209633Y-59399313D01*
X107273399Y-59553258D01*
X107305907Y-59716685D01*
X107305907Y-59883315D01*
X107273399Y-60046742D01*
X107209633Y-60200687D01*
X107117059Y-60339234D01*
X106999234Y-60457059D01*
X106860687Y-60549633D01*
X106706742Y-60613399D01*
X106543315Y-60645907D01*
X106376685Y-60645907D01*
X106213258Y-60613399D01*
X106059313Y-60549633D01*
X105920766Y-60457059D01*
X105802941Y-60339234D01*
X105710367Y-60200687D01*
X105646601Y-60046742D01*
X105614093Y-59883315D01*
X105614093Y-59716685D01*
X105646601Y-59553258D01*
X105710367Y-59399313D01*
X105802941Y-59260766D01*
X105920766Y-59142941D01*
X106059313Y-59050367D01*
X106213258Y-58986601D01*
X106376685Y-58954093D01*
X106543315Y-58954093D01*
X106706742Y-58986601D01*
G37*
G36*
X109246742Y-58986601D02*
G01*
X109400687Y-59050367D01*
X109539234Y-59142941D01*
X109657059Y-59260766D01*
X109749633Y-59399313D01*
X109813399Y-59553258D01*
X109845907Y-59716685D01*
X109845907Y-59883315D01*
X109813399Y-60046742D01*
X109749633Y-60200687D01*
X109657059Y-60339234D01*
X109539234Y-60457059D01*
X109400687Y-60549633D01*
X109246742Y-60613399D01*
X109083315Y-60645907D01*
X108916685Y-60645907D01*
X108753258Y-60613399D01*
X108599313Y-60549633D01*
X108460766Y-60457059D01*
X108342941Y-60339234D01*
X108250367Y-60200687D01*
X108186601Y-60046742D01*
X108154093Y-59883315D01*
X108154093Y-59716685D01*
X108186601Y-59553258D01*
X108250367Y-59399313D01*
X108342941Y-59260766D01*
X108460766Y-59142941D01*
X108599313Y-59050367D01*
X108753258Y-58986601D01*
X108916685Y-58954093D01*
X109083315Y-58954093D01*
X109246742Y-58986601D01*
G37*
G36*
X111786742Y-58986601D02*
G01*
X111940687Y-59050367D01*
X112079234Y-59142941D01*
X112197059Y-59260766D01*
X112289633Y-59399313D01*
X112353399Y-59553258D01*
X112385907Y-59716685D01*
X112385907Y-59883315D01*
X112353399Y-60046742D01*
X112289633Y-60200687D01*
X112197059Y-60339234D01*
X112079234Y-60457059D01*
X111940687Y-60549633D01*
X111786742Y-60613399D01*
X111623315Y-60645907D01*
X111456685Y-60645907D01*
X111293258Y-60613399D01*
X111139313Y-60549633D01*
X111000766Y-60457059D01*
X110882941Y-60339234D01*
X110790367Y-60200687D01*
X110726601Y-60046742D01*
X110694093Y-59883315D01*
X110694093Y-59716685D01*
X110726601Y-59553258D01*
X110790367Y-59399313D01*
X110882941Y-59260766D01*
X111000766Y-59142941D01*
X111139313Y-59050367D01*
X111293258Y-58986601D01*
X111456685Y-58954093D01*
X111623315Y-58954093D01*
X111786742Y-58986601D01*
G37*
G36*
X114326742Y-58986601D02*
G01*
X114480687Y-59050367D01*
X114619234Y-59142941D01*
X114737059Y-59260766D01*
X114829633Y-59399313D01*
X114893399Y-59553258D01*
X114925907Y-59716685D01*
X114925907Y-59883315D01*
X114893399Y-60046742D01*
X114829633Y-60200687D01*
X114737059Y-60339234D01*
X114619234Y-60457059D01*
X114480687Y-60549633D01*
X114326742Y-60613399D01*
X114163315Y-60645907D01*
X113996685Y-60645907D01*
X113833258Y-60613399D01*
X113679313Y-60549633D01*
X113540766Y-60457059D01*
X113422941Y-60339234D01*
X113330367Y-60200687D01*
X113266601Y-60046742D01*
X113234093Y-59883315D01*
X113234093Y-59716685D01*
X113266601Y-59553258D01*
X113330367Y-59399313D01*
X113422941Y-59260766D01*
X113540766Y-59142941D01*
X113679313Y-59050367D01*
X113833258Y-58986601D01*
X113996685Y-58954093D01*
X114163315Y-58954093D01*
X114326742Y-58986601D01*
G37*
G36*
X119406742Y-58986601D02*
G01*
X119560687Y-59050367D01*
X119699234Y-59142941D01*
X119817059Y-59260766D01*
X119909633Y-59399313D01*
X119973399Y-59553258D01*
X120005907Y-59716685D01*
X120005907Y-59883315D01*
X119973399Y-60046742D01*
X119909633Y-60200687D01*
X119817059Y-60339234D01*
X119699234Y-60457059D01*
X119560687Y-60549633D01*
X119406742Y-60613399D01*
X119243315Y-60645907D01*
X119076685Y-60645907D01*
X118913258Y-60613399D01*
X118759313Y-60549633D01*
X118620766Y-60457059D01*
X118502941Y-60339234D01*
X118410367Y-60200687D01*
X118346601Y-60046742D01*
X118314093Y-59883315D01*
X118314093Y-59716685D01*
X118346601Y-59553258D01*
X118410367Y-59399313D01*
X118502941Y-59260766D01*
X118620766Y-59142941D01*
X118759313Y-59050367D01*
X118913258Y-58986601D01*
X119076685Y-58954093D01*
X119243315Y-58954093D01*
X119406742Y-58986601D01*
G37*
G36*
X121946742Y-58986601D02*
G01*
X122100687Y-59050367D01*
X122239234Y-59142941D01*
X122357059Y-59260766D01*
X122449633Y-59399313D01*
X122513399Y-59553258D01*
X122545907Y-59716685D01*
X122545907Y-59883315D01*
X122513399Y-60046742D01*
X122449633Y-60200687D01*
X122357059Y-60339234D01*
X122239234Y-60457059D01*
X122100687Y-60549633D01*
X121946742Y-60613399D01*
X121783315Y-60645907D01*
X121616685Y-60645907D01*
X121453258Y-60613399D01*
X121299313Y-60549633D01*
X121160766Y-60457059D01*
X121042941Y-60339234D01*
X120950367Y-60200687D01*
X120886601Y-60046742D01*
X120854093Y-59883315D01*
X120854093Y-59716685D01*
X120886601Y-59553258D01*
X120950367Y-59399313D01*
X121042941Y-59260766D01*
X121160766Y-59142941D01*
X121299313Y-59050367D01*
X121453258Y-58986601D01*
X121616685Y-58954093D01*
X121783315Y-58954093D01*
X121946742Y-58986601D01*
G37*
G36*
X124486742Y-58986601D02*
G01*
X124640687Y-59050367D01*
X124779234Y-59142941D01*
X124897059Y-59260766D01*
X124989633Y-59399313D01*
X125053399Y-59553258D01*
X125085907Y-59716685D01*
X125085907Y-59883315D01*
X125053399Y-60046742D01*
X124989633Y-60200687D01*
X124897059Y-60339234D01*
X124779234Y-60457059D01*
X124640687Y-60549633D01*
X124486742Y-60613399D01*
X124323315Y-60645907D01*
X124156685Y-60645907D01*
X123993258Y-60613399D01*
X123839313Y-60549633D01*
X123700766Y-60457059D01*
X123582941Y-60339234D01*
X123490367Y-60200687D01*
X123426601Y-60046742D01*
X123394093Y-59883315D01*
X123394093Y-59716685D01*
X123426601Y-59553258D01*
X123490367Y-59399313D01*
X123582941Y-59260766D01*
X123700766Y-59142941D01*
X123839313Y-59050367D01*
X123993258Y-58986601D01*
X124156685Y-58954093D01*
X124323315Y-58954093D01*
X124486742Y-58986601D01*
G37*
G36*
X127026742Y-58986601D02*
G01*
X127180687Y-59050367D01*
X127319234Y-59142941D01*
X127437059Y-59260766D01*
X127529633Y-59399313D01*
X127593399Y-59553258D01*
X127625907Y-59716685D01*
X127625907Y-59883315D01*
X127593399Y-60046742D01*
X127529633Y-60200687D01*
X127437059Y-60339234D01*
X127319234Y-60457059D01*
X127180687Y-60549633D01*
X127026742Y-60613399D01*
X126863315Y-60645907D01*
X126696685Y-60645907D01*
X126533258Y-60613399D01*
X126379313Y-60549633D01*
X126240766Y-60457059D01*
X126122941Y-60339234D01*
X126030367Y-60200687D01*
X125966601Y-60046742D01*
X125934093Y-59883315D01*
X125934093Y-59716685D01*
X125966601Y-59553258D01*
X126030367Y-59399313D01*
X126122941Y-59260766D01*
X126240766Y-59142941D01*
X126379313Y-59050367D01*
X126533258Y-58986601D01*
X126696685Y-58954093D01*
X126863315Y-58954093D01*
X127026742Y-58986601D01*
G37*
G36*
X132106742Y-58986601D02*
G01*
X132260687Y-59050367D01*
X132399234Y-59142941D01*
X132517059Y-59260766D01*
X132609633Y-59399313D01*
X132673399Y-59553258D01*
X132705907Y-59716685D01*
X132705907Y-59883315D01*
X132673399Y-60046742D01*
X132609633Y-60200687D01*
X132517059Y-60339234D01*
X132399234Y-60457059D01*
X132260687Y-60549633D01*
X132106742Y-60613399D01*
X131943315Y-60645907D01*
X131776685Y-60645907D01*
X131613258Y-60613399D01*
X131459313Y-60549633D01*
X131320766Y-60457059D01*
X131202941Y-60339234D01*
X131110367Y-60200687D01*
X131046601Y-60046742D01*
X131014093Y-59883315D01*
X131014093Y-59716685D01*
X131046601Y-59553258D01*
X131110367Y-59399313D01*
X131202941Y-59260766D01*
X131320766Y-59142941D01*
X131459313Y-59050367D01*
X131613258Y-58986601D01*
X131776685Y-58954093D01*
X131943315Y-58954093D01*
X132106742Y-58986601D01*
G37*
G36*
X110210476Y-56491866D02*
G01*
X110334819Y-56563656D01*
X110436344Y-56665181D01*
X110508134Y-56789524D01*
X110545295Y-56928211D01*
X110545295Y-57071789D01*
X110508134Y-57210476D01*
X110436344Y-57334819D01*
X110334819Y-57436344D01*
X110210476Y-57508134D01*
X110071789Y-57545295D01*
X109928211Y-57545295D01*
X109789524Y-57508134D01*
X109665181Y-57436344D01*
X109563656Y-57334819D01*
X109491866Y-57210476D01*
X109454705Y-57071789D01*
X109454705Y-56928211D01*
X109491866Y-56789524D01*
X109563656Y-56665181D01*
X109665181Y-56563656D01*
X109789524Y-56491866D01*
X109928211Y-56454705D01*
X110071789Y-56454705D01*
X110210476Y-56491866D01*
G37*
G36*
X88618894Y-50355086D02*
G01*
X88629458Y-50355086D01*
X88681477Y-50363325D01*
X88821877Y-50381809D01*
X88856138Y-50390989D01*
X88885185Y-50395590D01*
X88941045Y-50413740D01*
X89030338Y-50437666D01*
X89087309Y-50461264D01*
X89131428Y-50475599D01*
X89172755Y-50496656D01*
X89229733Y-50520257D01*
X89309803Y-50566485D01*
X89362123Y-50593144D01*
X89385909Y-50610425D01*
X89416624Y-50628159D01*
X89528975Y-50714369D01*
X89571589Y-50745330D01*
X89579058Y-50752799D01*
X89587848Y-50759544D01*
X89740455Y-50912151D01*
X89747199Y-50920940D01*
X89754670Y-50928411D01*
X89785634Y-50971030D01*
X89871840Y-51083375D01*
X89889572Y-51114087D01*
X89906856Y-51137877D01*
X89933517Y-51190203D01*
X89979742Y-51270266D01*
X90003340Y-51327237D01*
X90024401Y-51368572D01*
X90038738Y-51412696D01*
X90062333Y-51469661D01*
X90086255Y-51558941D01*
X90104410Y-51614815D01*
X90109011Y-51643867D01*
X90118190Y-51678122D01*
X90136673Y-51818514D01*
X90144914Y-51870542D01*
X90144914Y-51881105D01*
X90146360Y-51892089D01*
X90146360Y-52107910D01*
X90144914Y-52118893D01*
X90144914Y-52129458D01*
X90136672Y-52181490D01*
X90118190Y-52321877D01*
X90109011Y-52356129D01*
X90104410Y-52385185D01*
X90086254Y-52441063D01*
X90062333Y-52530338D01*
X90038739Y-52587298D01*
X90024401Y-52631428D01*
X90003337Y-52672766D01*
X89979742Y-52729733D01*
X89933521Y-52809788D01*
X89906856Y-52862123D01*
X89889569Y-52885916D01*
X89871840Y-52916624D01*
X89785648Y-53028950D01*
X89754670Y-53071589D01*
X89747195Y-53079063D01*
X89740455Y-53087848D01*
X89587848Y-53240455D01*
X89579063Y-53247195D01*
X89571589Y-53254670D01*
X89528950Y-53285648D01*
X89416624Y-53371840D01*
X89385916Y-53389569D01*
X89362123Y-53406856D01*
X89309788Y-53433521D01*
X89229733Y-53479742D01*
X89172766Y-53503337D01*
X89131428Y-53524401D01*
X89087298Y-53538739D01*
X89030338Y-53562333D01*
X88941063Y-53586254D01*
X88885185Y-53604410D01*
X88856129Y-53609011D01*
X88821877Y-53618190D01*
X88681490Y-53636672D01*
X88629458Y-53644914D01*
X88618893Y-53644914D01*
X88607910Y-53646360D01*
X88392090Y-53646360D01*
X88381107Y-53644914D01*
X88370542Y-53644914D01*
X88318511Y-53636672D01*
X88178122Y-53618190D01*
X88143867Y-53609011D01*
X88114815Y-53604410D01*
X88058941Y-53586255D01*
X87969661Y-53562333D01*
X87912696Y-53538738D01*
X87868572Y-53524401D01*
X87827237Y-53503340D01*
X87770266Y-53479742D01*
X87690203Y-53433517D01*
X87637877Y-53406856D01*
X87614087Y-53389572D01*
X87583375Y-53371840D01*
X87471030Y-53285634D01*
X87428411Y-53254670D01*
X87420940Y-53247199D01*
X87412151Y-53240455D01*
X87259544Y-53087848D01*
X87252799Y-53079058D01*
X87245330Y-53071589D01*
X87214369Y-53028975D01*
X87128159Y-52916624D01*
X87110425Y-52885909D01*
X87093144Y-52862123D01*
X87066485Y-52809803D01*
X87020257Y-52729733D01*
X86996656Y-52672755D01*
X86975599Y-52631428D01*
X86961264Y-52587309D01*
X86937666Y-52530338D01*
X86913740Y-52441045D01*
X86895590Y-52385185D01*
X86890989Y-52356138D01*
X86881809Y-52321877D01*
X86863325Y-52181477D01*
X86855086Y-52129458D01*
X86855086Y-52118893D01*
X86853640Y-52107910D01*
X86853640Y-51892089D01*
X86855086Y-51881105D01*
X86855086Y-51870542D01*
X86863324Y-51818527D01*
X86881809Y-51678122D01*
X86890989Y-51643858D01*
X86895590Y-51614815D01*
X86913738Y-51558959D01*
X86937666Y-51469661D01*
X86961265Y-51412685D01*
X86975599Y-51368572D01*
X86996654Y-51327248D01*
X87020257Y-51270266D01*
X87066489Y-51190188D01*
X87093144Y-51137877D01*
X87110423Y-51114094D01*
X87128159Y-51083375D01*
X87214383Y-50971005D01*
X87245330Y-50928411D01*
X87252796Y-50920944D01*
X87259544Y-50912151D01*
X87412151Y-50759544D01*
X87420944Y-50752796D01*
X87428411Y-50745330D01*
X87471005Y-50714383D01*
X87583375Y-50628159D01*
X87614094Y-50610423D01*
X87637877Y-50593144D01*
X87690188Y-50566489D01*
X87770266Y-50520257D01*
X87827248Y-50496654D01*
X87868572Y-50475599D01*
X87912685Y-50461265D01*
X87969661Y-50437666D01*
X88058959Y-50413738D01*
X88114815Y-50395590D01*
X88143858Y-50390989D01*
X88178122Y-50381809D01*
X88318524Y-50363324D01*
X88370542Y-50355086D01*
X88381106Y-50355086D01*
X88392090Y-50353640D01*
X88607910Y-50353640D01*
X88618894Y-50355086D01*
G37*
G36*
X140618894Y-50355086D02*
G01*
X140629458Y-50355086D01*
X140681477Y-50363325D01*
X140821877Y-50381809D01*
X140856138Y-50390989D01*
X140885185Y-50395590D01*
X140941045Y-50413740D01*
X141030338Y-50437666D01*
X141087309Y-50461264D01*
X141131428Y-50475599D01*
X141172755Y-50496656D01*
X141229733Y-50520257D01*
X141309803Y-50566485D01*
X141362123Y-50593144D01*
X141385909Y-50610425D01*
X141416624Y-50628159D01*
X141528975Y-50714369D01*
X141571589Y-50745330D01*
X141579058Y-50752799D01*
X141587848Y-50759544D01*
X141740455Y-50912151D01*
X141747199Y-50920940D01*
X141754670Y-50928411D01*
X141785634Y-50971030D01*
X141871840Y-51083375D01*
X141889572Y-51114087D01*
X141906856Y-51137877D01*
X141933517Y-51190203D01*
X141979742Y-51270266D01*
X142003340Y-51327237D01*
X142024401Y-51368572D01*
X142038738Y-51412696D01*
X142062333Y-51469661D01*
X142086255Y-51558941D01*
X142104410Y-51614815D01*
X142109011Y-51643867D01*
X142118190Y-51678122D01*
X142136673Y-51818514D01*
X142144914Y-51870542D01*
X142144914Y-51881105D01*
X142146360Y-51892089D01*
X142146360Y-52107910D01*
X142144914Y-52118893D01*
X142144914Y-52129458D01*
X142136672Y-52181490D01*
X142118190Y-52321877D01*
X142109011Y-52356129D01*
X142104410Y-52385185D01*
X142086254Y-52441063D01*
X142062333Y-52530338D01*
X142038739Y-52587298D01*
X142024401Y-52631428D01*
X142003337Y-52672766D01*
X141979742Y-52729733D01*
X141933521Y-52809788D01*
X141906856Y-52862123D01*
X141889569Y-52885916D01*
X141871840Y-52916624D01*
X141785648Y-53028950D01*
X141754670Y-53071589D01*
X141747195Y-53079063D01*
X141740455Y-53087848D01*
X141587848Y-53240455D01*
X141579063Y-53247195D01*
X141571589Y-53254670D01*
X141528950Y-53285648D01*
X141416624Y-53371840D01*
X141385916Y-53389569D01*
X141362123Y-53406856D01*
X141309788Y-53433521D01*
X141229733Y-53479742D01*
X141172766Y-53503337D01*
X141131428Y-53524401D01*
X141087298Y-53538739D01*
X141030338Y-53562333D01*
X140941063Y-53586254D01*
X140885185Y-53604410D01*
X140856129Y-53609011D01*
X140821877Y-53618190D01*
X140681490Y-53636672D01*
X140629458Y-53644914D01*
X140618893Y-53644914D01*
X140607910Y-53646360D01*
X140392090Y-53646360D01*
X140381107Y-53644914D01*
X140370542Y-53644914D01*
X140318511Y-53636672D01*
X140178122Y-53618190D01*
X140143867Y-53609011D01*
X140114815Y-53604410D01*
X140058941Y-53586255D01*
X139969661Y-53562333D01*
X139912696Y-53538738D01*
X139868572Y-53524401D01*
X139827237Y-53503340D01*
X139770266Y-53479742D01*
X139690203Y-53433517D01*
X139637877Y-53406856D01*
X139614087Y-53389572D01*
X139583375Y-53371840D01*
X139471030Y-53285634D01*
X139428411Y-53254670D01*
X139420940Y-53247199D01*
X139412151Y-53240455D01*
X139259544Y-53087848D01*
X139252799Y-53079058D01*
X139245330Y-53071589D01*
X139214369Y-53028975D01*
X139128159Y-52916624D01*
X139110425Y-52885909D01*
X139093144Y-52862123D01*
X139066485Y-52809803D01*
X139020257Y-52729733D01*
X138996656Y-52672755D01*
X138975599Y-52631428D01*
X138961264Y-52587309D01*
X138937666Y-52530338D01*
X138913740Y-52441045D01*
X138895590Y-52385185D01*
X138890989Y-52356138D01*
X138881809Y-52321877D01*
X138863325Y-52181477D01*
X138855086Y-52129458D01*
X138855086Y-52118893D01*
X138853640Y-52107910D01*
X138853640Y-51892089D01*
X138855086Y-51881105D01*
X138855086Y-51870542D01*
X138863324Y-51818527D01*
X138881809Y-51678122D01*
X138890989Y-51643858D01*
X138895590Y-51614815D01*
X138913738Y-51558959D01*
X138937666Y-51469661D01*
X138961265Y-51412685D01*
X138975599Y-51368572D01*
X138996654Y-51327248D01*
X139020257Y-51270266D01*
X139066489Y-51190188D01*
X139093144Y-51137877D01*
X139110423Y-51114094D01*
X139128159Y-51083375D01*
X139214383Y-50971005D01*
X139245330Y-50928411D01*
X139252796Y-50920944D01*
X139259544Y-50912151D01*
X139412151Y-50759544D01*
X139420944Y-50752796D01*
X139428411Y-50745330D01*
X139471005Y-50714383D01*
X139583375Y-50628159D01*
X139614094Y-50610423D01*
X139637877Y-50593144D01*
X139690188Y-50566489D01*
X139770266Y-50520257D01*
X139827248Y-50496654D01*
X139868572Y-50475599D01*
X139912685Y-50461265D01*
X139969661Y-50437666D01*
X140058959Y-50413738D01*
X140114815Y-50395590D01*
X140143858Y-50390989D01*
X140178122Y-50381809D01*
X140318524Y-50363324D01*
X140370542Y-50355086D01*
X140381106Y-50355086D01*
X140392090Y-50353640D01*
X140607910Y-50353640D01*
X140618894Y-50355086D01*
G37*
G36*
X100918685Y-51582969D02*
G01*
X100927358Y-51586798D01*
X100934925Y-51587901D01*
X100982223Y-51611023D01*
X101019541Y-51627501D01*
X101022996Y-51630956D01*
X101023920Y-51631408D01*
X101093591Y-51701079D01*
X101094042Y-51702002D01*
X101097499Y-51705459D01*
X101113978Y-51742782D01*
X101137098Y-51790073D01*
X101138200Y-51797639D01*
X101142031Y-51806315D01*
X101150000Y-51875000D01*
X101150000Y-53125000D01*
X101142031Y-53193685D01*
X101138199Y-53202361D01*
X101137098Y-53209925D01*
X101113985Y-53257202D01*
X101097499Y-53294541D01*
X101094041Y-53297998D01*
X101093591Y-53298920D01*
X101023920Y-53368591D01*
X101022998Y-53369041D01*
X101019541Y-53372499D01*
X100982207Y-53388983D01*
X100934926Y-53412098D01*
X100927361Y-53413200D01*
X100918685Y-53417031D01*
X100850000Y-53425000D01*
X100150000Y-53425000D01*
X100081315Y-53417031D01*
X100072638Y-53413200D01*
X100065074Y-53412098D01*
X100017787Y-53388981D01*
X99980459Y-53372499D01*
X99977002Y-53369042D01*
X99976079Y-53368591D01*
X99906408Y-53298920D01*
X99905956Y-53297996D01*
X99902501Y-53294541D01*
X99886025Y-53257228D01*
X99862901Y-53209926D01*
X99861798Y-53202357D01*
X99857969Y-53193685D01*
X99850000Y-53125000D01*
X99850000Y-51875000D01*
X99857969Y-51806315D01*
X99861798Y-51797642D01*
X99862901Y-51790074D01*
X99886028Y-51742766D01*
X99902501Y-51705459D01*
X99905955Y-51702004D01*
X99906408Y-51701079D01*
X99976079Y-51631408D01*
X99977004Y-51630955D01*
X99980459Y-51627501D01*
X100017761Y-51611030D01*
X100065073Y-51587901D01*
X100072642Y-51586798D01*
X100081315Y-51582969D01*
X100150000Y-51575000D01*
X100850000Y-51575000D01*
X100918685Y-51582969D01*
G37*
G36*
X98688685Y-51602989D02*
G01*
X98806408Y-51651751D01*
X98912356Y-51722543D01*
X99002457Y-51812644D01*
X99073249Y-51918592D01*
X99122011Y-52036315D01*
X99146870Y-52161289D01*
X99150000Y-52225000D01*
X99150000Y-52775000D01*
X99146870Y-52838711D01*
X99122011Y-52963685D01*
X99073249Y-53081408D01*
X99002457Y-53187356D01*
X98912356Y-53277457D01*
X98806408Y-53348249D01*
X98688685Y-53397011D01*
X98563711Y-53421870D01*
X98436289Y-53421870D01*
X98311315Y-53397011D01*
X98193592Y-53348249D01*
X98087644Y-53277457D01*
X97997543Y-53187356D01*
X97926751Y-53081408D01*
X97877989Y-52963685D01*
X97853130Y-52838711D01*
X97850000Y-52775000D01*
X97850000Y-52225000D01*
X97853130Y-52161289D01*
X97877989Y-52036315D01*
X97926751Y-51918592D01*
X97997543Y-51812644D01*
X98087644Y-51722543D01*
X98193592Y-51651751D01*
X98311315Y-51602989D01*
X98436289Y-51578130D01*
X98563711Y-51578130D01*
X98688685Y-51602989D01*
G37*
G36*
X115910476Y-52046152D02*
G01*
X116034819Y-52117942D01*
X116136344Y-52219467D01*
X116208134Y-52343810D01*
X116245295Y-52482497D01*
X116245295Y-52626075D01*
X116208134Y-52764762D01*
X116136344Y-52889105D01*
X116034819Y-52990630D01*
X115910476Y-53062420D01*
X115771789Y-53099581D01*
X115628211Y-53099581D01*
X115489524Y-53062420D01*
X115365181Y-52990630D01*
X115263656Y-52889105D01*
X115191866Y-52764762D01*
X115154705Y-52626075D01*
X115154705Y-52482497D01*
X115191866Y-52343810D01*
X115263656Y-52219467D01*
X115365181Y-52117942D01*
X115489524Y-52046152D01*
X115628211Y-52008991D01*
X115771789Y-52008991D01*
X115910476Y-52046152D01*
G37*
G36*
X127069134Y-51003806D02*
G01*
X127085355Y-51014645D01*
X127096194Y-51030866D01*
X127100000Y-51050000D01*
X127100000Y-52750000D01*
X127096194Y-52769134D01*
X127085355Y-52785355D01*
X127069134Y-52796194D01*
X127050000Y-52800000D01*
X125350000Y-52800000D01*
X125330866Y-52796194D01*
X125314645Y-52785355D01*
X125303806Y-52769134D01*
X125300000Y-52750000D01*
X125300000Y-51050000D01*
X125303806Y-51030866D01*
X125314645Y-51014645D01*
X125330866Y-51003806D01*
X125350000Y-51000000D01*
X127050000Y-51000000D01*
X127069134Y-51003806D01*
G37*
G36*
X129001256Y-51038754D02*
G01*
X129164257Y-51106271D01*
X129310954Y-51204291D01*
X129435709Y-51329046D01*
X129533729Y-51475743D01*
X129601246Y-51638744D01*
X129635666Y-51811785D01*
X129635666Y-51988215D01*
X129601246Y-52161256D01*
X129533729Y-52324257D01*
X129435709Y-52470954D01*
X129310954Y-52595709D01*
X129164257Y-52693729D01*
X129001256Y-52761246D01*
X128828215Y-52795666D01*
X128651785Y-52795666D01*
X128478744Y-52761246D01*
X128315743Y-52693729D01*
X128169046Y-52595709D01*
X128044291Y-52470954D01*
X127946271Y-52324257D01*
X127878754Y-52161256D01*
X127844334Y-51988215D01*
X127844334Y-51811785D01*
X127878754Y-51638744D01*
X127946271Y-51475743D01*
X128044291Y-51329046D01*
X128169046Y-51204291D01*
X128315743Y-51106271D01*
X128478744Y-51038754D01*
X128651785Y-51004334D01*
X128828215Y-51004334D01*
X129001256Y-51038754D01*
G37*
G36*
X131541256Y-51038754D02*
G01*
X131704257Y-51106271D01*
X131850954Y-51204291D01*
X131975709Y-51329046D01*
X132073729Y-51475743D01*
X132141246Y-51638744D01*
X132175666Y-51811785D01*
X132175666Y-51988215D01*
X132141246Y-52161256D01*
X132073729Y-52324257D01*
X131975709Y-52470954D01*
X131850954Y-52595709D01*
X131704257Y-52693729D01*
X131541256Y-52761246D01*
X131368215Y-52795666D01*
X131191785Y-52795666D01*
X131018744Y-52761246D01*
X130855743Y-52693729D01*
X130709046Y-52595709D01*
X130584291Y-52470954D01*
X130486271Y-52324257D01*
X130418754Y-52161256D01*
X130384334Y-51988215D01*
X130384334Y-51811785D01*
X130418754Y-51638744D01*
X130486271Y-51475743D01*
X130584291Y-51329046D01*
X130709046Y-51204291D01*
X130855743Y-51106271D01*
X131018744Y-51038754D01*
X131191785Y-51004334D01*
X131368215Y-51004334D01*
X131541256Y-51038754D01*
G37*
M02*
